%TF.GenerationSoftware,KiCad,Pcbnew,(5.1.9)-1*%
%TF.CreationDate,2021-04-07T15:03:24-04:00*%
%TF.ProjectId,Finch-Feather,46696e63-682d-4466-9561-746865722e6b,rev?*%
%TF.SameCoordinates,Original*%
%TF.FileFunction,Copper,L4,Bot*%
%TF.FilePolarity,Positive*%
%FSLAX46Y46*%
G04 Gerber Fmt 4.6, Leading zero omitted, Abs format (unit mm)*
G04 Created by KiCad (PCBNEW (5.1.9)-1) date 2021-04-07 15:03:24*
%MOMM*%
%LPD*%
G01*
G04 APERTURE LIST*
%TA.AperFunction,ComponentPad*%
%ADD10C,1.620000*%
%TD*%
%TA.AperFunction,ComponentPad*%
%ADD11O,2.400000X1.200000*%
%TD*%
%TA.AperFunction,ComponentPad*%
%ADD12O,2.316000X1.158000*%
%TD*%
%TA.AperFunction,ViaPad*%
%ADD13C,0.635000*%
%TD*%
%TA.AperFunction,ViaPad*%
%ADD14C,0.800000*%
%TD*%
%TA.AperFunction,Conductor*%
%ADD15C,0.177800*%
%TD*%
%TA.AperFunction,Conductor*%
%ADD16C,0.127000*%
%TD*%
%TA.AperFunction,Conductor*%
%ADD17C,0.450000*%
%TD*%
%TA.AperFunction,Conductor*%
%ADD18C,0.152400*%
%TD*%
%TA.AperFunction,Conductor*%
%ADD19C,0.100000*%
%TD*%
G04 APERTURE END LIST*
D10*
%TO.P,T2,12*%
%TO.N,/PH0*%
X165000000Y-89840000D03*
%TO.P,T2,11*%
%TO.N,/PH1*%
X162460000Y-89840000D03*
%TO.P,T2,10*%
%TO.N,/PD14*%
X159920000Y-89840000D03*
%TO.P,T2,9*%
%TO.N,/PE1*%
X157380000Y-89840000D03*
%TO.P,T2,8*%
%TO.N,/PD13*%
X154840000Y-89840000D03*
%TO.P,T2,7*%
%TO.N,/PD12*%
X152300000Y-89840000D03*
%TO.P,T2,6*%
%TO.N,/PB7*%
X149760000Y-89840000D03*
%TO.P,T2,5*%
%TO.N,/PB5*%
X147220000Y-89840000D03*
%TO.P,T2,4*%
%TO.N,/PB4*%
X144680000Y-89840000D03*
%TO.P,T2,3*%
%TO.N,VBUS*%
X142140000Y-89840000D03*
%TO.P,T2,2*%
%TO.N,/ENABLE*%
X139600000Y-89840000D03*
%TO.P,T2,1*%
%TO.N,/VBAT*%
X137060000Y-89840000D03*
%TD*%
%TO.P,T4,16*%
%TO.N,/PE4*%
X165000000Y-110160000D03*
%TO.P,T4,15*%
%TO.N,/PB12*%
X162460000Y-110160000D03*
%TO.P,T4,14*%
%TO.N,/PC13*%
X159920000Y-110160000D03*
%TO.P,T4,13*%
%TO.N,/PB6*%
X157380000Y-110160000D03*
%TO.P,T4,12*%
%TO.N,/PB15*%
X154840000Y-110160000D03*
%TO.P,T4,11*%
%TO.N,/PB14*%
X152300000Y-110160000D03*
%TO.P,T4,10*%
%TO.N,/PC6*%
X149760000Y-110160000D03*
%TO.P,T4,9*%
%TO.N,/PB13*%
X147220000Y-110160000D03*
%TO.P,T4,8*%
%TO.N,/PD1*%
X144680000Y-110160000D03*
%TO.P,T4,7*%
%TO.N,/PC9*%
X142140000Y-110160000D03*
%TO.P,T4,6*%
%TO.N,/PD2*%
X139600000Y-110160000D03*
%TO.P,T4,5*%
%TO.N,/PD7*%
X137060000Y-110160000D03*
%TO.P,T4,4*%
%TO.N,GND*%
X134520000Y-110160000D03*
%TO.P,T4,3*%
%TO.N,Net-(T4-Pad3)*%
X131980000Y-110160000D03*
%TO.P,T4,2*%
%TO.N,+3V3*%
X129440000Y-110160000D03*
%TO.P,T4,1*%
%TO.N,/NRST*%
X126900000Y-110160000D03*
%TD*%
D11*
%TO.P,T3,S6*%
%TO.N,Net-(L1-Pad2)*%
X121300000Y-104320000D03*
%TO.P,T3,S5*%
X121300000Y-95680000D03*
D12*
%TO.P,T3,S4*%
X125125000Y-104320000D03*
%TO.P,T3,S3*%
X125125000Y-95680000D03*
%TD*%
D13*
%TO.N,GND*%
X133250000Y-109250000D03*
X135750000Y-109250000D03*
%TO.N,/NRST*%
X162800000Y-94200000D03*
%TO.N,GND*%
X170500000Y-108450000D03*
X168500000Y-108450000D03*
X166500000Y-108450000D03*
X178500000Y-108400000D03*
X176500000Y-108400000D03*
X174500000Y-108450000D03*
X172500000Y-108450000D03*
X173500000Y-107450000D03*
X175500000Y-107450000D03*
X177500000Y-107450000D03*
X179500000Y-107450000D03*
X178500000Y-106450000D03*
X176500000Y-106450000D03*
X174500000Y-106450000D03*
X175500000Y-105450000D03*
X176500000Y-104450000D03*
X177500000Y-105450000D03*
X178500000Y-104450000D03*
X179500000Y-105450000D03*
X151000000Y-109250000D03*
X153550000Y-109250000D03*
X156100000Y-109250000D03*
X145950000Y-109250000D03*
X143400000Y-109200000D03*
X138300000Y-109200000D03*
X148500000Y-109300000D03*
X134200000Y-97400000D03*
X128400000Y-96800000D03*
X127000000Y-93400000D03*
X128400000Y-95400000D03*
X130400000Y-91000000D03*
X150200000Y-99000000D03*
X147200000Y-96200000D03*
X141680000Y-95200000D03*
X141400000Y-99200000D03*
X130400000Y-104500000D03*
X131200000Y-103800000D03*
X127000000Y-99750000D03*
X173950000Y-100450000D03*
X169200000Y-90200000D03*
X168225000Y-103306410D03*
X123800000Y-101800000D03*
X123400000Y-97600000D03*
X145600000Y-100393590D03*
X169800000Y-97600000D03*
X175600000Y-98650000D03*
X169400000Y-93400000D03*
X168213100Y-93386900D03*
X165828797Y-104228797D03*
X153882964Y-99083000D03*
X131200000Y-105200000D03*
X172083006Y-91117054D03*
X140900000Y-109200000D03*
X167500000Y-109450000D03*
X171500000Y-109450000D03*
X169500000Y-109450000D03*
X168500000Y-110450000D03*
X170500000Y-110450000D03*
X173500000Y-109450000D03*
X172500000Y-110450000D03*
X174500000Y-110450000D03*
X166500000Y-110450000D03*
X175500000Y-109450000D03*
X176500000Y-110450000D03*
X177500000Y-109450000D03*
X178500000Y-110450000D03*
X179500000Y-109450000D03*
X175500000Y-102000000D03*
X154650000Y-101400000D03*
X158750000Y-97599982D03*
X164750000Y-101408010D03*
X140749994Y-102750000D03*
X177474994Y-103175000D03*
X173750000Y-93250000D03*
X175000000Y-93500000D03*
X174425000Y-96000000D03*
X120500000Y-93750000D03*
X120750000Y-106250000D03*
X124000000Y-89500000D03*
X124750000Y-110500000D03*
X158750000Y-109250000D03*
X161250000Y-109250000D03*
X163750000Y-109250000D03*
%TO.N,+3V3*%
X170825000Y-93400000D03*
X167200000Y-103400000D03*
X175800000Y-95483000D03*
X153800071Y-98049999D03*
X154650000Y-102670000D03*
X164669914Y-102670000D03*
X164900000Y-97216590D03*
X164750014Y-99393032D03*
X172750002Y-94750000D03*
%TO.N,/JTAG_JTDI*%
X167000000Y-101500000D03*
X165733683Y-99393032D03*
%TO.N,/JTAG_SWDIO*%
X158750000Y-102670000D03*
X163999990Y-100258010D03*
%TO.N,/JTAG_JTDO*%
X162750000Y-100000000D03*
X173750000Y-102200000D03*
%TO.N,/PE4*%
X174600000Y-105000000D03*
%TO.N,/PB14*%
X171300000Y-104400000D03*
%TO.N,/PB15*%
X171900000Y-104900000D03*
%TO.N,/PB6*%
X172600000Y-104400000D03*
%TO.N,/PC13*%
X173300000Y-104900000D03*
%TO.N,/PB12*%
X173900000Y-104400000D03*
%TO.N,/PD1*%
X169300000Y-104866590D03*
%TO.N,/PB13*%
X170000000Y-104400000D03*
%TO.N,/PC6*%
X170600000Y-104900000D03*
%TO.N,/PD12*%
X169600000Y-98650000D03*
%TO.N,/PD13*%
X171250000Y-97800000D03*
%TO.N,/PE1*%
X172150000Y-97800000D03*
%TO.N,/PD14*%
X173050000Y-97800000D03*
%TO.N,/PH1*%
X173950000Y-97800000D03*
%TO.N,/PH0*%
X174850000Y-97800000D03*
%TO.N,VCC*%
X140450000Y-101600000D03*
X144200000Y-100600000D03*
X137800000Y-101400000D03*
X132800000Y-102400000D03*
X145600000Y-97000000D03*
%TO.N,VBUS*%
X133000000Y-99750000D03*
D14*
X127150000Y-97650000D03*
X127150000Y-102350000D03*
D13*
X130200000Y-99750000D03*
%TO.N,/ENABLE*%
X147200000Y-101600000D03*
%TO.N,/PD7*%
X169600000Y-99550000D03*
%TO.N,/PC9*%
X169600000Y-101350000D03*
%TO.N,/PD2*%
X169600000Y-100450000D03*
%TD*%
D15*
%TO.N,/NRST*%
X162800000Y-94200000D02*
X162800000Y-94200000D01*
X162800000Y-96450000D02*
X162800000Y-94200000D01*
X155250000Y-104000000D02*
X162800000Y-96450000D01*
X135250000Y-104000000D02*
X155250000Y-104000000D01*
X132750000Y-106500000D02*
X135250000Y-104000000D01*
X128500000Y-106500000D02*
X132750000Y-106500000D01*
X126900000Y-108100000D02*
X128500000Y-106500000D01*
X126900000Y-110160000D02*
X126900000Y-108100000D01*
D16*
%TO.N,/JTAG_JTDI*%
X165733683Y-100233683D02*
X165733683Y-99393032D01*
X167000000Y-101500000D02*
X165733683Y-100233683D01*
%TO.N,/JTAG_SWDIO*%
X163750000Y-100500000D02*
X163750000Y-100500000D01*
X158750000Y-102670000D02*
X161580000Y-102670000D01*
X161580000Y-102670000D02*
X163991990Y-100258010D01*
X163991990Y-100258010D02*
X163999990Y-100258010D01*
%TO.N,/JTAG_JTDO*%
X166700000Y-102200000D02*
X173750000Y-102200000D01*
X164250000Y-99750000D02*
X166700000Y-102200000D01*
X163000000Y-99750000D02*
X164250000Y-99750000D01*
X162750000Y-100000000D02*
X163000000Y-99750000D01*
D15*
%TO.N,/PE4*%
X165040000Y-110160000D02*
X165050000Y-110150000D01*
X165000000Y-108200000D02*
X165000000Y-110160000D01*
X174600000Y-105000000D02*
X171911512Y-107688488D01*
X171911512Y-107688488D02*
X165511512Y-107688488D01*
X165511512Y-107688488D02*
X165000000Y-108200000D01*
%TO.N,/PB14*%
X171300000Y-104400000D02*
X171300000Y-105131067D01*
X170266634Y-106164433D02*
X154935567Y-106164433D01*
X152300000Y-108800000D02*
X152300000Y-110160000D01*
X154935567Y-106164433D02*
X152300000Y-108800000D01*
X171300000Y-105131067D02*
X170266634Y-106164433D01*
%TO.N,/PB15*%
X170392890Y-106469244D02*
X171900000Y-104962134D01*
X154840000Y-110160000D02*
X154840000Y-108610000D01*
X154840000Y-108610000D02*
X156980756Y-106469244D01*
X156980756Y-106469244D02*
X170392890Y-106469244D01*
X171900000Y-104962134D02*
X171900000Y-104900000D01*
%TO.N,/PB6*%
X172600000Y-105000000D02*
X172600000Y-104400000D01*
X170825945Y-106774055D02*
X172600000Y-105000000D01*
X159225945Y-106774055D02*
X170825945Y-106774055D01*
X157380000Y-108620000D02*
X159225945Y-106774055D01*
X157380000Y-110160000D02*
X157380000Y-108620000D01*
%TO.N,/PC13*%
X159920000Y-108580000D02*
X159920000Y-110160000D01*
X161421134Y-107078866D02*
X159920000Y-108580000D01*
X171121134Y-107078866D02*
X161421134Y-107078866D01*
X173300000Y-104900000D02*
X171121134Y-107078866D01*
%TO.N,/PB12*%
X162460000Y-108540000D02*
X162460000Y-110160000D01*
X163616323Y-107383677D02*
X162460000Y-108540000D01*
X171785257Y-107383677D02*
X163616323Y-107383677D01*
X173900000Y-105268934D02*
X171785257Y-107383677D01*
X173900000Y-104400000D02*
X173900000Y-105268934D01*
%TO.N,/PD1*%
X144680000Y-108820000D02*
X144680000Y-110160000D01*
X148250000Y-105250000D02*
X144680000Y-108820000D01*
X169300000Y-104866590D02*
X168916590Y-105250000D01*
X168916590Y-105250000D02*
X148250000Y-105250000D01*
D16*
%TO.N,/PB13*%
X147250000Y-110130000D02*
X147220000Y-110160000D01*
D15*
X150445189Y-105554811D02*
X147250000Y-108750000D01*
X170000000Y-104400000D02*
X170000000Y-105000000D01*
X147250000Y-108750000D02*
X147250000Y-110130000D01*
X170000000Y-105000000D02*
X169445189Y-105554811D01*
X169445189Y-105554811D02*
X150445189Y-105554811D01*
D16*
%TO.N,/PC6*%
X149750000Y-110150000D02*
X149760000Y-110160000D01*
D15*
X149750000Y-108800000D02*
X152690378Y-105859622D01*
X152690378Y-105859622D02*
X169640378Y-105859622D01*
X169640378Y-105859622D02*
X170600000Y-104900000D01*
X149750000Y-110150000D02*
X149750000Y-108800000D01*
%TO.N,/PD12*%
X154060000Y-91600000D02*
X152300000Y-89840000D01*
X158000000Y-91600000D02*
X154060000Y-91600000D01*
X158800000Y-92400000D02*
X158000000Y-91600000D01*
X162882785Y-92400000D02*
X158800000Y-92400000D01*
X169132785Y-98650000D02*
X162882785Y-92400000D01*
X169600000Y-98650000D02*
X169132785Y-98650000D01*
%TO.N,/PD13*%
X156200000Y-91200000D02*
X154840000Y-89840000D01*
X158134304Y-91200000D02*
X156200000Y-91200000D01*
X158934304Y-92000000D02*
X158134304Y-91200000D01*
X163017089Y-92000000D02*
X158934304Y-92000000D01*
X167728333Y-96711244D02*
X163017089Y-92000000D01*
X170161244Y-96711244D02*
X167728333Y-96711244D01*
X171250000Y-97800000D02*
X170161244Y-96711244D01*
%TO.N,/PE1*%
X159140000Y-91600000D02*
X157380000Y-89840000D01*
X163151390Y-91600000D02*
X159140000Y-91600000D01*
X167884823Y-96333433D02*
X163151390Y-91600000D01*
X170683433Y-96333433D02*
X167884823Y-96333433D01*
X172150000Y-97800000D02*
X170683433Y-96333433D01*
%TO.N,/PD14*%
X161280000Y-91200000D02*
X159920000Y-89840000D01*
X163285695Y-91200000D02*
X161280000Y-91200000D01*
X168041317Y-95955622D02*
X163285695Y-91200000D01*
X171205622Y-95955622D02*
X168041317Y-95955622D01*
X173050000Y-97800000D02*
X171205622Y-95955622D01*
%TO.N,/PH1*%
X168197811Y-95577811D02*
X164420000Y-91800000D01*
X171727811Y-95577811D02*
X168197811Y-95577811D01*
X164420000Y-91800000D02*
X162460000Y-89840000D01*
X173950000Y-97800000D02*
X171727811Y-95577811D01*
%TO.N,/PH0*%
X165000000Y-91750000D02*
X165000000Y-89840000D01*
X168450000Y-95200000D02*
X165000000Y-91750000D01*
X172160566Y-95200000D02*
X168450000Y-95200000D01*
X174760566Y-97800000D02*
X172160566Y-95200000D01*
X174850000Y-97800000D02*
X174760566Y-97800000D01*
D17*
%TO.N,VBUS*%
X127150000Y-102350000D02*
X126200000Y-101400000D01*
X126200000Y-101400000D02*
X126200000Y-98600000D01*
X126200000Y-98600000D02*
X127150000Y-97650000D01*
X130200000Y-98800000D02*
X130200000Y-99750000D01*
X129050000Y-97650000D02*
X130200000Y-98800000D01*
X127150000Y-97650000D02*
X129050000Y-97650000D01*
X130200000Y-99750000D02*
X133000000Y-99750000D01*
D15*
%TO.N,/ENABLE*%
X147200000Y-101600000D02*
X147200000Y-100200000D01*
X147200000Y-100200000D02*
X148600000Y-98800000D01*
X148600000Y-98800000D02*
X148600000Y-95000000D01*
X148600000Y-95000000D02*
X145600000Y-92000000D01*
X141760000Y-92000000D02*
X139600000Y-89840000D01*
X145600000Y-92000000D02*
X141760000Y-92000000D01*
%TO.N,/PD7*%
X137060000Y-108190000D02*
X137060000Y-110160000D01*
X140945189Y-104304811D02*
X137060000Y-108190000D01*
X161790688Y-97890378D02*
X155376256Y-104304811D01*
X167940378Y-97890378D02*
X161790688Y-97890378D01*
X169600000Y-99550000D02*
X167940378Y-97890378D01*
X155376256Y-104304811D02*
X140945189Y-104304811D01*
%TO.N,/PC9*%
X142140000Y-108110000D02*
X142140000Y-110160000D01*
X145335567Y-104914433D02*
X142140000Y-108110000D01*
X166750000Y-98500000D02*
X162043200Y-98500000D01*
X155628768Y-104914433D02*
X145335567Y-104914433D01*
X162043200Y-98500000D02*
X155628768Y-104914433D01*
X169600000Y-101350000D02*
X166750000Y-98500000D01*
%TO.N,/PD2*%
X155502512Y-104609622D02*
X142140378Y-104609622D01*
X139600000Y-107150000D02*
X139600000Y-110160000D01*
X169600000Y-100450000D02*
X167345189Y-98195189D01*
X142140378Y-104609622D02*
X139600000Y-107150000D01*
X161916944Y-98195189D02*
X155502512Y-104609622D01*
X167345189Y-98195189D02*
X161916944Y-98195189D01*
%TD*%
D18*
%TO.N,GND*%
X138714349Y-89113165D02*
X138589568Y-89299913D01*
X138503617Y-89507416D01*
X138459800Y-89727700D01*
X138459800Y-89952300D01*
X138503617Y-90172584D01*
X138589568Y-90380087D01*
X138714349Y-90566835D01*
X138873165Y-90725651D01*
X139059913Y-90850432D01*
X139267416Y-90936383D01*
X139487700Y-90980200D01*
X139712300Y-90980200D01*
X139932584Y-90936383D01*
X140053572Y-90886268D01*
X141449097Y-92281794D01*
X141462218Y-92297782D01*
X141526034Y-92350154D01*
X141598842Y-92389071D01*
X141677842Y-92413035D01*
X141759999Y-92421127D01*
X141780579Y-92419100D01*
X145426404Y-92419100D01*
X148180901Y-95173597D01*
X148180900Y-98626403D01*
X146918206Y-99889098D01*
X146902219Y-99902218D01*
X146889100Y-99918204D01*
X146849846Y-99966035D01*
X146810930Y-100038842D01*
X146786965Y-100117843D01*
X146778873Y-100200000D01*
X146780901Y-100220590D01*
X146780900Y-101103114D01*
X146696899Y-101187115D01*
X146626016Y-101293199D01*
X146577191Y-101411073D01*
X146552300Y-101536207D01*
X146552300Y-101663793D01*
X146577191Y-101788927D01*
X146626016Y-101906801D01*
X146696899Y-102012885D01*
X146787115Y-102103101D01*
X146893199Y-102173984D01*
X147011073Y-102222809D01*
X147136207Y-102247700D01*
X147263793Y-102247700D01*
X147388927Y-102222809D01*
X147506801Y-102173984D01*
X147612885Y-102103101D01*
X147703101Y-102012885D01*
X147773984Y-101906801D01*
X147822809Y-101788927D01*
X147847700Y-101663793D01*
X147847700Y-101536207D01*
X147822809Y-101411073D01*
X147773984Y-101293199D01*
X147703101Y-101187115D01*
X147619100Y-101103114D01*
X147619100Y-100373596D01*
X148881796Y-99110901D01*
X148897782Y-99097782D01*
X148950154Y-99033966D01*
X148989071Y-98961158D01*
X149013035Y-98882158D01*
X149019100Y-98820580D01*
X149019100Y-98820579D01*
X149021127Y-98800000D01*
X149019100Y-98779420D01*
X149019100Y-97986206D01*
X153152371Y-97986206D01*
X153152371Y-98113792D01*
X153177262Y-98238926D01*
X153226087Y-98356800D01*
X153296970Y-98462884D01*
X153387186Y-98553100D01*
X153493270Y-98623983D01*
X153611144Y-98672808D01*
X153736278Y-98697699D01*
X153863864Y-98697699D01*
X153988998Y-98672808D01*
X154106872Y-98623983D01*
X154212956Y-98553100D01*
X154303172Y-98462884D01*
X154374055Y-98356800D01*
X154422880Y-98238926D01*
X154447771Y-98113792D01*
X154447771Y-97986206D01*
X154422880Y-97861072D01*
X154374055Y-97743198D01*
X154303172Y-97637114D01*
X154212956Y-97546898D01*
X154106872Y-97476015D01*
X153988998Y-97427190D01*
X153863864Y-97402299D01*
X153736278Y-97402299D01*
X153611144Y-97427190D01*
X153493270Y-97476015D01*
X153387186Y-97546898D01*
X153296970Y-97637114D01*
X153226087Y-97743198D01*
X153177262Y-97861072D01*
X153152371Y-97986206D01*
X149019100Y-97986206D01*
X149019100Y-95020580D01*
X149021127Y-95000000D01*
X149013035Y-94917842D01*
X149008296Y-94902219D01*
X148989071Y-94838842D01*
X148950154Y-94766034D01*
X148897782Y-94702218D01*
X148881789Y-94689093D01*
X145910907Y-91718211D01*
X145897782Y-91702218D01*
X145833966Y-91649846D01*
X145761158Y-91610929D01*
X145682158Y-91586965D01*
X145620580Y-91580900D01*
X145600000Y-91578873D01*
X145579420Y-91580900D01*
X141933597Y-91580900D01*
X140646268Y-90293572D01*
X140696383Y-90172584D01*
X140740200Y-89952300D01*
X140740200Y-89727700D01*
X140696383Y-89507416D01*
X140610432Y-89299913D01*
X140485651Y-89113165D01*
X140372685Y-89000199D01*
X141367315Y-89000199D01*
X141254349Y-89113165D01*
X141129568Y-89299913D01*
X141043617Y-89507416D01*
X140999800Y-89727700D01*
X140999800Y-89952300D01*
X141043617Y-90172584D01*
X141129568Y-90380087D01*
X141254349Y-90566835D01*
X141413165Y-90725651D01*
X141599913Y-90850432D01*
X141807416Y-90936383D01*
X142027700Y-90980200D01*
X142252300Y-90980200D01*
X142472584Y-90936383D01*
X142680087Y-90850432D01*
X142866835Y-90725651D01*
X143025651Y-90566835D01*
X143150432Y-90380087D01*
X143236383Y-90172584D01*
X143280200Y-89952300D01*
X143280200Y-89727700D01*
X143236383Y-89507416D01*
X143150432Y-89299913D01*
X143025651Y-89113165D01*
X142912685Y-89000199D01*
X143907315Y-89000199D01*
X143794349Y-89113165D01*
X143669568Y-89299913D01*
X143583617Y-89507416D01*
X143539800Y-89727700D01*
X143539800Y-89952300D01*
X143583617Y-90172584D01*
X143669568Y-90380087D01*
X143794349Y-90566835D01*
X143953165Y-90725651D01*
X144139913Y-90850432D01*
X144347416Y-90936383D01*
X144567700Y-90980200D01*
X144792300Y-90980200D01*
X145012584Y-90936383D01*
X145220087Y-90850432D01*
X145406835Y-90725651D01*
X145565651Y-90566835D01*
X145690432Y-90380087D01*
X145776383Y-90172584D01*
X145820200Y-89952300D01*
X145820200Y-89727700D01*
X145776383Y-89507416D01*
X145690432Y-89299913D01*
X145565651Y-89113165D01*
X145452685Y-89000199D01*
X146447315Y-89000199D01*
X146334349Y-89113165D01*
X146209568Y-89299913D01*
X146123617Y-89507416D01*
X146079800Y-89727700D01*
X146079800Y-89952300D01*
X146123617Y-90172584D01*
X146209568Y-90380087D01*
X146334349Y-90566835D01*
X146493165Y-90725651D01*
X146679913Y-90850432D01*
X146887416Y-90936383D01*
X147107700Y-90980200D01*
X147332300Y-90980200D01*
X147552584Y-90936383D01*
X147760087Y-90850432D01*
X147946835Y-90725651D01*
X148105651Y-90566835D01*
X148230432Y-90380087D01*
X148316383Y-90172584D01*
X148360200Y-89952300D01*
X148360200Y-89727700D01*
X148316383Y-89507416D01*
X148230432Y-89299913D01*
X148105651Y-89113165D01*
X147992685Y-89000199D01*
X148987315Y-89000199D01*
X148874349Y-89113165D01*
X148749568Y-89299913D01*
X148663617Y-89507416D01*
X148619800Y-89727700D01*
X148619800Y-89952300D01*
X148663617Y-90172584D01*
X148749568Y-90380087D01*
X148874349Y-90566835D01*
X149033165Y-90725651D01*
X149219913Y-90850432D01*
X149427416Y-90936383D01*
X149647700Y-90980200D01*
X149872300Y-90980200D01*
X150092584Y-90936383D01*
X150300087Y-90850432D01*
X150486835Y-90725651D01*
X150645651Y-90566835D01*
X150770432Y-90380087D01*
X150856383Y-90172584D01*
X150900200Y-89952300D01*
X150900200Y-89727700D01*
X150856383Y-89507416D01*
X150770432Y-89299913D01*
X150645651Y-89113165D01*
X150532685Y-89000199D01*
X151527315Y-89000199D01*
X151414349Y-89113165D01*
X151289568Y-89299913D01*
X151203617Y-89507416D01*
X151159800Y-89727700D01*
X151159800Y-89952300D01*
X151203617Y-90172584D01*
X151289568Y-90380087D01*
X151414349Y-90566835D01*
X151573165Y-90725651D01*
X151759913Y-90850432D01*
X151967416Y-90936383D01*
X152187700Y-90980200D01*
X152412300Y-90980200D01*
X152632584Y-90936383D01*
X152753572Y-90886268D01*
X153749097Y-91881794D01*
X153762218Y-91897782D01*
X153826034Y-91950154D01*
X153898842Y-91989071D01*
X153970903Y-92010930D01*
X153977842Y-92013035D01*
X154060000Y-92021127D01*
X154080580Y-92019100D01*
X157826404Y-92019100D01*
X158489097Y-92681794D01*
X158502218Y-92697782D01*
X158566034Y-92750154D01*
X158638842Y-92789071D01*
X158717842Y-92813035D01*
X158800000Y-92821127D01*
X158820580Y-92819100D01*
X162709189Y-92819100D01*
X167361366Y-97471278D01*
X165495570Y-97471278D01*
X165522809Y-97405517D01*
X165547700Y-97280383D01*
X165547700Y-97152797D01*
X165522809Y-97027663D01*
X165473984Y-96909789D01*
X165403101Y-96803705D01*
X165312885Y-96713489D01*
X165206801Y-96642606D01*
X165088927Y-96593781D01*
X164963793Y-96568890D01*
X164836207Y-96568890D01*
X164711073Y-96593781D01*
X164593199Y-96642606D01*
X164487115Y-96713489D01*
X164396899Y-96803705D01*
X164326016Y-96909789D01*
X164277191Y-97027663D01*
X164252300Y-97152797D01*
X164252300Y-97280383D01*
X164277191Y-97405517D01*
X164304430Y-97471278D01*
X162371419Y-97471278D01*
X163081796Y-96760901D01*
X163097782Y-96747782D01*
X163150154Y-96683966D01*
X163189071Y-96611158D01*
X163213035Y-96532158D01*
X163219100Y-96470580D01*
X163219100Y-96470578D01*
X163221127Y-96450001D01*
X163219100Y-96429423D01*
X163219100Y-94696886D01*
X163303101Y-94612885D01*
X163373984Y-94506801D01*
X163422809Y-94388927D01*
X163447700Y-94263793D01*
X163447700Y-94136207D01*
X163422809Y-94011073D01*
X163373984Y-93893199D01*
X163303101Y-93787115D01*
X163212885Y-93696899D01*
X163106801Y-93626016D01*
X162988927Y-93577191D01*
X162863793Y-93552300D01*
X162736207Y-93552300D01*
X162611073Y-93577191D01*
X162493199Y-93626016D01*
X162387115Y-93696899D01*
X162296899Y-93787115D01*
X162226016Y-93893199D01*
X162177191Y-94011073D01*
X162152300Y-94136207D01*
X162152300Y-94263793D01*
X162177191Y-94388927D01*
X162226016Y-94506801D01*
X162296899Y-94612885D01*
X162380901Y-94696887D01*
X162380900Y-96276403D01*
X155076404Y-103580900D01*
X135270580Y-103580900D01*
X135250000Y-103578873D01*
X135229420Y-103580900D01*
X135167842Y-103586965D01*
X135088842Y-103610929D01*
X135016034Y-103649846D01*
X134952218Y-103702218D01*
X134939099Y-103718204D01*
X132576404Y-106080900D01*
X128520580Y-106080900D01*
X128500000Y-106078873D01*
X128479420Y-106080900D01*
X128417842Y-106086965D01*
X128338842Y-106110929D01*
X128266034Y-106149846D01*
X128202218Y-106202218D01*
X128189093Y-106218211D01*
X126618206Y-107789098D01*
X126602219Y-107802218D01*
X126589100Y-107818204D01*
X126549846Y-107866035D01*
X126510930Y-107938842D01*
X126486965Y-108017843D01*
X126478873Y-108100000D01*
X126480901Y-108120590D01*
X126480901Y-109099453D01*
X126359913Y-109149568D01*
X126173165Y-109274349D01*
X126014349Y-109433165D01*
X125889568Y-109619913D01*
X125803617Y-109827416D01*
X125759800Y-110047700D01*
X125759800Y-110272300D01*
X125803617Y-110492584D01*
X125889568Y-110700087D01*
X126014349Y-110886835D01*
X126127314Y-110999800D01*
X123041032Y-110999800D01*
X122424140Y-110939313D01*
X121850976Y-110766265D01*
X121322339Y-110485183D01*
X120858369Y-110106778D01*
X120476731Y-109645458D01*
X120191966Y-109118796D01*
X120014920Y-108546853D01*
X119950205Y-107931140D01*
X119950200Y-107929653D01*
X119950200Y-104872648D01*
X120039067Y-104980933D01*
X120180709Y-105097175D01*
X120342306Y-105183550D01*
X120517649Y-105236740D01*
X120654311Y-105250200D01*
X121945689Y-105250200D01*
X122082351Y-105236740D01*
X122257694Y-105183550D01*
X122419291Y-105097175D01*
X122560933Y-104980933D01*
X122677175Y-104839291D01*
X122763550Y-104677694D01*
X122816740Y-104502351D01*
X122834700Y-104320000D01*
X123632401Y-104320000D01*
X123649956Y-104498234D01*
X123701945Y-104669619D01*
X123786370Y-104827568D01*
X123899988Y-104966012D01*
X124038432Y-105079630D01*
X124196381Y-105164055D01*
X124367766Y-105216044D01*
X124501337Y-105229200D01*
X125748663Y-105229200D01*
X125882234Y-105216044D01*
X126053619Y-105164055D01*
X126211568Y-105079630D01*
X126350012Y-104966012D01*
X126463630Y-104827568D01*
X126548055Y-104669619D01*
X126600044Y-104498234D01*
X126617599Y-104320000D01*
X126600044Y-104141766D01*
X126548055Y-103970381D01*
X126463630Y-103812432D01*
X126350012Y-103673988D01*
X126211568Y-103560370D01*
X126053619Y-103475945D01*
X125882234Y-103423956D01*
X125748663Y-103410800D01*
X124901488Y-103410800D01*
X124971769Y-103305617D01*
X125020405Y-103188198D01*
X125045200Y-103063547D01*
X125045200Y-102936453D01*
X125020405Y-102811802D01*
X124971769Y-102694383D01*
X124901160Y-102588709D01*
X124811291Y-102498840D01*
X124705617Y-102428231D01*
X124588198Y-102379595D01*
X124463547Y-102354800D01*
X124336453Y-102354800D01*
X124211802Y-102379595D01*
X124094383Y-102428231D01*
X123988709Y-102498840D01*
X123898840Y-102588709D01*
X123828231Y-102694383D01*
X123779595Y-102811802D01*
X123754800Y-102936453D01*
X123754800Y-103063547D01*
X123779595Y-103188198D01*
X123828231Y-103305617D01*
X123898840Y-103411291D01*
X123988709Y-103501160D01*
X124060039Y-103548821D01*
X124038432Y-103560370D01*
X123899988Y-103673988D01*
X123786370Y-103812432D01*
X123701945Y-103970381D01*
X123649956Y-104141766D01*
X123632401Y-104320000D01*
X122834700Y-104320000D01*
X122816740Y-104137649D01*
X122763550Y-103962306D01*
X122677175Y-103800709D01*
X122560933Y-103659067D01*
X122419291Y-103542825D01*
X122257694Y-103456450D01*
X122082351Y-103403260D01*
X121945689Y-103389800D01*
X120654311Y-103389800D01*
X120517649Y-103403260D01*
X120342306Y-103456450D01*
X120180709Y-103542825D01*
X120039067Y-103659067D01*
X119950200Y-103767352D01*
X119950200Y-98600000D01*
X125642114Y-98600000D01*
X125644801Y-98627280D01*
X125644800Y-101372730D01*
X125642114Y-101400000D01*
X125644800Y-101427269D01*
X125652834Y-101508837D01*
X125684581Y-101613493D01*
X125736135Y-101709945D01*
X125805515Y-101794485D01*
X125826706Y-101811876D01*
X126419800Y-102404971D01*
X126419800Y-102421918D01*
X126447861Y-102562991D01*
X126502905Y-102695879D01*
X126582817Y-102815475D01*
X126684525Y-102917183D01*
X126804121Y-102997095D01*
X126937009Y-103052139D01*
X127078082Y-103080200D01*
X127221918Y-103080200D01*
X127362991Y-103052139D01*
X127495879Y-102997095D01*
X127615475Y-102917183D01*
X127717183Y-102815475D01*
X127797095Y-102695879D01*
X127852139Y-102562991D01*
X127880200Y-102421918D01*
X127880200Y-102336207D01*
X132152300Y-102336207D01*
X132152300Y-102463793D01*
X132177191Y-102588927D01*
X132226016Y-102706801D01*
X132296899Y-102812885D01*
X132387115Y-102903101D01*
X132493199Y-102973984D01*
X132611073Y-103022809D01*
X132736207Y-103047700D01*
X132863793Y-103047700D01*
X132988927Y-103022809D01*
X133106801Y-102973984D01*
X133212885Y-102903101D01*
X133303101Y-102812885D01*
X133373984Y-102706801D01*
X133415651Y-102606207D01*
X154002300Y-102606207D01*
X154002300Y-102733793D01*
X154027191Y-102858927D01*
X154076016Y-102976801D01*
X154146899Y-103082885D01*
X154237115Y-103173101D01*
X154343199Y-103243984D01*
X154461073Y-103292809D01*
X154586207Y-103317700D01*
X154713793Y-103317700D01*
X154838927Y-103292809D01*
X154956801Y-103243984D01*
X155062885Y-103173101D01*
X155153101Y-103082885D01*
X155223984Y-102976801D01*
X155272809Y-102858927D01*
X155297700Y-102733793D01*
X155297700Y-102606207D01*
X155272809Y-102481073D01*
X155223984Y-102363199D01*
X155153101Y-102257115D01*
X155062885Y-102166899D01*
X154956801Y-102096016D01*
X154838927Y-102047191D01*
X154713793Y-102022300D01*
X154586207Y-102022300D01*
X154461073Y-102047191D01*
X154343199Y-102096016D01*
X154237115Y-102166899D01*
X154146899Y-102257115D01*
X154076016Y-102363199D01*
X154027191Y-102481073D01*
X154002300Y-102606207D01*
X133415651Y-102606207D01*
X133422809Y-102588927D01*
X133447700Y-102463793D01*
X133447700Y-102336207D01*
X133422809Y-102211073D01*
X133373984Y-102093199D01*
X133303101Y-101987115D01*
X133212885Y-101896899D01*
X133106801Y-101826016D01*
X132988927Y-101777191D01*
X132863793Y-101752300D01*
X132736207Y-101752300D01*
X132611073Y-101777191D01*
X132493199Y-101826016D01*
X132387115Y-101896899D01*
X132296899Y-101987115D01*
X132226016Y-102093199D01*
X132177191Y-102211073D01*
X132152300Y-102336207D01*
X127880200Y-102336207D01*
X127880200Y-102278082D01*
X127852139Y-102137009D01*
X127797095Y-102004121D01*
X127717183Y-101884525D01*
X127615475Y-101782817D01*
X127495879Y-101702905D01*
X127362991Y-101647861D01*
X127221918Y-101619800D01*
X127204971Y-101619800D01*
X126921378Y-101336207D01*
X137152300Y-101336207D01*
X137152300Y-101463793D01*
X137177191Y-101588927D01*
X137226016Y-101706801D01*
X137296899Y-101812885D01*
X137387115Y-101903101D01*
X137493199Y-101973984D01*
X137611073Y-102022809D01*
X137736207Y-102047700D01*
X137863793Y-102047700D01*
X137988927Y-102022809D01*
X138106801Y-101973984D01*
X138212885Y-101903101D01*
X138303101Y-101812885D01*
X138373984Y-101706801D01*
X138422809Y-101588927D01*
X138433295Y-101536207D01*
X139802300Y-101536207D01*
X139802300Y-101663793D01*
X139827191Y-101788927D01*
X139876016Y-101906801D01*
X139946899Y-102012885D01*
X140037115Y-102103101D01*
X140143199Y-102173984D01*
X140261073Y-102222809D01*
X140386207Y-102247700D01*
X140513793Y-102247700D01*
X140638927Y-102222809D01*
X140756801Y-102173984D01*
X140862885Y-102103101D01*
X140953101Y-102012885D01*
X141023984Y-101906801D01*
X141072809Y-101788927D01*
X141097700Y-101663793D01*
X141097700Y-101536207D01*
X141072809Y-101411073D01*
X141023984Y-101293199D01*
X140953101Y-101187115D01*
X140862885Y-101096899D01*
X140756801Y-101026016D01*
X140638927Y-100977191D01*
X140513793Y-100952300D01*
X140386207Y-100952300D01*
X140261073Y-100977191D01*
X140143199Y-101026016D01*
X140037115Y-101096899D01*
X139946899Y-101187115D01*
X139876016Y-101293199D01*
X139827191Y-101411073D01*
X139802300Y-101536207D01*
X138433295Y-101536207D01*
X138447700Y-101463793D01*
X138447700Y-101336207D01*
X138422809Y-101211073D01*
X138373984Y-101093199D01*
X138303101Y-100987115D01*
X138212885Y-100896899D01*
X138106801Y-100826016D01*
X137988927Y-100777191D01*
X137863793Y-100752300D01*
X137736207Y-100752300D01*
X137611073Y-100777191D01*
X137493199Y-100826016D01*
X137387115Y-100896899D01*
X137296899Y-100987115D01*
X137226016Y-101093199D01*
X137177191Y-101211073D01*
X137152300Y-101336207D01*
X126921378Y-101336207D01*
X126755200Y-101170030D01*
X126755200Y-100536207D01*
X143552300Y-100536207D01*
X143552300Y-100663793D01*
X143577191Y-100788927D01*
X143626016Y-100906801D01*
X143696899Y-101012885D01*
X143787115Y-101103101D01*
X143893199Y-101173984D01*
X144011073Y-101222809D01*
X144136207Y-101247700D01*
X144263793Y-101247700D01*
X144388927Y-101222809D01*
X144506801Y-101173984D01*
X144612885Y-101103101D01*
X144703101Y-101012885D01*
X144773984Y-100906801D01*
X144822809Y-100788927D01*
X144847700Y-100663793D01*
X144847700Y-100536207D01*
X144822809Y-100411073D01*
X144773984Y-100293199D01*
X144703101Y-100187115D01*
X144612885Y-100096899D01*
X144506801Y-100026016D01*
X144388927Y-99977191D01*
X144263793Y-99952300D01*
X144136207Y-99952300D01*
X144011073Y-99977191D01*
X143893199Y-100026016D01*
X143787115Y-100096899D01*
X143696899Y-100187115D01*
X143626016Y-100293199D01*
X143577191Y-100411073D01*
X143552300Y-100536207D01*
X126755200Y-100536207D01*
X126755200Y-98829970D01*
X127204971Y-98380200D01*
X127221918Y-98380200D01*
X127362991Y-98352139D01*
X127495879Y-98297095D01*
X127615475Y-98217183D01*
X127627458Y-98205200D01*
X128820030Y-98205200D01*
X129644800Y-99029971D01*
X129644801Y-99415086D01*
X129626016Y-99443199D01*
X129577191Y-99561073D01*
X129552300Y-99686207D01*
X129552300Y-99813793D01*
X129577191Y-99938927D01*
X129626016Y-100056801D01*
X129696899Y-100162885D01*
X129787115Y-100253101D01*
X129893199Y-100323984D01*
X130011073Y-100372809D01*
X130136207Y-100397700D01*
X130263793Y-100397700D01*
X130388927Y-100372809D01*
X130506801Y-100323984D01*
X130534913Y-100305200D01*
X132665087Y-100305200D01*
X132693199Y-100323984D01*
X132811073Y-100372809D01*
X132936207Y-100397700D01*
X133063793Y-100397700D01*
X133188927Y-100372809D01*
X133306801Y-100323984D01*
X133412885Y-100253101D01*
X133503101Y-100162885D01*
X133573984Y-100056801D01*
X133622809Y-99938927D01*
X133647700Y-99813793D01*
X133647700Y-99686207D01*
X133622809Y-99561073D01*
X133573984Y-99443199D01*
X133503101Y-99337115D01*
X133412885Y-99246899D01*
X133306801Y-99176016D01*
X133188927Y-99127191D01*
X133063793Y-99102300D01*
X132936207Y-99102300D01*
X132811073Y-99127191D01*
X132693199Y-99176016D01*
X132665087Y-99194800D01*
X130755200Y-99194800D01*
X130755200Y-98827270D01*
X130757886Y-98800000D01*
X130747166Y-98691162D01*
X130731295Y-98638842D01*
X130715419Y-98586506D01*
X130663865Y-98490055D01*
X130594485Y-98405515D01*
X130573300Y-98388129D01*
X129461876Y-97276706D01*
X129444485Y-97255515D01*
X129359945Y-97186135D01*
X129263494Y-97134581D01*
X129158838Y-97102834D01*
X129077270Y-97094800D01*
X129050000Y-97092114D01*
X129022730Y-97094800D01*
X127627458Y-97094800D01*
X127615475Y-97082817D01*
X127495879Y-97002905D01*
X127362991Y-96947861D01*
X127304403Y-96936207D01*
X144952300Y-96936207D01*
X144952300Y-97063793D01*
X144977191Y-97188927D01*
X145026016Y-97306801D01*
X145096899Y-97412885D01*
X145187115Y-97503101D01*
X145293199Y-97573984D01*
X145411073Y-97622809D01*
X145536207Y-97647700D01*
X145663793Y-97647700D01*
X145788927Y-97622809D01*
X145906801Y-97573984D01*
X146012885Y-97503101D01*
X146103101Y-97412885D01*
X146173984Y-97306801D01*
X146222809Y-97188927D01*
X146247700Y-97063793D01*
X146247700Y-96936207D01*
X146222809Y-96811073D01*
X146173984Y-96693199D01*
X146103101Y-96587115D01*
X146012885Y-96496899D01*
X145906801Y-96426016D01*
X145788927Y-96377191D01*
X145663793Y-96352300D01*
X145536207Y-96352300D01*
X145411073Y-96377191D01*
X145293199Y-96426016D01*
X145187115Y-96496899D01*
X145096899Y-96587115D01*
X145026016Y-96693199D01*
X144977191Y-96811073D01*
X144952300Y-96936207D01*
X127304403Y-96936207D01*
X127221918Y-96919800D01*
X127078082Y-96919800D01*
X126937009Y-96947861D01*
X126804121Y-97002905D01*
X126684525Y-97082817D01*
X126582817Y-97184525D01*
X126502905Y-97304121D01*
X126447861Y-97437009D01*
X126419800Y-97578082D01*
X126419800Y-97595029D01*
X125826701Y-98188129D01*
X125805516Y-98205515D01*
X125736136Y-98290055D01*
X125711506Y-98336135D01*
X125684581Y-98386507D01*
X125652834Y-98491163D01*
X125642114Y-98600000D01*
X119950200Y-98600000D01*
X119950200Y-96232648D01*
X120039067Y-96340933D01*
X120180709Y-96457175D01*
X120342306Y-96543550D01*
X120517649Y-96596740D01*
X120654311Y-96610200D01*
X121945689Y-96610200D01*
X122082351Y-96596740D01*
X122257694Y-96543550D01*
X122419291Y-96457175D01*
X122560933Y-96340933D01*
X122677175Y-96199291D01*
X122763550Y-96037694D01*
X122816740Y-95862351D01*
X122834700Y-95680000D01*
X123632401Y-95680000D01*
X123649956Y-95858234D01*
X123701945Y-96029619D01*
X123786370Y-96187568D01*
X123899988Y-96326012D01*
X124038432Y-96439630D01*
X124060039Y-96451179D01*
X123988709Y-96498840D01*
X123898840Y-96588709D01*
X123828231Y-96694383D01*
X123779595Y-96811802D01*
X123754800Y-96936453D01*
X123754800Y-97063547D01*
X123779595Y-97188198D01*
X123828231Y-97305617D01*
X123898840Y-97411291D01*
X123988709Y-97501160D01*
X124094383Y-97571769D01*
X124211802Y-97620405D01*
X124336453Y-97645200D01*
X124463547Y-97645200D01*
X124588198Y-97620405D01*
X124705617Y-97571769D01*
X124811291Y-97501160D01*
X124901160Y-97411291D01*
X124971769Y-97305617D01*
X125020405Y-97188198D01*
X125045200Y-97063547D01*
X125045200Y-96936453D01*
X125020405Y-96811802D01*
X124971769Y-96694383D01*
X124901488Y-96589200D01*
X125748663Y-96589200D01*
X125882234Y-96576044D01*
X126053619Y-96524055D01*
X126211568Y-96439630D01*
X126350012Y-96326012D01*
X126463630Y-96187568D01*
X126548055Y-96029619D01*
X126600044Y-95858234D01*
X126617599Y-95680000D01*
X126600044Y-95501766D01*
X126548055Y-95330381D01*
X126463630Y-95172432D01*
X126350012Y-95033988D01*
X126211568Y-94920370D01*
X126053619Y-94835945D01*
X125882234Y-94783956D01*
X125748663Y-94770800D01*
X124501337Y-94770800D01*
X124367766Y-94783956D01*
X124196381Y-94835945D01*
X124038432Y-94920370D01*
X123899988Y-95033988D01*
X123786370Y-95172432D01*
X123701945Y-95330381D01*
X123649956Y-95501766D01*
X123632401Y-95680000D01*
X122834700Y-95680000D01*
X122816740Y-95497649D01*
X122763550Y-95322306D01*
X122677175Y-95160709D01*
X122560933Y-95019067D01*
X122419291Y-94902825D01*
X122257694Y-94816450D01*
X122082351Y-94763260D01*
X121945689Y-94749800D01*
X120654311Y-94749800D01*
X120517649Y-94763260D01*
X120342306Y-94816450D01*
X120180709Y-94902825D01*
X120039067Y-95019067D01*
X119950200Y-95127352D01*
X119950200Y-92091042D01*
X120010688Y-91474141D01*
X120183737Y-90900976D01*
X120464816Y-90372343D01*
X120843222Y-89908368D01*
X121304545Y-89526729D01*
X121831205Y-89241966D01*
X122403147Y-89064921D01*
X123018859Y-89000206D01*
X123020634Y-89000200D01*
X136287314Y-89000200D01*
X136174349Y-89113165D01*
X136049568Y-89299913D01*
X135963617Y-89507416D01*
X135919800Y-89727700D01*
X135919800Y-89952300D01*
X135963617Y-90172584D01*
X136049568Y-90380087D01*
X136174349Y-90566835D01*
X136333165Y-90725651D01*
X136519913Y-90850432D01*
X136727416Y-90936383D01*
X136947700Y-90980200D01*
X137172300Y-90980200D01*
X137392584Y-90936383D01*
X137600087Y-90850432D01*
X137786835Y-90725651D01*
X137945651Y-90566835D01*
X138070432Y-90380087D01*
X138156383Y-90172584D01*
X138200200Y-89952300D01*
X138200200Y-89727700D01*
X138156383Y-89507416D01*
X138070432Y-89299913D01*
X137945651Y-89113165D01*
X137832685Y-89000199D01*
X138827315Y-89000199D01*
X138714349Y-89113165D01*
%TA.AperFunction,Conductor*%
D19*
G36*
X138714349Y-89113165D02*
G01*
X138589568Y-89299913D01*
X138503617Y-89507416D01*
X138459800Y-89727700D01*
X138459800Y-89952300D01*
X138503617Y-90172584D01*
X138589568Y-90380087D01*
X138714349Y-90566835D01*
X138873165Y-90725651D01*
X139059913Y-90850432D01*
X139267416Y-90936383D01*
X139487700Y-90980200D01*
X139712300Y-90980200D01*
X139932584Y-90936383D01*
X140053572Y-90886268D01*
X141449097Y-92281794D01*
X141462218Y-92297782D01*
X141526034Y-92350154D01*
X141598842Y-92389071D01*
X141677842Y-92413035D01*
X141759999Y-92421127D01*
X141780579Y-92419100D01*
X145426404Y-92419100D01*
X148180901Y-95173597D01*
X148180900Y-98626403D01*
X146918206Y-99889098D01*
X146902219Y-99902218D01*
X146889100Y-99918204D01*
X146849846Y-99966035D01*
X146810930Y-100038842D01*
X146786965Y-100117843D01*
X146778873Y-100200000D01*
X146780901Y-100220590D01*
X146780900Y-101103114D01*
X146696899Y-101187115D01*
X146626016Y-101293199D01*
X146577191Y-101411073D01*
X146552300Y-101536207D01*
X146552300Y-101663793D01*
X146577191Y-101788927D01*
X146626016Y-101906801D01*
X146696899Y-102012885D01*
X146787115Y-102103101D01*
X146893199Y-102173984D01*
X147011073Y-102222809D01*
X147136207Y-102247700D01*
X147263793Y-102247700D01*
X147388927Y-102222809D01*
X147506801Y-102173984D01*
X147612885Y-102103101D01*
X147703101Y-102012885D01*
X147773984Y-101906801D01*
X147822809Y-101788927D01*
X147847700Y-101663793D01*
X147847700Y-101536207D01*
X147822809Y-101411073D01*
X147773984Y-101293199D01*
X147703101Y-101187115D01*
X147619100Y-101103114D01*
X147619100Y-100373596D01*
X148881796Y-99110901D01*
X148897782Y-99097782D01*
X148950154Y-99033966D01*
X148989071Y-98961158D01*
X149013035Y-98882158D01*
X149019100Y-98820580D01*
X149019100Y-98820579D01*
X149021127Y-98800000D01*
X149019100Y-98779420D01*
X149019100Y-97986206D01*
X153152371Y-97986206D01*
X153152371Y-98113792D01*
X153177262Y-98238926D01*
X153226087Y-98356800D01*
X153296970Y-98462884D01*
X153387186Y-98553100D01*
X153493270Y-98623983D01*
X153611144Y-98672808D01*
X153736278Y-98697699D01*
X153863864Y-98697699D01*
X153988998Y-98672808D01*
X154106872Y-98623983D01*
X154212956Y-98553100D01*
X154303172Y-98462884D01*
X154374055Y-98356800D01*
X154422880Y-98238926D01*
X154447771Y-98113792D01*
X154447771Y-97986206D01*
X154422880Y-97861072D01*
X154374055Y-97743198D01*
X154303172Y-97637114D01*
X154212956Y-97546898D01*
X154106872Y-97476015D01*
X153988998Y-97427190D01*
X153863864Y-97402299D01*
X153736278Y-97402299D01*
X153611144Y-97427190D01*
X153493270Y-97476015D01*
X153387186Y-97546898D01*
X153296970Y-97637114D01*
X153226087Y-97743198D01*
X153177262Y-97861072D01*
X153152371Y-97986206D01*
X149019100Y-97986206D01*
X149019100Y-95020580D01*
X149021127Y-95000000D01*
X149013035Y-94917842D01*
X149008296Y-94902219D01*
X148989071Y-94838842D01*
X148950154Y-94766034D01*
X148897782Y-94702218D01*
X148881789Y-94689093D01*
X145910907Y-91718211D01*
X145897782Y-91702218D01*
X145833966Y-91649846D01*
X145761158Y-91610929D01*
X145682158Y-91586965D01*
X145620580Y-91580900D01*
X145600000Y-91578873D01*
X145579420Y-91580900D01*
X141933597Y-91580900D01*
X140646268Y-90293572D01*
X140696383Y-90172584D01*
X140740200Y-89952300D01*
X140740200Y-89727700D01*
X140696383Y-89507416D01*
X140610432Y-89299913D01*
X140485651Y-89113165D01*
X140372685Y-89000199D01*
X141367315Y-89000199D01*
X141254349Y-89113165D01*
X141129568Y-89299913D01*
X141043617Y-89507416D01*
X140999800Y-89727700D01*
X140999800Y-89952300D01*
X141043617Y-90172584D01*
X141129568Y-90380087D01*
X141254349Y-90566835D01*
X141413165Y-90725651D01*
X141599913Y-90850432D01*
X141807416Y-90936383D01*
X142027700Y-90980200D01*
X142252300Y-90980200D01*
X142472584Y-90936383D01*
X142680087Y-90850432D01*
X142866835Y-90725651D01*
X143025651Y-90566835D01*
X143150432Y-90380087D01*
X143236383Y-90172584D01*
X143280200Y-89952300D01*
X143280200Y-89727700D01*
X143236383Y-89507416D01*
X143150432Y-89299913D01*
X143025651Y-89113165D01*
X142912685Y-89000199D01*
X143907315Y-89000199D01*
X143794349Y-89113165D01*
X143669568Y-89299913D01*
X143583617Y-89507416D01*
X143539800Y-89727700D01*
X143539800Y-89952300D01*
X143583617Y-90172584D01*
X143669568Y-90380087D01*
X143794349Y-90566835D01*
X143953165Y-90725651D01*
X144139913Y-90850432D01*
X144347416Y-90936383D01*
X144567700Y-90980200D01*
X144792300Y-90980200D01*
X145012584Y-90936383D01*
X145220087Y-90850432D01*
X145406835Y-90725651D01*
X145565651Y-90566835D01*
X145690432Y-90380087D01*
X145776383Y-90172584D01*
X145820200Y-89952300D01*
X145820200Y-89727700D01*
X145776383Y-89507416D01*
X145690432Y-89299913D01*
X145565651Y-89113165D01*
X145452685Y-89000199D01*
X146447315Y-89000199D01*
X146334349Y-89113165D01*
X146209568Y-89299913D01*
X146123617Y-89507416D01*
X146079800Y-89727700D01*
X146079800Y-89952300D01*
X146123617Y-90172584D01*
X146209568Y-90380087D01*
X146334349Y-90566835D01*
X146493165Y-90725651D01*
X146679913Y-90850432D01*
X146887416Y-90936383D01*
X147107700Y-90980200D01*
X147332300Y-90980200D01*
X147552584Y-90936383D01*
X147760087Y-90850432D01*
X147946835Y-90725651D01*
X148105651Y-90566835D01*
X148230432Y-90380087D01*
X148316383Y-90172584D01*
X148360200Y-89952300D01*
X148360200Y-89727700D01*
X148316383Y-89507416D01*
X148230432Y-89299913D01*
X148105651Y-89113165D01*
X147992685Y-89000199D01*
X148987315Y-89000199D01*
X148874349Y-89113165D01*
X148749568Y-89299913D01*
X148663617Y-89507416D01*
X148619800Y-89727700D01*
X148619800Y-89952300D01*
X148663617Y-90172584D01*
X148749568Y-90380087D01*
X148874349Y-90566835D01*
X149033165Y-90725651D01*
X149219913Y-90850432D01*
X149427416Y-90936383D01*
X149647700Y-90980200D01*
X149872300Y-90980200D01*
X150092584Y-90936383D01*
X150300087Y-90850432D01*
X150486835Y-90725651D01*
X150645651Y-90566835D01*
X150770432Y-90380087D01*
X150856383Y-90172584D01*
X150900200Y-89952300D01*
X150900200Y-89727700D01*
X150856383Y-89507416D01*
X150770432Y-89299913D01*
X150645651Y-89113165D01*
X150532685Y-89000199D01*
X151527315Y-89000199D01*
X151414349Y-89113165D01*
X151289568Y-89299913D01*
X151203617Y-89507416D01*
X151159800Y-89727700D01*
X151159800Y-89952300D01*
X151203617Y-90172584D01*
X151289568Y-90380087D01*
X151414349Y-90566835D01*
X151573165Y-90725651D01*
X151759913Y-90850432D01*
X151967416Y-90936383D01*
X152187700Y-90980200D01*
X152412300Y-90980200D01*
X152632584Y-90936383D01*
X152753572Y-90886268D01*
X153749097Y-91881794D01*
X153762218Y-91897782D01*
X153826034Y-91950154D01*
X153898842Y-91989071D01*
X153970903Y-92010930D01*
X153977842Y-92013035D01*
X154060000Y-92021127D01*
X154080580Y-92019100D01*
X157826404Y-92019100D01*
X158489097Y-92681794D01*
X158502218Y-92697782D01*
X158566034Y-92750154D01*
X158638842Y-92789071D01*
X158717842Y-92813035D01*
X158800000Y-92821127D01*
X158820580Y-92819100D01*
X162709189Y-92819100D01*
X167361366Y-97471278D01*
X165495570Y-97471278D01*
X165522809Y-97405517D01*
X165547700Y-97280383D01*
X165547700Y-97152797D01*
X165522809Y-97027663D01*
X165473984Y-96909789D01*
X165403101Y-96803705D01*
X165312885Y-96713489D01*
X165206801Y-96642606D01*
X165088927Y-96593781D01*
X164963793Y-96568890D01*
X164836207Y-96568890D01*
X164711073Y-96593781D01*
X164593199Y-96642606D01*
X164487115Y-96713489D01*
X164396899Y-96803705D01*
X164326016Y-96909789D01*
X164277191Y-97027663D01*
X164252300Y-97152797D01*
X164252300Y-97280383D01*
X164277191Y-97405517D01*
X164304430Y-97471278D01*
X162371419Y-97471278D01*
X163081796Y-96760901D01*
X163097782Y-96747782D01*
X163150154Y-96683966D01*
X163189071Y-96611158D01*
X163213035Y-96532158D01*
X163219100Y-96470580D01*
X163219100Y-96470578D01*
X163221127Y-96450001D01*
X163219100Y-96429423D01*
X163219100Y-94696886D01*
X163303101Y-94612885D01*
X163373984Y-94506801D01*
X163422809Y-94388927D01*
X163447700Y-94263793D01*
X163447700Y-94136207D01*
X163422809Y-94011073D01*
X163373984Y-93893199D01*
X163303101Y-93787115D01*
X163212885Y-93696899D01*
X163106801Y-93626016D01*
X162988927Y-93577191D01*
X162863793Y-93552300D01*
X162736207Y-93552300D01*
X162611073Y-93577191D01*
X162493199Y-93626016D01*
X162387115Y-93696899D01*
X162296899Y-93787115D01*
X162226016Y-93893199D01*
X162177191Y-94011073D01*
X162152300Y-94136207D01*
X162152300Y-94263793D01*
X162177191Y-94388927D01*
X162226016Y-94506801D01*
X162296899Y-94612885D01*
X162380901Y-94696887D01*
X162380900Y-96276403D01*
X155076404Y-103580900D01*
X135270580Y-103580900D01*
X135250000Y-103578873D01*
X135229420Y-103580900D01*
X135167842Y-103586965D01*
X135088842Y-103610929D01*
X135016034Y-103649846D01*
X134952218Y-103702218D01*
X134939099Y-103718204D01*
X132576404Y-106080900D01*
X128520580Y-106080900D01*
X128500000Y-106078873D01*
X128479420Y-106080900D01*
X128417842Y-106086965D01*
X128338842Y-106110929D01*
X128266034Y-106149846D01*
X128202218Y-106202218D01*
X128189093Y-106218211D01*
X126618206Y-107789098D01*
X126602219Y-107802218D01*
X126589100Y-107818204D01*
X126549846Y-107866035D01*
X126510930Y-107938842D01*
X126486965Y-108017843D01*
X126478873Y-108100000D01*
X126480901Y-108120590D01*
X126480901Y-109099453D01*
X126359913Y-109149568D01*
X126173165Y-109274349D01*
X126014349Y-109433165D01*
X125889568Y-109619913D01*
X125803617Y-109827416D01*
X125759800Y-110047700D01*
X125759800Y-110272300D01*
X125803617Y-110492584D01*
X125889568Y-110700087D01*
X126014349Y-110886835D01*
X126127314Y-110999800D01*
X123041032Y-110999800D01*
X122424140Y-110939313D01*
X121850976Y-110766265D01*
X121322339Y-110485183D01*
X120858369Y-110106778D01*
X120476731Y-109645458D01*
X120191966Y-109118796D01*
X120014920Y-108546853D01*
X119950205Y-107931140D01*
X119950200Y-107929653D01*
X119950200Y-104872648D01*
X120039067Y-104980933D01*
X120180709Y-105097175D01*
X120342306Y-105183550D01*
X120517649Y-105236740D01*
X120654311Y-105250200D01*
X121945689Y-105250200D01*
X122082351Y-105236740D01*
X122257694Y-105183550D01*
X122419291Y-105097175D01*
X122560933Y-104980933D01*
X122677175Y-104839291D01*
X122763550Y-104677694D01*
X122816740Y-104502351D01*
X122834700Y-104320000D01*
X123632401Y-104320000D01*
X123649956Y-104498234D01*
X123701945Y-104669619D01*
X123786370Y-104827568D01*
X123899988Y-104966012D01*
X124038432Y-105079630D01*
X124196381Y-105164055D01*
X124367766Y-105216044D01*
X124501337Y-105229200D01*
X125748663Y-105229200D01*
X125882234Y-105216044D01*
X126053619Y-105164055D01*
X126211568Y-105079630D01*
X126350012Y-104966012D01*
X126463630Y-104827568D01*
X126548055Y-104669619D01*
X126600044Y-104498234D01*
X126617599Y-104320000D01*
X126600044Y-104141766D01*
X126548055Y-103970381D01*
X126463630Y-103812432D01*
X126350012Y-103673988D01*
X126211568Y-103560370D01*
X126053619Y-103475945D01*
X125882234Y-103423956D01*
X125748663Y-103410800D01*
X124901488Y-103410800D01*
X124971769Y-103305617D01*
X125020405Y-103188198D01*
X125045200Y-103063547D01*
X125045200Y-102936453D01*
X125020405Y-102811802D01*
X124971769Y-102694383D01*
X124901160Y-102588709D01*
X124811291Y-102498840D01*
X124705617Y-102428231D01*
X124588198Y-102379595D01*
X124463547Y-102354800D01*
X124336453Y-102354800D01*
X124211802Y-102379595D01*
X124094383Y-102428231D01*
X123988709Y-102498840D01*
X123898840Y-102588709D01*
X123828231Y-102694383D01*
X123779595Y-102811802D01*
X123754800Y-102936453D01*
X123754800Y-103063547D01*
X123779595Y-103188198D01*
X123828231Y-103305617D01*
X123898840Y-103411291D01*
X123988709Y-103501160D01*
X124060039Y-103548821D01*
X124038432Y-103560370D01*
X123899988Y-103673988D01*
X123786370Y-103812432D01*
X123701945Y-103970381D01*
X123649956Y-104141766D01*
X123632401Y-104320000D01*
X122834700Y-104320000D01*
X122816740Y-104137649D01*
X122763550Y-103962306D01*
X122677175Y-103800709D01*
X122560933Y-103659067D01*
X122419291Y-103542825D01*
X122257694Y-103456450D01*
X122082351Y-103403260D01*
X121945689Y-103389800D01*
X120654311Y-103389800D01*
X120517649Y-103403260D01*
X120342306Y-103456450D01*
X120180709Y-103542825D01*
X120039067Y-103659067D01*
X119950200Y-103767352D01*
X119950200Y-98600000D01*
X125642114Y-98600000D01*
X125644801Y-98627280D01*
X125644800Y-101372730D01*
X125642114Y-101400000D01*
X125644800Y-101427269D01*
X125652834Y-101508837D01*
X125684581Y-101613493D01*
X125736135Y-101709945D01*
X125805515Y-101794485D01*
X125826706Y-101811876D01*
X126419800Y-102404971D01*
X126419800Y-102421918D01*
X126447861Y-102562991D01*
X126502905Y-102695879D01*
X126582817Y-102815475D01*
X126684525Y-102917183D01*
X126804121Y-102997095D01*
X126937009Y-103052139D01*
X127078082Y-103080200D01*
X127221918Y-103080200D01*
X127362991Y-103052139D01*
X127495879Y-102997095D01*
X127615475Y-102917183D01*
X127717183Y-102815475D01*
X127797095Y-102695879D01*
X127852139Y-102562991D01*
X127880200Y-102421918D01*
X127880200Y-102336207D01*
X132152300Y-102336207D01*
X132152300Y-102463793D01*
X132177191Y-102588927D01*
X132226016Y-102706801D01*
X132296899Y-102812885D01*
X132387115Y-102903101D01*
X132493199Y-102973984D01*
X132611073Y-103022809D01*
X132736207Y-103047700D01*
X132863793Y-103047700D01*
X132988927Y-103022809D01*
X133106801Y-102973984D01*
X133212885Y-102903101D01*
X133303101Y-102812885D01*
X133373984Y-102706801D01*
X133415651Y-102606207D01*
X154002300Y-102606207D01*
X154002300Y-102733793D01*
X154027191Y-102858927D01*
X154076016Y-102976801D01*
X154146899Y-103082885D01*
X154237115Y-103173101D01*
X154343199Y-103243984D01*
X154461073Y-103292809D01*
X154586207Y-103317700D01*
X154713793Y-103317700D01*
X154838927Y-103292809D01*
X154956801Y-103243984D01*
X155062885Y-103173101D01*
X155153101Y-103082885D01*
X155223984Y-102976801D01*
X155272809Y-102858927D01*
X155297700Y-102733793D01*
X155297700Y-102606207D01*
X155272809Y-102481073D01*
X155223984Y-102363199D01*
X155153101Y-102257115D01*
X155062885Y-102166899D01*
X154956801Y-102096016D01*
X154838927Y-102047191D01*
X154713793Y-102022300D01*
X154586207Y-102022300D01*
X154461073Y-102047191D01*
X154343199Y-102096016D01*
X154237115Y-102166899D01*
X154146899Y-102257115D01*
X154076016Y-102363199D01*
X154027191Y-102481073D01*
X154002300Y-102606207D01*
X133415651Y-102606207D01*
X133422809Y-102588927D01*
X133447700Y-102463793D01*
X133447700Y-102336207D01*
X133422809Y-102211073D01*
X133373984Y-102093199D01*
X133303101Y-101987115D01*
X133212885Y-101896899D01*
X133106801Y-101826016D01*
X132988927Y-101777191D01*
X132863793Y-101752300D01*
X132736207Y-101752300D01*
X132611073Y-101777191D01*
X132493199Y-101826016D01*
X132387115Y-101896899D01*
X132296899Y-101987115D01*
X132226016Y-102093199D01*
X132177191Y-102211073D01*
X132152300Y-102336207D01*
X127880200Y-102336207D01*
X127880200Y-102278082D01*
X127852139Y-102137009D01*
X127797095Y-102004121D01*
X127717183Y-101884525D01*
X127615475Y-101782817D01*
X127495879Y-101702905D01*
X127362991Y-101647861D01*
X127221918Y-101619800D01*
X127204971Y-101619800D01*
X126921378Y-101336207D01*
X137152300Y-101336207D01*
X137152300Y-101463793D01*
X137177191Y-101588927D01*
X137226016Y-101706801D01*
X137296899Y-101812885D01*
X137387115Y-101903101D01*
X137493199Y-101973984D01*
X137611073Y-102022809D01*
X137736207Y-102047700D01*
X137863793Y-102047700D01*
X137988927Y-102022809D01*
X138106801Y-101973984D01*
X138212885Y-101903101D01*
X138303101Y-101812885D01*
X138373984Y-101706801D01*
X138422809Y-101588927D01*
X138433295Y-101536207D01*
X139802300Y-101536207D01*
X139802300Y-101663793D01*
X139827191Y-101788927D01*
X139876016Y-101906801D01*
X139946899Y-102012885D01*
X140037115Y-102103101D01*
X140143199Y-102173984D01*
X140261073Y-102222809D01*
X140386207Y-102247700D01*
X140513793Y-102247700D01*
X140638927Y-102222809D01*
X140756801Y-102173984D01*
X140862885Y-102103101D01*
X140953101Y-102012885D01*
X141023984Y-101906801D01*
X141072809Y-101788927D01*
X141097700Y-101663793D01*
X141097700Y-101536207D01*
X141072809Y-101411073D01*
X141023984Y-101293199D01*
X140953101Y-101187115D01*
X140862885Y-101096899D01*
X140756801Y-101026016D01*
X140638927Y-100977191D01*
X140513793Y-100952300D01*
X140386207Y-100952300D01*
X140261073Y-100977191D01*
X140143199Y-101026016D01*
X140037115Y-101096899D01*
X139946899Y-101187115D01*
X139876016Y-101293199D01*
X139827191Y-101411073D01*
X139802300Y-101536207D01*
X138433295Y-101536207D01*
X138447700Y-101463793D01*
X138447700Y-101336207D01*
X138422809Y-101211073D01*
X138373984Y-101093199D01*
X138303101Y-100987115D01*
X138212885Y-100896899D01*
X138106801Y-100826016D01*
X137988927Y-100777191D01*
X137863793Y-100752300D01*
X137736207Y-100752300D01*
X137611073Y-100777191D01*
X137493199Y-100826016D01*
X137387115Y-100896899D01*
X137296899Y-100987115D01*
X137226016Y-101093199D01*
X137177191Y-101211073D01*
X137152300Y-101336207D01*
X126921378Y-101336207D01*
X126755200Y-101170030D01*
X126755200Y-100536207D01*
X143552300Y-100536207D01*
X143552300Y-100663793D01*
X143577191Y-100788927D01*
X143626016Y-100906801D01*
X143696899Y-101012885D01*
X143787115Y-101103101D01*
X143893199Y-101173984D01*
X144011073Y-101222809D01*
X144136207Y-101247700D01*
X144263793Y-101247700D01*
X144388927Y-101222809D01*
X144506801Y-101173984D01*
X144612885Y-101103101D01*
X144703101Y-101012885D01*
X144773984Y-100906801D01*
X144822809Y-100788927D01*
X144847700Y-100663793D01*
X144847700Y-100536207D01*
X144822809Y-100411073D01*
X144773984Y-100293199D01*
X144703101Y-100187115D01*
X144612885Y-100096899D01*
X144506801Y-100026016D01*
X144388927Y-99977191D01*
X144263793Y-99952300D01*
X144136207Y-99952300D01*
X144011073Y-99977191D01*
X143893199Y-100026016D01*
X143787115Y-100096899D01*
X143696899Y-100187115D01*
X143626016Y-100293199D01*
X143577191Y-100411073D01*
X143552300Y-100536207D01*
X126755200Y-100536207D01*
X126755200Y-98829970D01*
X127204971Y-98380200D01*
X127221918Y-98380200D01*
X127362991Y-98352139D01*
X127495879Y-98297095D01*
X127615475Y-98217183D01*
X127627458Y-98205200D01*
X128820030Y-98205200D01*
X129644800Y-99029971D01*
X129644801Y-99415086D01*
X129626016Y-99443199D01*
X129577191Y-99561073D01*
X129552300Y-99686207D01*
X129552300Y-99813793D01*
X129577191Y-99938927D01*
X129626016Y-100056801D01*
X129696899Y-100162885D01*
X129787115Y-100253101D01*
X129893199Y-100323984D01*
X130011073Y-100372809D01*
X130136207Y-100397700D01*
X130263793Y-100397700D01*
X130388927Y-100372809D01*
X130506801Y-100323984D01*
X130534913Y-100305200D01*
X132665087Y-100305200D01*
X132693199Y-100323984D01*
X132811073Y-100372809D01*
X132936207Y-100397700D01*
X133063793Y-100397700D01*
X133188927Y-100372809D01*
X133306801Y-100323984D01*
X133412885Y-100253101D01*
X133503101Y-100162885D01*
X133573984Y-100056801D01*
X133622809Y-99938927D01*
X133647700Y-99813793D01*
X133647700Y-99686207D01*
X133622809Y-99561073D01*
X133573984Y-99443199D01*
X133503101Y-99337115D01*
X133412885Y-99246899D01*
X133306801Y-99176016D01*
X133188927Y-99127191D01*
X133063793Y-99102300D01*
X132936207Y-99102300D01*
X132811073Y-99127191D01*
X132693199Y-99176016D01*
X132665087Y-99194800D01*
X130755200Y-99194800D01*
X130755200Y-98827270D01*
X130757886Y-98800000D01*
X130747166Y-98691162D01*
X130731295Y-98638842D01*
X130715419Y-98586506D01*
X130663865Y-98490055D01*
X130594485Y-98405515D01*
X130573300Y-98388129D01*
X129461876Y-97276706D01*
X129444485Y-97255515D01*
X129359945Y-97186135D01*
X129263494Y-97134581D01*
X129158838Y-97102834D01*
X129077270Y-97094800D01*
X129050000Y-97092114D01*
X129022730Y-97094800D01*
X127627458Y-97094800D01*
X127615475Y-97082817D01*
X127495879Y-97002905D01*
X127362991Y-96947861D01*
X127304403Y-96936207D01*
X144952300Y-96936207D01*
X144952300Y-97063793D01*
X144977191Y-97188927D01*
X145026016Y-97306801D01*
X145096899Y-97412885D01*
X145187115Y-97503101D01*
X145293199Y-97573984D01*
X145411073Y-97622809D01*
X145536207Y-97647700D01*
X145663793Y-97647700D01*
X145788927Y-97622809D01*
X145906801Y-97573984D01*
X146012885Y-97503101D01*
X146103101Y-97412885D01*
X146173984Y-97306801D01*
X146222809Y-97188927D01*
X146247700Y-97063793D01*
X146247700Y-96936207D01*
X146222809Y-96811073D01*
X146173984Y-96693199D01*
X146103101Y-96587115D01*
X146012885Y-96496899D01*
X145906801Y-96426016D01*
X145788927Y-96377191D01*
X145663793Y-96352300D01*
X145536207Y-96352300D01*
X145411073Y-96377191D01*
X145293199Y-96426016D01*
X145187115Y-96496899D01*
X145096899Y-96587115D01*
X145026016Y-96693199D01*
X144977191Y-96811073D01*
X144952300Y-96936207D01*
X127304403Y-96936207D01*
X127221918Y-96919800D01*
X127078082Y-96919800D01*
X126937009Y-96947861D01*
X126804121Y-97002905D01*
X126684525Y-97082817D01*
X126582817Y-97184525D01*
X126502905Y-97304121D01*
X126447861Y-97437009D01*
X126419800Y-97578082D01*
X126419800Y-97595029D01*
X125826701Y-98188129D01*
X125805516Y-98205515D01*
X125736136Y-98290055D01*
X125711506Y-98336135D01*
X125684581Y-98386507D01*
X125652834Y-98491163D01*
X125642114Y-98600000D01*
X119950200Y-98600000D01*
X119950200Y-96232648D01*
X120039067Y-96340933D01*
X120180709Y-96457175D01*
X120342306Y-96543550D01*
X120517649Y-96596740D01*
X120654311Y-96610200D01*
X121945689Y-96610200D01*
X122082351Y-96596740D01*
X122257694Y-96543550D01*
X122419291Y-96457175D01*
X122560933Y-96340933D01*
X122677175Y-96199291D01*
X122763550Y-96037694D01*
X122816740Y-95862351D01*
X122834700Y-95680000D01*
X123632401Y-95680000D01*
X123649956Y-95858234D01*
X123701945Y-96029619D01*
X123786370Y-96187568D01*
X123899988Y-96326012D01*
X124038432Y-96439630D01*
X124060039Y-96451179D01*
X123988709Y-96498840D01*
X123898840Y-96588709D01*
X123828231Y-96694383D01*
X123779595Y-96811802D01*
X123754800Y-96936453D01*
X123754800Y-97063547D01*
X123779595Y-97188198D01*
X123828231Y-97305617D01*
X123898840Y-97411291D01*
X123988709Y-97501160D01*
X124094383Y-97571769D01*
X124211802Y-97620405D01*
X124336453Y-97645200D01*
X124463547Y-97645200D01*
X124588198Y-97620405D01*
X124705617Y-97571769D01*
X124811291Y-97501160D01*
X124901160Y-97411291D01*
X124971769Y-97305617D01*
X125020405Y-97188198D01*
X125045200Y-97063547D01*
X125045200Y-96936453D01*
X125020405Y-96811802D01*
X124971769Y-96694383D01*
X124901488Y-96589200D01*
X125748663Y-96589200D01*
X125882234Y-96576044D01*
X126053619Y-96524055D01*
X126211568Y-96439630D01*
X126350012Y-96326012D01*
X126463630Y-96187568D01*
X126548055Y-96029619D01*
X126600044Y-95858234D01*
X126617599Y-95680000D01*
X126600044Y-95501766D01*
X126548055Y-95330381D01*
X126463630Y-95172432D01*
X126350012Y-95033988D01*
X126211568Y-94920370D01*
X126053619Y-94835945D01*
X125882234Y-94783956D01*
X125748663Y-94770800D01*
X124501337Y-94770800D01*
X124367766Y-94783956D01*
X124196381Y-94835945D01*
X124038432Y-94920370D01*
X123899988Y-95033988D01*
X123786370Y-95172432D01*
X123701945Y-95330381D01*
X123649956Y-95501766D01*
X123632401Y-95680000D01*
X122834700Y-95680000D01*
X122816740Y-95497649D01*
X122763550Y-95322306D01*
X122677175Y-95160709D01*
X122560933Y-95019067D01*
X122419291Y-94902825D01*
X122257694Y-94816450D01*
X122082351Y-94763260D01*
X121945689Y-94749800D01*
X120654311Y-94749800D01*
X120517649Y-94763260D01*
X120342306Y-94816450D01*
X120180709Y-94902825D01*
X120039067Y-95019067D01*
X119950200Y-95127352D01*
X119950200Y-92091042D01*
X120010688Y-91474141D01*
X120183737Y-90900976D01*
X120464816Y-90372343D01*
X120843222Y-89908368D01*
X121304545Y-89526729D01*
X121831205Y-89241966D01*
X122403147Y-89064921D01*
X123018859Y-89000206D01*
X123020634Y-89000200D01*
X136287314Y-89000200D01*
X136174349Y-89113165D01*
X136049568Y-89299913D01*
X135963617Y-89507416D01*
X135919800Y-89727700D01*
X135919800Y-89952300D01*
X135963617Y-90172584D01*
X136049568Y-90380087D01*
X136174349Y-90566835D01*
X136333165Y-90725651D01*
X136519913Y-90850432D01*
X136727416Y-90936383D01*
X136947700Y-90980200D01*
X137172300Y-90980200D01*
X137392584Y-90936383D01*
X137600087Y-90850432D01*
X137786835Y-90725651D01*
X137945651Y-90566835D01*
X138070432Y-90380087D01*
X138156383Y-90172584D01*
X138200200Y-89952300D01*
X138200200Y-89727700D01*
X138156383Y-89507416D01*
X138070432Y-89299913D01*
X137945651Y-89113165D01*
X137832685Y-89000199D01*
X138827315Y-89000199D01*
X138714349Y-89113165D01*
G37*
%TD.AperFunction*%
D18*
X154558206Y-108299098D02*
X154542219Y-108312218D01*
X154524372Y-108333965D01*
X154489846Y-108376035D01*
X154450930Y-108448842D01*
X154426965Y-108527843D01*
X154418873Y-108610000D01*
X154420901Y-108630590D01*
X154420901Y-109099453D01*
X154299913Y-109149568D01*
X154113165Y-109274349D01*
X153954349Y-109433165D01*
X153829568Y-109619913D01*
X153743617Y-109827416D01*
X153699800Y-110047700D01*
X153699800Y-110272300D01*
X153743617Y-110492584D01*
X153829568Y-110700087D01*
X153954349Y-110886835D01*
X154067314Y-110999800D01*
X153072686Y-110999800D01*
X153185651Y-110886835D01*
X153310432Y-110700087D01*
X153396383Y-110492584D01*
X153440200Y-110272300D01*
X153440200Y-110047700D01*
X153396383Y-109827416D01*
X153310432Y-109619913D01*
X153185651Y-109433165D01*
X153026835Y-109274349D01*
X152840087Y-109149568D01*
X152719100Y-109099453D01*
X152719100Y-108973596D01*
X155109163Y-106583533D01*
X156273770Y-106583533D01*
X154558206Y-108299098D01*
%TA.AperFunction,Conductor*%
D19*
G36*
X154558206Y-108299098D02*
G01*
X154542219Y-108312218D01*
X154524372Y-108333965D01*
X154489846Y-108376035D01*
X154450930Y-108448842D01*
X154426965Y-108527843D01*
X154418873Y-108610000D01*
X154420901Y-108630590D01*
X154420901Y-109099453D01*
X154299913Y-109149568D01*
X154113165Y-109274349D01*
X153954349Y-109433165D01*
X153829568Y-109619913D01*
X153743617Y-109827416D01*
X153699800Y-110047700D01*
X153699800Y-110272300D01*
X153743617Y-110492584D01*
X153829568Y-110700087D01*
X153954349Y-110886835D01*
X154067314Y-110999800D01*
X153072686Y-110999800D01*
X153185651Y-110886835D01*
X153310432Y-110700087D01*
X153396383Y-110492584D01*
X153440200Y-110272300D01*
X153440200Y-110047700D01*
X153396383Y-109827416D01*
X153310432Y-109619913D01*
X153185651Y-109433165D01*
X153026835Y-109274349D01*
X152840087Y-109149568D01*
X152719100Y-109099453D01*
X152719100Y-108973596D01*
X155109163Y-106583533D01*
X156273770Y-106583533D01*
X154558206Y-108299098D01*
G37*
%TD.AperFunction*%
D18*
X152018211Y-108489093D02*
X152002218Y-108502218D01*
X151949846Y-108566035D01*
X151910929Y-108638843D01*
X151894757Y-108692157D01*
X151886965Y-108717843D01*
X151878873Y-108800000D01*
X151880900Y-108820580D01*
X151880900Y-109099453D01*
X151759913Y-109149568D01*
X151573165Y-109274349D01*
X151414349Y-109433165D01*
X151289568Y-109619913D01*
X151203617Y-109827416D01*
X151159800Y-110047700D01*
X151159800Y-110272300D01*
X151203617Y-110492584D01*
X151289568Y-110700087D01*
X151414349Y-110886835D01*
X151527314Y-110999800D01*
X150532686Y-110999800D01*
X150645651Y-110886835D01*
X150770432Y-110700087D01*
X150856383Y-110492584D01*
X150900200Y-110272300D01*
X150900200Y-110047700D01*
X150856383Y-109827416D01*
X150770432Y-109619913D01*
X150645651Y-109433165D01*
X150486835Y-109274349D01*
X150300087Y-109149568D01*
X150169100Y-109095311D01*
X150169100Y-108973596D01*
X152863975Y-106278722D01*
X154228582Y-106278722D01*
X152018211Y-108489093D01*
%TA.AperFunction,Conductor*%
D19*
G36*
X152018211Y-108489093D02*
G01*
X152002218Y-108502218D01*
X151949846Y-108566035D01*
X151910929Y-108638843D01*
X151894757Y-108692157D01*
X151886965Y-108717843D01*
X151878873Y-108800000D01*
X151880900Y-108820580D01*
X151880900Y-109099453D01*
X151759913Y-109149568D01*
X151573165Y-109274349D01*
X151414349Y-109433165D01*
X151289568Y-109619913D01*
X151203617Y-109827416D01*
X151159800Y-110047700D01*
X151159800Y-110272300D01*
X151203617Y-110492584D01*
X151289568Y-110700087D01*
X151414349Y-110886835D01*
X151527314Y-110999800D01*
X150532686Y-110999800D01*
X150645651Y-110886835D01*
X150770432Y-110700087D01*
X150856383Y-110492584D01*
X150900200Y-110272300D01*
X150900200Y-110047700D01*
X150856383Y-109827416D01*
X150770432Y-109619913D01*
X150645651Y-109433165D01*
X150486835Y-109274349D01*
X150300087Y-109149568D01*
X150169100Y-109095311D01*
X150169100Y-108973596D01*
X152863975Y-106278722D01*
X154228582Y-106278722D01*
X152018211Y-108489093D01*
G37*
%TD.AperFunction*%
D18*
X149468206Y-108489098D02*
X149452219Y-108502218D01*
X149439100Y-108518204D01*
X149399846Y-108566035D01*
X149360930Y-108638842D01*
X149336965Y-108717843D01*
X149328873Y-108800000D01*
X149330901Y-108820590D01*
X149330901Y-109103595D01*
X149219913Y-109149568D01*
X149033165Y-109274349D01*
X148874349Y-109433165D01*
X148749568Y-109619913D01*
X148663617Y-109827416D01*
X148619800Y-110047700D01*
X148619800Y-110272300D01*
X148663617Y-110492584D01*
X148749568Y-110700087D01*
X148874349Y-110886835D01*
X148987314Y-110999800D01*
X147992686Y-110999800D01*
X148105651Y-110886835D01*
X148230432Y-110700087D01*
X148316383Y-110492584D01*
X148360200Y-110272300D01*
X148360200Y-110047700D01*
X148316383Y-109827416D01*
X148230432Y-109619913D01*
X148105651Y-109433165D01*
X147946835Y-109274349D01*
X147760087Y-109149568D01*
X147669100Y-109111880D01*
X147669100Y-108923596D01*
X150618785Y-105973911D01*
X151983392Y-105973911D01*
X149468206Y-108489098D01*
%TA.AperFunction,Conductor*%
D19*
G36*
X149468206Y-108489098D02*
G01*
X149452219Y-108502218D01*
X149439100Y-108518204D01*
X149399846Y-108566035D01*
X149360930Y-108638842D01*
X149336965Y-108717843D01*
X149328873Y-108800000D01*
X149330901Y-108820590D01*
X149330901Y-109103595D01*
X149219913Y-109149568D01*
X149033165Y-109274349D01*
X148874349Y-109433165D01*
X148749568Y-109619913D01*
X148663617Y-109827416D01*
X148619800Y-110047700D01*
X148619800Y-110272300D01*
X148663617Y-110492584D01*
X148749568Y-110700087D01*
X148874349Y-110886835D01*
X148987314Y-110999800D01*
X147992686Y-110999800D01*
X148105651Y-110886835D01*
X148230432Y-110700087D01*
X148316383Y-110492584D01*
X148360200Y-110272300D01*
X148360200Y-110047700D01*
X148316383Y-109827416D01*
X148230432Y-109619913D01*
X148105651Y-109433165D01*
X147946835Y-109274349D01*
X147760087Y-109149568D01*
X147669100Y-109111880D01*
X147669100Y-108923596D01*
X150618785Y-105973911D01*
X151983392Y-105973911D01*
X149468206Y-108489098D01*
G37*
%TD.AperFunction*%
D18*
X157098206Y-108309098D02*
X157082219Y-108322218D01*
X157057166Y-108352745D01*
X157029846Y-108386035D01*
X156990930Y-108458842D01*
X156966965Y-108537843D01*
X156958873Y-108620000D01*
X156960901Y-108640590D01*
X156960901Y-109099453D01*
X156839913Y-109149568D01*
X156653165Y-109274349D01*
X156494349Y-109433165D01*
X156369568Y-109619913D01*
X156283617Y-109827416D01*
X156239800Y-110047700D01*
X156239800Y-110272300D01*
X156283617Y-110492584D01*
X156369568Y-110700087D01*
X156494349Y-110886835D01*
X156607314Y-110999800D01*
X155612686Y-110999800D01*
X155725651Y-110886835D01*
X155850432Y-110700087D01*
X155936383Y-110492584D01*
X155980200Y-110272300D01*
X155980200Y-110047700D01*
X155936383Y-109827416D01*
X155850432Y-109619913D01*
X155725651Y-109433165D01*
X155566835Y-109274349D01*
X155380087Y-109149568D01*
X155259100Y-109099453D01*
X155259100Y-108783596D01*
X157154353Y-106888344D01*
X158518959Y-106888344D01*
X157098206Y-108309098D01*
%TA.AperFunction,Conductor*%
D19*
G36*
X157098206Y-108309098D02*
G01*
X157082219Y-108322218D01*
X157057166Y-108352745D01*
X157029846Y-108386035D01*
X156990930Y-108458842D01*
X156966965Y-108537843D01*
X156958873Y-108620000D01*
X156960901Y-108640590D01*
X156960901Y-109099453D01*
X156839913Y-109149568D01*
X156653165Y-109274349D01*
X156494349Y-109433165D01*
X156369568Y-109619913D01*
X156283617Y-109827416D01*
X156239800Y-110047700D01*
X156239800Y-110272300D01*
X156283617Y-110492584D01*
X156369568Y-110700087D01*
X156494349Y-110886835D01*
X156607314Y-110999800D01*
X155612686Y-110999800D01*
X155725651Y-110886835D01*
X155850432Y-110700087D01*
X155936383Y-110492584D01*
X155980200Y-110272300D01*
X155980200Y-110047700D01*
X155936383Y-109827416D01*
X155850432Y-109619913D01*
X155725651Y-109433165D01*
X155566835Y-109274349D01*
X155380087Y-109149568D01*
X155259100Y-109099453D01*
X155259100Y-108783596D01*
X157154353Y-106888344D01*
X158518959Y-106888344D01*
X157098206Y-108309098D01*
G37*
%TD.AperFunction*%
D18*
X159638211Y-108269093D02*
X159622218Y-108282218D01*
X159569846Y-108346035D01*
X159530929Y-108418843D01*
X159510716Y-108485479D01*
X159506965Y-108497843D01*
X159498873Y-108580000D01*
X159500900Y-108600580D01*
X159500900Y-109099453D01*
X159379913Y-109149568D01*
X159193165Y-109274349D01*
X159034349Y-109433165D01*
X158909568Y-109619913D01*
X158823617Y-109827416D01*
X158779800Y-110047700D01*
X158779800Y-110272300D01*
X158823617Y-110492584D01*
X158909568Y-110700087D01*
X159034349Y-110886835D01*
X159147314Y-110999800D01*
X158152686Y-110999800D01*
X158265651Y-110886835D01*
X158390432Y-110700087D01*
X158476383Y-110492584D01*
X158520200Y-110272300D01*
X158520200Y-110047700D01*
X158476383Y-109827416D01*
X158390432Y-109619913D01*
X158265651Y-109433165D01*
X158106835Y-109274349D01*
X157920087Y-109149568D01*
X157799100Y-109099453D01*
X157799100Y-108793596D01*
X159399542Y-107193155D01*
X160714148Y-107193155D01*
X159638211Y-108269093D01*
%TA.AperFunction,Conductor*%
D19*
G36*
X159638211Y-108269093D02*
G01*
X159622218Y-108282218D01*
X159569846Y-108346035D01*
X159530929Y-108418843D01*
X159510716Y-108485479D01*
X159506965Y-108497843D01*
X159498873Y-108580000D01*
X159500900Y-108600580D01*
X159500900Y-109099453D01*
X159379913Y-109149568D01*
X159193165Y-109274349D01*
X159034349Y-109433165D01*
X158909568Y-109619913D01*
X158823617Y-109827416D01*
X158779800Y-110047700D01*
X158779800Y-110272300D01*
X158823617Y-110492584D01*
X158909568Y-110700087D01*
X159034349Y-110886835D01*
X159147314Y-110999800D01*
X158152686Y-110999800D01*
X158265651Y-110886835D01*
X158390432Y-110700087D01*
X158476383Y-110492584D01*
X158520200Y-110272300D01*
X158520200Y-110047700D01*
X158476383Y-109827416D01*
X158390432Y-109619913D01*
X158265651Y-109433165D01*
X158106835Y-109274349D01*
X157920087Y-109149568D01*
X157799100Y-109099453D01*
X157799100Y-108793596D01*
X159399542Y-107193155D01*
X160714148Y-107193155D01*
X159638211Y-108269093D01*
G37*
%TD.AperFunction*%
D18*
X162178211Y-108229093D02*
X162162218Y-108242218D01*
X162109846Y-108306035D01*
X162070929Y-108378843D01*
X162057242Y-108423965D01*
X162046965Y-108457843D01*
X162038873Y-108540000D01*
X162040900Y-108560580D01*
X162040900Y-109099453D01*
X161919913Y-109149568D01*
X161733165Y-109274349D01*
X161574349Y-109433165D01*
X161449568Y-109619913D01*
X161363617Y-109827416D01*
X161319800Y-110047700D01*
X161319800Y-110272300D01*
X161363617Y-110492584D01*
X161449568Y-110700087D01*
X161574349Y-110886835D01*
X161687314Y-110999800D01*
X160692686Y-110999800D01*
X160805651Y-110886835D01*
X160930432Y-110700087D01*
X161016383Y-110492584D01*
X161060200Y-110272300D01*
X161060200Y-110047700D01*
X161016383Y-109827416D01*
X160930432Y-109619913D01*
X160805651Y-109433165D01*
X160646835Y-109274349D01*
X160460087Y-109149568D01*
X160339100Y-109099453D01*
X160339100Y-108753596D01*
X161594731Y-107497966D01*
X162909338Y-107497966D01*
X162178211Y-108229093D01*
%TA.AperFunction,Conductor*%
D19*
G36*
X162178211Y-108229093D02*
G01*
X162162218Y-108242218D01*
X162109846Y-108306035D01*
X162070929Y-108378843D01*
X162057242Y-108423965D01*
X162046965Y-108457843D01*
X162038873Y-108540000D01*
X162040900Y-108560580D01*
X162040900Y-109099453D01*
X161919913Y-109149568D01*
X161733165Y-109274349D01*
X161574349Y-109433165D01*
X161449568Y-109619913D01*
X161363617Y-109827416D01*
X161319800Y-110047700D01*
X161319800Y-110272300D01*
X161363617Y-110492584D01*
X161449568Y-110700087D01*
X161574349Y-110886835D01*
X161687314Y-110999800D01*
X160692686Y-110999800D01*
X160805651Y-110886835D01*
X160930432Y-110700087D01*
X161016383Y-110492584D01*
X161060200Y-110272300D01*
X161060200Y-110047700D01*
X161016383Y-109827416D01*
X160930432Y-109619913D01*
X160805651Y-109433165D01*
X160646835Y-109274349D01*
X160460087Y-109149568D01*
X160339100Y-109099453D01*
X160339100Y-108753596D01*
X161594731Y-107497966D01*
X162909338Y-107497966D01*
X162178211Y-108229093D01*
G37*
%TD.AperFunction*%
D18*
X164718211Y-107889093D02*
X164702218Y-107902218D01*
X164649846Y-107966035D01*
X164610929Y-108038843D01*
X164589461Y-108109615D01*
X164586965Y-108117843D01*
X164578873Y-108200000D01*
X164580900Y-108220580D01*
X164580900Y-109099453D01*
X164459913Y-109149568D01*
X164273165Y-109274349D01*
X164114349Y-109433165D01*
X163989568Y-109619913D01*
X163903617Y-109827416D01*
X163859800Y-110047700D01*
X163859800Y-110272300D01*
X163903617Y-110492584D01*
X163989568Y-110700087D01*
X164114349Y-110886835D01*
X164227314Y-110999800D01*
X163232686Y-110999800D01*
X163345651Y-110886835D01*
X163470432Y-110700087D01*
X163556383Y-110492584D01*
X163600200Y-110272300D01*
X163600200Y-110047700D01*
X163556383Y-109827416D01*
X163470432Y-109619913D01*
X163345651Y-109433165D01*
X163186835Y-109274349D01*
X163000087Y-109149568D01*
X162879100Y-109099453D01*
X162879100Y-108713596D01*
X163789919Y-107802777D01*
X164804527Y-107802777D01*
X164718211Y-107889093D01*
%TA.AperFunction,Conductor*%
D19*
G36*
X164718211Y-107889093D02*
G01*
X164702218Y-107902218D01*
X164649846Y-107966035D01*
X164610929Y-108038843D01*
X164589461Y-108109615D01*
X164586965Y-108117843D01*
X164578873Y-108200000D01*
X164580900Y-108220580D01*
X164580900Y-109099453D01*
X164459913Y-109149568D01*
X164273165Y-109274349D01*
X164114349Y-109433165D01*
X163989568Y-109619913D01*
X163903617Y-109827416D01*
X163859800Y-110047700D01*
X163859800Y-110272300D01*
X163903617Y-110492584D01*
X163989568Y-110700087D01*
X164114349Y-110886835D01*
X164227314Y-110999800D01*
X163232686Y-110999800D01*
X163345651Y-110886835D01*
X163470432Y-110700087D01*
X163556383Y-110492584D01*
X163600200Y-110272300D01*
X163600200Y-110047700D01*
X163556383Y-109827416D01*
X163470432Y-109619913D01*
X163345651Y-109433165D01*
X163186835Y-109274349D01*
X163000087Y-109149568D01*
X162879100Y-109099453D01*
X162879100Y-108713596D01*
X163789919Y-107802777D01*
X164804527Y-107802777D01*
X164718211Y-107889093D01*
G37*
%TD.AperFunction*%
D18*
X139318211Y-106839093D02*
X139302218Y-106852218D01*
X139249846Y-106916035D01*
X139210929Y-106988843D01*
X139205112Y-107008020D01*
X139186965Y-107067843D01*
X139178873Y-107150000D01*
X139180900Y-107170580D01*
X139180901Y-109099453D01*
X139059913Y-109149568D01*
X138873165Y-109274349D01*
X138714349Y-109433165D01*
X138589568Y-109619913D01*
X138503617Y-109827416D01*
X138459800Y-110047700D01*
X138459800Y-110272300D01*
X138503617Y-110492584D01*
X138589568Y-110700087D01*
X138714349Y-110886835D01*
X138827314Y-110999800D01*
X137832686Y-110999800D01*
X137945651Y-110886835D01*
X138070432Y-110700087D01*
X138156383Y-110492584D01*
X138200200Y-110272300D01*
X138200200Y-110047700D01*
X138156383Y-109827416D01*
X138070432Y-109619913D01*
X137945651Y-109433165D01*
X137786835Y-109274349D01*
X137600087Y-109149568D01*
X137479100Y-109099453D01*
X137479100Y-108363596D01*
X141118786Y-104723911D01*
X141433392Y-104723911D01*
X139318211Y-106839093D01*
%TA.AperFunction,Conductor*%
D19*
G36*
X139318211Y-106839093D02*
G01*
X139302218Y-106852218D01*
X139249846Y-106916035D01*
X139210929Y-106988843D01*
X139205112Y-107008020D01*
X139186965Y-107067843D01*
X139178873Y-107150000D01*
X139180900Y-107170580D01*
X139180901Y-109099453D01*
X139059913Y-109149568D01*
X138873165Y-109274349D01*
X138714349Y-109433165D01*
X138589568Y-109619913D01*
X138503617Y-109827416D01*
X138459800Y-110047700D01*
X138459800Y-110272300D01*
X138503617Y-110492584D01*
X138589568Y-110700087D01*
X138714349Y-110886835D01*
X138827314Y-110999800D01*
X137832686Y-110999800D01*
X137945651Y-110886835D01*
X138070432Y-110700087D01*
X138156383Y-110492584D01*
X138200200Y-110272300D01*
X138200200Y-110047700D01*
X138156383Y-109827416D01*
X138070432Y-109619913D01*
X137945651Y-109433165D01*
X137786835Y-109274349D01*
X137600087Y-109149568D01*
X137479100Y-109099453D01*
X137479100Y-108363596D01*
X141118786Y-104723911D01*
X141433392Y-104723911D01*
X139318211Y-106839093D01*
G37*
%TD.AperFunction*%
D18*
X141858211Y-107799093D02*
X141842218Y-107812218D01*
X141789846Y-107876035D01*
X141750929Y-107948843D01*
X141726965Y-108027842D01*
X141726965Y-108027843D01*
X141718873Y-108110000D01*
X141720900Y-108130580D01*
X141720900Y-109099453D01*
X141599913Y-109149568D01*
X141413165Y-109274349D01*
X141254349Y-109433165D01*
X141129568Y-109619913D01*
X141043617Y-109827416D01*
X140999800Y-110047700D01*
X140999800Y-110272300D01*
X141043617Y-110492584D01*
X141129568Y-110700087D01*
X141254349Y-110886835D01*
X141367314Y-110999800D01*
X140372686Y-110999800D01*
X140485651Y-110886835D01*
X140610432Y-110700087D01*
X140696383Y-110492584D01*
X140740200Y-110272300D01*
X140740200Y-110047700D01*
X140696383Y-109827416D01*
X140610432Y-109619913D01*
X140485651Y-109433165D01*
X140326835Y-109274349D01*
X140140087Y-109149568D01*
X140019100Y-109099453D01*
X140019100Y-107323596D01*
X142313975Y-105028722D01*
X144628581Y-105028722D01*
X141858211Y-107799093D01*
%TA.AperFunction,Conductor*%
D19*
G36*
X141858211Y-107799093D02*
G01*
X141842218Y-107812218D01*
X141789846Y-107876035D01*
X141750929Y-107948843D01*
X141726965Y-108027842D01*
X141726965Y-108027843D01*
X141718873Y-108110000D01*
X141720900Y-108130580D01*
X141720900Y-109099453D01*
X141599913Y-109149568D01*
X141413165Y-109274349D01*
X141254349Y-109433165D01*
X141129568Y-109619913D01*
X141043617Y-109827416D01*
X140999800Y-110047700D01*
X140999800Y-110272300D01*
X141043617Y-110492584D01*
X141129568Y-110700087D01*
X141254349Y-110886835D01*
X141367314Y-110999800D01*
X140372686Y-110999800D01*
X140485651Y-110886835D01*
X140610432Y-110700087D01*
X140696383Y-110492584D01*
X140740200Y-110272300D01*
X140740200Y-110047700D01*
X140696383Y-109827416D01*
X140610432Y-109619913D01*
X140485651Y-109433165D01*
X140326835Y-109274349D01*
X140140087Y-109149568D01*
X140019100Y-109099453D01*
X140019100Y-107323596D01*
X142313975Y-105028722D01*
X144628581Y-105028722D01*
X141858211Y-107799093D01*
G37*
%TD.AperFunction*%
D18*
X144398211Y-108509093D02*
X144382218Y-108522218D01*
X144329846Y-108586035D01*
X144290929Y-108658843D01*
X144278093Y-108701158D01*
X144266965Y-108737843D01*
X144258873Y-108820000D01*
X144260900Y-108840580D01*
X144260900Y-109099453D01*
X144139913Y-109149568D01*
X143953165Y-109274349D01*
X143794349Y-109433165D01*
X143669568Y-109619913D01*
X143583617Y-109827416D01*
X143539800Y-110047700D01*
X143539800Y-110272300D01*
X143583617Y-110492584D01*
X143669568Y-110700087D01*
X143794349Y-110886835D01*
X143907314Y-110999800D01*
X142912686Y-110999800D01*
X143025651Y-110886835D01*
X143150432Y-110700087D01*
X143236383Y-110492584D01*
X143280200Y-110272300D01*
X143280200Y-110047700D01*
X143236383Y-109827416D01*
X143150432Y-109619913D01*
X143025651Y-109433165D01*
X142866835Y-109274349D01*
X142680087Y-109149568D01*
X142559100Y-109099453D01*
X142559100Y-108283596D01*
X145509164Y-105333533D01*
X147573770Y-105333533D01*
X144398211Y-108509093D01*
%TA.AperFunction,Conductor*%
D19*
G36*
X144398211Y-108509093D02*
G01*
X144382218Y-108522218D01*
X144329846Y-108586035D01*
X144290929Y-108658843D01*
X144278093Y-108701158D01*
X144266965Y-108737843D01*
X144258873Y-108820000D01*
X144260900Y-108840580D01*
X144260900Y-109099453D01*
X144139913Y-109149568D01*
X143953165Y-109274349D01*
X143794349Y-109433165D01*
X143669568Y-109619913D01*
X143583617Y-109827416D01*
X143539800Y-110047700D01*
X143539800Y-110272300D01*
X143583617Y-110492584D01*
X143669568Y-110700087D01*
X143794349Y-110886835D01*
X143907314Y-110999800D01*
X142912686Y-110999800D01*
X143025651Y-110886835D01*
X143150432Y-110700087D01*
X143236383Y-110492584D01*
X143280200Y-110272300D01*
X143280200Y-110047700D01*
X143236383Y-109827416D01*
X143150432Y-109619913D01*
X143025651Y-109433165D01*
X142866835Y-109274349D01*
X142680087Y-109149568D01*
X142559100Y-109099453D01*
X142559100Y-108283596D01*
X145509164Y-105333533D01*
X147573770Y-105333533D01*
X144398211Y-108509093D01*
G37*
%TD.AperFunction*%
D18*
X176423800Y-95299055D02*
X176422809Y-95294073D01*
X176373984Y-95176199D01*
X176303101Y-95070115D01*
X176212885Y-94979899D01*
X176106801Y-94909016D01*
X175988927Y-94860191D01*
X175863793Y-94835300D01*
X175736207Y-94835300D01*
X175611073Y-94860191D01*
X175493199Y-94909016D01*
X175387115Y-94979899D01*
X175296899Y-95070115D01*
X175226016Y-95176199D01*
X175177191Y-95294073D01*
X175152300Y-95419207D01*
X175152300Y-95546793D01*
X175177191Y-95671927D01*
X175226016Y-95789801D01*
X175296899Y-95895885D01*
X175387115Y-95986101D01*
X175493199Y-96056984D01*
X175611073Y-96105809D01*
X175736207Y-96130700D01*
X175863793Y-96130700D01*
X175988927Y-96105809D01*
X176106801Y-96056984D01*
X176212885Y-95986101D01*
X176303101Y-95895885D01*
X176373984Y-95789801D01*
X176422809Y-95671927D01*
X176423800Y-95666945D01*
X176423800Y-102800000D01*
X176425264Y-102814866D01*
X176429600Y-102829160D01*
X176436642Y-102842334D01*
X176446118Y-102853882D01*
X176457666Y-102863358D01*
X176470840Y-102870400D01*
X176485134Y-102874736D01*
X176500000Y-102876200D01*
X180049800Y-102876200D01*
X180049800Y-107908958D01*
X179989312Y-108525860D01*
X179816263Y-109099024D01*
X179535183Y-109627660D01*
X179156775Y-110091634D01*
X178695455Y-110473271D01*
X178168798Y-110758033D01*
X177596853Y-110935079D01*
X176981140Y-110999794D01*
X176979365Y-110999800D01*
X165772686Y-110999800D01*
X165885651Y-110886835D01*
X166010432Y-110700087D01*
X166096383Y-110492584D01*
X166140200Y-110272300D01*
X166140200Y-110047700D01*
X166096383Y-109827416D01*
X166010432Y-109619913D01*
X165885651Y-109433165D01*
X165726835Y-109274349D01*
X165540087Y-109149568D01*
X165419100Y-109099453D01*
X165419100Y-108373596D01*
X165685109Y-108107588D01*
X171890932Y-108107588D01*
X171911512Y-108109615D01*
X171932092Y-108107588D01*
X171993670Y-108101523D01*
X172072670Y-108077559D01*
X172145478Y-108038642D01*
X172209294Y-107986270D01*
X172222419Y-107970277D01*
X174544997Y-105647700D01*
X174663793Y-105647700D01*
X174788927Y-105622809D01*
X174906801Y-105573984D01*
X175012885Y-105503101D01*
X175103101Y-105412885D01*
X175173984Y-105306801D01*
X175222809Y-105188927D01*
X175247700Y-105063793D01*
X175247700Y-104936207D01*
X175222809Y-104811073D01*
X175173984Y-104693199D01*
X175103101Y-104587115D01*
X175012885Y-104496899D01*
X174906801Y-104426016D01*
X174788927Y-104377191D01*
X174663793Y-104352300D01*
X174547700Y-104352300D01*
X174547700Y-104336207D01*
X174522809Y-104211073D01*
X174473984Y-104093199D01*
X174403101Y-103987115D01*
X174312885Y-103896899D01*
X174206801Y-103826016D01*
X174088927Y-103777191D01*
X173963793Y-103752300D01*
X173836207Y-103752300D01*
X173711073Y-103777191D01*
X173593199Y-103826016D01*
X173487115Y-103896899D01*
X173396899Y-103987115D01*
X173326016Y-104093199D01*
X173277191Y-104211073D01*
X173268990Y-104252300D01*
X173236207Y-104252300D01*
X173231207Y-104253294D01*
X173222809Y-104211073D01*
X173173984Y-104093199D01*
X173103101Y-103987115D01*
X173012885Y-103896899D01*
X172906801Y-103826016D01*
X172788927Y-103777191D01*
X172663793Y-103752300D01*
X172536207Y-103752300D01*
X172411073Y-103777191D01*
X172293199Y-103826016D01*
X172187115Y-103896899D01*
X172096899Y-103987115D01*
X172026016Y-104093199D01*
X171977191Y-104211073D01*
X171968793Y-104253294D01*
X171963793Y-104252300D01*
X171931010Y-104252300D01*
X171922809Y-104211073D01*
X171873984Y-104093199D01*
X171803101Y-103987115D01*
X171712885Y-103896899D01*
X171606801Y-103826016D01*
X171488927Y-103777191D01*
X171363793Y-103752300D01*
X171236207Y-103752300D01*
X171111073Y-103777191D01*
X170993199Y-103826016D01*
X170887115Y-103896899D01*
X170796899Y-103987115D01*
X170726016Y-104093199D01*
X170677191Y-104211073D01*
X170668793Y-104253294D01*
X170663793Y-104252300D01*
X170631010Y-104252300D01*
X170622809Y-104211073D01*
X170573984Y-104093199D01*
X170503101Y-103987115D01*
X170412885Y-103896899D01*
X170306801Y-103826016D01*
X170188927Y-103777191D01*
X170063793Y-103752300D01*
X169936207Y-103752300D01*
X169811073Y-103777191D01*
X169693199Y-103826016D01*
X169587115Y-103896899D01*
X169496899Y-103987115D01*
X169426016Y-104093199D01*
X169377191Y-104211073D01*
X169375185Y-104221156D01*
X169363793Y-104218890D01*
X169236207Y-104218890D01*
X169111073Y-104243781D01*
X168993199Y-104292606D01*
X168887115Y-104363489D01*
X168796899Y-104453705D01*
X168726016Y-104559789D01*
X168677191Y-104677663D01*
X168652300Y-104802797D01*
X168652300Y-104830900D01*
X156304997Y-104830900D01*
X157799690Y-103336207D01*
X166552300Y-103336207D01*
X166552300Y-103463793D01*
X166577191Y-103588927D01*
X166626016Y-103706801D01*
X166696899Y-103812885D01*
X166787115Y-103903101D01*
X166893199Y-103973984D01*
X167011073Y-104022809D01*
X167136207Y-104047700D01*
X167263793Y-104047700D01*
X167388927Y-104022809D01*
X167506801Y-103973984D01*
X167612885Y-103903101D01*
X167703101Y-103812885D01*
X167773984Y-103706801D01*
X167822809Y-103588927D01*
X167847700Y-103463793D01*
X167847700Y-103336207D01*
X167822809Y-103211073D01*
X167773984Y-103093199D01*
X167703101Y-102987115D01*
X167612885Y-102896899D01*
X167506801Y-102826016D01*
X167388927Y-102777191D01*
X167263793Y-102752300D01*
X167136207Y-102752300D01*
X167011073Y-102777191D01*
X166893199Y-102826016D01*
X166787115Y-102896899D01*
X166696899Y-102987115D01*
X166626016Y-103093199D01*
X166577191Y-103211073D01*
X166552300Y-103336207D01*
X157799690Y-103336207D01*
X158171060Y-102964837D01*
X158176016Y-102976801D01*
X158246899Y-103082885D01*
X158337115Y-103173101D01*
X158443199Y-103243984D01*
X158561073Y-103292809D01*
X158686207Y-103317700D01*
X158813793Y-103317700D01*
X158938927Y-103292809D01*
X159056801Y-103243984D01*
X159162885Y-103173101D01*
X159253101Y-103082885D01*
X159265920Y-103063700D01*
X161560678Y-103063700D01*
X161580000Y-103065603D01*
X161599322Y-103063700D01*
X161599333Y-103063700D01*
X161657179Y-103058003D01*
X161731391Y-103035490D01*
X161799786Y-102998933D01*
X161859734Y-102949734D01*
X161872060Y-102934715D01*
X162200568Y-102606207D01*
X164022214Y-102606207D01*
X164022214Y-102733793D01*
X164047105Y-102858927D01*
X164095930Y-102976801D01*
X164166813Y-103082885D01*
X164257029Y-103173101D01*
X164363113Y-103243984D01*
X164480987Y-103292809D01*
X164606121Y-103317700D01*
X164733707Y-103317700D01*
X164858841Y-103292809D01*
X164976715Y-103243984D01*
X165082799Y-103173101D01*
X165173015Y-103082885D01*
X165243898Y-102976801D01*
X165292723Y-102858927D01*
X165317614Y-102733793D01*
X165317614Y-102606207D01*
X165292723Y-102481073D01*
X165243898Y-102363199D01*
X165173015Y-102257115D01*
X165082799Y-102166899D01*
X164976715Y-102096016D01*
X164858841Y-102047191D01*
X164733707Y-102022300D01*
X164606121Y-102022300D01*
X164480987Y-102047191D01*
X164363113Y-102096016D01*
X164257029Y-102166899D01*
X164166813Y-102257115D01*
X164095930Y-102363199D01*
X164047105Y-102481073D01*
X164022214Y-102606207D01*
X162200568Y-102606207D01*
X163906895Y-100899881D01*
X163936197Y-100905710D01*
X164063783Y-100905710D01*
X164188917Y-100880819D01*
X164306791Y-100831994D01*
X164412875Y-100761111D01*
X164503091Y-100670895D01*
X164547563Y-100604338D01*
X166407944Y-102464720D01*
X166420266Y-102479734D01*
X166435279Y-102492055D01*
X166435282Y-102492058D01*
X166480214Y-102528933D01*
X166548609Y-102565490D01*
X166622821Y-102588003D01*
X166680667Y-102593700D01*
X166680677Y-102593700D01*
X166699999Y-102595603D01*
X166719322Y-102593700D01*
X173234080Y-102593700D01*
X173246899Y-102612885D01*
X173337115Y-102703101D01*
X173443199Y-102773984D01*
X173561073Y-102822809D01*
X173686207Y-102847700D01*
X173813793Y-102847700D01*
X173938927Y-102822809D01*
X174056801Y-102773984D01*
X174162885Y-102703101D01*
X174253101Y-102612885D01*
X174323984Y-102506801D01*
X174372809Y-102388927D01*
X174397700Y-102263793D01*
X174397700Y-102136207D01*
X174372809Y-102011073D01*
X174323984Y-101893199D01*
X174253101Y-101787115D01*
X174162885Y-101696899D01*
X174056801Y-101626016D01*
X173938927Y-101577191D01*
X173813793Y-101552300D01*
X173686207Y-101552300D01*
X173561073Y-101577191D01*
X173443199Y-101626016D01*
X173337115Y-101696899D01*
X173246899Y-101787115D01*
X173234080Y-101806300D01*
X170059686Y-101806300D01*
X170103101Y-101762885D01*
X170173984Y-101656801D01*
X170222809Y-101538927D01*
X170247700Y-101413793D01*
X170247700Y-101286207D01*
X170222809Y-101161073D01*
X170173984Y-101043199D01*
X170103101Y-100937115D01*
X170065986Y-100900000D01*
X170103101Y-100862885D01*
X170173984Y-100756801D01*
X170222809Y-100638927D01*
X170247700Y-100513793D01*
X170247700Y-100386207D01*
X170222809Y-100261073D01*
X170173984Y-100143199D01*
X170103101Y-100037115D01*
X170065986Y-100000000D01*
X170103101Y-99962885D01*
X170173984Y-99856801D01*
X170222809Y-99738927D01*
X170247700Y-99613793D01*
X170247700Y-99486207D01*
X170222809Y-99361073D01*
X170173984Y-99243199D01*
X170103101Y-99137115D01*
X170065986Y-99100000D01*
X170103101Y-99062885D01*
X170173984Y-98956801D01*
X170222809Y-98838927D01*
X170247700Y-98713793D01*
X170247700Y-98586207D01*
X170222809Y-98461073D01*
X170173984Y-98343199D01*
X170103101Y-98237115D01*
X170012885Y-98146899D01*
X169906801Y-98076016D01*
X169788927Y-98027191D01*
X169663793Y-98002300D01*
X169536207Y-98002300D01*
X169411073Y-98027191D01*
X169293199Y-98076016D01*
X169208255Y-98132773D01*
X168205826Y-97130344D01*
X169987648Y-97130344D01*
X170602300Y-97744997D01*
X170602300Y-97863793D01*
X170627191Y-97988927D01*
X170676016Y-98106801D01*
X170746899Y-98212885D01*
X170837115Y-98303101D01*
X170943199Y-98373984D01*
X171061073Y-98422809D01*
X171186207Y-98447700D01*
X171313793Y-98447700D01*
X171438927Y-98422809D01*
X171556801Y-98373984D01*
X171662885Y-98303101D01*
X171700000Y-98265986D01*
X171737115Y-98303101D01*
X171843199Y-98373984D01*
X171961073Y-98422809D01*
X172086207Y-98447700D01*
X172213793Y-98447700D01*
X172338927Y-98422809D01*
X172456801Y-98373984D01*
X172562885Y-98303101D01*
X172600000Y-98265986D01*
X172637115Y-98303101D01*
X172743199Y-98373984D01*
X172861073Y-98422809D01*
X172986207Y-98447700D01*
X173113793Y-98447700D01*
X173238927Y-98422809D01*
X173356801Y-98373984D01*
X173462885Y-98303101D01*
X173500000Y-98265986D01*
X173537115Y-98303101D01*
X173643199Y-98373984D01*
X173761073Y-98422809D01*
X173886207Y-98447700D01*
X174013793Y-98447700D01*
X174138927Y-98422809D01*
X174256801Y-98373984D01*
X174362885Y-98303101D01*
X174400000Y-98265986D01*
X174437115Y-98303101D01*
X174543199Y-98373984D01*
X174661073Y-98422809D01*
X174786207Y-98447700D01*
X174913793Y-98447700D01*
X175038927Y-98422809D01*
X175156801Y-98373984D01*
X175262885Y-98303101D01*
X175353101Y-98212885D01*
X175423984Y-98106801D01*
X175472809Y-97988927D01*
X175497700Y-97863793D01*
X175497700Y-97736207D01*
X175472809Y-97611073D01*
X175423984Y-97493199D01*
X175353101Y-97387115D01*
X175262885Y-97296899D01*
X175156801Y-97226016D01*
X175038927Y-97177191D01*
X174913793Y-97152300D01*
X174786207Y-97152300D01*
X174718943Y-97165680D01*
X172928204Y-95374942D01*
X172938929Y-95372809D01*
X173056803Y-95323984D01*
X173162887Y-95253101D01*
X173253103Y-95162885D01*
X173323986Y-95056801D01*
X173372811Y-94938927D01*
X173397702Y-94813793D01*
X173397702Y-94686207D01*
X173372811Y-94561073D01*
X173323986Y-94443199D01*
X173253103Y-94337115D01*
X173162887Y-94246899D01*
X173056803Y-94176016D01*
X172938929Y-94127191D01*
X172813795Y-94102300D01*
X172686209Y-94102300D01*
X172561075Y-94127191D01*
X172443201Y-94176016D01*
X172337117Y-94246899D01*
X172246901Y-94337115D01*
X172176018Y-94443199D01*
X172127193Y-94561073D01*
X172102302Y-94686207D01*
X172102302Y-94780900D01*
X168623597Y-94780900D01*
X167178904Y-93336207D01*
X170177300Y-93336207D01*
X170177300Y-93463793D01*
X170202191Y-93588927D01*
X170251016Y-93706801D01*
X170321899Y-93812885D01*
X170412115Y-93903101D01*
X170518199Y-93973984D01*
X170636073Y-94022809D01*
X170761207Y-94047700D01*
X170888793Y-94047700D01*
X171013927Y-94022809D01*
X171131801Y-93973984D01*
X171237885Y-93903101D01*
X171328101Y-93812885D01*
X171398984Y-93706801D01*
X171447809Y-93588927D01*
X171472700Y-93463793D01*
X171472700Y-93336207D01*
X171447809Y-93211073D01*
X171398984Y-93093199D01*
X171328101Y-92987115D01*
X171237885Y-92896899D01*
X171131801Y-92826016D01*
X171013927Y-92777191D01*
X170888793Y-92752300D01*
X170761207Y-92752300D01*
X170636073Y-92777191D01*
X170518199Y-92826016D01*
X170412115Y-92896899D01*
X170321899Y-92987115D01*
X170251016Y-93093199D01*
X170202191Y-93211073D01*
X170177300Y-93336207D01*
X167178904Y-93336207D01*
X165419100Y-91576404D01*
X165419100Y-90900547D01*
X165540087Y-90850432D01*
X165726835Y-90725651D01*
X165885651Y-90566835D01*
X166010432Y-90380087D01*
X166096383Y-90172584D01*
X166140200Y-89952300D01*
X166140200Y-89727700D01*
X166096383Y-89507416D01*
X166010432Y-89299913D01*
X165885651Y-89113165D01*
X165772684Y-89000198D01*
X176423800Y-89000198D01*
X176423800Y-95299055D01*
%TA.AperFunction,Conductor*%
D19*
G36*
X176423800Y-95299055D02*
G01*
X176422809Y-95294073D01*
X176373984Y-95176199D01*
X176303101Y-95070115D01*
X176212885Y-94979899D01*
X176106801Y-94909016D01*
X175988927Y-94860191D01*
X175863793Y-94835300D01*
X175736207Y-94835300D01*
X175611073Y-94860191D01*
X175493199Y-94909016D01*
X175387115Y-94979899D01*
X175296899Y-95070115D01*
X175226016Y-95176199D01*
X175177191Y-95294073D01*
X175152300Y-95419207D01*
X175152300Y-95546793D01*
X175177191Y-95671927D01*
X175226016Y-95789801D01*
X175296899Y-95895885D01*
X175387115Y-95986101D01*
X175493199Y-96056984D01*
X175611073Y-96105809D01*
X175736207Y-96130700D01*
X175863793Y-96130700D01*
X175988927Y-96105809D01*
X176106801Y-96056984D01*
X176212885Y-95986101D01*
X176303101Y-95895885D01*
X176373984Y-95789801D01*
X176422809Y-95671927D01*
X176423800Y-95666945D01*
X176423800Y-102800000D01*
X176425264Y-102814866D01*
X176429600Y-102829160D01*
X176436642Y-102842334D01*
X176446118Y-102853882D01*
X176457666Y-102863358D01*
X176470840Y-102870400D01*
X176485134Y-102874736D01*
X176500000Y-102876200D01*
X180049800Y-102876200D01*
X180049800Y-107908958D01*
X179989312Y-108525860D01*
X179816263Y-109099024D01*
X179535183Y-109627660D01*
X179156775Y-110091634D01*
X178695455Y-110473271D01*
X178168798Y-110758033D01*
X177596853Y-110935079D01*
X176981140Y-110999794D01*
X176979365Y-110999800D01*
X165772686Y-110999800D01*
X165885651Y-110886835D01*
X166010432Y-110700087D01*
X166096383Y-110492584D01*
X166140200Y-110272300D01*
X166140200Y-110047700D01*
X166096383Y-109827416D01*
X166010432Y-109619913D01*
X165885651Y-109433165D01*
X165726835Y-109274349D01*
X165540087Y-109149568D01*
X165419100Y-109099453D01*
X165419100Y-108373596D01*
X165685109Y-108107588D01*
X171890932Y-108107588D01*
X171911512Y-108109615D01*
X171932092Y-108107588D01*
X171993670Y-108101523D01*
X172072670Y-108077559D01*
X172145478Y-108038642D01*
X172209294Y-107986270D01*
X172222419Y-107970277D01*
X174544997Y-105647700D01*
X174663793Y-105647700D01*
X174788927Y-105622809D01*
X174906801Y-105573984D01*
X175012885Y-105503101D01*
X175103101Y-105412885D01*
X175173984Y-105306801D01*
X175222809Y-105188927D01*
X175247700Y-105063793D01*
X175247700Y-104936207D01*
X175222809Y-104811073D01*
X175173984Y-104693199D01*
X175103101Y-104587115D01*
X175012885Y-104496899D01*
X174906801Y-104426016D01*
X174788927Y-104377191D01*
X174663793Y-104352300D01*
X174547700Y-104352300D01*
X174547700Y-104336207D01*
X174522809Y-104211073D01*
X174473984Y-104093199D01*
X174403101Y-103987115D01*
X174312885Y-103896899D01*
X174206801Y-103826016D01*
X174088927Y-103777191D01*
X173963793Y-103752300D01*
X173836207Y-103752300D01*
X173711073Y-103777191D01*
X173593199Y-103826016D01*
X173487115Y-103896899D01*
X173396899Y-103987115D01*
X173326016Y-104093199D01*
X173277191Y-104211073D01*
X173268990Y-104252300D01*
X173236207Y-104252300D01*
X173231207Y-104253294D01*
X173222809Y-104211073D01*
X173173984Y-104093199D01*
X173103101Y-103987115D01*
X173012885Y-103896899D01*
X172906801Y-103826016D01*
X172788927Y-103777191D01*
X172663793Y-103752300D01*
X172536207Y-103752300D01*
X172411073Y-103777191D01*
X172293199Y-103826016D01*
X172187115Y-103896899D01*
X172096899Y-103987115D01*
X172026016Y-104093199D01*
X171977191Y-104211073D01*
X171968793Y-104253294D01*
X171963793Y-104252300D01*
X171931010Y-104252300D01*
X171922809Y-104211073D01*
X171873984Y-104093199D01*
X171803101Y-103987115D01*
X171712885Y-103896899D01*
X171606801Y-103826016D01*
X171488927Y-103777191D01*
X171363793Y-103752300D01*
X171236207Y-103752300D01*
X171111073Y-103777191D01*
X170993199Y-103826016D01*
X170887115Y-103896899D01*
X170796899Y-103987115D01*
X170726016Y-104093199D01*
X170677191Y-104211073D01*
X170668793Y-104253294D01*
X170663793Y-104252300D01*
X170631010Y-104252300D01*
X170622809Y-104211073D01*
X170573984Y-104093199D01*
X170503101Y-103987115D01*
X170412885Y-103896899D01*
X170306801Y-103826016D01*
X170188927Y-103777191D01*
X170063793Y-103752300D01*
X169936207Y-103752300D01*
X169811073Y-103777191D01*
X169693199Y-103826016D01*
X169587115Y-103896899D01*
X169496899Y-103987115D01*
X169426016Y-104093199D01*
X169377191Y-104211073D01*
X169375185Y-104221156D01*
X169363793Y-104218890D01*
X169236207Y-104218890D01*
X169111073Y-104243781D01*
X168993199Y-104292606D01*
X168887115Y-104363489D01*
X168796899Y-104453705D01*
X168726016Y-104559789D01*
X168677191Y-104677663D01*
X168652300Y-104802797D01*
X168652300Y-104830900D01*
X156304997Y-104830900D01*
X157799690Y-103336207D01*
X166552300Y-103336207D01*
X166552300Y-103463793D01*
X166577191Y-103588927D01*
X166626016Y-103706801D01*
X166696899Y-103812885D01*
X166787115Y-103903101D01*
X166893199Y-103973984D01*
X167011073Y-104022809D01*
X167136207Y-104047700D01*
X167263793Y-104047700D01*
X167388927Y-104022809D01*
X167506801Y-103973984D01*
X167612885Y-103903101D01*
X167703101Y-103812885D01*
X167773984Y-103706801D01*
X167822809Y-103588927D01*
X167847700Y-103463793D01*
X167847700Y-103336207D01*
X167822809Y-103211073D01*
X167773984Y-103093199D01*
X167703101Y-102987115D01*
X167612885Y-102896899D01*
X167506801Y-102826016D01*
X167388927Y-102777191D01*
X167263793Y-102752300D01*
X167136207Y-102752300D01*
X167011073Y-102777191D01*
X166893199Y-102826016D01*
X166787115Y-102896899D01*
X166696899Y-102987115D01*
X166626016Y-103093199D01*
X166577191Y-103211073D01*
X166552300Y-103336207D01*
X157799690Y-103336207D01*
X158171060Y-102964837D01*
X158176016Y-102976801D01*
X158246899Y-103082885D01*
X158337115Y-103173101D01*
X158443199Y-103243984D01*
X158561073Y-103292809D01*
X158686207Y-103317700D01*
X158813793Y-103317700D01*
X158938927Y-103292809D01*
X159056801Y-103243984D01*
X159162885Y-103173101D01*
X159253101Y-103082885D01*
X159265920Y-103063700D01*
X161560678Y-103063700D01*
X161580000Y-103065603D01*
X161599322Y-103063700D01*
X161599333Y-103063700D01*
X161657179Y-103058003D01*
X161731391Y-103035490D01*
X161799786Y-102998933D01*
X161859734Y-102949734D01*
X161872060Y-102934715D01*
X162200568Y-102606207D01*
X164022214Y-102606207D01*
X164022214Y-102733793D01*
X164047105Y-102858927D01*
X164095930Y-102976801D01*
X164166813Y-103082885D01*
X164257029Y-103173101D01*
X164363113Y-103243984D01*
X164480987Y-103292809D01*
X164606121Y-103317700D01*
X164733707Y-103317700D01*
X164858841Y-103292809D01*
X164976715Y-103243984D01*
X165082799Y-103173101D01*
X165173015Y-103082885D01*
X165243898Y-102976801D01*
X165292723Y-102858927D01*
X165317614Y-102733793D01*
X165317614Y-102606207D01*
X165292723Y-102481073D01*
X165243898Y-102363199D01*
X165173015Y-102257115D01*
X165082799Y-102166899D01*
X164976715Y-102096016D01*
X164858841Y-102047191D01*
X164733707Y-102022300D01*
X164606121Y-102022300D01*
X164480987Y-102047191D01*
X164363113Y-102096016D01*
X164257029Y-102166899D01*
X164166813Y-102257115D01*
X164095930Y-102363199D01*
X164047105Y-102481073D01*
X164022214Y-102606207D01*
X162200568Y-102606207D01*
X163906895Y-100899881D01*
X163936197Y-100905710D01*
X164063783Y-100905710D01*
X164188917Y-100880819D01*
X164306791Y-100831994D01*
X164412875Y-100761111D01*
X164503091Y-100670895D01*
X164547563Y-100604338D01*
X166407944Y-102464720D01*
X166420266Y-102479734D01*
X166435279Y-102492055D01*
X166435282Y-102492058D01*
X166480214Y-102528933D01*
X166548609Y-102565490D01*
X166622821Y-102588003D01*
X166680667Y-102593700D01*
X166680677Y-102593700D01*
X166699999Y-102595603D01*
X166719322Y-102593700D01*
X173234080Y-102593700D01*
X173246899Y-102612885D01*
X173337115Y-102703101D01*
X173443199Y-102773984D01*
X173561073Y-102822809D01*
X173686207Y-102847700D01*
X173813793Y-102847700D01*
X173938927Y-102822809D01*
X174056801Y-102773984D01*
X174162885Y-102703101D01*
X174253101Y-102612885D01*
X174323984Y-102506801D01*
X174372809Y-102388927D01*
X174397700Y-102263793D01*
X174397700Y-102136207D01*
X174372809Y-102011073D01*
X174323984Y-101893199D01*
X174253101Y-101787115D01*
X174162885Y-101696899D01*
X174056801Y-101626016D01*
X173938927Y-101577191D01*
X173813793Y-101552300D01*
X173686207Y-101552300D01*
X173561073Y-101577191D01*
X173443199Y-101626016D01*
X173337115Y-101696899D01*
X173246899Y-101787115D01*
X173234080Y-101806300D01*
X170059686Y-101806300D01*
X170103101Y-101762885D01*
X170173984Y-101656801D01*
X170222809Y-101538927D01*
X170247700Y-101413793D01*
X170247700Y-101286207D01*
X170222809Y-101161073D01*
X170173984Y-101043199D01*
X170103101Y-100937115D01*
X170065986Y-100900000D01*
X170103101Y-100862885D01*
X170173984Y-100756801D01*
X170222809Y-100638927D01*
X170247700Y-100513793D01*
X170247700Y-100386207D01*
X170222809Y-100261073D01*
X170173984Y-100143199D01*
X170103101Y-100037115D01*
X170065986Y-100000000D01*
X170103101Y-99962885D01*
X170173984Y-99856801D01*
X170222809Y-99738927D01*
X170247700Y-99613793D01*
X170247700Y-99486207D01*
X170222809Y-99361073D01*
X170173984Y-99243199D01*
X170103101Y-99137115D01*
X170065986Y-99100000D01*
X170103101Y-99062885D01*
X170173984Y-98956801D01*
X170222809Y-98838927D01*
X170247700Y-98713793D01*
X170247700Y-98586207D01*
X170222809Y-98461073D01*
X170173984Y-98343199D01*
X170103101Y-98237115D01*
X170012885Y-98146899D01*
X169906801Y-98076016D01*
X169788927Y-98027191D01*
X169663793Y-98002300D01*
X169536207Y-98002300D01*
X169411073Y-98027191D01*
X169293199Y-98076016D01*
X169208255Y-98132773D01*
X168205826Y-97130344D01*
X169987648Y-97130344D01*
X170602300Y-97744997D01*
X170602300Y-97863793D01*
X170627191Y-97988927D01*
X170676016Y-98106801D01*
X170746899Y-98212885D01*
X170837115Y-98303101D01*
X170943199Y-98373984D01*
X171061073Y-98422809D01*
X171186207Y-98447700D01*
X171313793Y-98447700D01*
X171438927Y-98422809D01*
X171556801Y-98373984D01*
X171662885Y-98303101D01*
X171700000Y-98265986D01*
X171737115Y-98303101D01*
X171843199Y-98373984D01*
X171961073Y-98422809D01*
X172086207Y-98447700D01*
X172213793Y-98447700D01*
X172338927Y-98422809D01*
X172456801Y-98373984D01*
X172562885Y-98303101D01*
X172600000Y-98265986D01*
X172637115Y-98303101D01*
X172743199Y-98373984D01*
X172861073Y-98422809D01*
X172986207Y-98447700D01*
X173113793Y-98447700D01*
X173238927Y-98422809D01*
X173356801Y-98373984D01*
X173462885Y-98303101D01*
X173500000Y-98265986D01*
X173537115Y-98303101D01*
X173643199Y-98373984D01*
X173761073Y-98422809D01*
X173886207Y-98447700D01*
X174013793Y-98447700D01*
X174138927Y-98422809D01*
X174256801Y-98373984D01*
X174362885Y-98303101D01*
X174400000Y-98265986D01*
X174437115Y-98303101D01*
X174543199Y-98373984D01*
X174661073Y-98422809D01*
X174786207Y-98447700D01*
X174913793Y-98447700D01*
X175038927Y-98422809D01*
X175156801Y-98373984D01*
X175262885Y-98303101D01*
X175353101Y-98212885D01*
X175423984Y-98106801D01*
X175472809Y-97988927D01*
X175497700Y-97863793D01*
X175497700Y-97736207D01*
X175472809Y-97611073D01*
X175423984Y-97493199D01*
X175353101Y-97387115D01*
X175262885Y-97296899D01*
X175156801Y-97226016D01*
X175038927Y-97177191D01*
X174913793Y-97152300D01*
X174786207Y-97152300D01*
X174718943Y-97165680D01*
X172928204Y-95374942D01*
X172938929Y-95372809D01*
X173056803Y-95323984D01*
X173162887Y-95253101D01*
X173253103Y-95162885D01*
X173323986Y-95056801D01*
X173372811Y-94938927D01*
X173397702Y-94813793D01*
X173397702Y-94686207D01*
X173372811Y-94561073D01*
X173323986Y-94443199D01*
X173253103Y-94337115D01*
X173162887Y-94246899D01*
X173056803Y-94176016D01*
X172938929Y-94127191D01*
X172813795Y-94102300D01*
X172686209Y-94102300D01*
X172561075Y-94127191D01*
X172443201Y-94176016D01*
X172337117Y-94246899D01*
X172246901Y-94337115D01*
X172176018Y-94443199D01*
X172127193Y-94561073D01*
X172102302Y-94686207D01*
X172102302Y-94780900D01*
X168623597Y-94780900D01*
X167178904Y-93336207D01*
X170177300Y-93336207D01*
X170177300Y-93463793D01*
X170202191Y-93588927D01*
X170251016Y-93706801D01*
X170321899Y-93812885D01*
X170412115Y-93903101D01*
X170518199Y-93973984D01*
X170636073Y-94022809D01*
X170761207Y-94047700D01*
X170888793Y-94047700D01*
X171013927Y-94022809D01*
X171131801Y-93973984D01*
X171237885Y-93903101D01*
X171328101Y-93812885D01*
X171398984Y-93706801D01*
X171447809Y-93588927D01*
X171472700Y-93463793D01*
X171472700Y-93336207D01*
X171447809Y-93211073D01*
X171398984Y-93093199D01*
X171328101Y-92987115D01*
X171237885Y-92896899D01*
X171131801Y-92826016D01*
X171013927Y-92777191D01*
X170888793Y-92752300D01*
X170761207Y-92752300D01*
X170636073Y-92777191D01*
X170518199Y-92826016D01*
X170412115Y-92896899D01*
X170321899Y-92987115D01*
X170251016Y-93093199D01*
X170202191Y-93211073D01*
X170177300Y-93336207D01*
X167178904Y-93336207D01*
X165419100Y-91576404D01*
X165419100Y-90900547D01*
X165540087Y-90850432D01*
X165726835Y-90725651D01*
X165885651Y-90566835D01*
X166010432Y-90380087D01*
X166096383Y-90172584D01*
X166140200Y-89952300D01*
X166140200Y-89727700D01*
X166096383Y-89507416D01*
X166010432Y-89299913D01*
X165885651Y-89113165D01*
X165772684Y-89000198D01*
X176423800Y-89000198D01*
X176423800Y-95299055D01*
G37*
%TD.AperFunction*%
D18*
X136778211Y-107879093D02*
X136762218Y-107892218D01*
X136709846Y-107956035D01*
X136670929Y-108028843D01*
X136652553Y-108089421D01*
X136646965Y-108107843D01*
X136638873Y-108190000D01*
X136640900Y-108210580D01*
X136640900Y-109099453D01*
X136519913Y-109149568D01*
X136333165Y-109274349D01*
X136174349Y-109433165D01*
X136049568Y-109619913D01*
X135963617Y-109827416D01*
X135919800Y-110047700D01*
X135919800Y-110272300D01*
X135963617Y-110492584D01*
X136049568Y-110700087D01*
X136174349Y-110886835D01*
X136287314Y-110999800D01*
X135180211Y-110999800D01*
X135186593Y-110988238D01*
X134520000Y-110321645D01*
X133853407Y-110988238D01*
X133859789Y-110999800D01*
X132752686Y-110999800D01*
X132865651Y-110886835D01*
X132990432Y-110700087D01*
X133076383Y-110492584D01*
X133120200Y-110272300D01*
X133120200Y-110229456D01*
X133376391Y-110229456D01*
X133411915Y-110451228D01*
X133490022Y-110661809D01*
X133530536Y-110737605D01*
X133691762Y-110826593D01*
X134358355Y-110160000D01*
X134681645Y-110160000D01*
X135348238Y-110826593D01*
X135509464Y-110737605D01*
X135603137Y-110533472D01*
X135655186Y-110314986D01*
X135663609Y-110090544D01*
X135628085Y-109868772D01*
X135549978Y-109658191D01*
X135509464Y-109582395D01*
X135348238Y-109493407D01*
X134681645Y-110160000D01*
X134358355Y-110160000D01*
X133691762Y-109493407D01*
X133530536Y-109582395D01*
X133436863Y-109786528D01*
X133384814Y-110005014D01*
X133376391Y-110229456D01*
X133120200Y-110229456D01*
X133120200Y-110047700D01*
X133076383Y-109827416D01*
X132990432Y-109619913D01*
X132865651Y-109433165D01*
X132764248Y-109331762D01*
X133853407Y-109331762D01*
X134520000Y-109998355D01*
X135186593Y-109331762D01*
X135097605Y-109170536D01*
X134893472Y-109076863D01*
X134674986Y-109024814D01*
X134450544Y-109016391D01*
X134228772Y-109051915D01*
X134018191Y-109130022D01*
X133942395Y-109170536D01*
X133853407Y-109331762D01*
X132764248Y-109331762D01*
X132706835Y-109274349D01*
X132520087Y-109149568D01*
X132312584Y-109063617D01*
X132092300Y-109019800D01*
X131867700Y-109019800D01*
X131647416Y-109063617D01*
X131439913Y-109149568D01*
X131253165Y-109274349D01*
X131094349Y-109433165D01*
X130969568Y-109619913D01*
X130883617Y-109827416D01*
X130839800Y-110047700D01*
X130839800Y-110272300D01*
X130883617Y-110492584D01*
X130969568Y-110700087D01*
X131094349Y-110886835D01*
X131207314Y-110999800D01*
X130212686Y-110999800D01*
X130325651Y-110886835D01*
X130450432Y-110700087D01*
X130536383Y-110492584D01*
X130580200Y-110272300D01*
X130580200Y-110047700D01*
X130536383Y-109827416D01*
X130450432Y-109619913D01*
X130325651Y-109433165D01*
X130166835Y-109274349D01*
X129980087Y-109149568D01*
X129772584Y-109063617D01*
X129552300Y-109019800D01*
X129327700Y-109019800D01*
X129107416Y-109063617D01*
X128899913Y-109149568D01*
X128713165Y-109274349D01*
X128554349Y-109433165D01*
X128429568Y-109619913D01*
X128343617Y-109827416D01*
X128299800Y-110047700D01*
X128299800Y-110272300D01*
X128343617Y-110492584D01*
X128429568Y-110700087D01*
X128554349Y-110886835D01*
X128667314Y-110999800D01*
X127672686Y-110999800D01*
X127785651Y-110886835D01*
X127910432Y-110700087D01*
X127996383Y-110492584D01*
X128040200Y-110272300D01*
X128040200Y-110047700D01*
X127996383Y-109827416D01*
X127910432Y-109619913D01*
X127785651Y-109433165D01*
X127626835Y-109274349D01*
X127440087Y-109149568D01*
X127319100Y-109099453D01*
X127319100Y-108273596D01*
X128673596Y-106919100D01*
X132729420Y-106919100D01*
X132750000Y-106921127D01*
X132770580Y-106919100D01*
X132832158Y-106913035D01*
X132911158Y-106889071D01*
X132983966Y-106850154D01*
X133047782Y-106797782D01*
X133060907Y-106781789D01*
X135423597Y-104419100D01*
X140238203Y-104419100D01*
X136778211Y-107879093D01*
%TA.AperFunction,Conductor*%
D19*
G36*
X136778211Y-107879093D02*
G01*
X136762218Y-107892218D01*
X136709846Y-107956035D01*
X136670929Y-108028843D01*
X136652553Y-108089421D01*
X136646965Y-108107843D01*
X136638873Y-108190000D01*
X136640900Y-108210580D01*
X136640900Y-109099453D01*
X136519913Y-109149568D01*
X136333165Y-109274349D01*
X136174349Y-109433165D01*
X136049568Y-109619913D01*
X135963617Y-109827416D01*
X135919800Y-110047700D01*
X135919800Y-110272300D01*
X135963617Y-110492584D01*
X136049568Y-110700087D01*
X136174349Y-110886835D01*
X136287314Y-110999800D01*
X135180211Y-110999800D01*
X135186593Y-110988238D01*
X134520000Y-110321645D01*
X133853407Y-110988238D01*
X133859789Y-110999800D01*
X132752686Y-110999800D01*
X132865651Y-110886835D01*
X132990432Y-110700087D01*
X133076383Y-110492584D01*
X133120200Y-110272300D01*
X133120200Y-110229456D01*
X133376391Y-110229456D01*
X133411915Y-110451228D01*
X133490022Y-110661809D01*
X133530536Y-110737605D01*
X133691762Y-110826593D01*
X134358355Y-110160000D01*
X134681645Y-110160000D01*
X135348238Y-110826593D01*
X135509464Y-110737605D01*
X135603137Y-110533472D01*
X135655186Y-110314986D01*
X135663609Y-110090544D01*
X135628085Y-109868772D01*
X135549978Y-109658191D01*
X135509464Y-109582395D01*
X135348238Y-109493407D01*
X134681645Y-110160000D01*
X134358355Y-110160000D01*
X133691762Y-109493407D01*
X133530536Y-109582395D01*
X133436863Y-109786528D01*
X133384814Y-110005014D01*
X133376391Y-110229456D01*
X133120200Y-110229456D01*
X133120200Y-110047700D01*
X133076383Y-109827416D01*
X132990432Y-109619913D01*
X132865651Y-109433165D01*
X132764248Y-109331762D01*
X133853407Y-109331762D01*
X134520000Y-109998355D01*
X135186593Y-109331762D01*
X135097605Y-109170536D01*
X134893472Y-109076863D01*
X134674986Y-109024814D01*
X134450544Y-109016391D01*
X134228772Y-109051915D01*
X134018191Y-109130022D01*
X133942395Y-109170536D01*
X133853407Y-109331762D01*
X132764248Y-109331762D01*
X132706835Y-109274349D01*
X132520087Y-109149568D01*
X132312584Y-109063617D01*
X132092300Y-109019800D01*
X131867700Y-109019800D01*
X131647416Y-109063617D01*
X131439913Y-109149568D01*
X131253165Y-109274349D01*
X131094349Y-109433165D01*
X130969568Y-109619913D01*
X130883617Y-109827416D01*
X130839800Y-110047700D01*
X130839800Y-110272300D01*
X130883617Y-110492584D01*
X130969568Y-110700087D01*
X131094349Y-110886835D01*
X131207314Y-110999800D01*
X130212686Y-110999800D01*
X130325651Y-110886835D01*
X130450432Y-110700087D01*
X130536383Y-110492584D01*
X130580200Y-110272300D01*
X130580200Y-110047700D01*
X130536383Y-109827416D01*
X130450432Y-109619913D01*
X130325651Y-109433165D01*
X130166835Y-109274349D01*
X129980087Y-109149568D01*
X129772584Y-109063617D01*
X129552300Y-109019800D01*
X129327700Y-109019800D01*
X129107416Y-109063617D01*
X128899913Y-109149568D01*
X128713165Y-109274349D01*
X128554349Y-109433165D01*
X128429568Y-109619913D01*
X128343617Y-109827416D01*
X128299800Y-110047700D01*
X128299800Y-110272300D01*
X128343617Y-110492584D01*
X128429568Y-110700087D01*
X128554349Y-110886835D01*
X128667314Y-110999800D01*
X127672686Y-110999800D01*
X127785651Y-110886835D01*
X127910432Y-110700087D01*
X127996383Y-110492584D01*
X128040200Y-110272300D01*
X128040200Y-110047700D01*
X127996383Y-109827416D01*
X127910432Y-109619913D01*
X127785651Y-109433165D01*
X127626835Y-109274349D01*
X127440087Y-109149568D01*
X127319100Y-109099453D01*
X127319100Y-108273596D01*
X128673596Y-106919100D01*
X132729420Y-106919100D01*
X132750000Y-106921127D01*
X132770580Y-106919100D01*
X132832158Y-106913035D01*
X132911158Y-106889071D01*
X132983966Y-106850154D01*
X133047782Y-106797782D01*
X133060907Y-106781789D01*
X135423597Y-104419100D01*
X140238203Y-104419100D01*
X136778211Y-107879093D01*
G37*
%TD.AperFunction*%
D18*
X146968211Y-108439093D02*
X146952218Y-108452218D01*
X146899846Y-108516035D01*
X146860929Y-108588843D01*
X146845762Y-108638842D01*
X146836965Y-108667843D01*
X146828873Y-108750000D01*
X146830900Y-108770580D01*
X146830900Y-109087027D01*
X146679913Y-109149568D01*
X146493165Y-109274349D01*
X146334349Y-109433165D01*
X146209568Y-109619913D01*
X146123617Y-109827416D01*
X146079800Y-110047700D01*
X146079800Y-110272300D01*
X146123617Y-110492584D01*
X146209568Y-110700087D01*
X146334349Y-110886835D01*
X146447314Y-110999800D01*
X145452686Y-110999800D01*
X145565651Y-110886835D01*
X145690432Y-110700087D01*
X145776383Y-110492584D01*
X145820200Y-110272300D01*
X145820200Y-110047700D01*
X145776383Y-109827416D01*
X145690432Y-109619913D01*
X145565651Y-109433165D01*
X145406835Y-109274349D01*
X145220087Y-109149568D01*
X145099100Y-109099453D01*
X145099100Y-108993596D01*
X148423597Y-105669100D01*
X149738204Y-105669100D01*
X146968211Y-108439093D01*
%TA.AperFunction,Conductor*%
D19*
G36*
X146968211Y-108439093D02*
G01*
X146952218Y-108452218D01*
X146899846Y-108516035D01*
X146860929Y-108588843D01*
X146845762Y-108638842D01*
X146836965Y-108667843D01*
X146828873Y-108750000D01*
X146830900Y-108770580D01*
X146830900Y-109087027D01*
X146679913Y-109149568D01*
X146493165Y-109274349D01*
X146334349Y-109433165D01*
X146209568Y-109619913D01*
X146123617Y-109827416D01*
X146079800Y-110047700D01*
X146079800Y-110272300D01*
X146123617Y-110492584D01*
X146209568Y-110700087D01*
X146334349Y-110886835D01*
X146447314Y-110999800D01*
X145452686Y-110999800D01*
X145565651Y-110886835D01*
X145690432Y-110700087D01*
X145776383Y-110492584D01*
X145820200Y-110272300D01*
X145820200Y-110047700D01*
X145776383Y-109827416D01*
X145690432Y-109619913D01*
X145565651Y-109433165D01*
X145406835Y-109274349D01*
X145220087Y-109149568D01*
X145099100Y-109099453D01*
X145099100Y-108993596D01*
X148423597Y-105669100D01*
X149738204Y-105669100D01*
X146968211Y-108439093D01*
G37*
%TD.AperFunction*%
%TD*%
M02*
