%TF.GenerationSoftware,KiCad,Pcbnew,(5.1.9)-1*%
%TF.CreationDate,2021-04-07T15:03:24-04:00*%
%TF.ProjectId,Finch-Feather,46696e63-682d-4466-9561-746865722e6b,rev?*%
%TF.SameCoordinates,Original*%
%TF.FileFunction,Copper,L3,Inr*%
%TF.FilePolarity,Positive*%
%FSLAX46Y46*%
G04 Gerber Fmt 4.6, Leading zero omitted, Abs format (unit mm)*
G04 Created by KiCad (PCBNEW (5.1.9)-1) date 2021-04-07 15:03:24*
%MOMM*%
%LPD*%
G01*
G04 APERTURE LIST*
%TA.AperFunction,ComponentPad*%
%ADD10C,1.620000*%
%TD*%
%TA.AperFunction,ComponentPad*%
%ADD11O,2.400000X1.200000*%
%TD*%
%TA.AperFunction,ComponentPad*%
%ADD12O,2.316000X1.158000*%
%TD*%
%TA.AperFunction,ViaPad*%
%ADD13C,0.635000*%
%TD*%
%TA.AperFunction,ViaPad*%
%ADD14C,0.800000*%
%TD*%
%TA.AperFunction,Conductor*%
%ADD15C,0.635000*%
%TD*%
%TA.AperFunction,Conductor*%
%ADD16C,0.152400*%
%TD*%
%TA.AperFunction,Conductor*%
%ADD17C,0.100000*%
%TD*%
%TA.AperFunction,Conductor*%
%ADD18C,0.254000*%
%TD*%
G04 APERTURE END LIST*
D10*
%TO.N,/PH0*%
%TO.C,T2*%
X165000000Y-89840000D03*
%TO.N,/PH1*%
X162460000Y-89840000D03*
%TO.N,/PD14*%
X159920000Y-89840000D03*
%TO.N,/PE1*%
X157380000Y-89840000D03*
%TO.N,/PD13*%
X154840000Y-89840000D03*
%TO.N,/PD12*%
X152300000Y-89840000D03*
%TO.N,/PB7*%
X149760000Y-89840000D03*
%TO.N,/PB5*%
X147220000Y-89840000D03*
%TO.N,/PB4*%
X144680000Y-89840000D03*
%TO.N,VBUS*%
X142140000Y-89840000D03*
%TO.N,/ENABLE*%
X139600000Y-89840000D03*
%TO.N,/VBAT*%
X137060000Y-89840000D03*
%TD*%
%TO.N,/PE4*%
%TO.C,T4*%
X165000000Y-110160000D03*
%TO.N,/PB12*%
X162460000Y-110160000D03*
%TO.N,/PC13*%
X159920000Y-110160000D03*
%TO.N,/PB6*%
X157380000Y-110160000D03*
%TO.N,/PB15*%
X154840000Y-110160000D03*
%TO.N,/PB14*%
X152300000Y-110160000D03*
%TO.N,/PC6*%
X149760000Y-110160000D03*
%TO.N,/PB13*%
X147220000Y-110160000D03*
%TO.N,/PD1*%
X144680000Y-110160000D03*
%TO.N,/PC9*%
X142140000Y-110160000D03*
%TO.N,/PD2*%
X139600000Y-110160000D03*
%TO.N,/PD7*%
X137060000Y-110160000D03*
%TO.N,GND*%
X134520000Y-110160000D03*
%TO.N,Net-(T4-Pad3)*%
X131980000Y-110160000D03*
%TO.N,+3V3*%
X129440000Y-110160000D03*
%TO.N,/NRST*%
X126900000Y-110160000D03*
%TD*%
D11*
%TO.N,Net-(L1-Pad2)*%
%TO.C,T3*%
X121300000Y-104320000D03*
X121300000Y-95680000D03*
D12*
X125125000Y-104320000D03*
X125125000Y-95680000D03*
%TD*%
D13*
%TO.N,GND*%
X133250000Y-109250000D03*
X135750000Y-109250000D03*
%TO.N,/NRST*%
X162800000Y-94200000D03*
%TO.N,GND*%
X170500000Y-108450000D03*
X168500000Y-108450000D03*
X166500000Y-108450000D03*
X178500000Y-108400000D03*
X176500000Y-108400000D03*
X174500000Y-108450000D03*
X172500000Y-108450000D03*
X173500000Y-107450000D03*
X175500000Y-107450000D03*
X177500000Y-107450000D03*
X179500000Y-107450000D03*
X178500000Y-106450000D03*
X176500000Y-106450000D03*
X174500000Y-106450000D03*
X175500000Y-105450000D03*
X176500000Y-104450000D03*
X177500000Y-105450000D03*
X178500000Y-104450000D03*
X179500000Y-105450000D03*
X151000000Y-109250000D03*
X153550000Y-109250000D03*
X156100000Y-109250000D03*
X145950000Y-109250000D03*
X143400000Y-109200000D03*
X138300000Y-109200000D03*
X148500000Y-109300000D03*
X134200000Y-97400000D03*
X128400000Y-96800000D03*
X127000000Y-93400000D03*
X128400000Y-95400000D03*
X130400000Y-91000000D03*
X150200000Y-99000000D03*
X147200000Y-96200000D03*
X141680000Y-95200000D03*
X141400000Y-99200000D03*
X130400000Y-104500000D03*
X131200000Y-103800000D03*
X127000000Y-99750000D03*
X173950000Y-100450000D03*
X169200000Y-90200000D03*
X168225000Y-103306410D03*
X123800000Y-101800000D03*
X123400000Y-97600000D03*
X145600000Y-100393590D03*
X169800000Y-97600000D03*
X175600000Y-98650000D03*
X169400000Y-93400000D03*
X168213100Y-93386900D03*
X165828797Y-104228797D03*
X153882964Y-99083000D03*
X131200000Y-105200000D03*
X172083006Y-91117054D03*
X140900000Y-109200000D03*
X167500000Y-109450000D03*
X171500000Y-109450000D03*
X169500000Y-109450000D03*
X168500000Y-110450000D03*
X170500000Y-110450000D03*
X173500000Y-109450000D03*
X172500000Y-110450000D03*
X174500000Y-110450000D03*
X166500000Y-110450000D03*
X175500000Y-109450000D03*
X176500000Y-110450000D03*
X177500000Y-109450000D03*
X178500000Y-110450000D03*
X179500000Y-109450000D03*
X175500000Y-102000000D03*
X154650000Y-101400000D03*
X158750000Y-97599982D03*
X164750000Y-101408010D03*
X140749994Y-102750000D03*
X177474994Y-103175000D03*
X173750000Y-93250000D03*
X175000000Y-93500000D03*
X174425000Y-96000000D03*
X120500000Y-93750000D03*
X120750000Y-106250000D03*
X124000000Y-89500000D03*
X124750000Y-110500000D03*
X158750000Y-109250000D03*
X161250000Y-109250000D03*
X163750000Y-109250000D03*
%TO.N,+3V3*%
X170825000Y-93400000D03*
X167200000Y-103400000D03*
X175800000Y-95483000D03*
X153800071Y-98049999D03*
X154650000Y-102670000D03*
X164669914Y-102670000D03*
X164900000Y-97216590D03*
X164750014Y-99393032D03*
X172750002Y-94750000D03*
%TO.N,/JTAG_JTDI*%
X167000000Y-101500000D03*
X165733683Y-99393032D03*
%TO.N,/JTAG_SWDIO*%
X158750000Y-102670000D03*
X163999990Y-100258010D03*
%TO.N,/JTAG_JTDO*%
X162750000Y-100000000D03*
X173750000Y-102200000D03*
%TO.N,/PE4*%
X174600000Y-105000000D03*
%TO.N,/PB14*%
X171300000Y-104400000D03*
%TO.N,/PB15*%
X171900000Y-104900000D03*
%TO.N,/PB6*%
X172600000Y-104400000D03*
%TO.N,/PC13*%
X173300000Y-104900000D03*
%TO.N,/PB12*%
X173900000Y-104400000D03*
%TO.N,/PD1*%
X169300000Y-104866590D03*
%TO.N,/PB13*%
X170000000Y-104400000D03*
%TO.N,/PC6*%
X170600000Y-104900000D03*
%TO.N,/PD12*%
X169600000Y-98650000D03*
%TO.N,/PD13*%
X171250000Y-97800000D03*
%TO.N,/PE1*%
X172150000Y-97800000D03*
%TO.N,/PD14*%
X173050000Y-97800000D03*
%TO.N,/PH1*%
X173950000Y-97800000D03*
%TO.N,/PH0*%
X174850000Y-97800000D03*
%TO.N,VCC*%
X140450000Y-101600000D03*
X144200000Y-100600000D03*
X137800000Y-101400000D03*
X132800000Y-102400000D03*
X145600000Y-97000000D03*
%TO.N,VBUS*%
X133000000Y-99750000D03*
D14*
X127150000Y-97650000D03*
X127150000Y-102350000D03*
D13*
X130200000Y-99750000D03*
%TO.N,/ENABLE*%
X147200000Y-101600000D03*
%TO.N,/PD7*%
X169600000Y-99550000D03*
%TO.N,/PC9*%
X169600000Y-101350000D03*
%TO.N,/PD2*%
X169600000Y-100450000D03*
%TD*%
D15*
%TO.N,VBUS*%
X127150000Y-97650000D02*
X127150000Y-94650000D01*
X127150000Y-94650000D02*
X129800000Y-92000000D01*
X139980000Y-92000000D02*
X142140000Y-89840000D01*
X129800000Y-92000000D02*
X139980000Y-92000000D01*
%TD*%
D16*
%TO.N,+3V3*%
X176323800Y-103824659D02*
X176311073Y-103827191D01*
X176193199Y-103876016D01*
X176087115Y-103946899D01*
X175996899Y-104037115D01*
X175926016Y-104143199D01*
X175877191Y-104261073D01*
X175852300Y-104386207D01*
X175852300Y-104513793D01*
X175877191Y-104638927D01*
X175926016Y-104756801D01*
X175996899Y-104862885D01*
X176087115Y-104953101D01*
X176193199Y-105023984D01*
X176311073Y-105072809D01*
X176323800Y-105075341D01*
X176323800Y-105824659D01*
X176311073Y-105827191D01*
X176193199Y-105876016D01*
X176087115Y-105946899D01*
X175996899Y-106037115D01*
X175926016Y-106143199D01*
X175877191Y-106261073D01*
X175852300Y-106386207D01*
X175852300Y-106513793D01*
X175877191Y-106638927D01*
X175926016Y-106756801D01*
X175996899Y-106862885D01*
X176087115Y-106953101D01*
X176193199Y-107023984D01*
X176311073Y-107072809D01*
X176323800Y-107075341D01*
X176323800Y-107774659D01*
X176311073Y-107777191D01*
X176193199Y-107826016D01*
X176087115Y-107896899D01*
X175996899Y-107987115D01*
X175926016Y-108093199D01*
X175877191Y-108211073D01*
X175852300Y-108336207D01*
X175852300Y-108463793D01*
X175877191Y-108588927D01*
X175926016Y-108706801D01*
X175996899Y-108812885D01*
X176087115Y-108903101D01*
X176193199Y-108973984D01*
X176311073Y-109022809D01*
X176323800Y-109025341D01*
X176323800Y-109824659D01*
X176311073Y-109827191D01*
X176193199Y-109876016D01*
X176087115Y-109946899D01*
X175996899Y-110037115D01*
X175926016Y-110143199D01*
X175877191Y-110261073D01*
X175852300Y-110386207D01*
X175852300Y-110513793D01*
X175877191Y-110638927D01*
X175926016Y-110756801D01*
X175996899Y-110862885D01*
X176087115Y-110953101D01*
X176157005Y-110999800D01*
X174842995Y-110999800D01*
X174912885Y-110953101D01*
X175003101Y-110862885D01*
X175073984Y-110756801D01*
X175122809Y-110638927D01*
X175147700Y-110513793D01*
X175147700Y-110386207D01*
X175122809Y-110261073D01*
X175073984Y-110143199D01*
X175003101Y-110037115D01*
X174912885Y-109946899D01*
X174806801Y-109876016D01*
X174688927Y-109827191D01*
X174563793Y-109802300D01*
X174436207Y-109802300D01*
X174311073Y-109827191D01*
X174193199Y-109876016D01*
X174087115Y-109946899D01*
X173996899Y-110037115D01*
X173926016Y-110143199D01*
X173877191Y-110261073D01*
X173852300Y-110386207D01*
X173852300Y-110513793D01*
X173877191Y-110638927D01*
X173926016Y-110756801D01*
X173996899Y-110862885D01*
X174087115Y-110953101D01*
X174157005Y-110999800D01*
X172842995Y-110999800D01*
X172912885Y-110953101D01*
X173003101Y-110862885D01*
X173073984Y-110756801D01*
X173122809Y-110638927D01*
X173147700Y-110513793D01*
X173147700Y-110386207D01*
X173122809Y-110261073D01*
X173073984Y-110143199D01*
X173003101Y-110037115D01*
X172912885Y-109946899D01*
X172806801Y-109876016D01*
X172688927Y-109827191D01*
X172563793Y-109802300D01*
X172436207Y-109802300D01*
X172311073Y-109827191D01*
X172193199Y-109876016D01*
X172087115Y-109946899D01*
X171996899Y-110037115D01*
X171926016Y-110143199D01*
X171877191Y-110261073D01*
X171852300Y-110386207D01*
X171852300Y-110513793D01*
X171877191Y-110638927D01*
X171926016Y-110756801D01*
X171996899Y-110862885D01*
X172087115Y-110953101D01*
X172157005Y-110999800D01*
X170842995Y-110999800D01*
X170912885Y-110953101D01*
X171003101Y-110862885D01*
X171073984Y-110756801D01*
X171122809Y-110638927D01*
X171147700Y-110513793D01*
X171147700Y-110386207D01*
X171122809Y-110261073D01*
X171073984Y-110143199D01*
X171003101Y-110037115D01*
X170912885Y-109946899D01*
X170806801Y-109876016D01*
X170688927Y-109827191D01*
X170563793Y-109802300D01*
X170436207Y-109802300D01*
X170311073Y-109827191D01*
X170193199Y-109876016D01*
X170087115Y-109946899D01*
X169996899Y-110037115D01*
X169926016Y-110143199D01*
X169877191Y-110261073D01*
X169852300Y-110386207D01*
X169852300Y-110513793D01*
X169877191Y-110638927D01*
X169926016Y-110756801D01*
X169996899Y-110862885D01*
X170087115Y-110953101D01*
X170157005Y-110999800D01*
X168842995Y-110999800D01*
X168912885Y-110953101D01*
X169003101Y-110862885D01*
X169073984Y-110756801D01*
X169122809Y-110638927D01*
X169147700Y-110513793D01*
X169147700Y-110386207D01*
X169122809Y-110261073D01*
X169073984Y-110143199D01*
X169003101Y-110037115D01*
X168912885Y-109946899D01*
X168806801Y-109876016D01*
X168688927Y-109827191D01*
X168563793Y-109802300D01*
X168436207Y-109802300D01*
X168311073Y-109827191D01*
X168193199Y-109876016D01*
X168087115Y-109946899D01*
X167996899Y-110037115D01*
X167926016Y-110143199D01*
X167877191Y-110261073D01*
X167852300Y-110386207D01*
X167852300Y-110513793D01*
X167877191Y-110638927D01*
X167926016Y-110756801D01*
X167996899Y-110862885D01*
X168087115Y-110953101D01*
X168157005Y-110999800D01*
X166842995Y-110999800D01*
X166912885Y-110953101D01*
X167003101Y-110862885D01*
X167073984Y-110756801D01*
X167122809Y-110638927D01*
X167147700Y-110513793D01*
X167147700Y-110386207D01*
X167122809Y-110261073D01*
X167073984Y-110143199D01*
X167003101Y-110037115D01*
X166912885Y-109946899D01*
X166806801Y-109876016D01*
X166688927Y-109827191D01*
X166563793Y-109802300D01*
X166436207Y-109802300D01*
X166311073Y-109827191D01*
X166193199Y-109876016D01*
X166116274Y-109927416D01*
X166096383Y-109827416D01*
X166010432Y-109619913D01*
X165885651Y-109433165D01*
X165838693Y-109386207D01*
X166852300Y-109386207D01*
X166852300Y-109513793D01*
X166877191Y-109638927D01*
X166926016Y-109756801D01*
X166996899Y-109862885D01*
X167087115Y-109953101D01*
X167193199Y-110023984D01*
X167311073Y-110072809D01*
X167436207Y-110097700D01*
X167563793Y-110097700D01*
X167688927Y-110072809D01*
X167806801Y-110023984D01*
X167912885Y-109953101D01*
X168003101Y-109862885D01*
X168073984Y-109756801D01*
X168122809Y-109638927D01*
X168147700Y-109513793D01*
X168147700Y-109386207D01*
X168852300Y-109386207D01*
X168852300Y-109513793D01*
X168877191Y-109638927D01*
X168926016Y-109756801D01*
X168996899Y-109862885D01*
X169087115Y-109953101D01*
X169193199Y-110023984D01*
X169311073Y-110072809D01*
X169436207Y-110097700D01*
X169563793Y-110097700D01*
X169688927Y-110072809D01*
X169806801Y-110023984D01*
X169912885Y-109953101D01*
X170003101Y-109862885D01*
X170073984Y-109756801D01*
X170122809Y-109638927D01*
X170147700Y-109513793D01*
X170147700Y-109386207D01*
X170852300Y-109386207D01*
X170852300Y-109513793D01*
X170877191Y-109638927D01*
X170926016Y-109756801D01*
X170996899Y-109862885D01*
X171087115Y-109953101D01*
X171193199Y-110023984D01*
X171311073Y-110072809D01*
X171436207Y-110097700D01*
X171563793Y-110097700D01*
X171688927Y-110072809D01*
X171806801Y-110023984D01*
X171912885Y-109953101D01*
X172003101Y-109862885D01*
X172073984Y-109756801D01*
X172122809Y-109638927D01*
X172147700Y-109513793D01*
X172147700Y-109386207D01*
X172852300Y-109386207D01*
X172852300Y-109513793D01*
X172877191Y-109638927D01*
X172926016Y-109756801D01*
X172996899Y-109862885D01*
X173087115Y-109953101D01*
X173193199Y-110023984D01*
X173311073Y-110072809D01*
X173436207Y-110097700D01*
X173563793Y-110097700D01*
X173688927Y-110072809D01*
X173806801Y-110023984D01*
X173912885Y-109953101D01*
X174003101Y-109862885D01*
X174073984Y-109756801D01*
X174122809Y-109638927D01*
X174147700Y-109513793D01*
X174147700Y-109386207D01*
X174852300Y-109386207D01*
X174852300Y-109513793D01*
X174877191Y-109638927D01*
X174926016Y-109756801D01*
X174996899Y-109862885D01*
X175087115Y-109953101D01*
X175193199Y-110023984D01*
X175311073Y-110072809D01*
X175436207Y-110097700D01*
X175563793Y-110097700D01*
X175688927Y-110072809D01*
X175806801Y-110023984D01*
X175912885Y-109953101D01*
X176003101Y-109862885D01*
X176073984Y-109756801D01*
X176122809Y-109638927D01*
X176147700Y-109513793D01*
X176147700Y-109386207D01*
X176122809Y-109261073D01*
X176073984Y-109143199D01*
X176003101Y-109037115D01*
X175912885Y-108946899D01*
X175806801Y-108876016D01*
X175688927Y-108827191D01*
X175563793Y-108802300D01*
X175436207Y-108802300D01*
X175311073Y-108827191D01*
X175193199Y-108876016D01*
X175087115Y-108946899D01*
X174996899Y-109037115D01*
X174926016Y-109143199D01*
X174877191Y-109261073D01*
X174852300Y-109386207D01*
X174147700Y-109386207D01*
X174122809Y-109261073D01*
X174073984Y-109143199D01*
X174003101Y-109037115D01*
X173912885Y-108946899D01*
X173806801Y-108876016D01*
X173688927Y-108827191D01*
X173563793Y-108802300D01*
X173436207Y-108802300D01*
X173311073Y-108827191D01*
X173193199Y-108876016D01*
X173087115Y-108946899D01*
X172996899Y-109037115D01*
X172926016Y-109143199D01*
X172877191Y-109261073D01*
X172852300Y-109386207D01*
X172147700Y-109386207D01*
X172122809Y-109261073D01*
X172073984Y-109143199D01*
X172003101Y-109037115D01*
X171912885Y-108946899D01*
X171806801Y-108876016D01*
X171688927Y-108827191D01*
X171563793Y-108802300D01*
X171436207Y-108802300D01*
X171311073Y-108827191D01*
X171193199Y-108876016D01*
X171087115Y-108946899D01*
X170996899Y-109037115D01*
X170926016Y-109143199D01*
X170877191Y-109261073D01*
X170852300Y-109386207D01*
X170147700Y-109386207D01*
X170122809Y-109261073D01*
X170073984Y-109143199D01*
X170003101Y-109037115D01*
X169912885Y-108946899D01*
X169806801Y-108876016D01*
X169688927Y-108827191D01*
X169563793Y-108802300D01*
X169436207Y-108802300D01*
X169311073Y-108827191D01*
X169193199Y-108876016D01*
X169087115Y-108946899D01*
X168996899Y-109037115D01*
X168926016Y-109143199D01*
X168877191Y-109261073D01*
X168852300Y-109386207D01*
X168147700Y-109386207D01*
X168122809Y-109261073D01*
X168073984Y-109143199D01*
X168003101Y-109037115D01*
X167912885Y-108946899D01*
X167806801Y-108876016D01*
X167688927Y-108827191D01*
X167563793Y-108802300D01*
X167436207Y-108802300D01*
X167311073Y-108827191D01*
X167193199Y-108876016D01*
X167087115Y-108946899D01*
X166996899Y-109037115D01*
X166926016Y-109143199D01*
X166877191Y-109261073D01*
X166852300Y-109386207D01*
X165838693Y-109386207D01*
X165726835Y-109274349D01*
X165540087Y-109149568D01*
X165332584Y-109063617D01*
X165112300Y-109019800D01*
X164887700Y-109019800D01*
X164667416Y-109063617D01*
X164459913Y-109149568D01*
X164397700Y-109191137D01*
X164397700Y-109186207D01*
X164372809Y-109061073D01*
X164323984Y-108943199D01*
X164253101Y-108837115D01*
X164162885Y-108746899D01*
X164056801Y-108676016D01*
X163938927Y-108627191D01*
X163813793Y-108602300D01*
X163686207Y-108602300D01*
X163561073Y-108627191D01*
X163443199Y-108676016D01*
X163337115Y-108746899D01*
X163246899Y-108837115D01*
X163176016Y-108943199D01*
X163127191Y-109061073D01*
X163102300Y-109186207D01*
X163102300Y-109217865D01*
X163000087Y-109149568D01*
X162792584Y-109063617D01*
X162572300Y-109019800D01*
X162347700Y-109019800D01*
X162127416Y-109063617D01*
X161919913Y-109149568D01*
X161893873Y-109166967D01*
X161872809Y-109061073D01*
X161823984Y-108943199D01*
X161753101Y-108837115D01*
X161662885Y-108746899D01*
X161556801Y-108676016D01*
X161438927Y-108627191D01*
X161313793Y-108602300D01*
X161186207Y-108602300D01*
X161061073Y-108627191D01*
X160943199Y-108676016D01*
X160837115Y-108746899D01*
X160746899Y-108837115D01*
X160676016Y-108943199D01*
X160627191Y-109061073D01*
X160602300Y-109186207D01*
X160602300Y-109244592D01*
X160460087Y-109149568D01*
X160252584Y-109063617D01*
X160032300Y-109019800D01*
X159807700Y-109019800D01*
X159587416Y-109063617D01*
X159389613Y-109145550D01*
X159372809Y-109061073D01*
X159323984Y-108943199D01*
X159253101Y-108837115D01*
X159162885Y-108746899D01*
X159056801Y-108676016D01*
X158938927Y-108627191D01*
X158813793Y-108602300D01*
X158686207Y-108602300D01*
X158561073Y-108627191D01*
X158443199Y-108676016D01*
X158337115Y-108746899D01*
X158246899Y-108837115D01*
X158176016Y-108943199D01*
X158127191Y-109061073D01*
X158102300Y-109186207D01*
X158102300Y-109271319D01*
X157920087Y-109149568D01*
X157712584Y-109063617D01*
X157492300Y-109019800D01*
X157267700Y-109019800D01*
X157047416Y-109063617D01*
X156839913Y-109149568D01*
X156747700Y-109211183D01*
X156747700Y-109186207D01*
X156722809Y-109061073D01*
X156673984Y-108943199D01*
X156603101Y-108837115D01*
X156512885Y-108746899D01*
X156406801Y-108676016D01*
X156288927Y-108627191D01*
X156163793Y-108602300D01*
X156036207Y-108602300D01*
X155911073Y-108627191D01*
X155793199Y-108676016D01*
X155687115Y-108746899D01*
X155596899Y-108837115D01*
X155526016Y-108943199D01*
X155477191Y-109061073D01*
X155452300Y-109186207D01*
X155452300Y-109197819D01*
X155380087Y-109149568D01*
X155172584Y-109063617D01*
X154952300Y-109019800D01*
X154727700Y-109019800D01*
X154507416Y-109063617D01*
X154299913Y-109149568D01*
X154197700Y-109217865D01*
X154197700Y-109186207D01*
X154172809Y-109061073D01*
X154123984Y-108943199D01*
X154053101Y-108837115D01*
X153962885Y-108746899D01*
X153856801Y-108676016D01*
X153738927Y-108627191D01*
X153613793Y-108602300D01*
X153486207Y-108602300D01*
X153361073Y-108627191D01*
X153243199Y-108676016D01*
X153137115Y-108746899D01*
X153046899Y-108837115D01*
X152976016Y-108943199D01*
X152927191Y-109061073D01*
X152902300Y-109186207D01*
X152902300Y-109191137D01*
X152840087Y-109149568D01*
X152632584Y-109063617D01*
X152412300Y-109019800D01*
X152187700Y-109019800D01*
X151967416Y-109063617D01*
X151759913Y-109149568D01*
X151647700Y-109224546D01*
X151647700Y-109186207D01*
X151622809Y-109061073D01*
X151573984Y-108943199D01*
X151503101Y-108837115D01*
X151412885Y-108746899D01*
X151306801Y-108676016D01*
X151188927Y-108627191D01*
X151063793Y-108602300D01*
X150936207Y-108602300D01*
X150811073Y-108627191D01*
X150693199Y-108676016D01*
X150587115Y-108746899D01*
X150496899Y-108837115D01*
X150426016Y-108943199D01*
X150377191Y-109061073D01*
X150352608Y-109184661D01*
X150300087Y-109149568D01*
X150092584Y-109063617D01*
X149872300Y-109019800D01*
X149647700Y-109019800D01*
X149427416Y-109063617D01*
X149219913Y-109149568D01*
X149140960Y-109202323D01*
X149122809Y-109111073D01*
X149073984Y-108993199D01*
X149003101Y-108887115D01*
X148912885Y-108796899D01*
X148806801Y-108726016D01*
X148688927Y-108677191D01*
X148563793Y-108652300D01*
X148436207Y-108652300D01*
X148311073Y-108677191D01*
X148193199Y-108726016D01*
X148087115Y-108796899D01*
X147996899Y-108887115D01*
X147926016Y-108993199D01*
X147877191Y-109111073D01*
X147856694Y-109214119D01*
X147760087Y-109149568D01*
X147552584Y-109063617D01*
X147332300Y-109019800D01*
X147107700Y-109019800D01*
X146887416Y-109063617D01*
X146679913Y-109149568D01*
X146597700Y-109204501D01*
X146597700Y-109186207D01*
X146572809Y-109061073D01*
X146523984Y-108943199D01*
X146453101Y-108837115D01*
X146362885Y-108746899D01*
X146256801Y-108676016D01*
X146138927Y-108627191D01*
X146013793Y-108602300D01*
X145886207Y-108602300D01*
X145761073Y-108627191D01*
X145643199Y-108676016D01*
X145537115Y-108746899D01*
X145446899Y-108837115D01*
X145376016Y-108943199D01*
X145327191Y-109061073D01*
X145302300Y-109186207D01*
X145302300Y-109204501D01*
X145220087Y-109149568D01*
X145012584Y-109063617D01*
X144792300Y-109019800D01*
X144567700Y-109019800D01*
X144347416Y-109063617D01*
X144139913Y-109149568D01*
X144047700Y-109211183D01*
X144047700Y-109136207D01*
X144022809Y-109011073D01*
X143973984Y-108893199D01*
X143903101Y-108787115D01*
X143812885Y-108696899D01*
X143706801Y-108626016D01*
X143588927Y-108577191D01*
X143463793Y-108552300D01*
X143336207Y-108552300D01*
X143211073Y-108577191D01*
X143093199Y-108626016D01*
X142987115Y-108696899D01*
X142896899Y-108787115D01*
X142826016Y-108893199D01*
X142777191Y-109011073D01*
X142752300Y-109136207D01*
X142752300Y-109197819D01*
X142680087Y-109149568D01*
X142472584Y-109063617D01*
X142252300Y-109019800D01*
X142027700Y-109019800D01*
X141807416Y-109063617D01*
X141599913Y-109149568D01*
X141547700Y-109184456D01*
X141547700Y-109136207D01*
X141522809Y-109011073D01*
X141473984Y-108893199D01*
X141403101Y-108787115D01*
X141312885Y-108696899D01*
X141206801Y-108626016D01*
X141088927Y-108577191D01*
X140963793Y-108552300D01*
X140836207Y-108552300D01*
X140711073Y-108577191D01*
X140593199Y-108626016D01*
X140487115Y-108696899D01*
X140396899Y-108787115D01*
X140326016Y-108893199D01*
X140277191Y-109011073D01*
X140252300Y-109136207D01*
X140252300Y-109224546D01*
X140140087Y-109149568D01*
X139932584Y-109063617D01*
X139712300Y-109019800D01*
X139487700Y-109019800D01*
X139267416Y-109063617D01*
X139059913Y-109149568D01*
X138947700Y-109224546D01*
X138947700Y-109136207D01*
X138922809Y-109011073D01*
X138873984Y-108893199D01*
X138803101Y-108787115D01*
X138712885Y-108696899D01*
X138606801Y-108626016D01*
X138488927Y-108577191D01*
X138363793Y-108552300D01*
X138236207Y-108552300D01*
X138111073Y-108577191D01*
X137993199Y-108626016D01*
X137887115Y-108696899D01*
X137796899Y-108787115D01*
X137726016Y-108893199D01*
X137677191Y-109011073D01*
X137652300Y-109136207D01*
X137652300Y-109184456D01*
X137600087Y-109149568D01*
X137392584Y-109063617D01*
X137172300Y-109019800D01*
X136947700Y-109019800D01*
X136727416Y-109063617D01*
X136519913Y-109149568D01*
X136397700Y-109231228D01*
X136397700Y-109186207D01*
X136372809Y-109061073D01*
X136323984Y-108943199D01*
X136253101Y-108837115D01*
X136162885Y-108746899D01*
X136056801Y-108676016D01*
X135938927Y-108627191D01*
X135813793Y-108602300D01*
X135686207Y-108602300D01*
X135561073Y-108627191D01*
X135443199Y-108676016D01*
X135337115Y-108746899D01*
X135246899Y-108837115D01*
X135176016Y-108943199D01*
X135127191Y-109061073D01*
X135103781Y-109178763D01*
X135060087Y-109149568D01*
X134852584Y-109063617D01*
X134632300Y-109019800D01*
X134407700Y-109019800D01*
X134187416Y-109063617D01*
X133979913Y-109149568D01*
X133897700Y-109204501D01*
X133897700Y-109186207D01*
X133872809Y-109061073D01*
X133823984Y-108943199D01*
X133753101Y-108837115D01*
X133662885Y-108746899D01*
X133556801Y-108676016D01*
X133438927Y-108627191D01*
X133313793Y-108602300D01*
X133186207Y-108602300D01*
X133061073Y-108627191D01*
X132943199Y-108676016D01*
X132837115Y-108746899D01*
X132746899Y-108837115D01*
X132676016Y-108943199D01*
X132627191Y-109061073D01*
X132602300Y-109186207D01*
X132602300Y-109204501D01*
X132520087Y-109149568D01*
X132312584Y-109063617D01*
X132092300Y-109019800D01*
X131867700Y-109019800D01*
X131647416Y-109063617D01*
X131439913Y-109149568D01*
X131253165Y-109274349D01*
X131094349Y-109433165D01*
X130969568Y-109619913D01*
X130883617Y-109827416D01*
X130839800Y-110047700D01*
X130839800Y-110272300D01*
X130883617Y-110492584D01*
X130969568Y-110700087D01*
X131094349Y-110886835D01*
X131207314Y-110999800D01*
X130100211Y-110999800D01*
X130106593Y-110988238D01*
X129440000Y-110321645D01*
X128773407Y-110988238D01*
X128779789Y-110999800D01*
X127672686Y-110999800D01*
X127785651Y-110886835D01*
X127910432Y-110700087D01*
X127996383Y-110492584D01*
X128040200Y-110272300D01*
X128040200Y-110229456D01*
X128296391Y-110229456D01*
X128331915Y-110451228D01*
X128410022Y-110661809D01*
X128450536Y-110737605D01*
X128611762Y-110826593D01*
X129278355Y-110160000D01*
X129601645Y-110160000D01*
X130268238Y-110826593D01*
X130429464Y-110737605D01*
X130523137Y-110533472D01*
X130575186Y-110314986D01*
X130583609Y-110090544D01*
X130548085Y-109868772D01*
X130469978Y-109658191D01*
X130429464Y-109582395D01*
X130268238Y-109493407D01*
X129601645Y-110160000D01*
X129278355Y-110160000D01*
X128611762Y-109493407D01*
X128450536Y-109582395D01*
X128356863Y-109786528D01*
X128304814Y-110005014D01*
X128296391Y-110229456D01*
X128040200Y-110229456D01*
X128040200Y-110047700D01*
X127996383Y-109827416D01*
X127910432Y-109619913D01*
X127785651Y-109433165D01*
X127684248Y-109331762D01*
X128773407Y-109331762D01*
X129440000Y-109998355D01*
X130106593Y-109331762D01*
X130017605Y-109170536D01*
X129813472Y-109076863D01*
X129594986Y-109024814D01*
X129370544Y-109016391D01*
X129148772Y-109051915D01*
X128938191Y-109130022D01*
X128862395Y-109170536D01*
X128773407Y-109331762D01*
X127684248Y-109331762D01*
X127626835Y-109274349D01*
X127440087Y-109149568D01*
X127232584Y-109063617D01*
X127012300Y-109019800D01*
X126787700Y-109019800D01*
X126567416Y-109063617D01*
X126359913Y-109149568D01*
X126173165Y-109274349D01*
X126014349Y-109433165D01*
X125889568Y-109619913D01*
X125803617Y-109827416D01*
X125759800Y-110047700D01*
X125759800Y-110272300D01*
X125803617Y-110492584D01*
X125889568Y-110700087D01*
X126014349Y-110886835D01*
X126127314Y-110999800D01*
X125166186Y-110999800D01*
X125253101Y-110912885D01*
X125323984Y-110806801D01*
X125372809Y-110688927D01*
X125397700Y-110563793D01*
X125397700Y-110436207D01*
X125372809Y-110311073D01*
X125323984Y-110193199D01*
X125253101Y-110087115D01*
X125162885Y-109996899D01*
X125056801Y-109926016D01*
X124938927Y-109877191D01*
X124813793Y-109852300D01*
X124686207Y-109852300D01*
X124561073Y-109877191D01*
X124443199Y-109926016D01*
X124337115Y-109996899D01*
X124246899Y-110087115D01*
X124176016Y-110193199D01*
X124127191Y-110311073D01*
X124102300Y-110436207D01*
X124102300Y-110563793D01*
X124127191Y-110688927D01*
X124176016Y-110806801D01*
X124246899Y-110912885D01*
X124333814Y-110999800D01*
X123041032Y-110999800D01*
X122424140Y-110939313D01*
X121850976Y-110766265D01*
X121322339Y-110485183D01*
X120858369Y-110106778D01*
X120476731Y-109645458D01*
X120191966Y-109118796D01*
X120014920Y-108546853D01*
X119998036Y-108386207D01*
X165852300Y-108386207D01*
X165852300Y-108513793D01*
X165877191Y-108638927D01*
X165926016Y-108756801D01*
X165996899Y-108862885D01*
X166087115Y-108953101D01*
X166193199Y-109023984D01*
X166311073Y-109072809D01*
X166436207Y-109097700D01*
X166563793Y-109097700D01*
X166688927Y-109072809D01*
X166806801Y-109023984D01*
X166912885Y-108953101D01*
X167003101Y-108862885D01*
X167073984Y-108756801D01*
X167122809Y-108638927D01*
X167147700Y-108513793D01*
X167147700Y-108386207D01*
X167852300Y-108386207D01*
X167852300Y-108513793D01*
X167877191Y-108638927D01*
X167926016Y-108756801D01*
X167996899Y-108862885D01*
X168087115Y-108953101D01*
X168193199Y-109023984D01*
X168311073Y-109072809D01*
X168436207Y-109097700D01*
X168563793Y-109097700D01*
X168688927Y-109072809D01*
X168806801Y-109023984D01*
X168912885Y-108953101D01*
X169003101Y-108862885D01*
X169073984Y-108756801D01*
X169122809Y-108638927D01*
X169147700Y-108513793D01*
X169147700Y-108386207D01*
X169852300Y-108386207D01*
X169852300Y-108513793D01*
X169877191Y-108638927D01*
X169926016Y-108756801D01*
X169996899Y-108862885D01*
X170087115Y-108953101D01*
X170193199Y-109023984D01*
X170311073Y-109072809D01*
X170436207Y-109097700D01*
X170563793Y-109097700D01*
X170688927Y-109072809D01*
X170806801Y-109023984D01*
X170912885Y-108953101D01*
X171003101Y-108862885D01*
X171073984Y-108756801D01*
X171122809Y-108638927D01*
X171147700Y-108513793D01*
X171147700Y-108386207D01*
X171852300Y-108386207D01*
X171852300Y-108513793D01*
X171877191Y-108638927D01*
X171926016Y-108756801D01*
X171996899Y-108862885D01*
X172087115Y-108953101D01*
X172193199Y-109023984D01*
X172311073Y-109072809D01*
X172436207Y-109097700D01*
X172563793Y-109097700D01*
X172688927Y-109072809D01*
X172806801Y-109023984D01*
X172912885Y-108953101D01*
X173003101Y-108862885D01*
X173073984Y-108756801D01*
X173122809Y-108638927D01*
X173147700Y-108513793D01*
X173147700Y-108386207D01*
X173852300Y-108386207D01*
X173852300Y-108513793D01*
X173877191Y-108638927D01*
X173926016Y-108756801D01*
X173996899Y-108862885D01*
X174087115Y-108953101D01*
X174193199Y-109023984D01*
X174311073Y-109072809D01*
X174436207Y-109097700D01*
X174563793Y-109097700D01*
X174688927Y-109072809D01*
X174806801Y-109023984D01*
X174912885Y-108953101D01*
X175003101Y-108862885D01*
X175073984Y-108756801D01*
X175122809Y-108638927D01*
X175147700Y-108513793D01*
X175147700Y-108386207D01*
X175122809Y-108261073D01*
X175073984Y-108143199D01*
X175003101Y-108037115D01*
X174912885Y-107946899D01*
X174806801Y-107876016D01*
X174688927Y-107827191D01*
X174563793Y-107802300D01*
X174436207Y-107802300D01*
X174311073Y-107827191D01*
X174193199Y-107876016D01*
X174087115Y-107946899D01*
X173996899Y-108037115D01*
X173926016Y-108143199D01*
X173877191Y-108261073D01*
X173852300Y-108386207D01*
X173147700Y-108386207D01*
X173122809Y-108261073D01*
X173073984Y-108143199D01*
X173003101Y-108037115D01*
X172912885Y-107946899D01*
X172806801Y-107876016D01*
X172688927Y-107827191D01*
X172563793Y-107802300D01*
X172436207Y-107802300D01*
X172311073Y-107827191D01*
X172193199Y-107876016D01*
X172087115Y-107946899D01*
X171996899Y-108037115D01*
X171926016Y-108143199D01*
X171877191Y-108261073D01*
X171852300Y-108386207D01*
X171147700Y-108386207D01*
X171122809Y-108261073D01*
X171073984Y-108143199D01*
X171003101Y-108037115D01*
X170912885Y-107946899D01*
X170806801Y-107876016D01*
X170688927Y-107827191D01*
X170563793Y-107802300D01*
X170436207Y-107802300D01*
X170311073Y-107827191D01*
X170193199Y-107876016D01*
X170087115Y-107946899D01*
X169996899Y-108037115D01*
X169926016Y-108143199D01*
X169877191Y-108261073D01*
X169852300Y-108386207D01*
X169147700Y-108386207D01*
X169122809Y-108261073D01*
X169073984Y-108143199D01*
X169003101Y-108037115D01*
X168912885Y-107946899D01*
X168806801Y-107876016D01*
X168688927Y-107827191D01*
X168563793Y-107802300D01*
X168436207Y-107802300D01*
X168311073Y-107827191D01*
X168193199Y-107876016D01*
X168087115Y-107946899D01*
X167996899Y-108037115D01*
X167926016Y-108143199D01*
X167877191Y-108261073D01*
X167852300Y-108386207D01*
X167147700Y-108386207D01*
X167122809Y-108261073D01*
X167073984Y-108143199D01*
X167003101Y-108037115D01*
X166912885Y-107946899D01*
X166806801Y-107876016D01*
X166688927Y-107827191D01*
X166563793Y-107802300D01*
X166436207Y-107802300D01*
X166311073Y-107827191D01*
X166193199Y-107876016D01*
X166087115Y-107946899D01*
X165996899Y-108037115D01*
X165926016Y-108143199D01*
X165877191Y-108261073D01*
X165852300Y-108386207D01*
X119998036Y-108386207D01*
X119950205Y-107931140D01*
X119950200Y-107929653D01*
X119950200Y-107386207D01*
X172852300Y-107386207D01*
X172852300Y-107513793D01*
X172877191Y-107638927D01*
X172926016Y-107756801D01*
X172996899Y-107862885D01*
X173087115Y-107953101D01*
X173193199Y-108023984D01*
X173311073Y-108072809D01*
X173436207Y-108097700D01*
X173563793Y-108097700D01*
X173688927Y-108072809D01*
X173806801Y-108023984D01*
X173912885Y-107953101D01*
X174003101Y-107862885D01*
X174073984Y-107756801D01*
X174122809Y-107638927D01*
X174147700Y-107513793D01*
X174147700Y-107386207D01*
X174852300Y-107386207D01*
X174852300Y-107513793D01*
X174877191Y-107638927D01*
X174926016Y-107756801D01*
X174996899Y-107862885D01*
X175087115Y-107953101D01*
X175193199Y-108023984D01*
X175311073Y-108072809D01*
X175436207Y-108097700D01*
X175563793Y-108097700D01*
X175688927Y-108072809D01*
X175806801Y-108023984D01*
X175912885Y-107953101D01*
X176003101Y-107862885D01*
X176073984Y-107756801D01*
X176122809Y-107638927D01*
X176147700Y-107513793D01*
X176147700Y-107386207D01*
X176122809Y-107261073D01*
X176073984Y-107143199D01*
X176003101Y-107037115D01*
X175912885Y-106946899D01*
X175806801Y-106876016D01*
X175688927Y-106827191D01*
X175563793Y-106802300D01*
X175436207Y-106802300D01*
X175311073Y-106827191D01*
X175193199Y-106876016D01*
X175087115Y-106946899D01*
X174996899Y-107037115D01*
X174926016Y-107143199D01*
X174877191Y-107261073D01*
X174852300Y-107386207D01*
X174147700Y-107386207D01*
X174122809Y-107261073D01*
X174073984Y-107143199D01*
X174003101Y-107037115D01*
X173912885Y-106946899D01*
X173806801Y-106876016D01*
X173688927Y-106827191D01*
X173563793Y-106802300D01*
X173436207Y-106802300D01*
X173311073Y-106827191D01*
X173193199Y-106876016D01*
X173087115Y-106946899D01*
X172996899Y-107037115D01*
X172926016Y-107143199D01*
X172877191Y-107261073D01*
X172852300Y-107386207D01*
X119950200Y-107386207D01*
X119950200Y-105676200D01*
X120442924Y-105676200D01*
X120337115Y-105746899D01*
X120246899Y-105837115D01*
X120176016Y-105943199D01*
X120127191Y-106061073D01*
X120102300Y-106186207D01*
X120102300Y-106313793D01*
X120127191Y-106438927D01*
X120176016Y-106556801D01*
X120246899Y-106662885D01*
X120337115Y-106753101D01*
X120443199Y-106823984D01*
X120561073Y-106872809D01*
X120686207Y-106897700D01*
X120813793Y-106897700D01*
X120938927Y-106872809D01*
X121056801Y-106823984D01*
X121162885Y-106753101D01*
X121253101Y-106662885D01*
X121323984Y-106556801D01*
X121372809Y-106438927D01*
X121383295Y-106386207D01*
X173852300Y-106386207D01*
X173852300Y-106513793D01*
X173877191Y-106638927D01*
X173926016Y-106756801D01*
X173996899Y-106862885D01*
X174087115Y-106953101D01*
X174193199Y-107023984D01*
X174311073Y-107072809D01*
X174436207Y-107097700D01*
X174563793Y-107097700D01*
X174688927Y-107072809D01*
X174806801Y-107023984D01*
X174912885Y-106953101D01*
X175003101Y-106862885D01*
X175073984Y-106756801D01*
X175122809Y-106638927D01*
X175147700Y-106513793D01*
X175147700Y-106386207D01*
X175122809Y-106261073D01*
X175073984Y-106143199D01*
X175003101Y-106037115D01*
X174912885Y-105946899D01*
X174806801Y-105876016D01*
X174688927Y-105827191D01*
X174563793Y-105802300D01*
X174436207Y-105802300D01*
X174311073Y-105827191D01*
X174193199Y-105876016D01*
X174087115Y-105946899D01*
X173996899Y-106037115D01*
X173926016Y-106143199D01*
X173877191Y-106261073D01*
X173852300Y-106386207D01*
X121383295Y-106386207D01*
X121397700Y-106313793D01*
X121397700Y-106186207D01*
X121372809Y-106061073D01*
X121323984Y-105943199D01*
X121253101Y-105837115D01*
X121162885Y-105746899D01*
X121057076Y-105676200D01*
X130760214Y-105676200D01*
X130787115Y-105703101D01*
X130893199Y-105773984D01*
X131011073Y-105822809D01*
X131136207Y-105847700D01*
X131263793Y-105847700D01*
X131388927Y-105822809D01*
X131506801Y-105773984D01*
X131612885Y-105703101D01*
X131639786Y-105676200D01*
X148000000Y-105676200D01*
X148014866Y-105674736D01*
X148029160Y-105670400D01*
X148042334Y-105663358D01*
X148053882Y-105653882D01*
X148063358Y-105642334D01*
X148070400Y-105629160D01*
X148074736Y-105614866D01*
X148076200Y-105600000D01*
X148076200Y-104165004D01*
X165181097Y-104165004D01*
X165181097Y-104292590D01*
X165205988Y-104417724D01*
X165254813Y-104535598D01*
X165325696Y-104641682D01*
X165415912Y-104731898D01*
X165521996Y-104802781D01*
X165639870Y-104851606D01*
X165765004Y-104876497D01*
X165892590Y-104876497D01*
X166017724Y-104851606D01*
X166135559Y-104802797D01*
X168652300Y-104802797D01*
X168652300Y-104930383D01*
X168677191Y-105055517D01*
X168726016Y-105173391D01*
X168796899Y-105279475D01*
X168887115Y-105369691D01*
X168993199Y-105440574D01*
X169111073Y-105489399D01*
X169236207Y-105514290D01*
X169363793Y-105514290D01*
X169488927Y-105489399D01*
X169606801Y-105440574D01*
X169712885Y-105369691D01*
X169803101Y-105279475D01*
X169873984Y-105173391D01*
X169922809Y-105055517D01*
X169924815Y-105045434D01*
X169936207Y-105047700D01*
X169968990Y-105047700D01*
X169977191Y-105088927D01*
X170026016Y-105206801D01*
X170096899Y-105312885D01*
X170187115Y-105403101D01*
X170293199Y-105473984D01*
X170411073Y-105522809D01*
X170536207Y-105547700D01*
X170663793Y-105547700D01*
X170788927Y-105522809D01*
X170906801Y-105473984D01*
X171012885Y-105403101D01*
X171103101Y-105312885D01*
X171173984Y-105206801D01*
X171222809Y-105088927D01*
X171231207Y-105046706D01*
X171236207Y-105047700D01*
X171268990Y-105047700D01*
X171277191Y-105088927D01*
X171326016Y-105206801D01*
X171396899Y-105312885D01*
X171487115Y-105403101D01*
X171593199Y-105473984D01*
X171711073Y-105522809D01*
X171836207Y-105547700D01*
X171963793Y-105547700D01*
X172088927Y-105522809D01*
X172206801Y-105473984D01*
X172312885Y-105403101D01*
X172403101Y-105312885D01*
X172473984Y-105206801D01*
X172522809Y-105088927D01*
X172531207Y-105046706D01*
X172536207Y-105047700D01*
X172663793Y-105047700D01*
X172668793Y-105046706D01*
X172677191Y-105088927D01*
X172726016Y-105206801D01*
X172796899Y-105312885D01*
X172887115Y-105403101D01*
X172993199Y-105473984D01*
X173111073Y-105522809D01*
X173236207Y-105547700D01*
X173363793Y-105547700D01*
X173488927Y-105522809D01*
X173606801Y-105473984D01*
X173712885Y-105403101D01*
X173803101Y-105312885D01*
X173873984Y-105206801D01*
X173922809Y-105088927D01*
X173931010Y-105047700D01*
X173952300Y-105047700D01*
X173952300Y-105063793D01*
X173977191Y-105188927D01*
X174026016Y-105306801D01*
X174096899Y-105412885D01*
X174187115Y-105503101D01*
X174293199Y-105573984D01*
X174411073Y-105622809D01*
X174536207Y-105647700D01*
X174663793Y-105647700D01*
X174788927Y-105622809D01*
X174867510Y-105590259D01*
X174877191Y-105638927D01*
X174926016Y-105756801D01*
X174996899Y-105862885D01*
X175087115Y-105953101D01*
X175193199Y-106023984D01*
X175311073Y-106072809D01*
X175436207Y-106097700D01*
X175563793Y-106097700D01*
X175688927Y-106072809D01*
X175806801Y-106023984D01*
X175912885Y-105953101D01*
X176003101Y-105862885D01*
X176073984Y-105756801D01*
X176122809Y-105638927D01*
X176147700Y-105513793D01*
X176147700Y-105386207D01*
X176122809Y-105261073D01*
X176073984Y-105143199D01*
X176003101Y-105037115D01*
X175912885Y-104946899D01*
X175806801Y-104876016D01*
X175688927Y-104827191D01*
X175563793Y-104802300D01*
X175436207Y-104802300D01*
X175311073Y-104827191D01*
X175232490Y-104859741D01*
X175222809Y-104811073D01*
X175173984Y-104693199D01*
X175103101Y-104587115D01*
X175012885Y-104496899D01*
X174906801Y-104426016D01*
X174788927Y-104377191D01*
X174663793Y-104352300D01*
X174547700Y-104352300D01*
X174547700Y-104336207D01*
X174522809Y-104211073D01*
X174473984Y-104093199D01*
X174403101Y-103987115D01*
X174312885Y-103896899D01*
X174206801Y-103826016D01*
X174088927Y-103777191D01*
X173963793Y-103752300D01*
X173836207Y-103752300D01*
X173711073Y-103777191D01*
X173593199Y-103826016D01*
X173487115Y-103896899D01*
X173396899Y-103987115D01*
X173326016Y-104093199D01*
X173277191Y-104211073D01*
X173268990Y-104252300D01*
X173236207Y-104252300D01*
X173231207Y-104253294D01*
X173222809Y-104211073D01*
X173173984Y-104093199D01*
X173103101Y-103987115D01*
X173012885Y-103896899D01*
X172906801Y-103826016D01*
X172788927Y-103777191D01*
X172663793Y-103752300D01*
X172536207Y-103752300D01*
X172411073Y-103777191D01*
X172293199Y-103826016D01*
X172187115Y-103896899D01*
X172096899Y-103987115D01*
X172026016Y-104093199D01*
X171977191Y-104211073D01*
X171968793Y-104253294D01*
X171963793Y-104252300D01*
X171931010Y-104252300D01*
X171922809Y-104211073D01*
X171873984Y-104093199D01*
X171803101Y-103987115D01*
X171712885Y-103896899D01*
X171606801Y-103826016D01*
X171488927Y-103777191D01*
X171363793Y-103752300D01*
X171236207Y-103752300D01*
X171111073Y-103777191D01*
X170993199Y-103826016D01*
X170887115Y-103896899D01*
X170796899Y-103987115D01*
X170726016Y-104093199D01*
X170677191Y-104211073D01*
X170668793Y-104253294D01*
X170663793Y-104252300D01*
X170631010Y-104252300D01*
X170622809Y-104211073D01*
X170573984Y-104093199D01*
X170503101Y-103987115D01*
X170412885Y-103896899D01*
X170306801Y-103826016D01*
X170188927Y-103777191D01*
X170063793Y-103752300D01*
X169936207Y-103752300D01*
X169811073Y-103777191D01*
X169693199Y-103826016D01*
X169587115Y-103896899D01*
X169496899Y-103987115D01*
X169426016Y-104093199D01*
X169377191Y-104211073D01*
X169375185Y-104221156D01*
X169363793Y-104218890D01*
X169236207Y-104218890D01*
X169111073Y-104243781D01*
X168993199Y-104292606D01*
X168887115Y-104363489D01*
X168796899Y-104453705D01*
X168726016Y-104559789D01*
X168677191Y-104677663D01*
X168652300Y-104802797D01*
X166135559Y-104802797D01*
X166135598Y-104802781D01*
X166241682Y-104731898D01*
X166331898Y-104641682D01*
X166402781Y-104535598D01*
X166451606Y-104417724D01*
X166476497Y-104292590D01*
X166476497Y-104165004D01*
X166451606Y-104039870D01*
X166402781Y-103921996D01*
X166331898Y-103815912D01*
X166241682Y-103725696D01*
X166135598Y-103654813D01*
X166017724Y-103605988D01*
X165892590Y-103581097D01*
X165765004Y-103581097D01*
X165639870Y-103605988D01*
X165521996Y-103654813D01*
X165415912Y-103725696D01*
X165325696Y-103815912D01*
X165254813Y-103921996D01*
X165205988Y-104039870D01*
X165181097Y-104165004D01*
X148076200Y-104165004D01*
X148076200Y-102606207D01*
X158102300Y-102606207D01*
X158102300Y-102733793D01*
X158127191Y-102858927D01*
X158176016Y-102976801D01*
X158246899Y-103082885D01*
X158337115Y-103173101D01*
X158443199Y-103243984D01*
X158561073Y-103292809D01*
X158686207Y-103317700D01*
X158813793Y-103317700D01*
X158938927Y-103292809D01*
X159056801Y-103243984D01*
X159058846Y-103242617D01*
X167577300Y-103242617D01*
X167577300Y-103370203D01*
X167602191Y-103495337D01*
X167651016Y-103613211D01*
X167721899Y-103719295D01*
X167812115Y-103809511D01*
X167918199Y-103880394D01*
X168036073Y-103929219D01*
X168161207Y-103954110D01*
X168288793Y-103954110D01*
X168413927Y-103929219D01*
X168531801Y-103880394D01*
X168637885Y-103809511D01*
X168728101Y-103719295D01*
X168798984Y-103613211D01*
X168847809Y-103495337D01*
X168872700Y-103370203D01*
X168872700Y-103242617D01*
X168847809Y-103117483D01*
X168798984Y-102999609D01*
X168728101Y-102893525D01*
X168637885Y-102803309D01*
X168531801Y-102732426D01*
X168413927Y-102683601D01*
X168288793Y-102658710D01*
X168161207Y-102658710D01*
X168036073Y-102683601D01*
X167918199Y-102732426D01*
X167812115Y-102803309D01*
X167721899Y-102893525D01*
X167651016Y-102999609D01*
X167602191Y-103117483D01*
X167577300Y-103242617D01*
X159058846Y-103242617D01*
X159162885Y-103173101D01*
X159253101Y-103082885D01*
X159323984Y-102976801D01*
X159372809Y-102858927D01*
X159397700Y-102733793D01*
X159397700Y-102606207D01*
X159372809Y-102481073D01*
X159323984Y-102363199D01*
X159253101Y-102257115D01*
X159162885Y-102166899D01*
X159056801Y-102096016D01*
X158938927Y-102047191D01*
X158813793Y-102022300D01*
X158686207Y-102022300D01*
X158561073Y-102047191D01*
X158443199Y-102096016D01*
X158337115Y-102166899D01*
X158246899Y-102257115D01*
X158176016Y-102363199D01*
X158127191Y-102481073D01*
X158102300Y-102606207D01*
X148076200Y-102606207D01*
X148076200Y-101336207D01*
X154002300Y-101336207D01*
X154002300Y-101463793D01*
X154027191Y-101588927D01*
X154076016Y-101706801D01*
X154146899Y-101812885D01*
X154237115Y-101903101D01*
X154343199Y-101973984D01*
X154461073Y-102022809D01*
X154586207Y-102047700D01*
X154713793Y-102047700D01*
X154838927Y-102022809D01*
X154956801Y-101973984D01*
X155062885Y-101903101D01*
X155153101Y-101812885D01*
X155223984Y-101706801D01*
X155272809Y-101588927D01*
X155297700Y-101463793D01*
X155297700Y-101344217D01*
X164102300Y-101344217D01*
X164102300Y-101471803D01*
X164127191Y-101596937D01*
X164176016Y-101714811D01*
X164246899Y-101820895D01*
X164337115Y-101911111D01*
X164443199Y-101981994D01*
X164561073Y-102030819D01*
X164686207Y-102055710D01*
X164813793Y-102055710D01*
X164938927Y-102030819D01*
X165056801Y-101981994D01*
X165162885Y-101911111D01*
X165253101Y-101820895D01*
X165323984Y-101714811D01*
X165372809Y-101596937D01*
X165397700Y-101471803D01*
X165397700Y-101436207D01*
X166352300Y-101436207D01*
X166352300Y-101563793D01*
X166377191Y-101688927D01*
X166426016Y-101806801D01*
X166496899Y-101912885D01*
X166587115Y-102003101D01*
X166693199Y-102073984D01*
X166811073Y-102122809D01*
X166936207Y-102147700D01*
X167063793Y-102147700D01*
X167121571Y-102136207D01*
X173102300Y-102136207D01*
X173102300Y-102263793D01*
X173127191Y-102388927D01*
X173176016Y-102506801D01*
X173246899Y-102612885D01*
X173337115Y-102703101D01*
X173443199Y-102773984D01*
X173561073Y-102822809D01*
X173686207Y-102847700D01*
X173813793Y-102847700D01*
X173938927Y-102822809D01*
X174056801Y-102773984D01*
X174162885Y-102703101D01*
X174253101Y-102612885D01*
X174323984Y-102506801D01*
X174372809Y-102388927D01*
X174397700Y-102263793D01*
X174397700Y-102136207D01*
X174372809Y-102011073D01*
X174341799Y-101936207D01*
X174852300Y-101936207D01*
X174852300Y-102063793D01*
X174877191Y-102188927D01*
X174926016Y-102306801D01*
X174996899Y-102412885D01*
X175087115Y-102503101D01*
X175193199Y-102573984D01*
X175311073Y-102622809D01*
X175436207Y-102647700D01*
X175563793Y-102647700D01*
X175688927Y-102622809D01*
X175806801Y-102573984D01*
X175912885Y-102503101D01*
X176003101Y-102412885D01*
X176073984Y-102306801D01*
X176122809Y-102188927D01*
X176147700Y-102063793D01*
X176147700Y-101936207D01*
X176122809Y-101811073D01*
X176073984Y-101693199D01*
X176003101Y-101587115D01*
X175912885Y-101496899D01*
X175806801Y-101426016D01*
X175688927Y-101377191D01*
X175563793Y-101352300D01*
X175436207Y-101352300D01*
X175311073Y-101377191D01*
X175193199Y-101426016D01*
X175087115Y-101496899D01*
X174996899Y-101587115D01*
X174926016Y-101693199D01*
X174877191Y-101811073D01*
X174852300Y-101936207D01*
X174341799Y-101936207D01*
X174323984Y-101893199D01*
X174253101Y-101787115D01*
X174162885Y-101696899D01*
X174056801Y-101626016D01*
X173938927Y-101577191D01*
X173813793Y-101552300D01*
X173686207Y-101552300D01*
X173561073Y-101577191D01*
X173443199Y-101626016D01*
X173337115Y-101696899D01*
X173246899Y-101787115D01*
X173176016Y-101893199D01*
X173127191Y-102011073D01*
X173102300Y-102136207D01*
X167121571Y-102136207D01*
X167188927Y-102122809D01*
X167306801Y-102073984D01*
X167412885Y-102003101D01*
X167503101Y-101912885D01*
X167573984Y-101806801D01*
X167622809Y-101688927D01*
X167647700Y-101563793D01*
X167647700Y-101436207D01*
X167622809Y-101311073D01*
X167573984Y-101193199D01*
X167503101Y-101087115D01*
X167412885Y-100996899D01*
X167306801Y-100926016D01*
X167188927Y-100877191D01*
X167063793Y-100852300D01*
X166936207Y-100852300D01*
X166811073Y-100877191D01*
X166693199Y-100926016D01*
X166587115Y-100996899D01*
X166496899Y-101087115D01*
X166426016Y-101193199D01*
X166377191Y-101311073D01*
X166352300Y-101436207D01*
X165397700Y-101436207D01*
X165397700Y-101344217D01*
X165372809Y-101219083D01*
X165323984Y-101101209D01*
X165253101Y-100995125D01*
X165162885Y-100904909D01*
X165056801Y-100834026D01*
X164938927Y-100785201D01*
X164813793Y-100760310D01*
X164686207Y-100760310D01*
X164561073Y-100785201D01*
X164443199Y-100834026D01*
X164337115Y-100904909D01*
X164246899Y-100995125D01*
X164176016Y-101101209D01*
X164127191Y-101219083D01*
X164102300Y-101344217D01*
X155297700Y-101344217D01*
X155297700Y-101336207D01*
X155272809Y-101211073D01*
X155223984Y-101093199D01*
X155153101Y-100987115D01*
X155062885Y-100896899D01*
X154956801Y-100826016D01*
X154838927Y-100777191D01*
X154713793Y-100752300D01*
X154586207Y-100752300D01*
X154461073Y-100777191D01*
X154343199Y-100826016D01*
X154237115Y-100896899D01*
X154146899Y-100987115D01*
X154076016Y-101093199D01*
X154027191Y-101211073D01*
X154002300Y-101336207D01*
X148076200Y-101336207D01*
X148076200Y-99936207D01*
X162102300Y-99936207D01*
X162102300Y-100063793D01*
X162127191Y-100188927D01*
X162176016Y-100306801D01*
X162246899Y-100412885D01*
X162337115Y-100503101D01*
X162443199Y-100573984D01*
X162561073Y-100622809D01*
X162686207Y-100647700D01*
X162813793Y-100647700D01*
X162938927Y-100622809D01*
X163056801Y-100573984D01*
X163162885Y-100503101D01*
X163253101Y-100412885D01*
X163323984Y-100306801D01*
X163352290Y-100238464D01*
X163352290Y-100321803D01*
X163377181Y-100446937D01*
X163426006Y-100564811D01*
X163496889Y-100670895D01*
X163587105Y-100761111D01*
X163693189Y-100831994D01*
X163811063Y-100880819D01*
X163936197Y-100905710D01*
X164063783Y-100905710D01*
X164188917Y-100880819D01*
X164306791Y-100831994D01*
X164412875Y-100761111D01*
X164503091Y-100670895D01*
X164573974Y-100564811D01*
X164622799Y-100446937D01*
X164647690Y-100321803D01*
X164647690Y-100194217D01*
X164622799Y-100069083D01*
X164573974Y-99951209D01*
X164503091Y-99845125D01*
X164412875Y-99754909D01*
X164306791Y-99684026D01*
X164188917Y-99635201D01*
X164063783Y-99610310D01*
X163936197Y-99610310D01*
X163811063Y-99635201D01*
X163693189Y-99684026D01*
X163587105Y-99754909D01*
X163496889Y-99845125D01*
X163426006Y-99951209D01*
X163397700Y-100019546D01*
X163397700Y-99936207D01*
X163372809Y-99811073D01*
X163323984Y-99693199D01*
X163253101Y-99587115D01*
X163162885Y-99496899D01*
X163056801Y-99426016D01*
X162938927Y-99377191D01*
X162813793Y-99352300D01*
X162686207Y-99352300D01*
X162561073Y-99377191D01*
X162443199Y-99426016D01*
X162337115Y-99496899D01*
X162246899Y-99587115D01*
X162176016Y-99693199D01*
X162127191Y-99811073D01*
X162102300Y-99936207D01*
X148076200Y-99936207D01*
X148076200Y-98936207D01*
X149552300Y-98936207D01*
X149552300Y-99063793D01*
X149577191Y-99188927D01*
X149626016Y-99306801D01*
X149696899Y-99412885D01*
X149787115Y-99503101D01*
X149893199Y-99573984D01*
X150011073Y-99622809D01*
X150136207Y-99647700D01*
X150263793Y-99647700D01*
X150388927Y-99622809D01*
X150506801Y-99573984D01*
X150612885Y-99503101D01*
X150703101Y-99412885D01*
X150773984Y-99306801D01*
X150822809Y-99188927D01*
X150847700Y-99063793D01*
X150847700Y-99019207D01*
X153235264Y-99019207D01*
X153235264Y-99146793D01*
X153260155Y-99271927D01*
X153308980Y-99389801D01*
X153379863Y-99495885D01*
X153470079Y-99586101D01*
X153576163Y-99656984D01*
X153694037Y-99705809D01*
X153819171Y-99730700D01*
X153946757Y-99730700D01*
X154071891Y-99705809D01*
X154189765Y-99656984D01*
X154295849Y-99586101D01*
X154386065Y-99495885D01*
X154456948Y-99389801D01*
X154482033Y-99329239D01*
X165085983Y-99329239D01*
X165085983Y-99456825D01*
X165110874Y-99581959D01*
X165159699Y-99699833D01*
X165230582Y-99805917D01*
X165320798Y-99896133D01*
X165426882Y-99967016D01*
X165544756Y-100015841D01*
X165669890Y-100040732D01*
X165797476Y-100040732D01*
X165922610Y-100015841D01*
X166040484Y-99967016D01*
X166146568Y-99896133D01*
X166236784Y-99805917D01*
X166307667Y-99699833D01*
X166356492Y-99581959D01*
X166381383Y-99456825D01*
X166381383Y-99329239D01*
X166356492Y-99204105D01*
X166307667Y-99086231D01*
X166236784Y-98980147D01*
X166146568Y-98889931D01*
X166040484Y-98819048D01*
X165922610Y-98770223D01*
X165797476Y-98745332D01*
X165669890Y-98745332D01*
X165544756Y-98770223D01*
X165426882Y-98819048D01*
X165320798Y-98889931D01*
X165230582Y-98980147D01*
X165159699Y-99086231D01*
X165110874Y-99204105D01*
X165085983Y-99329239D01*
X154482033Y-99329239D01*
X154505773Y-99271927D01*
X154530664Y-99146793D01*
X154530664Y-99019207D01*
X154505773Y-98894073D01*
X154456948Y-98776199D01*
X154386065Y-98670115D01*
X154302157Y-98586207D01*
X168952300Y-98586207D01*
X168952300Y-98713793D01*
X168977191Y-98838927D01*
X169026016Y-98956801D01*
X169096899Y-99062885D01*
X169134014Y-99100000D01*
X169096899Y-99137115D01*
X169026016Y-99243199D01*
X168977191Y-99361073D01*
X168952300Y-99486207D01*
X168952300Y-99613793D01*
X168977191Y-99738927D01*
X169026016Y-99856801D01*
X169096899Y-99962885D01*
X169134014Y-100000000D01*
X169096899Y-100037115D01*
X169026016Y-100143199D01*
X168977191Y-100261073D01*
X168952300Y-100386207D01*
X168952300Y-100513793D01*
X168977191Y-100638927D01*
X169026016Y-100756801D01*
X169096899Y-100862885D01*
X169134014Y-100900000D01*
X169096899Y-100937115D01*
X169026016Y-101043199D01*
X168977191Y-101161073D01*
X168952300Y-101286207D01*
X168952300Y-101413793D01*
X168977191Y-101538927D01*
X169026016Y-101656801D01*
X169096899Y-101762885D01*
X169187115Y-101853101D01*
X169293199Y-101923984D01*
X169411073Y-101972809D01*
X169536207Y-101997700D01*
X169663793Y-101997700D01*
X169788927Y-101972809D01*
X169906801Y-101923984D01*
X170012885Y-101853101D01*
X170103101Y-101762885D01*
X170173984Y-101656801D01*
X170222809Y-101538927D01*
X170247700Y-101413793D01*
X170247700Y-101286207D01*
X170222809Y-101161073D01*
X170173984Y-101043199D01*
X170103101Y-100937115D01*
X170065986Y-100900000D01*
X170103101Y-100862885D01*
X170173984Y-100756801D01*
X170222809Y-100638927D01*
X170247700Y-100513793D01*
X170247700Y-100386207D01*
X173302300Y-100386207D01*
X173302300Y-100513793D01*
X173327191Y-100638927D01*
X173376016Y-100756801D01*
X173446899Y-100862885D01*
X173537115Y-100953101D01*
X173643199Y-101023984D01*
X173761073Y-101072809D01*
X173886207Y-101097700D01*
X174013793Y-101097700D01*
X174138927Y-101072809D01*
X174256801Y-101023984D01*
X174362885Y-100953101D01*
X174453101Y-100862885D01*
X174523984Y-100756801D01*
X174572809Y-100638927D01*
X174597700Y-100513793D01*
X174597700Y-100386207D01*
X174572809Y-100261073D01*
X174523984Y-100143199D01*
X174453101Y-100037115D01*
X174362885Y-99946899D01*
X174256801Y-99876016D01*
X174138927Y-99827191D01*
X174013793Y-99802300D01*
X173886207Y-99802300D01*
X173761073Y-99827191D01*
X173643199Y-99876016D01*
X173537115Y-99946899D01*
X173446899Y-100037115D01*
X173376016Y-100143199D01*
X173327191Y-100261073D01*
X173302300Y-100386207D01*
X170247700Y-100386207D01*
X170222809Y-100261073D01*
X170173984Y-100143199D01*
X170103101Y-100037115D01*
X170065986Y-100000000D01*
X170103101Y-99962885D01*
X170173984Y-99856801D01*
X170222809Y-99738927D01*
X170247700Y-99613793D01*
X170247700Y-99486207D01*
X170222809Y-99361073D01*
X170173984Y-99243199D01*
X170103101Y-99137115D01*
X170065986Y-99100000D01*
X170103101Y-99062885D01*
X170173984Y-98956801D01*
X170222809Y-98838927D01*
X170247700Y-98713793D01*
X170247700Y-98586207D01*
X170222809Y-98461073D01*
X170173984Y-98343199D01*
X170103101Y-98237115D01*
X170059544Y-98193558D01*
X170106801Y-98173984D01*
X170212885Y-98103101D01*
X170303101Y-98012885D01*
X170373984Y-97906801D01*
X170422809Y-97788927D01*
X170433295Y-97736207D01*
X170602300Y-97736207D01*
X170602300Y-97863793D01*
X170627191Y-97988927D01*
X170676016Y-98106801D01*
X170746899Y-98212885D01*
X170837115Y-98303101D01*
X170943199Y-98373984D01*
X171061073Y-98422809D01*
X171186207Y-98447700D01*
X171313793Y-98447700D01*
X171438927Y-98422809D01*
X171556801Y-98373984D01*
X171662885Y-98303101D01*
X171700000Y-98265986D01*
X171737115Y-98303101D01*
X171843199Y-98373984D01*
X171961073Y-98422809D01*
X172086207Y-98447700D01*
X172213793Y-98447700D01*
X172338927Y-98422809D01*
X172456801Y-98373984D01*
X172562885Y-98303101D01*
X172600000Y-98265986D01*
X172637115Y-98303101D01*
X172743199Y-98373984D01*
X172861073Y-98422809D01*
X172986207Y-98447700D01*
X173113793Y-98447700D01*
X173238927Y-98422809D01*
X173356801Y-98373984D01*
X173462885Y-98303101D01*
X173500000Y-98265986D01*
X173537115Y-98303101D01*
X173643199Y-98373984D01*
X173761073Y-98422809D01*
X173886207Y-98447700D01*
X174013793Y-98447700D01*
X174138927Y-98422809D01*
X174256801Y-98373984D01*
X174362885Y-98303101D01*
X174400000Y-98265986D01*
X174437115Y-98303101D01*
X174543199Y-98373984D01*
X174661073Y-98422809D01*
X174786207Y-98447700D01*
X174913793Y-98447700D01*
X174988920Y-98432756D01*
X174977191Y-98461073D01*
X174952300Y-98586207D01*
X174952300Y-98713793D01*
X174977191Y-98838927D01*
X175026016Y-98956801D01*
X175096899Y-99062885D01*
X175187115Y-99153101D01*
X175293199Y-99223984D01*
X175411073Y-99272809D01*
X175536207Y-99297700D01*
X175663793Y-99297700D01*
X175788927Y-99272809D01*
X175906801Y-99223984D01*
X176012885Y-99153101D01*
X176103101Y-99062885D01*
X176173984Y-98956801D01*
X176222809Y-98838927D01*
X176247700Y-98713793D01*
X176247700Y-98586207D01*
X176222809Y-98461073D01*
X176173984Y-98343199D01*
X176103101Y-98237115D01*
X176012885Y-98146899D01*
X175906801Y-98076016D01*
X175788927Y-98027191D01*
X175663793Y-98002300D01*
X175536207Y-98002300D01*
X175461080Y-98017244D01*
X175472809Y-97988927D01*
X175497700Y-97863793D01*
X175497700Y-97736207D01*
X175472809Y-97611073D01*
X175423984Y-97493199D01*
X175353101Y-97387115D01*
X175262885Y-97296899D01*
X175156801Y-97226016D01*
X175038927Y-97177191D01*
X174913793Y-97152300D01*
X174786207Y-97152300D01*
X174661073Y-97177191D01*
X174543199Y-97226016D01*
X174437115Y-97296899D01*
X174400000Y-97334014D01*
X174362885Y-97296899D01*
X174256801Y-97226016D01*
X174138927Y-97177191D01*
X174013793Y-97152300D01*
X173886207Y-97152300D01*
X173761073Y-97177191D01*
X173643199Y-97226016D01*
X173537115Y-97296899D01*
X173500000Y-97334014D01*
X173462885Y-97296899D01*
X173356801Y-97226016D01*
X173238927Y-97177191D01*
X173113793Y-97152300D01*
X172986207Y-97152300D01*
X172861073Y-97177191D01*
X172743199Y-97226016D01*
X172637115Y-97296899D01*
X172600000Y-97334014D01*
X172562885Y-97296899D01*
X172456801Y-97226016D01*
X172338927Y-97177191D01*
X172213793Y-97152300D01*
X172086207Y-97152300D01*
X171961073Y-97177191D01*
X171843199Y-97226016D01*
X171737115Y-97296899D01*
X171700000Y-97334014D01*
X171662885Y-97296899D01*
X171556801Y-97226016D01*
X171438927Y-97177191D01*
X171313793Y-97152300D01*
X171186207Y-97152300D01*
X171061073Y-97177191D01*
X170943199Y-97226016D01*
X170837115Y-97296899D01*
X170746899Y-97387115D01*
X170676016Y-97493199D01*
X170627191Y-97611073D01*
X170602300Y-97736207D01*
X170433295Y-97736207D01*
X170447700Y-97663793D01*
X170447700Y-97536207D01*
X170422809Y-97411073D01*
X170373984Y-97293199D01*
X170303101Y-97187115D01*
X170212885Y-97096899D01*
X170106801Y-97026016D01*
X169988927Y-96977191D01*
X169863793Y-96952300D01*
X169736207Y-96952300D01*
X169611073Y-96977191D01*
X169493199Y-97026016D01*
X169387115Y-97096899D01*
X169296899Y-97187115D01*
X169226016Y-97293199D01*
X169177191Y-97411073D01*
X169152300Y-97536207D01*
X169152300Y-97663793D01*
X169177191Y-97788927D01*
X169226016Y-97906801D01*
X169296899Y-98012885D01*
X169340456Y-98056442D01*
X169293199Y-98076016D01*
X169187115Y-98146899D01*
X169096899Y-98237115D01*
X169026016Y-98343199D01*
X168977191Y-98461073D01*
X168952300Y-98586207D01*
X154302157Y-98586207D01*
X154295849Y-98579899D01*
X154189765Y-98509016D01*
X154071891Y-98460191D01*
X153946757Y-98435300D01*
X153819171Y-98435300D01*
X153694037Y-98460191D01*
X153576163Y-98509016D01*
X153470079Y-98579899D01*
X153379863Y-98670115D01*
X153308980Y-98776199D01*
X153260155Y-98894073D01*
X153235264Y-99019207D01*
X150847700Y-99019207D01*
X150847700Y-98936207D01*
X150822809Y-98811073D01*
X150773984Y-98693199D01*
X150703101Y-98587115D01*
X150612885Y-98496899D01*
X150506801Y-98426016D01*
X150388927Y-98377191D01*
X150263793Y-98352300D01*
X150136207Y-98352300D01*
X150011073Y-98377191D01*
X149893199Y-98426016D01*
X149787115Y-98496899D01*
X149696899Y-98587115D01*
X149626016Y-98693199D01*
X149577191Y-98811073D01*
X149552300Y-98936207D01*
X148076200Y-98936207D01*
X148076200Y-97536189D01*
X158102300Y-97536189D01*
X158102300Y-97663775D01*
X158127191Y-97788909D01*
X158176016Y-97906783D01*
X158246899Y-98012867D01*
X158337115Y-98103083D01*
X158443199Y-98173966D01*
X158561073Y-98222791D01*
X158686207Y-98247682D01*
X158813793Y-98247682D01*
X158938927Y-98222791D01*
X159056801Y-98173966D01*
X159162885Y-98103083D01*
X159253101Y-98012867D01*
X159323984Y-97906783D01*
X159372809Y-97788909D01*
X159397700Y-97663775D01*
X159397700Y-97536189D01*
X159372809Y-97411055D01*
X159323984Y-97293181D01*
X159253101Y-97187097D01*
X159162885Y-97096881D01*
X159056801Y-97025998D01*
X158938927Y-96977173D01*
X158813793Y-96952282D01*
X158686207Y-96952282D01*
X158561073Y-96977173D01*
X158443199Y-97025998D01*
X158337115Y-97096881D01*
X158246899Y-97187097D01*
X158176016Y-97293181D01*
X158127191Y-97411055D01*
X158102300Y-97536189D01*
X148076200Y-97536189D01*
X148076200Y-95936207D01*
X173777300Y-95936207D01*
X173777300Y-96063793D01*
X173802191Y-96188927D01*
X173851016Y-96306801D01*
X173921899Y-96412885D01*
X174012115Y-96503101D01*
X174118199Y-96573984D01*
X174236073Y-96622809D01*
X174361207Y-96647700D01*
X174488793Y-96647700D01*
X174613927Y-96622809D01*
X174731801Y-96573984D01*
X174837885Y-96503101D01*
X174928101Y-96412885D01*
X174998984Y-96306801D01*
X175047809Y-96188927D01*
X175072700Y-96063793D01*
X175072700Y-95936207D01*
X175047809Y-95811073D01*
X174998984Y-95693199D01*
X174928101Y-95587115D01*
X174837885Y-95496899D01*
X174731801Y-95426016D01*
X174613927Y-95377191D01*
X174488793Y-95352300D01*
X174361207Y-95352300D01*
X174236073Y-95377191D01*
X174118199Y-95426016D01*
X174012115Y-95496899D01*
X173921899Y-95587115D01*
X173851016Y-95693199D01*
X173802191Y-95811073D01*
X173777300Y-95936207D01*
X148076200Y-95936207D01*
X148076200Y-94800000D01*
X148074736Y-94785134D01*
X148070400Y-94770840D01*
X148063358Y-94757666D01*
X148053882Y-94746118D01*
X148042334Y-94736642D01*
X148029160Y-94729600D01*
X148014866Y-94725264D01*
X148000000Y-94723800D01*
X142119786Y-94723800D01*
X142092885Y-94696899D01*
X141986801Y-94626016D01*
X141868927Y-94577191D01*
X141743793Y-94552300D01*
X141616207Y-94552300D01*
X141491073Y-94577191D01*
X141373199Y-94626016D01*
X141267115Y-94696899D01*
X141240214Y-94723800D01*
X127992185Y-94723800D01*
X128579778Y-94136207D01*
X162152300Y-94136207D01*
X162152300Y-94263793D01*
X162177191Y-94388927D01*
X162226016Y-94506801D01*
X162296899Y-94612885D01*
X162387115Y-94703101D01*
X162493199Y-94773984D01*
X162611073Y-94822809D01*
X162736207Y-94847700D01*
X162863793Y-94847700D01*
X162988927Y-94822809D01*
X163106801Y-94773984D01*
X163212885Y-94703101D01*
X163303101Y-94612885D01*
X163373984Y-94506801D01*
X163422809Y-94388927D01*
X163447700Y-94263793D01*
X163447700Y-94136207D01*
X163422809Y-94011073D01*
X163373984Y-93893199D01*
X163303101Y-93787115D01*
X163212885Y-93696899D01*
X163106801Y-93626016D01*
X162988927Y-93577191D01*
X162863793Y-93552300D01*
X162736207Y-93552300D01*
X162611073Y-93577191D01*
X162493199Y-93626016D01*
X162387115Y-93696899D01*
X162296899Y-93787115D01*
X162226016Y-93893199D01*
X162177191Y-94011073D01*
X162152300Y-94136207D01*
X128579778Y-94136207D01*
X129392878Y-93323107D01*
X167565400Y-93323107D01*
X167565400Y-93450693D01*
X167590291Y-93575827D01*
X167639116Y-93693701D01*
X167709999Y-93799785D01*
X167800215Y-93890001D01*
X167906299Y-93960884D01*
X168024173Y-94009709D01*
X168149307Y-94034600D01*
X168276893Y-94034600D01*
X168402027Y-94009709D01*
X168519901Y-93960884D01*
X168625985Y-93890001D01*
X168716201Y-93799785D01*
X168787084Y-93693701D01*
X168803837Y-93653256D01*
X168826016Y-93706801D01*
X168896899Y-93812885D01*
X168987115Y-93903101D01*
X169093199Y-93973984D01*
X169211073Y-94022809D01*
X169336207Y-94047700D01*
X169463793Y-94047700D01*
X169588927Y-94022809D01*
X169706801Y-93973984D01*
X169812885Y-93903101D01*
X169903101Y-93812885D01*
X169973984Y-93706801D01*
X170022809Y-93588927D01*
X170047700Y-93463793D01*
X170047700Y-93336207D01*
X170022809Y-93211073D01*
X170012510Y-93186207D01*
X173102300Y-93186207D01*
X173102300Y-93313793D01*
X173127191Y-93438927D01*
X173176016Y-93556801D01*
X173246899Y-93662885D01*
X173337115Y-93753101D01*
X173443199Y-93823984D01*
X173561073Y-93872809D01*
X173686207Y-93897700D01*
X173813793Y-93897700D01*
X173938927Y-93872809D01*
X174056801Y-93823984D01*
X174162885Y-93753101D01*
X174253101Y-93662885D01*
X174323984Y-93556801D01*
X174352300Y-93488440D01*
X174352300Y-93563793D01*
X174377191Y-93688927D01*
X174426016Y-93806801D01*
X174496899Y-93912885D01*
X174587115Y-94003101D01*
X174693199Y-94073984D01*
X174811073Y-94122809D01*
X174936207Y-94147700D01*
X175063793Y-94147700D01*
X175188927Y-94122809D01*
X175306801Y-94073984D01*
X175412885Y-94003101D01*
X175503101Y-93912885D01*
X175573984Y-93806801D01*
X175622809Y-93688927D01*
X175647700Y-93563793D01*
X175647700Y-93436207D01*
X175622809Y-93311073D01*
X175573984Y-93193199D01*
X175503101Y-93087115D01*
X175412885Y-92996899D01*
X175306801Y-92926016D01*
X175188927Y-92877191D01*
X175063793Y-92852300D01*
X174936207Y-92852300D01*
X174811073Y-92877191D01*
X174693199Y-92926016D01*
X174587115Y-92996899D01*
X174496899Y-93087115D01*
X174426016Y-93193199D01*
X174397700Y-93261560D01*
X174397700Y-93186207D01*
X174372809Y-93061073D01*
X174323984Y-92943199D01*
X174253101Y-92837115D01*
X174162885Y-92746899D01*
X174056801Y-92676016D01*
X173938927Y-92627191D01*
X173813793Y-92602300D01*
X173686207Y-92602300D01*
X173561073Y-92627191D01*
X173443199Y-92676016D01*
X173337115Y-92746899D01*
X173246899Y-92837115D01*
X173176016Y-92943199D01*
X173127191Y-93061073D01*
X173102300Y-93186207D01*
X170012510Y-93186207D01*
X169973984Y-93093199D01*
X169903101Y-92987115D01*
X169812885Y-92896899D01*
X169706801Y-92826016D01*
X169588927Y-92777191D01*
X169463793Y-92752300D01*
X169336207Y-92752300D01*
X169211073Y-92777191D01*
X169093199Y-92826016D01*
X168987115Y-92896899D01*
X168896899Y-92987115D01*
X168826016Y-93093199D01*
X168809263Y-93133644D01*
X168787084Y-93080099D01*
X168716201Y-92974015D01*
X168625985Y-92883799D01*
X168519901Y-92812916D01*
X168402027Y-92764091D01*
X168276893Y-92739200D01*
X168149307Y-92739200D01*
X168024173Y-92764091D01*
X167906299Y-92812916D01*
X167800215Y-92883799D01*
X167709999Y-92974015D01*
X167639116Y-93080099D01*
X167590291Y-93197973D01*
X167565400Y-93323107D01*
X129392878Y-93323107D01*
X130068286Y-92647700D01*
X139948199Y-92647700D01*
X139980000Y-92650832D01*
X140011801Y-92647700D01*
X140011809Y-92647700D01*
X140106971Y-92638327D01*
X140229063Y-92601291D01*
X140341583Y-92541148D01*
X140440208Y-92460208D01*
X140460488Y-92435497D01*
X141842724Y-91053261D01*
X171435306Y-91053261D01*
X171435306Y-91180847D01*
X171460197Y-91305981D01*
X171509022Y-91423855D01*
X171579905Y-91529939D01*
X171670121Y-91620155D01*
X171776205Y-91691038D01*
X171894079Y-91739863D01*
X172019213Y-91764754D01*
X172146799Y-91764754D01*
X172271933Y-91739863D01*
X172389807Y-91691038D01*
X172495891Y-91620155D01*
X172586107Y-91529939D01*
X172656990Y-91423855D01*
X172705815Y-91305981D01*
X172730706Y-91180847D01*
X172730706Y-91053261D01*
X172705815Y-90928127D01*
X172656990Y-90810253D01*
X172586107Y-90704169D01*
X172495891Y-90613953D01*
X172389807Y-90543070D01*
X172271933Y-90494245D01*
X172146799Y-90469354D01*
X172019213Y-90469354D01*
X171894079Y-90494245D01*
X171776205Y-90543070D01*
X171670121Y-90613953D01*
X171579905Y-90704169D01*
X171509022Y-90810253D01*
X171460197Y-90928127D01*
X171435306Y-91053261D01*
X141842724Y-91053261D01*
X141934353Y-90961632D01*
X142027700Y-90980200D01*
X142252300Y-90980200D01*
X142472584Y-90936383D01*
X142680087Y-90850432D01*
X142866835Y-90725651D01*
X143025651Y-90566835D01*
X143150432Y-90380087D01*
X143236383Y-90172584D01*
X143280200Y-89952300D01*
X143280200Y-89727700D01*
X143236383Y-89507416D01*
X143150432Y-89299913D01*
X143025651Y-89113165D01*
X142912685Y-89000199D01*
X143907315Y-89000199D01*
X143794349Y-89113165D01*
X143669568Y-89299913D01*
X143583617Y-89507416D01*
X143539800Y-89727700D01*
X143539800Y-89952300D01*
X143583617Y-90172584D01*
X143669568Y-90380087D01*
X143794349Y-90566835D01*
X143953165Y-90725651D01*
X144139913Y-90850432D01*
X144347416Y-90936383D01*
X144567700Y-90980200D01*
X144792300Y-90980200D01*
X145012584Y-90936383D01*
X145220087Y-90850432D01*
X145406835Y-90725651D01*
X145565651Y-90566835D01*
X145690432Y-90380087D01*
X145776383Y-90172584D01*
X145820200Y-89952300D01*
X145820200Y-89727700D01*
X145776383Y-89507416D01*
X145690432Y-89299913D01*
X145565651Y-89113165D01*
X145452685Y-89000199D01*
X146447315Y-89000199D01*
X146334349Y-89113165D01*
X146209568Y-89299913D01*
X146123617Y-89507416D01*
X146079800Y-89727700D01*
X146079800Y-89952300D01*
X146123617Y-90172584D01*
X146209568Y-90380087D01*
X146334349Y-90566835D01*
X146493165Y-90725651D01*
X146679913Y-90850432D01*
X146887416Y-90936383D01*
X147107700Y-90980200D01*
X147332300Y-90980200D01*
X147552584Y-90936383D01*
X147760087Y-90850432D01*
X147946835Y-90725651D01*
X148105651Y-90566835D01*
X148230432Y-90380087D01*
X148316383Y-90172584D01*
X148360200Y-89952300D01*
X148360200Y-89727700D01*
X148316383Y-89507416D01*
X148230432Y-89299913D01*
X148105651Y-89113165D01*
X147992685Y-89000199D01*
X148987315Y-89000199D01*
X148874349Y-89113165D01*
X148749568Y-89299913D01*
X148663617Y-89507416D01*
X148619800Y-89727700D01*
X148619800Y-89952300D01*
X148663617Y-90172584D01*
X148749568Y-90380087D01*
X148874349Y-90566835D01*
X149033165Y-90725651D01*
X149219913Y-90850432D01*
X149427416Y-90936383D01*
X149647700Y-90980200D01*
X149872300Y-90980200D01*
X150092584Y-90936383D01*
X150300087Y-90850432D01*
X150486835Y-90725651D01*
X150645651Y-90566835D01*
X150770432Y-90380087D01*
X150856383Y-90172584D01*
X150900200Y-89952300D01*
X150900200Y-89727700D01*
X150856383Y-89507416D01*
X150770432Y-89299913D01*
X150645651Y-89113165D01*
X150532685Y-89000199D01*
X151527315Y-89000199D01*
X151414349Y-89113165D01*
X151289568Y-89299913D01*
X151203617Y-89507416D01*
X151159800Y-89727700D01*
X151159800Y-89952300D01*
X151203617Y-90172584D01*
X151289568Y-90380087D01*
X151414349Y-90566835D01*
X151573165Y-90725651D01*
X151759913Y-90850432D01*
X151967416Y-90936383D01*
X152187700Y-90980200D01*
X152412300Y-90980200D01*
X152632584Y-90936383D01*
X152840087Y-90850432D01*
X153026835Y-90725651D01*
X153185651Y-90566835D01*
X153310432Y-90380087D01*
X153396383Y-90172584D01*
X153440200Y-89952300D01*
X153440200Y-89727700D01*
X153396383Y-89507416D01*
X153310432Y-89299913D01*
X153185651Y-89113165D01*
X153072685Y-89000199D01*
X154067315Y-89000199D01*
X153954349Y-89113165D01*
X153829568Y-89299913D01*
X153743617Y-89507416D01*
X153699800Y-89727700D01*
X153699800Y-89952300D01*
X153743617Y-90172584D01*
X153829568Y-90380087D01*
X153954349Y-90566835D01*
X154113165Y-90725651D01*
X154299913Y-90850432D01*
X154507416Y-90936383D01*
X154727700Y-90980200D01*
X154952300Y-90980200D01*
X155172584Y-90936383D01*
X155380087Y-90850432D01*
X155566835Y-90725651D01*
X155725651Y-90566835D01*
X155850432Y-90380087D01*
X155936383Y-90172584D01*
X155980200Y-89952300D01*
X155980200Y-89727700D01*
X155936383Y-89507416D01*
X155850432Y-89299913D01*
X155725651Y-89113165D01*
X155612685Y-89000199D01*
X156607315Y-89000199D01*
X156494349Y-89113165D01*
X156369568Y-89299913D01*
X156283617Y-89507416D01*
X156239800Y-89727700D01*
X156239800Y-89952300D01*
X156283617Y-90172584D01*
X156369568Y-90380087D01*
X156494349Y-90566835D01*
X156653165Y-90725651D01*
X156839913Y-90850432D01*
X157047416Y-90936383D01*
X157267700Y-90980200D01*
X157492300Y-90980200D01*
X157712584Y-90936383D01*
X157920087Y-90850432D01*
X158106835Y-90725651D01*
X158265651Y-90566835D01*
X158390432Y-90380087D01*
X158476383Y-90172584D01*
X158520200Y-89952300D01*
X158520200Y-89727700D01*
X158476383Y-89507416D01*
X158390432Y-89299913D01*
X158265651Y-89113165D01*
X158152685Y-89000199D01*
X159147315Y-89000199D01*
X159034349Y-89113165D01*
X158909568Y-89299913D01*
X158823617Y-89507416D01*
X158779800Y-89727700D01*
X158779800Y-89952300D01*
X158823617Y-90172584D01*
X158909568Y-90380087D01*
X159034349Y-90566835D01*
X159193165Y-90725651D01*
X159379913Y-90850432D01*
X159587416Y-90936383D01*
X159807700Y-90980200D01*
X160032300Y-90980200D01*
X160252584Y-90936383D01*
X160460087Y-90850432D01*
X160646835Y-90725651D01*
X160805651Y-90566835D01*
X160930432Y-90380087D01*
X161016383Y-90172584D01*
X161060200Y-89952300D01*
X161060200Y-89727700D01*
X161016383Y-89507416D01*
X160930432Y-89299913D01*
X160805651Y-89113165D01*
X160692685Y-89000199D01*
X161687315Y-89000199D01*
X161574349Y-89113165D01*
X161449568Y-89299913D01*
X161363617Y-89507416D01*
X161319800Y-89727700D01*
X161319800Y-89952300D01*
X161363617Y-90172584D01*
X161449568Y-90380087D01*
X161574349Y-90566835D01*
X161733165Y-90725651D01*
X161919913Y-90850432D01*
X162127416Y-90936383D01*
X162347700Y-90980200D01*
X162572300Y-90980200D01*
X162792584Y-90936383D01*
X163000087Y-90850432D01*
X163186835Y-90725651D01*
X163345651Y-90566835D01*
X163470432Y-90380087D01*
X163556383Y-90172584D01*
X163600200Y-89952300D01*
X163600200Y-89727700D01*
X163556383Y-89507416D01*
X163470432Y-89299913D01*
X163345651Y-89113165D01*
X163232685Y-89000199D01*
X164227316Y-89000198D01*
X164114349Y-89113165D01*
X163989568Y-89299913D01*
X163903617Y-89507416D01*
X163859800Y-89727700D01*
X163859800Y-89952300D01*
X163903617Y-90172584D01*
X163989568Y-90380087D01*
X164114349Y-90566835D01*
X164273165Y-90725651D01*
X164459913Y-90850432D01*
X164667416Y-90936383D01*
X164887700Y-90980200D01*
X165112300Y-90980200D01*
X165332584Y-90936383D01*
X165540087Y-90850432D01*
X165726835Y-90725651D01*
X165885651Y-90566835D01*
X166010432Y-90380087D01*
X166096383Y-90172584D01*
X166103618Y-90136207D01*
X168552300Y-90136207D01*
X168552300Y-90263793D01*
X168577191Y-90388927D01*
X168626016Y-90506801D01*
X168696899Y-90612885D01*
X168787115Y-90703101D01*
X168893199Y-90773984D01*
X169011073Y-90822809D01*
X169136207Y-90847700D01*
X169263793Y-90847700D01*
X169388927Y-90822809D01*
X169506801Y-90773984D01*
X169612885Y-90703101D01*
X169703101Y-90612885D01*
X169773984Y-90506801D01*
X169822809Y-90388927D01*
X169847700Y-90263793D01*
X169847700Y-90136207D01*
X169822809Y-90011073D01*
X169773984Y-89893199D01*
X169703101Y-89787115D01*
X169612885Y-89696899D01*
X169506801Y-89626016D01*
X169388927Y-89577191D01*
X169263793Y-89552300D01*
X169136207Y-89552300D01*
X169011073Y-89577191D01*
X168893199Y-89626016D01*
X168787115Y-89696899D01*
X168696899Y-89787115D01*
X168626016Y-89893199D01*
X168577191Y-90011073D01*
X168552300Y-90136207D01*
X166103618Y-90136207D01*
X166140200Y-89952300D01*
X166140200Y-89727700D01*
X166096383Y-89507416D01*
X166010432Y-89299913D01*
X165885651Y-89113165D01*
X165772684Y-89000198D01*
X176323800Y-89000198D01*
X176323800Y-103824659D01*
%TA.AperFunction,Conductor*%
D17*
G36*
X176323800Y-103824659D02*
G01*
X176311073Y-103827191D01*
X176193199Y-103876016D01*
X176087115Y-103946899D01*
X175996899Y-104037115D01*
X175926016Y-104143199D01*
X175877191Y-104261073D01*
X175852300Y-104386207D01*
X175852300Y-104513793D01*
X175877191Y-104638927D01*
X175926016Y-104756801D01*
X175996899Y-104862885D01*
X176087115Y-104953101D01*
X176193199Y-105023984D01*
X176311073Y-105072809D01*
X176323800Y-105075341D01*
X176323800Y-105824659D01*
X176311073Y-105827191D01*
X176193199Y-105876016D01*
X176087115Y-105946899D01*
X175996899Y-106037115D01*
X175926016Y-106143199D01*
X175877191Y-106261073D01*
X175852300Y-106386207D01*
X175852300Y-106513793D01*
X175877191Y-106638927D01*
X175926016Y-106756801D01*
X175996899Y-106862885D01*
X176087115Y-106953101D01*
X176193199Y-107023984D01*
X176311073Y-107072809D01*
X176323800Y-107075341D01*
X176323800Y-107774659D01*
X176311073Y-107777191D01*
X176193199Y-107826016D01*
X176087115Y-107896899D01*
X175996899Y-107987115D01*
X175926016Y-108093199D01*
X175877191Y-108211073D01*
X175852300Y-108336207D01*
X175852300Y-108463793D01*
X175877191Y-108588927D01*
X175926016Y-108706801D01*
X175996899Y-108812885D01*
X176087115Y-108903101D01*
X176193199Y-108973984D01*
X176311073Y-109022809D01*
X176323800Y-109025341D01*
X176323800Y-109824659D01*
X176311073Y-109827191D01*
X176193199Y-109876016D01*
X176087115Y-109946899D01*
X175996899Y-110037115D01*
X175926016Y-110143199D01*
X175877191Y-110261073D01*
X175852300Y-110386207D01*
X175852300Y-110513793D01*
X175877191Y-110638927D01*
X175926016Y-110756801D01*
X175996899Y-110862885D01*
X176087115Y-110953101D01*
X176157005Y-110999800D01*
X174842995Y-110999800D01*
X174912885Y-110953101D01*
X175003101Y-110862885D01*
X175073984Y-110756801D01*
X175122809Y-110638927D01*
X175147700Y-110513793D01*
X175147700Y-110386207D01*
X175122809Y-110261073D01*
X175073984Y-110143199D01*
X175003101Y-110037115D01*
X174912885Y-109946899D01*
X174806801Y-109876016D01*
X174688927Y-109827191D01*
X174563793Y-109802300D01*
X174436207Y-109802300D01*
X174311073Y-109827191D01*
X174193199Y-109876016D01*
X174087115Y-109946899D01*
X173996899Y-110037115D01*
X173926016Y-110143199D01*
X173877191Y-110261073D01*
X173852300Y-110386207D01*
X173852300Y-110513793D01*
X173877191Y-110638927D01*
X173926016Y-110756801D01*
X173996899Y-110862885D01*
X174087115Y-110953101D01*
X174157005Y-110999800D01*
X172842995Y-110999800D01*
X172912885Y-110953101D01*
X173003101Y-110862885D01*
X173073984Y-110756801D01*
X173122809Y-110638927D01*
X173147700Y-110513793D01*
X173147700Y-110386207D01*
X173122809Y-110261073D01*
X173073984Y-110143199D01*
X173003101Y-110037115D01*
X172912885Y-109946899D01*
X172806801Y-109876016D01*
X172688927Y-109827191D01*
X172563793Y-109802300D01*
X172436207Y-109802300D01*
X172311073Y-109827191D01*
X172193199Y-109876016D01*
X172087115Y-109946899D01*
X171996899Y-110037115D01*
X171926016Y-110143199D01*
X171877191Y-110261073D01*
X171852300Y-110386207D01*
X171852300Y-110513793D01*
X171877191Y-110638927D01*
X171926016Y-110756801D01*
X171996899Y-110862885D01*
X172087115Y-110953101D01*
X172157005Y-110999800D01*
X170842995Y-110999800D01*
X170912885Y-110953101D01*
X171003101Y-110862885D01*
X171073984Y-110756801D01*
X171122809Y-110638927D01*
X171147700Y-110513793D01*
X171147700Y-110386207D01*
X171122809Y-110261073D01*
X171073984Y-110143199D01*
X171003101Y-110037115D01*
X170912885Y-109946899D01*
X170806801Y-109876016D01*
X170688927Y-109827191D01*
X170563793Y-109802300D01*
X170436207Y-109802300D01*
X170311073Y-109827191D01*
X170193199Y-109876016D01*
X170087115Y-109946899D01*
X169996899Y-110037115D01*
X169926016Y-110143199D01*
X169877191Y-110261073D01*
X169852300Y-110386207D01*
X169852300Y-110513793D01*
X169877191Y-110638927D01*
X169926016Y-110756801D01*
X169996899Y-110862885D01*
X170087115Y-110953101D01*
X170157005Y-110999800D01*
X168842995Y-110999800D01*
X168912885Y-110953101D01*
X169003101Y-110862885D01*
X169073984Y-110756801D01*
X169122809Y-110638927D01*
X169147700Y-110513793D01*
X169147700Y-110386207D01*
X169122809Y-110261073D01*
X169073984Y-110143199D01*
X169003101Y-110037115D01*
X168912885Y-109946899D01*
X168806801Y-109876016D01*
X168688927Y-109827191D01*
X168563793Y-109802300D01*
X168436207Y-109802300D01*
X168311073Y-109827191D01*
X168193199Y-109876016D01*
X168087115Y-109946899D01*
X167996899Y-110037115D01*
X167926016Y-110143199D01*
X167877191Y-110261073D01*
X167852300Y-110386207D01*
X167852300Y-110513793D01*
X167877191Y-110638927D01*
X167926016Y-110756801D01*
X167996899Y-110862885D01*
X168087115Y-110953101D01*
X168157005Y-110999800D01*
X166842995Y-110999800D01*
X166912885Y-110953101D01*
X167003101Y-110862885D01*
X167073984Y-110756801D01*
X167122809Y-110638927D01*
X167147700Y-110513793D01*
X167147700Y-110386207D01*
X167122809Y-110261073D01*
X167073984Y-110143199D01*
X167003101Y-110037115D01*
X166912885Y-109946899D01*
X166806801Y-109876016D01*
X166688927Y-109827191D01*
X166563793Y-109802300D01*
X166436207Y-109802300D01*
X166311073Y-109827191D01*
X166193199Y-109876016D01*
X166116274Y-109927416D01*
X166096383Y-109827416D01*
X166010432Y-109619913D01*
X165885651Y-109433165D01*
X165838693Y-109386207D01*
X166852300Y-109386207D01*
X166852300Y-109513793D01*
X166877191Y-109638927D01*
X166926016Y-109756801D01*
X166996899Y-109862885D01*
X167087115Y-109953101D01*
X167193199Y-110023984D01*
X167311073Y-110072809D01*
X167436207Y-110097700D01*
X167563793Y-110097700D01*
X167688927Y-110072809D01*
X167806801Y-110023984D01*
X167912885Y-109953101D01*
X168003101Y-109862885D01*
X168073984Y-109756801D01*
X168122809Y-109638927D01*
X168147700Y-109513793D01*
X168147700Y-109386207D01*
X168852300Y-109386207D01*
X168852300Y-109513793D01*
X168877191Y-109638927D01*
X168926016Y-109756801D01*
X168996899Y-109862885D01*
X169087115Y-109953101D01*
X169193199Y-110023984D01*
X169311073Y-110072809D01*
X169436207Y-110097700D01*
X169563793Y-110097700D01*
X169688927Y-110072809D01*
X169806801Y-110023984D01*
X169912885Y-109953101D01*
X170003101Y-109862885D01*
X170073984Y-109756801D01*
X170122809Y-109638927D01*
X170147700Y-109513793D01*
X170147700Y-109386207D01*
X170852300Y-109386207D01*
X170852300Y-109513793D01*
X170877191Y-109638927D01*
X170926016Y-109756801D01*
X170996899Y-109862885D01*
X171087115Y-109953101D01*
X171193199Y-110023984D01*
X171311073Y-110072809D01*
X171436207Y-110097700D01*
X171563793Y-110097700D01*
X171688927Y-110072809D01*
X171806801Y-110023984D01*
X171912885Y-109953101D01*
X172003101Y-109862885D01*
X172073984Y-109756801D01*
X172122809Y-109638927D01*
X172147700Y-109513793D01*
X172147700Y-109386207D01*
X172852300Y-109386207D01*
X172852300Y-109513793D01*
X172877191Y-109638927D01*
X172926016Y-109756801D01*
X172996899Y-109862885D01*
X173087115Y-109953101D01*
X173193199Y-110023984D01*
X173311073Y-110072809D01*
X173436207Y-110097700D01*
X173563793Y-110097700D01*
X173688927Y-110072809D01*
X173806801Y-110023984D01*
X173912885Y-109953101D01*
X174003101Y-109862885D01*
X174073984Y-109756801D01*
X174122809Y-109638927D01*
X174147700Y-109513793D01*
X174147700Y-109386207D01*
X174852300Y-109386207D01*
X174852300Y-109513793D01*
X174877191Y-109638927D01*
X174926016Y-109756801D01*
X174996899Y-109862885D01*
X175087115Y-109953101D01*
X175193199Y-110023984D01*
X175311073Y-110072809D01*
X175436207Y-110097700D01*
X175563793Y-110097700D01*
X175688927Y-110072809D01*
X175806801Y-110023984D01*
X175912885Y-109953101D01*
X176003101Y-109862885D01*
X176073984Y-109756801D01*
X176122809Y-109638927D01*
X176147700Y-109513793D01*
X176147700Y-109386207D01*
X176122809Y-109261073D01*
X176073984Y-109143199D01*
X176003101Y-109037115D01*
X175912885Y-108946899D01*
X175806801Y-108876016D01*
X175688927Y-108827191D01*
X175563793Y-108802300D01*
X175436207Y-108802300D01*
X175311073Y-108827191D01*
X175193199Y-108876016D01*
X175087115Y-108946899D01*
X174996899Y-109037115D01*
X174926016Y-109143199D01*
X174877191Y-109261073D01*
X174852300Y-109386207D01*
X174147700Y-109386207D01*
X174122809Y-109261073D01*
X174073984Y-109143199D01*
X174003101Y-109037115D01*
X173912885Y-108946899D01*
X173806801Y-108876016D01*
X173688927Y-108827191D01*
X173563793Y-108802300D01*
X173436207Y-108802300D01*
X173311073Y-108827191D01*
X173193199Y-108876016D01*
X173087115Y-108946899D01*
X172996899Y-109037115D01*
X172926016Y-109143199D01*
X172877191Y-109261073D01*
X172852300Y-109386207D01*
X172147700Y-109386207D01*
X172122809Y-109261073D01*
X172073984Y-109143199D01*
X172003101Y-109037115D01*
X171912885Y-108946899D01*
X171806801Y-108876016D01*
X171688927Y-108827191D01*
X171563793Y-108802300D01*
X171436207Y-108802300D01*
X171311073Y-108827191D01*
X171193199Y-108876016D01*
X171087115Y-108946899D01*
X170996899Y-109037115D01*
X170926016Y-109143199D01*
X170877191Y-109261073D01*
X170852300Y-109386207D01*
X170147700Y-109386207D01*
X170122809Y-109261073D01*
X170073984Y-109143199D01*
X170003101Y-109037115D01*
X169912885Y-108946899D01*
X169806801Y-108876016D01*
X169688927Y-108827191D01*
X169563793Y-108802300D01*
X169436207Y-108802300D01*
X169311073Y-108827191D01*
X169193199Y-108876016D01*
X169087115Y-108946899D01*
X168996899Y-109037115D01*
X168926016Y-109143199D01*
X168877191Y-109261073D01*
X168852300Y-109386207D01*
X168147700Y-109386207D01*
X168122809Y-109261073D01*
X168073984Y-109143199D01*
X168003101Y-109037115D01*
X167912885Y-108946899D01*
X167806801Y-108876016D01*
X167688927Y-108827191D01*
X167563793Y-108802300D01*
X167436207Y-108802300D01*
X167311073Y-108827191D01*
X167193199Y-108876016D01*
X167087115Y-108946899D01*
X166996899Y-109037115D01*
X166926016Y-109143199D01*
X166877191Y-109261073D01*
X166852300Y-109386207D01*
X165838693Y-109386207D01*
X165726835Y-109274349D01*
X165540087Y-109149568D01*
X165332584Y-109063617D01*
X165112300Y-109019800D01*
X164887700Y-109019800D01*
X164667416Y-109063617D01*
X164459913Y-109149568D01*
X164397700Y-109191137D01*
X164397700Y-109186207D01*
X164372809Y-109061073D01*
X164323984Y-108943199D01*
X164253101Y-108837115D01*
X164162885Y-108746899D01*
X164056801Y-108676016D01*
X163938927Y-108627191D01*
X163813793Y-108602300D01*
X163686207Y-108602300D01*
X163561073Y-108627191D01*
X163443199Y-108676016D01*
X163337115Y-108746899D01*
X163246899Y-108837115D01*
X163176016Y-108943199D01*
X163127191Y-109061073D01*
X163102300Y-109186207D01*
X163102300Y-109217865D01*
X163000087Y-109149568D01*
X162792584Y-109063617D01*
X162572300Y-109019800D01*
X162347700Y-109019800D01*
X162127416Y-109063617D01*
X161919913Y-109149568D01*
X161893873Y-109166967D01*
X161872809Y-109061073D01*
X161823984Y-108943199D01*
X161753101Y-108837115D01*
X161662885Y-108746899D01*
X161556801Y-108676016D01*
X161438927Y-108627191D01*
X161313793Y-108602300D01*
X161186207Y-108602300D01*
X161061073Y-108627191D01*
X160943199Y-108676016D01*
X160837115Y-108746899D01*
X160746899Y-108837115D01*
X160676016Y-108943199D01*
X160627191Y-109061073D01*
X160602300Y-109186207D01*
X160602300Y-109244592D01*
X160460087Y-109149568D01*
X160252584Y-109063617D01*
X160032300Y-109019800D01*
X159807700Y-109019800D01*
X159587416Y-109063617D01*
X159389613Y-109145550D01*
X159372809Y-109061073D01*
X159323984Y-108943199D01*
X159253101Y-108837115D01*
X159162885Y-108746899D01*
X159056801Y-108676016D01*
X158938927Y-108627191D01*
X158813793Y-108602300D01*
X158686207Y-108602300D01*
X158561073Y-108627191D01*
X158443199Y-108676016D01*
X158337115Y-108746899D01*
X158246899Y-108837115D01*
X158176016Y-108943199D01*
X158127191Y-109061073D01*
X158102300Y-109186207D01*
X158102300Y-109271319D01*
X157920087Y-109149568D01*
X157712584Y-109063617D01*
X157492300Y-109019800D01*
X157267700Y-109019800D01*
X157047416Y-109063617D01*
X156839913Y-109149568D01*
X156747700Y-109211183D01*
X156747700Y-109186207D01*
X156722809Y-109061073D01*
X156673984Y-108943199D01*
X156603101Y-108837115D01*
X156512885Y-108746899D01*
X156406801Y-108676016D01*
X156288927Y-108627191D01*
X156163793Y-108602300D01*
X156036207Y-108602300D01*
X155911073Y-108627191D01*
X155793199Y-108676016D01*
X155687115Y-108746899D01*
X155596899Y-108837115D01*
X155526016Y-108943199D01*
X155477191Y-109061073D01*
X155452300Y-109186207D01*
X155452300Y-109197819D01*
X155380087Y-109149568D01*
X155172584Y-109063617D01*
X154952300Y-109019800D01*
X154727700Y-109019800D01*
X154507416Y-109063617D01*
X154299913Y-109149568D01*
X154197700Y-109217865D01*
X154197700Y-109186207D01*
X154172809Y-109061073D01*
X154123984Y-108943199D01*
X154053101Y-108837115D01*
X153962885Y-108746899D01*
X153856801Y-108676016D01*
X153738927Y-108627191D01*
X153613793Y-108602300D01*
X153486207Y-108602300D01*
X153361073Y-108627191D01*
X153243199Y-108676016D01*
X153137115Y-108746899D01*
X153046899Y-108837115D01*
X152976016Y-108943199D01*
X152927191Y-109061073D01*
X152902300Y-109186207D01*
X152902300Y-109191137D01*
X152840087Y-109149568D01*
X152632584Y-109063617D01*
X152412300Y-109019800D01*
X152187700Y-109019800D01*
X151967416Y-109063617D01*
X151759913Y-109149568D01*
X151647700Y-109224546D01*
X151647700Y-109186207D01*
X151622809Y-109061073D01*
X151573984Y-108943199D01*
X151503101Y-108837115D01*
X151412885Y-108746899D01*
X151306801Y-108676016D01*
X151188927Y-108627191D01*
X151063793Y-108602300D01*
X150936207Y-108602300D01*
X150811073Y-108627191D01*
X150693199Y-108676016D01*
X150587115Y-108746899D01*
X150496899Y-108837115D01*
X150426016Y-108943199D01*
X150377191Y-109061073D01*
X150352608Y-109184661D01*
X150300087Y-109149568D01*
X150092584Y-109063617D01*
X149872300Y-109019800D01*
X149647700Y-109019800D01*
X149427416Y-109063617D01*
X149219913Y-109149568D01*
X149140960Y-109202323D01*
X149122809Y-109111073D01*
X149073984Y-108993199D01*
X149003101Y-108887115D01*
X148912885Y-108796899D01*
X148806801Y-108726016D01*
X148688927Y-108677191D01*
X148563793Y-108652300D01*
X148436207Y-108652300D01*
X148311073Y-108677191D01*
X148193199Y-108726016D01*
X148087115Y-108796899D01*
X147996899Y-108887115D01*
X147926016Y-108993199D01*
X147877191Y-109111073D01*
X147856694Y-109214119D01*
X147760087Y-109149568D01*
X147552584Y-109063617D01*
X147332300Y-109019800D01*
X147107700Y-109019800D01*
X146887416Y-109063617D01*
X146679913Y-109149568D01*
X146597700Y-109204501D01*
X146597700Y-109186207D01*
X146572809Y-109061073D01*
X146523984Y-108943199D01*
X146453101Y-108837115D01*
X146362885Y-108746899D01*
X146256801Y-108676016D01*
X146138927Y-108627191D01*
X146013793Y-108602300D01*
X145886207Y-108602300D01*
X145761073Y-108627191D01*
X145643199Y-108676016D01*
X145537115Y-108746899D01*
X145446899Y-108837115D01*
X145376016Y-108943199D01*
X145327191Y-109061073D01*
X145302300Y-109186207D01*
X145302300Y-109204501D01*
X145220087Y-109149568D01*
X145012584Y-109063617D01*
X144792300Y-109019800D01*
X144567700Y-109019800D01*
X144347416Y-109063617D01*
X144139913Y-109149568D01*
X144047700Y-109211183D01*
X144047700Y-109136207D01*
X144022809Y-109011073D01*
X143973984Y-108893199D01*
X143903101Y-108787115D01*
X143812885Y-108696899D01*
X143706801Y-108626016D01*
X143588927Y-108577191D01*
X143463793Y-108552300D01*
X143336207Y-108552300D01*
X143211073Y-108577191D01*
X143093199Y-108626016D01*
X142987115Y-108696899D01*
X142896899Y-108787115D01*
X142826016Y-108893199D01*
X142777191Y-109011073D01*
X142752300Y-109136207D01*
X142752300Y-109197819D01*
X142680087Y-109149568D01*
X142472584Y-109063617D01*
X142252300Y-109019800D01*
X142027700Y-109019800D01*
X141807416Y-109063617D01*
X141599913Y-109149568D01*
X141547700Y-109184456D01*
X141547700Y-109136207D01*
X141522809Y-109011073D01*
X141473984Y-108893199D01*
X141403101Y-108787115D01*
X141312885Y-108696899D01*
X141206801Y-108626016D01*
X141088927Y-108577191D01*
X140963793Y-108552300D01*
X140836207Y-108552300D01*
X140711073Y-108577191D01*
X140593199Y-108626016D01*
X140487115Y-108696899D01*
X140396899Y-108787115D01*
X140326016Y-108893199D01*
X140277191Y-109011073D01*
X140252300Y-109136207D01*
X140252300Y-109224546D01*
X140140087Y-109149568D01*
X139932584Y-109063617D01*
X139712300Y-109019800D01*
X139487700Y-109019800D01*
X139267416Y-109063617D01*
X139059913Y-109149568D01*
X138947700Y-109224546D01*
X138947700Y-109136207D01*
X138922809Y-109011073D01*
X138873984Y-108893199D01*
X138803101Y-108787115D01*
X138712885Y-108696899D01*
X138606801Y-108626016D01*
X138488927Y-108577191D01*
X138363793Y-108552300D01*
X138236207Y-108552300D01*
X138111073Y-108577191D01*
X137993199Y-108626016D01*
X137887115Y-108696899D01*
X137796899Y-108787115D01*
X137726016Y-108893199D01*
X137677191Y-109011073D01*
X137652300Y-109136207D01*
X137652300Y-109184456D01*
X137600087Y-109149568D01*
X137392584Y-109063617D01*
X137172300Y-109019800D01*
X136947700Y-109019800D01*
X136727416Y-109063617D01*
X136519913Y-109149568D01*
X136397700Y-109231228D01*
X136397700Y-109186207D01*
X136372809Y-109061073D01*
X136323984Y-108943199D01*
X136253101Y-108837115D01*
X136162885Y-108746899D01*
X136056801Y-108676016D01*
X135938927Y-108627191D01*
X135813793Y-108602300D01*
X135686207Y-108602300D01*
X135561073Y-108627191D01*
X135443199Y-108676016D01*
X135337115Y-108746899D01*
X135246899Y-108837115D01*
X135176016Y-108943199D01*
X135127191Y-109061073D01*
X135103781Y-109178763D01*
X135060087Y-109149568D01*
X134852584Y-109063617D01*
X134632300Y-109019800D01*
X134407700Y-109019800D01*
X134187416Y-109063617D01*
X133979913Y-109149568D01*
X133897700Y-109204501D01*
X133897700Y-109186207D01*
X133872809Y-109061073D01*
X133823984Y-108943199D01*
X133753101Y-108837115D01*
X133662885Y-108746899D01*
X133556801Y-108676016D01*
X133438927Y-108627191D01*
X133313793Y-108602300D01*
X133186207Y-108602300D01*
X133061073Y-108627191D01*
X132943199Y-108676016D01*
X132837115Y-108746899D01*
X132746899Y-108837115D01*
X132676016Y-108943199D01*
X132627191Y-109061073D01*
X132602300Y-109186207D01*
X132602300Y-109204501D01*
X132520087Y-109149568D01*
X132312584Y-109063617D01*
X132092300Y-109019800D01*
X131867700Y-109019800D01*
X131647416Y-109063617D01*
X131439913Y-109149568D01*
X131253165Y-109274349D01*
X131094349Y-109433165D01*
X130969568Y-109619913D01*
X130883617Y-109827416D01*
X130839800Y-110047700D01*
X130839800Y-110272300D01*
X130883617Y-110492584D01*
X130969568Y-110700087D01*
X131094349Y-110886835D01*
X131207314Y-110999800D01*
X130100211Y-110999800D01*
X130106593Y-110988238D01*
X129440000Y-110321645D01*
X128773407Y-110988238D01*
X128779789Y-110999800D01*
X127672686Y-110999800D01*
X127785651Y-110886835D01*
X127910432Y-110700087D01*
X127996383Y-110492584D01*
X128040200Y-110272300D01*
X128040200Y-110229456D01*
X128296391Y-110229456D01*
X128331915Y-110451228D01*
X128410022Y-110661809D01*
X128450536Y-110737605D01*
X128611762Y-110826593D01*
X129278355Y-110160000D01*
X129601645Y-110160000D01*
X130268238Y-110826593D01*
X130429464Y-110737605D01*
X130523137Y-110533472D01*
X130575186Y-110314986D01*
X130583609Y-110090544D01*
X130548085Y-109868772D01*
X130469978Y-109658191D01*
X130429464Y-109582395D01*
X130268238Y-109493407D01*
X129601645Y-110160000D01*
X129278355Y-110160000D01*
X128611762Y-109493407D01*
X128450536Y-109582395D01*
X128356863Y-109786528D01*
X128304814Y-110005014D01*
X128296391Y-110229456D01*
X128040200Y-110229456D01*
X128040200Y-110047700D01*
X127996383Y-109827416D01*
X127910432Y-109619913D01*
X127785651Y-109433165D01*
X127684248Y-109331762D01*
X128773407Y-109331762D01*
X129440000Y-109998355D01*
X130106593Y-109331762D01*
X130017605Y-109170536D01*
X129813472Y-109076863D01*
X129594986Y-109024814D01*
X129370544Y-109016391D01*
X129148772Y-109051915D01*
X128938191Y-109130022D01*
X128862395Y-109170536D01*
X128773407Y-109331762D01*
X127684248Y-109331762D01*
X127626835Y-109274349D01*
X127440087Y-109149568D01*
X127232584Y-109063617D01*
X127012300Y-109019800D01*
X126787700Y-109019800D01*
X126567416Y-109063617D01*
X126359913Y-109149568D01*
X126173165Y-109274349D01*
X126014349Y-109433165D01*
X125889568Y-109619913D01*
X125803617Y-109827416D01*
X125759800Y-110047700D01*
X125759800Y-110272300D01*
X125803617Y-110492584D01*
X125889568Y-110700087D01*
X126014349Y-110886835D01*
X126127314Y-110999800D01*
X125166186Y-110999800D01*
X125253101Y-110912885D01*
X125323984Y-110806801D01*
X125372809Y-110688927D01*
X125397700Y-110563793D01*
X125397700Y-110436207D01*
X125372809Y-110311073D01*
X125323984Y-110193199D01*
X125253101Y-110087115D01*
X125162885Y-109996899D01*
X125056801Y-109926016D01*
X124938927Y-109877191D01*
X124813793Y-109852300D01*
X124686207Y-109852300D01*
X124561073Y-109877191D01*
X124443199Y-109926016D01*
X124337115Y-109996899D01*
X124246899Y-110087115D01*
X124176016Y-110193199D01*
X124127191Y-110311073D01*
X124102300Y-110436207D01*
X124102300Y-110563793D01*
X124127191Y-110688927D01*
X124176016Y-110806801D01*
X124246899Y-110912885D01*
X124333814Y-110999800D01*
X123041032Y-110999800D01*
X122424140Y-110939313D01*
X121850976Y-110766265D01*
X121322339Y-110485183D01*
X120858369Y-110106778D01*
X120476731Y-109645458D01*
X120191966Y-109118796D01*
X120014920Y-108546853D01*
X119998036Y-108386207D01*
X165852300Y-108386207D01*
X165852300Y-108513793D01*
X165877191Y-108638927D01*
X165926016Y-108756801D01*
X165996899Y-108862885D01*
X166087115Y-108953101D01*
X166193199Y-109023984D01*
X166311073Y-109072809D01*
X166436207Y-109097700D01*
X166563793Y-109097700D01*
X166688927Y-109072809D01*
X166806801Y-109023984D01*
X166912885Y-108953101D01*
X167003101Y-108862885D01*
X167073984Y-108756801D01*
X167122809Y-108638927D01*
X167147700Y-108513793D01*
X167147700Y-108386207D01*
X167852300Y-108386207D01*
X167852300Y-108513793D01*
X167877191Y-108638927D01*
X167926016Y-108756801D01*
X167996899Y-108862885D01*
X168087115Y-108953101D01*
X168193199Y-109023984D01*
X168311073Y-109072809D01*
X168436207Y-109097700D01*
X168563793Y-109097700D01*
X168688927Y-109072809D01*
X168806801Y-109023984D01*
X168912885Y-108953101D01*
X169003101Y-108862885D01*
X169073984Y-108756801D01*
X169122809Y-108638927D01*
X169147700Y-108513793D01*
X169147700Y-108386207D01*
X169852300Y-108386207D01*
X169852300Y-108513793D01*
X169877191Y-108638927D01*
X169926016Y-108756801D01*
X169996899Y-108862885D01*
X170087115Y-108953101D01*
X170193199Y-109023984D01*
X170311073Y-109072809D01*
X170436207Y-109097700D01*
X170563793Y-109097700D01*
X170688927Y-109072809D01*
X170806801Y-109023984D01*
X170912885Y-108953101D01*
X171003101Y-108862885D01*
X171073984Y-108756801D01*
X171122809Y-108638927D01*
X171147700Y-108513793D01*
X171147700Y-108386207D01*
X171852300Y-108386207D01*
X171852300Y-108513793D01*
X171877191Y-108638927D01*
X171926016Y-108756801D01*
X171996899Y-108862885D01*
X172087115Y-108953101D01*
X172193199Y-109023984D01*
X172311073Y-109072809D01*
X172436207Y-109097700D01*
X172563793Y-109097700D01*
X172688927Y-109072809D01*
X172806801Y-109023984D01*
X172912885Y-108953101D01*
X173003101Y-108862885D01*
X173073984Y-108756801D01*
X173122809Y-108638927D01*
X173147700Y-108513793D01*
X173147700Y-108386207D01*
X173852300Y-108386207D01*
X173852300Y-108513793D01*
X173877191Y-108638927D01*
X173926016Y-108756801D01*
X173996899Y-108862885D01*
X174087115Y-108953101D01*
X174193199Y-109023984D01*
X174311073Y-109072809D01*
X174436207Y-109097700D01*
X174563793Y-109097700D01*
X174688927Y-109072809D01*
X174806801Y-109023984D01*
X174912885Y-108953101D01*
X175003101Y-108862885D01*
X175073984Y-108756801D01*
X175122809Y-108638927D01*
X175147700Y-108513793D01*
X175147700Y-108386207D01*
X175122809Y-108261073D01*
X175073984Y-108143199D01*
X175003101Y-108037115D01*
X174912885Y-107946899D01*
X174806801Y-107876016D01*
X174688927Y-107827191D01*
X174563793Y-107802300D01*
X174436207Y-107802300D01*
X174311073Y-107827191D01*
X174193199Y-107876016D01*
X174087115Y-107946899D01*
X173996899Y-108037115D01*
X173926016Y-108143199D01*
X173877191Y-108261073D01*
X173852300Y-108386207D01*
X173147700Y-108386207D01*
X173122809Y-108261073D01*
X173073984Y-108143199D01*
X173003101Y-108037115D01*
X172912885Y-107946899D01*
X172806801Y-107876016D01*
X172688927Y-107827191D01*
X172563793Y-107802300D01*
X172436207Y-107802300D01*
X172311073Y-107827191D01*
X172193199Y-107876016D01*
X172087115Y-107946899D01*
X171996899Y-108037115D01*
X171926016Y-108143199D01*
X171877191Y-108261073D01*
X171852300Y-108386207D01*
X171147700Y-108386207D01*
X171122809Y-108261073D01*
X171073984Y-108143199D01*
X171003101Y-108037115D01*
X170912885Y-107946899D01*
X170806801Y-107876016D01*
X170688927Y-107827191D01*
X170563793Y-107802300D01*
X170436207Y-107802300D01*
X170311073Y-107827191D01*
X170193199Y-107876016D01*
X170087115Y-107946899D01*
X169996899Y-108037115D01*
X169926016Y-108143199D01*
X169877191Y-108261073D01*
X169852300Y-108386207D01*
X169147700Y-108386207D01*
X169122809Y-108261073D01*
X169073984Y-108143199D01*
X169003101Y-108037115D01*
X168912885Y-107946899D01*
X168806801Y-107876016D01*
X168688927Y-107827191D01*
X168563793Y-107802300D01*
X168436207Y-107802300D01*
X168311073Y-107827191D01*
X168193199Y-107876016D01*
X168087115Y-107946899D01*
X167996899Y-108037115D01*
X167926016Y-108143199D01*
X167877191Y-108261073D01*
X167852300Y-108386207D01*
X167147700Y-108386207D01*
X167122809Y-108261073D01*
X167073984Y-108143199D01*
X167003101Y-108037115D01*
X166912885Y-107946899D01*
X166806801Y-107876016D01*
X166688927Y-107827191D01*
X166563793Y-107802300D01*
X166436207Y-107802300D01*
X166311073Y-107827191D01*
X166193199Y-107876016D01*
X166087115Y-107946899D01*
X165996899Y-108037115D01*
X165926016Y-108143199D01*
X165877191Y-108261073D01*
X165852300Y-108386207D01*
X119998036Y-108386207D01*
X119950205Y-107931140D01*
X119950200Y-107929653D01*
X119950200Y-107386207D01*
X172852300Y-107386207D01*
X172852300Y-107513793D01*
X172877191Y-107638927D01*
X172926016Y-107756801D01*
X172996899Y-107862885D01*
X173087115Y-107953101D01*
X173193199Y-108023984D01*
X173311073Y-108072809D01*
X173436207Y-108097700D01*
X173563793Y-108097700D01*
X173688927Y-108072809D01*
X173806801Y-108023984D01*
X173912885Y-107953101D01*
X174003101Y-107862885D01*
X174073984Y-107756801D01*
X174122809Y-107638927D01*
X174147700Y-107513793D01*
X174147700Y-107386207D01*
X174852300Y-107386207D01*
X174852300Y-107513793D01*
X174877191Y-107638927D01*
X174926016Y-107756801D01*
X174996899Y-107862885D01*
X175087115Y-107953101D01*
X175193199Y-108023984D01*
X175311073Y-108072809D01*
X175436207Y-108097700D01*
X175563793Y-108097700D01*
X175688927Y-108072809D01*
X175806801Y-108023984D01*
X175912885Y-107953101D01*
X176003101Y-107862885D01*
X176073984Y-107756801D01*
X176122809Y-107638927D01*
X176147700Y-107513793D01*
X176147700Y-107386207D01*
X176122809Y-107261073D01*
X176073984Y-107143199D01*
X176003101Y-107037115D01*
X175912885Y-106946899D01*
X175806801Y-106876016D01*
X175688927Y-106827191D01*
X175563793Y-106802300D01*
X175436207Y-106802300D01*
X175311073Y-106827191D01*
X175193199Y-106876016D01*
X175087115Y-106946899D01*
X174996899Y-107037115D01*
X174926016Y-107143199D01*
X174877191Y-107261073D01*
X174852300Y-107386207D01*
X174147700Y-107386207D01*
X174122809Y-107261073D01*
X174073984Y-107143199D01*
X174003101Y-107037115D01*
X173912885Y-106946899D01*
X173806801Y-106876016D01*
X173688927Y-106827191D01*
X173563793Y-106802300D01*
X173436207Y-106802300D01*
X173311073Y-106827191D01*
X173193199Y-106876016D01*
X173087115Y-106946899D01*
X172996899Y-107037115D01*
X172926016Y-107143199D01*
X172877191Y-107261073D01*
X172852300Y-107386207D01*
X119950200Y-107386207D01*
X119950200Y-105676200D01*
X120442924Y-105676200D01*
X120337115Y-105746899D01*
X120246899Y-105837115D01*
X120176016Y-105943199D01*
X120127191Y-106061073D01*
X120102300Y-106186207D01*
X120102300Y-106313793D01*
X120127191Y-106438927D01*
X120176016Y-106556801D01*
X120246899Y-106662885D01*
X120337115Y-106753101D01*
X120443199Y-106823984D01*
X120561073Y-106872809D01*
X120686207Y-106897700D01*
X120813793Y-106897700D01*
X120938927Y-106872809D01*
X121056801Y-106823984D01*
X121162885Y-106753101D01*
X121253101Y-106662885D01*
X121323984Y-106556801D01*
X121372809Y-106438927D01*
X121383295Y-106386207D01*
X173852300Y-106386207D01*
X173852300Y-106513793D01*
X173877191Y-106638927D01*
X173926016Y-106756801D01*
X173996899Y-106862885D01*
X174087115Y-106953101D01*
X174193199Y-107023984D01*
X174311073Y-107072809D01*
X174436207Y-107097700D01*
X174563793Y-107097700D01*
X174688927Y-107072809D01*
X174806801Y-107023984D01*
X174912885Y-106953101D01*
X175003101Y-106862885D01*
X175073984Y-106756801D01*
X175122809Y-106638927D01*
X175147700Y-106513793D01*
X175147700Y-106386207D01*
X175122809Y-106261073D01*
X175073984Y-106143199D01*
X175003101Y-106037115D01*
X174912885Y-105946899D01*
X174806801Y-105876016D01*
X174688927Y-105827191D01*
X174563793Y-105802300D01*
X174436207Y-105802300D01*
X174311073Y-105827191D01*
X174193199Y-105876016D01*
X174087115Y-105946899D01*
X173996899Y-106037115D01*
X173926016Y-106143199D01*
X173877191Y-106261073D01*
X173852300Y-106386207D01*
X121383295Y-106386207D01*
X121397700Y-106313793D01*
X121397700Y-106186207D01*
X121372809Y-106061073D01*
X121323984Y-105943199D01*
X121253101Y-105837115D01*
X121162885Y-105746899D01*
X121057076Y-105676200D01*
X130760214Y-105676200D01*
X130787115Y-105703101D01*
X130893199Y-105773984D01*
X131011073Y-105822809D01*
X131136207Y-105847700D01*
X131263793Y-105847700D01*
X131388927Y-105822809D01*
X131506801Y-105773984D01*
X131612885Y-105703101D01*
X131639786Y-105676200D01*
X148000000Y-105676200D01*
X148014866Y-105674736D01*
X148029160Y-105670400D01*
X148042334Y-105663358D01*
X148053882Y-105653882D01*
X148063358Y-105642334D01*
X148070400Y-105629160D01*
X148074736Y-105614866D01*
X148076200Y-105600000D01*
X148076200Y-104165004D01*
X165181097Y-104165004D01*
X165181097Y-104292590D01*
X165205988Y-104417724D01*
X165254813Y-104535598D01*
X165325696Y-104641682D01*
X165415912Y-104731898D01*
X165521996Y-104802781D01*
X165639870Y-104851606D01*
X165765004Y-104876497D01*
X165892590Y-104876497D01*
X166017724Y-104851606D01*
X166135559Y-104802797D01*
X168652300Y-104802797D01*
X168652300Y-104930383D01*
X168677191Y-105055517D01*
X168726016Y-105173391D01*
X168796899Y-105279475D01*
X168887115Y-105369691D01*
X168993199Y-105440574D01*
X169111073Y-105489399D01*
X169236207Y-105514290D01*
X169363793Y-105514290D01*
X169488927Y-105489399D01*
X169606801Y-105440574D01*
X169712885Y-105369691D01*
X169803101Y-105279475D01*
X169873984Y-105173391D01*
X169922809Y-105055517D01*
X169924815Y-105045434D01*
X169936207Y-105047700D01*
X169968990Y-105047700D01*
X169977191Y-105088927D01*
X170026016Y-105206801D01*
X170096899Y-105312885D01*
X170187115Y-105403101D01*
X170293199Y-105473984D01*
X170411073Y-105522809D01*
X170536207Y-105547700D01*
X170663793Y-105547700D01*
X170788927Y-105522809D01*
X170906801Y-105473984D01*
X171012885Y-105403101D01*
X171103101Y-105312885D01*
X171173984Y-105206801D01*
X171222809Y-105088927D01*
X171231207Y-105046706D01*
X171236207Y-105047700D01*
X171268990Y-105047700D01*
X171277191Y-105088927D01*
X171326016Y-105206801D01*
X171396899Y-105312885D01*
X171487115Y-105403101D01*
X171593199Y-105473984D01*
X171711073Y-105522809D01*
X171836207Y-105547700D01*
X171963793Y-105547700D01*
X172088927Y-105522809D01*
X172206801Y-105473984D01*
X172312885Y-105403101D01*
X172403101Y-105312885D01*
X172473984Y-105206801D01*
X172522809Y-105088927D01*
X172531207Y-105046706D01*
X172536207Y-105047700D01*
X172663793Y-105047700D01*
X172668793Y-105046706D01*
X172677191Y-105088927D01*
X172726016Y-105206801D01*
X172796899Y-105312885D01*
X172887115Y-105403101D01*
X172993199Y-105473984D01*
X173111073Y-105522809D01*
X173236207Y-105547700D01*
X173363793Y-105547700D01*
X173488927Y-105522809D01*
X173606801Y-105473984D01*
X173712885Y-105403101D01*
X173803101Y-105312885D01*
X173873984Y-105206801D01*
X173922809Y-105088927D01*
X173931010Y-105047700D01*
X173952300Y-105047700D01*
X173952300Y-105063793D01*
X173977191Y-105188927D01*
X174026016Y-105306801D01*
X174096899Y-105412885D01*
X174187115Y-105503101D01*
X174293199Y-105573984D01*
X174411073Y-105622809D01*
X174536207Y-105647700D01*
X174663793Y-105647700D01*
X174788927Y-105622809D01*
X174867510Y-105590259D01*
X174877191Y-105638927D01*
X174926016Y-105756801D01*
X174996899Y-105862885D01*
X175087115Y-105953101D01*
X175193199Y-106023984D01*
X175311073Y-106072809D01*
X175436207Y-106097700D01*
X175563793Y-106097700D01*
X175688927Y-106072809D01*
X175806801Y-106023984D01*
X175912885Y-105953101D01*
X176003101Y-105862885D01*
X176073984Y-105756801D01*
X176122809Y-105638927D01*
X176147700Y-105513793D01*
X176147700Y-105386207D01*
X176122809Y-105261073D01*
X176073984Y-105143199D01*
X176003101Y-105037115D01*
X175912885Y-104946899D01*
X175806801Y-104876016D01*
X175688927Y-104827191D01*
X175563793Y-104802300D01*
X175436207Y-104802300D01*
X175311073Y-104827191D01*
X175232490Y-104859741D01*
X175222809Y-104811073D01*
X175173984Y-104693199D01*
X175103101Y-104587115D01*
X175012885Y-104496899D01*
X174906801Y-104426016D01*
X174788927Y-104377191D01*
X174663793Y-104352300D01*
X174547700Y-104352300D01*
X174547700Y-104336207D01*
X174522809Y-104211073D01*
X174473984Y-104093199D01*
X174403101Y-103987115D01*
X174312885Y-103896899D01*
X174206801Y-103826016D01*
X174088927Y-103777191D01*
X173963793Y-103752300D01*
X173836207Y-103752300D01*
X173711073Y-103777191D01*
X173593199Y-103826016D01*
X173487115Y-103896899D01*
X173396899Y-103987115D01*
X173326016Y-104093199D01*
X173277191Y-104211073D01*
X173268990Y-104252300D01*
X173236207Y-104252300D01*
X173231207Y-104253294D01*
X173222809Y-104211073D01*
X173173984Y-104093199D01*
X173103101Y-103987115D01*
X173012885Y-103896899D01*
X172906801Y-103826016D01*
X172788927Y-103777191D01*
X172663793Y-103752300D01*
X172536207Y-103752300D01*
X172411073Y-103777191D01*
X172293199Y-103826016D01*
X172187115Y-103896899D01*
X172096899Y-103987115D01*
X172026016Y-104093199D01*
X171977191Y-104211073D01*
X171968793Y-104253294D01*
X171963793Y-104252300D01*
X171931010Y-104252300D01*
X171922809Y-104211073D01*
X171873984Y-104093199D01*
X171803101Y-103987115D01*
X171712885Y-103896899D01*
X171606801Y-103826016D01*
X171488927Y-103777191D01*
X171363793Y-103752300D01*
X171236207Y-103752300D01*
X171111073Y-103777191D01*
X170993199Y-103826016D01*
X170887115Y-103896899D01*
X170796899Y-103987115D01*
X170726016Y-104093199D01*
X170677191Y-104211073D01*
X170668793Y-104253294D01*
X170663793Y-104252300D01*
X170631010Y-104252300D01*
X170622809Y-104211073D01*
X170573984Y-104093199D01*
X170503101Y-103987115D01*
X170412885Y-103896899D01*
X170306801Y-103826016D01*
X170188927Y-103777191D01*
X170063793Y-103752300D01*
X169936207Y-103752300D01*
X169811073Y-103777191D01*
X169693199Y-103826016D01*
X169587115Y-103896899D01*
X169496899Y-103987115D01*
X169426016Y-104093199D01*
X169377191Y-104211073D01*
X169375185Y-104221156D01*
X169363793Y-104218890D01*
X169236207Y-104218890D01*
X169111073Y-104243781D01*
X168993199Y-104292606D01*
X168887115Y-104363489D01*
X168796899Y-104453705D01*
X168726016Y-104559789D01*
X168677191Y-104677663D01*
X168652300Y-104802797D01*
X166135559Y-104802797D01*
X166135598Y-104802781D01*
X166241682Y-104731898D01*
X166331898Y-104641682D01*
X166402781Y-104535598D01*
X166451606Y-104417724D01*
X166476497Y-104292590D01*
X166476497Y-104165004D01*
X166451606Y-104039870D01*
X166402781Y-103921996D01*
X166331898Y-103815912D01*
X166241682Y-103725696D01*
X166135598Y-103654813D01*
X166017724Y-103605988D01*
X165892590Y-103581097D01*
X165765004Y-103581097D01*
X165639870Y-103605988D01*
X165521996Y-103654813D01*
X165415912Y-103725696D01*
X165325696Y-103815912D01*
X165254813Y-103921996D01*
X165205988Y-104039870D01*
X165181097Y-104165004D01*
X148076200Y-104165004D01*
X148076200Y-102606207D01*
X158102300Y-102606207D01*
X158102300Y-102733793D01*
X158127191Y-102858927D01*
X158176016Y-102976801D01*
X158246899Y-103082885D01*
X158337115Y-103173101D01*
X158443199Y-103243984D01*
X158561073Y-103292809D01*
X158686207Y-103317700D01*
X158813793Y-103317700D01*
X158938927Y-103292809D01*
X159056801Y-103243984D01*
X159058846Y-103242617D01*
X167577300Y-103242617D01*
X167577300Y-103370203D01*
X167602191Y-103495337D01*
X167651016Y-103613211D01*
X167721899Y-103719295D01*
X167812115Y-103809511D01*
X167918199Y-103880394D01*
X168036073Y-103929219D01*
X168161207Y-103954110D01*
X168288793Y-103954110D01*
X168413927Y-103929219D01*
X168531801Y-103880394D01*
X168637885Y-103809511D01*
X168728101Y-103719295D01*
X168798984Y-103613211D01*
X168847809Y-103495337D01*
X168872700Y-103370203D01*
X168872700Y-103242617D01*
X168847809Y-103117483D01*
X168798984Y-102999609D01*
X168728101Y-102893525D01*
X168637885Y-102803309D01*
X168531801Y-102732426D01*
X168413927Y-102683601D01*
X168288793Y-102658710D01*
X168161207Y-102658710D01*
X168036073Y-102683601D01*
X167918199Y-102732426D01*
X167812115Y-102803309D01*
X167721899Y-102893525D01*
X167651016Y-102999609D01*
X167602191Y-103117483D01*
X167577300Y-103242617D01*
X159058846Y-103242617D01*
X159162885Y-103173101D01*
X159253101Y-103082885D01*
X159323984Y-102976801D01*
X159372809Y-102858927D01*
X159397700Y-102733793D01*
X159397700Y-102606207D01*
X159372809Y-102481073D01*
X159323984Y-102363199D01*
X159253101Y-102257115D01*
X159162885Y-102166899D01*
X159056801Y-102096016D01*
X158938927Y-102047191D01*
X158813793Y-102022300D01*
X158686207Y-102022300D01*
X158561073Y-102047191D01*
X158443199Y-102096016D01*
X158337115Y-102166899D01*
X158246899Y-102257115D01*
X158176016Y-102363199D01*
X158127191Y-102481073D01*
X158102300Y-102606207D01*
X148076200Y-102606207D01*
X148076200Y-101336207D01*
X154002300Y-101336207D01*
X154002300Y-101463793D01*
X154027191Y-101588927D01*
X154076016Y-101706801D01*
X154146899Y-101812885D01*
X154237115Y-101903101D01*
X154343199Y-101973984D01*
X154461073Y-102022809D01*
X154586207Y-102047700D01*
X154713793Y-102047700D01*
X154838927Y-102022809D01*
X154956801Y-101973984D01*
X155062885Y-101903101D01*
X155153101Y-101812885D01*
X155223984Y-101706801D01*
X155272809Y-101588927D01*
X155297700Y-101463793D01*
X155297700Y-101344217D01*
X164102300Y-101344217D01*
X164102300Y-101471803D01*
X164127191Y-101596937D01*
X164176016Y-101714811D01*
X164246899Y-101820895D01*
X164337115Y-101911111D01*
X164443199Y-101981994D01*
X164561073Y-102030819D01*
X164686207Y-102055710D01*
X164813793Y-102055710D01*
X164938927Y-102030819D01*
X165056801Y-101981994D01*
X165162885Y-101911111D01*
X165253101Y-101820895D01*
X165323984Y-101714811D01*
X165372809Y-101596937D01*
X165397700Y-101471803D01*
X165397700Y-101436207D01*
X166352300Y-101436207D01*
X166352300Y-101563793D01*
X166377191Y-101688927D01*
X166426016Y-101806801D01*
X166496899Y-101912885D01*
X166587115Y-102003101D01*
X166693199Y-102073984D01*
X166811073Y-102122809D01*
X166936207Y-102147700D01*
X167063793Y-102147700D01*
X167121571Y-102136207D01*
X173102300Y-102136207D01*
X173102300Y-102263793D01*
X173127191Y-102388927D01*
X173176016Y-102506801D01*
X173246899Y-102612885D01*
X173337115Y-102703101D01*
X173443199Y-102773984D01*
X173561073Y-102822809D01*
X173686207Y-102847700D01*
X173813793Y-102847700D01*
X173938927Y-102822809D01*
X174056801Y-102773984D01*
X174162885Y-102703101D01*
X174253101Y-102612885D01*
X174323984Y-102506801D01*
X174372809Y-102388927D01*
X174397700Y-102263793D01*
X174397700Y-102136207D01*
X174372809Y-102011073D01*
X174341799Y-101936207D01*
X174852300Y-101936207D01*
X174852300Y-102063793D01*
X174877191Y-102188927D01*
X174926016Y-102306801D01*
X174996899Y-102412885D01*
X175087115Y-102503101D01*
X175193199Y-102573984D01*
X175311073Y-102622809D01*
X175436207Y-102647700D01*
X175563793Y-102647700D01*
X175688927Y-102622809D01*
X175806801Y-102573984D01*
X175912885Y-102503101D01*
X176003101Y-102412885D01*
X176073984Y-102306801D01*
X176122809Y-102188927D01*
X176147700Y-102063793D01*
X176147700Y-101936207D01*
X176122809Y-101811073D01*
X176073984Y-101693199D01*
X176003101Y-101587115D01*
X175912885Y-101496899D01*
X175806801Y-101426016D01*
X175688927Y-101377191D01*
X175563793Y-101352300D01*
X175436207Y-101352300D01*
X175311073Y-101377191D01*
X175193199Y-101426016D01*
X175087115Y-101496899D01*
X174996899Y-101587115D01*
X174926016Y-101693199D01*
X174877191Y-101811073D01*
X174852300Y-101936207D01*
X174341799Y-101936207D01*
X174323984Y-101893199D01*
X174253101Y-101787115D01*
X174162885Y-101696899D01*
X174056801Y-101626016D01*
X173938927Y-101577191D01*
X173813793Y-101552300D01*
X173686207Y-101552300D01*
X173561073Y-101577191D01*
X173443199Y-101626016D01*
X173337115Y-101696899D01*
X173246899Y-101787115D01*
X173176016Y-101893199D01*
X173127191Y-102011073D01*
X173102300Y-102136207D01*
X167121571Y-102136207D01*
X167188927Y-102122809D01*
X167306801Y-102073984D01*
X167412885Y-102003101D01*
X167503101Y-101912885D01*
X167573984Y-101806801D01*
X167622809Y-101688927D01*
X167647700Y-101563793D01*
X167647700Y-101436207D01*
X167622809Y-101311073D01*
X167573984Y-101193199D01*
X167503101Y-101087115D01*
X167412885Y-100996899D01*
X167306801Y-100926016D01*
X167188927Y-100877191D01*
X167063793Y-100852300D01*
X166936207Y-100852300D01*
X166811073Y-100877191D01*
X166693199Y-100926016D01*
X166587115Y-100996899D01*
X166496899Y-101087115D01*
X166426016Y-101193199D01*
X166377191Y-101311073D01*
X166352300Y-101436207D01*
X165397700Y-101436207D01*
X165397700Y-101344217D01*
X165372809Y-101219083D01*
X165323984Y-101101209D01*
X165253101Y-100995125D01*
X165162885Y-100904909D01*
X165056801Y-100834026D01*
X164938927Y-100785201D01*
X164813793Y-100760310D01*
X164686207Y-100760310D01*
X164561073Y-100785201D01*
X164443199Y-100834026D01*
X164337115Y-100904909D01*
X164246899Y-100995125D01*
X164176016Y-101101209D01*
X164127191Y-101219083D01*
X164102300Y-101344217D01*
X155297700Y-101344217D01*
X155297700Y-101336207D01*
X155272809Y-101211073D01*
X155223984Y-101093199D01*
X155153101Y-100987115D01*
X155062885Y-100896899D01*
X154956801Y-100826016D01*
X154838927Y-100777191D01*
X154713793Y-100752300D01*
X154586207Y-100752300D01*
X154461073Y-100777191D01*
X154343199Y-100826016D01*
X154237115Y-100896899D01*
X154146899Y-100987115D01*
X154076016Y-101093199D01*
X154027191Y-101211073D01*
X154002300Y-101336207D01*
X148076200Y-101336207D01*
X148076200Y-99936207D01*
X162102300Y-99936207D01*
X162102300Y-100063793D01*
X162127191Y-100188927D01*
X162176016Y-100306801D01*
X162246899Y-100412885D01*
X162337115Y-100503101D01*
X162443199Y-100573984D01*
X162561073Y-100622809D01*
X162686207Y-100647700D01*
X162813793Y-100647700D01*
X162938927Y-100622809D01*
X163056801Y-100573984D01*
X163162885Y-100503101D01*
X163253101Y-100412885D01*
X163323984Y-100306801D01*
X163352290Y-100238464D01*
X163352290Y-100321803D01*
X163377181Y-100446937D01*
X163426006Y-100564811D01*
X163496889Y-100670895D01*
X163587105Y-100761111D01*
X163693189Y-100831994D01*
X163811063Y-100880819D01*
X163936197Y-100905710D01*
X164063783Y-100905710D01*
X164188917Y-100880819D01*
X164306791Y-100831994D01*
X164412875Y-100761111D01*
X164503091Y-100670895D01*
X164573974Y-100564811D01*
X164622799Y-100446937D01*
X164647690Y-100321803D01*
X164647690Y-100194217D01*
X164622799Y-100069083D01*
X164573974Y-99951209D01*
X164503091Y-99845125D01*
X164412875Y-99754909D01*
X164306791Y-99684026D01*
X164188917Y-99635201D01*
X164063783Y-99610310D01*
X163936197Y-99610310D01*
X163811063Y-99635201D01*
X163693189Y-99684026D01*
X163587105Y-99754909D01*
X163496889Y-99845125D01*
X163426006Y-99951209D01*
X163397700Y-100019546D01*
X163397700Y-99936207D01*
X163372809Y-99811073D01*
X163323984Y-99693199D01*
X163253101Y-99587115D01*
X163162885Y-99496899D01*
X163056801Y-99426016D01*
X162938927Y-99377191D01*
X162813793Y-99352300D01*
X162686207Y-99352300D01*
X162561073Y-99377191D01*
X162443199Y-99426016D01*
X162337115Y-99496899D01*
X162246899Y-99587115D01*
X162176016Y-99693199D01*
X162127191Y-99811073D01*
X162102300Y-99936207D01*
X148076200Y-99936207D01*
X148076200Y-98936207D01*
X149552300Y-98936207D01*
X149552300Y-99063793D01*
X149577191Y-99188927D01*
X149626016Y-99306801D01*
X149696899Y-99412885D01*
X149787115Y-99503101D01*
X149893199Y-99573984D01*
X150011073Y-99622809D01*
X150136207Y-99647700D01*
X150263793Y-99647700D01*
X150388927Y-99622809D01*
X150506801Y-99573984D01*
X150612885Y-99503101D01*
X150703101Y-99412885D01*
X150773984Y-99306801D01*
X150822809Y-99188927D01*
X150847700Y-99063793D01*
X150847700Y-99019207D01*
X153235264Y-99019207D01*
X153235264Y-99146793D01*
X153260155Y-99271927D01*
X153308980Y-99389801D01*
X153379863Y-99495885D01*
X153470079Y-99586101D01*
X153576163Y-99656984D01*
X153694037Y-99705809D01*
X153819171Y-99730700D01*
X153946757Y-99730700D01*
X154071891Y-99705809D01*
X154189765Y-99656984D01*
X154295849Y-99586101D01*
X154386065Y-99495885D01*
X154456948Y-99389801D01*
X154482033Y-99329239D01*
X165085983Y-99329239D01*
X165085983Y-99456825D01*
X165110874Y-99581959D01*
X165159699Y-99699833D01*
X165230582Y-99805917D01*
X165320798Y-99896133D01*
X165426882Y-99967016D01*
X165544756Y-100015841D01*
X165669890Y-100040732D01*
X165797476Y-100040732D01*
X165922610Y-100015841D01*
X166040484Y-99967016D01*
X166146568Y-99896133D01*
X166236784Y-99805917D01*
X166307667Y-99699833D01*
X166356492Y-99581959D01*
X166381383Y-99456825D01*
X166381383Y-99329239D01*
X166356492Y-99204105D01*
X166307667Y-99086231D01*
X166236784Y-98980147D01*
X166146568Y-98889931D01*
X166040484Y-98819048D01*
X165922610Y-98770223D01*
X165797476Y-98745332D01*
X165669890Y-98745332D01*
X165544756Y-98770223D01*
X165426882Y-98819048D01*
X165320798Y-98889931D01*
X165230582Y-98980147D01*
X165159699Y-99086231D01*
X165110874Y-99204105D01*
X165085983Y-99329239D01*
X154482033Y-99329239D01*
X154505773Y-99271927D01*
X154530664Y-99146793D01*
X154530664Y-99019207D01*
X154505773Y-98894073D01*
X154456948Y-98776199D01*
X154386065Y-98670115D01*
X154302157Y-98586207D01*
X168952300Y-98586207D01*
X168952300Y-98713793D01*
X168977191Y-98838927D01*
X169026016Y-98956801D01*
X169096899Y-99062885D01*
X169134014Y-99100000D01*
X169096899Y-99137115D01*
X169026016Y-99243199D01*
X168977191Y-99361073D01*
X168952300Y-99486207D01*
X168952300Y-99613793D01*
X168977191Y-99738927D01*
X169026016Y-99856801D01*
X169096899Y-99962885D01*
X169134014Y-100000000D01*
X169096899Y-100037115D01*
X169026016Y-100143199D01*
X168977191Y-100261073D01*
X168952300Y-100386207D01*
X168952300Y-100513793D01*
X168977191Y-100638927D01*
X169026016Y-100756801D01*
X169096899Y-100862885D01*
X169134014Y-100900000D01*
X169096899Y-100937115D01*
X169026016Y-101043199D01*
X168977191Y-101161073D01*
X168952300Y-101286207D01*
X168952300Y-101413793D01*
X168977191Y-101538927D01*
X169026016Y-101656801D01*
X169096899Y-101762885D01*
X169187115Y-101853101D01*
X169293199Y-101923984D01*
X169411073Y-101972809D01*
X169536207Y-101997700D01*
X169663793Y-101997700D01*
X169788927Y-101972809D01*
X169906801Y-101923984D01*
X170012885Y-101853101D01*
X170103101Y-101762885D01*
X170173984Y-101656801D01*
X170222809Y-101538927D01*
X170247700Y-101413793D01*
X170247700Y-101286207D01*
X170222809Y-101161073D01*
X170173984Y-101043199D01*
X170103101Y-100937115D01*
X170065986Y-100900000D01*
X170103101Y-100862885D01*
X170173984Y-100756801D01*
X170222809Y-100638927D01*
X170247700Y-100513793D01*
X170247700Y-100386207D01*
X173302300Y-100386207D01*
X173302300Y-100513793D01*
X173327191Y-100638927D01*
X173376016Y-100756801D01*
X173446899Y-100862885D01*
X173537115Y-100953101D01*
X173643199Y-101023984D01*
X173761073Y-101072809D01*
X173886207Y-101097700D01*
X174013793Y-101097700D01*
X174138927Y-101072809D01*
X174256801Y-101023984D01*
X174362885Y-100953101D01*
X174453101Y-100862885D01*
X174523984Y-100756801D01*
X174572809Y-100638927D01*
X174597700Y-100513793D01*
X174597700Y-100386207D01*
X174572809Y-100261073D01*
X174523984Y-100143199D01*
X174453101Y-100037115D01*
X174362885Y-99946899D01*
X174256801Y-99876016D01*
X174138927Y-99827191D01*
X174013793Y-99802300D01*
X173886207Y-99802300D01*
X173761073Y-99827191D01*
X173643199Y-99876016D01*
X173537115Y-99946899D01*
X173446899Y-100037115D01*
X173376016Y-100143199D01*
X173327191Y-100261073D01*
X173302300Y-100386207D01*
X170247700Y-100386207D01*
X170222809Y-100261073D01*
X170173984Y-100143199D01*
X170103101Y-100037115D01*
X170065986Y-100000000D01*
X170103101Y-99962885D01*
X170173984Y-99856801D01*
X170222809Y-99738927D01*
X170247700Y-99613793D01*
X170247700Y-99486207D01*
X170222809Y-99361073D01*
X170173984Y-99243199D01*
X170103101Y-99137115D01*
X170065986Y-99100000D01*
X170103101Y-99062885D01*
X170173984Y-98956801D01*
X170222809Y-98838927D01*
X170247700Y-98713793D01*
X170247700Y-98586207D01*
X170222809Y-98461073D01*
X170173984Y-98343199D01*
X170103101Y-98237115D01*
X170059544Y-98193558D01*
X170106801Y-98173984D01*
X170212885Y-98103101D01*
X170303101Y-98012885D01*
X170373984Y-97906801D01*
X170422809Y-97788927D01*
X170433295Y-97736207D01*
X170602300Y-97736207D01*
X170602300Y-97863793D01*
X170627191Y-97988927D01*
X170676016Y-98106801D01*
X170746899Y-98212885D01*
X170837115Y-98303101D01*
X170943199Y-98373984D01*
X171061073Y-98422809D01*
X171186207Y-98447700D01*
X171313793Y-98447700D01*
X171438927Y-98422809D01*
X171556801Y-98373984D01*
X171662885Y-98303101D01*
X171700000Y-98265986D01*
X171737115Y-98303101D01*
X171843199Y-98373984D01*
X171961073Y-98422809D01*
X172086207Y-98447700D01*
X172213793Y-98447700D01*
X172338927Y-98422809D01*
X172456801Y-98373984D01*
X172562885Y-98303101D01*
X172600000Y-98265986D01*
X172637115Y-98303101D01*
X172743199Y-98373984D01*
X172861073Y-98422809D01*
X172986207Y-98447700D01*
X173113793Y-98447700D01*
X173238927Y-98422809D01*
X173356801Y-98373984D01*
X173462885Y-98303101D01*
X173500000Y-98265986D01*
X173537115Y-98303101D01*
X173643199Y-98373984D01*
X173761073Y-98422809D01*
X173886207Y-98447700D01*
X174013793Y-98447700D01*
X174138927Y-98422809D01*
X174256801Y-98373984D01*
X174362885Y-98303101D01*
X174400000Y-98265986D01*
X174437115Y-98303101D01*
X174543199Y-98373984D01*
X174661073Y-98422809D01*
X174786207Y-98447700D01*
X174913793Y-98447700D01*
X174988920Y-98432756D01*
X174977191Y-98461073D01*
X174952300Y-98586207D01*
X174952300Y-98713793D01*
X174977191Y-98838927D01*
X175026016Y-98956801D01*
X175096899Y-99062885D01*
X175187115Y-99153101D01*
X175293199Y-99223984D01*
X175411073Y-99272809D01*
X175536207Y-99297700D01*
X175663793Y-99297700D01*
X175788927Y-99272809D01*
X175906801Y-99223984D01*
X176012885Y-99153101D01*
X176103101Y-99062885D01*
X176173984Y-98956801D01*
X176222809Y-98838927D01*
X176247700Y-98713793D01*
X176247700Y-98586207D01*
X176222809Y-98461073D01*
X176173984Y-98343199D01*
X176103101Y-98237115D01*
X176012885Y-98146899D01*
X175906801Y-98076016D01*
X175788927Y-98027191D01*
X175663793Y-98002300D01*
X175536207Y-98002300D01*
X175461080Y-98017244D01*
X175472809Y-97988927D01*
X175497700Y-97863793D01*
X175497700Y-97736207D01*
X175472809Y-97611073D01*
X175423984Y-97493199D01*
X175353101Y-97387115D01*
X175262885Y-97296899D01*
X175156801Y-97226016D01*
X175038927Y-97177191D01*
X174913793Y-97152300D01*
X174786207Y-97152300D01*
X174661073Y-97177191D01*
X174543199Y-97226016D01*
X174437115Y-97296899D01*
X174400000Y-97334014D01*
X174362885Y-97296899D01*
X174256801Y-97226016D01*
X174138927Y-97177191D01*
X174013793Y-97152300D01*
X173886207Y-97152300D01*
X173761073Y-97177191D01*
X173643199Y-97226016D01*
X173537115Y-97296899D01*
X173500000Y-97334014D01*
X173462885Y-97296899D01*
X173356801Y-97226016D01*
X173238927Y-97177191D01*
X173113793Y-97152300D01*
X172986207Y-97152300D01*
X172861073Y-97177191D01*
X172743199Y-97226016D01*
X172637115Y-97296899D01*
X172600000Y-97334014D01*
X172562885Y-97296899D01*
X172456801Y-97226016D01*
X172338927Y-97177191D01*
X172213793Y-97152300D01*
X172086207Y-97152300D01*
X171961073Y-97177191D01*
X171843199Y-97226016D01*
X171737115Y-97296899D01*
X171700000Y-97334014D01*
X171662885Y-97296899D01*
X171556801Y-97226016D01*
X171438927Y-97177191D01*
X171313793Y-97152300D01*
X171186207Y-97152300D01*
X171061073Y-97177191D01*
X170943199Y-97226016D01*
X170837115Y-97296899D01*
X170746899Y-97387115D01*
X170676016Y-97493199D01*
X170627191Y-97611073D01*
X170602300Y-97736207D01*
X170433295Y-97736207D01*
X170447700Y-97663793D01*
X170447700Y-97536207D01*
X170422809Y-97411073D01*
X170373984Y-97293199D01*
X170303101Y-97187115D01*
X170212885Y-97096899D01*
X170106801Y-97026016D01*
X169988927Y-96977191D01*
X169863793Y-96952300D01*
X169736207Y-96952300D01*
X169611073Y-96977191D01*
X169493199Y-97026016D01*
X169387115Y-97096899D01*
X169296899Y-97187115D01*
X169226016Y-97293199D01*
X169177191Y-97411073D01*
X169152300Y-97536207D01*
X169152300Y-97663793D01*
X169177191Y-97788927D01*
X169226016Y-97906801D01*
X169296899Y-98012885D01*
X169340456Y-98056442D01*
X169293199Y-98076016D01*
X169187115Y-98146899D01*
X169096899Y-98237115D01*
X169026016Y-98343199D01*
X168977191Y-98461073D01*
X168952300Y-98586207D01*
X154302157Y-98586207D01*
X154295849Y-98579899D01*
X154189765Y-98509016D01*
X154071891Y-98460191D01*
X153946757Y-98435300D01*
X153819171Y-98435300D01*
X153694037Y-98460191D01*
X153576163Y-98509016D01*
X153470079Y-98579899D01*
X153379863Y-98670115D01*
X153308980Y-98776199D01*
X153260155Y-98894073D01*
X153235264Y-99019207D01*
X150847700Y-99019207D01*
X150847700Y-98936207D01*
X150822809Y-98811073D01*
X150773984Y-98693199D01*
X150703101Y-98587115D01*
X150612885Y-98496899D01*
X150506801Y-98426016D01*
X150388927Y-98377191D01*
X150263793Y-98352300D01*
X150136207Y-98352300D01*
X150011073Y-98377191D01*
X149893199Y-98426016D01*
X149787115Y-98496899D01*
X149696899Y-98587115D01*
X149626016Y-98693199D01*
X149577191Y-98811073D01*
X149552300Y-98936207D01*
X148076200Y-98936207D01*
X148076200Y-97536189D01*
X158102300Y-97536189D01*
X158102300Y-97663775D01*
X158127191Y-97788909D01*
X158176016Y-97906783D01*
X158246899Y-98012867D01*
X158337115Y-98103083D01*
X158443199Y-98173966D01*
X158561073Y-98222791D01*
X158686207Y-98247682D01*
X158813793Y-98247682D01*
X158938927Y-98222791D01*
X159056801Y-98173966D01*
X159162885Y-98103083D01*
X159253101Y-98012867D01*
X159323984Y-97906783D01*
X159372809Y-97788909D01*
X159397700Y-97663775D01*
X159397700Y-97536189D01*
X159372809Y-97411055D01*
X159323984Y-97293181D01*
X159253101Y-97187097D01*
X159162885Y-97096881D01*
X159056801Y-97025998D01*
X158938927Y-96977173D01*
X158813793Y-96952282D01*
X158686207Y-96952282D01*
X158561073Y-96977173D01*
X158443199Y-97025998D01*
X158337115Y-97096881D01*
X158246899Y-97187097D01*
X158176016Y-97293181D01*
X158127191Y-97411055D01*
X158102300Y-97536189D01*
X148076200Y-97536189D01*
X148076200Y-95936207D01*
X173777300Y-95936207D01*
X173777300Y-96063793D01*
X173802191Y-96188927D01*
X173851016Y-96306801D01*
X173921899Y-96412885D01*
X174012115Y-96503101D01*
X174118199Y-96573984D01*
X174236073Y-96622809D01*
X174361207Y-96647700D01*
X174488793Y-96647700D01*
X174613927Y-96622809D01*
X174731801Y-96573984D01*
X174837885Y-96503101D01*
X174928101Y-96412885D01*
X174998984Y-96306801D01*
X175047809Y-96188927D01*
X175072700Y-96063793D01*
X175072700Y-95936207D01*
X175047809Y-95811073D01*
X174998984Y-95693199D01*
X174928101Y-95587115D01*
X174837885Y-95496899D01*
X174731801Y-95426016D01*
X174613927Y-95377191D01*
X174488793Y-95352300D01*
X174361207Y-95352300D01*
X174236073Y-95377191D01*
X174118199Y-95426016D01*
X174012115Y-95496899D01*
X173921899Y-95587115D01*
X173851016Y-95693199D01*
X173802191Y-95811073D01*
X173777300Y-95936207D01*
X148076200Y-95936207D01*
X148076200Y-94800000D01*
X148074736Y-94785134D01*
X148070400Y-94770840D01*
X148063358Y-94757666D01*
X148053882Y-94746118D01*
X148042334Y-94736642D01*
X148029160Y-94729600D01*
X148014866Y-94725264D01*
X148000000Y-94723800D01*
X142119786Y-94723800D01*
X142092885Y-94696899D01*
X141986801Y-94626016D01*
X141868927Y-94577191D01*
X141743793Y-94552300D01*
X141616207Y-94552300D01*
X141491073Y-94577191D01*
X141373199Y-94626016D01*
X141267115Y-94696899D01*
X141240214Y-94723800D01*
X127992185Y-94723800D01*
X128579778Y-94136207D01*
X162152300Y-94136207D01*
X162152300Y-94263793D01*
X162177191Y-94388927D01*
X162226016Y-94506801D01*
X162296899Y-94612885D01*
X162387115Y-94703101D01*
X162493199Y-94773984D01*
X162611073Y-94822809D01*
X162736207Y-94847700D01*
X162863793Y-94847700D01*
X162988927Y-94822809D01*
X163106801Y-94773984D01*
X163212885Y-94703101D01*
X163303101Y-94612885D01*
X163373984Y-94506801D01*
X163422809Y-94388927D01*
X163447700Y-94263793D01*
X163447700Y-94136207D01*
X163422809Y-94011073D01*
X163373984Y-93893199D01*
X163303101Y-93787115D01*
X163212885Y-93696899D01*
X163106801Y-93626016D01*
X162988927Y-93577191D01*
X162863793Y-93552300D01*
X162736207Y-93552300D01*
X162611073Y-93577191D01*
X162493199Y-93626016D01*
X162387115Y-93696899D01*
X162296899Y-93787115D01*
X162226016Y-93893199D01*
X162177191Y-94011073D01*
X162152300Y-94136207D01*
X128579778Y-94136207D01*
X129392878Y-93323107D01*
X167565400Y-93323107D01*
X167565400Y-93450693D01*
X167590291Y-93575827D01*
X167639116Y-93693701D01*
X167709999Y-93799785D01*
X167800215Y-93890001D01*
X167906299Y-93960884D01*
X168024173Y-94009709D01*
X168149307Y-94034600D01*
X168276893Y-94034600D01*
X168402027Y-94009709D01*
X168519901Y-93960884D01*
X168625985Y-93890001D01*
X168716201Y-93799785D01*
X168787084Y-93693701D01*
X168803837Y-93653256D01*
X168826016Y-93706801D01*
X168896899Y-93812885D01*
X168987115Y-93903101D01*
X169093199Y-93973984D01*
X169211073Y-94022809D01*
X169336207Y-94047700D01*
X169463793Y-94047700D01*
X169588927Y-94022809D01*
X169706801Y-93973984D01*
X169812885Y-93903101D01*
X169903101Y-93812885D01*
X169973984Y-93706801D01*
X170022809Y-93588927D01*
X170047700Y-93463793D01*
X170047700Y-93336207D01*
X170022809Y-93211073D01*
X170012510Y-93186207D01*
X173102300Y-93186207D01*
X173102300Y-93313793D01*
X173127191Y-93438927D01*
X173176016Y-93556801D01*
X173246899Y-93662885D01*
X173337115Y-93753101D01*
X173443199Y-93823984D01*
X173561073Y-93872809D01*
X173686207Y-93897700D01*
X173813793Y-93897700D01*
X173938927Y-93872809D01*
X174056801Y-93823984D01*
X174162885Y-93753101D01*
X174253101Y-93662885D01*
X174323984Y-93556801D01*
X174352300Y-93488440D01*
X174352300Y-93563793D01*
X174377191Y-93688927D01*
X174426016Y-93806801D01*
X174496899Y-93912885D01*
X174587115Y-94003101D01*
X174693199Y-94073984D01*
X174811073Y-94122809D01*
X174936207Y-94147700D01*
X175063793Y-94147700D01*
X175188927Y-94122809D01*
X175306801Y-94073984D01*
X175412885Y-94003101D01*
X175503101Y-93912885D01*
X175573984Y-93806801D01*
X175622809Y-93688927D01*
X175647700Y-93563793D01*
X175647700Y-93436207D01*
X175622809Y-93311073D01*
X175573984Y-93193199D01*
X175503101Y-93087115D01*
X175412885Y-92996899D01*
X175306801Y-92926016D01*
X175188927Y-92877191D01*
X175063793Y-92852300D01*
X174936207Y-92852300D01*
X174811073Y-92877191D01*
X174693199Y-92926016D01*
X174587115Y-92996899D01*
X174496899Y-93087115D01*
X174426016Y-93193199D01*
X174397700Y-93261560D01*
X174397700Y-93186207D01*
X174372809Y-93061073D01*
X174323984Y-92943199D01*
X174253101Y-92837115D01*
X174162885Y-92746899D01*
X174056801Y-92676016D01*
X173938927Y-92627191D01*
X173813793Y-92602300D01*
X173686207Y-92602300D01*
X173561073Y-92627191D01*
X173443199Y-92676016D01*
X173337115Y-92746899D01*
X173246899Y-92837115D01*
X173176016Y-92943199D01*
X173127191Y-93061073D01*
X173102300Y-93186207D01*
X170012510Y-93186207D01*
X169973984Y-93093199D01*
X169903101Y-92987115D01*
X169812885Y-92896899D01*
X169706801Y-92826016D01*
X169588927Y-92777191D01*
X169463793Y-92752300D01*
X169336207Y-92752300D01*
X169211073Y-92777191D01*
X169093199Y-92826016D01*
X168987115Y-92896899D01*
X168896899Y-92987115D01*
X168826016Y-93093199D01*
X168809263Y-93133644D01*
X168787084Y-93080099D01*
X168716201Y-92974015D01*
X168625985Y-92883799D01*
X168519901Y-92812916D01*
X168402027Y-92764091D01*
X168276893Y-92739200D01*
X168149307Y-92739200D01*
X168024173Y-92764091D01*
X167906299Y-92812916D01*
X167800215Y-92883799D01*
X167709999Y-92974015D01*
X167639116Y-93080099D01*
X167590291Y-93197973D01*
X167565400Y-93323107D01*
X129392878Y-93323107D01*
X130068286Y-92647700D01*
X139948199Y-92647700D01*
X139980000Y-92650832D01*
X140011801Y-92647700D01*
X140011809Y-92647700D01*
X140106971Y-92638327D01*
X140229063Y-92601291D01*
X140341583Y-92541148D01*
X140440208Y-92460208D01*
X140460488Y-92435497D01*
X141842724Y-91053261D01*
X171435306Y-91053261D01*
X171435306Y-91180847D01*
X171460197Y-91305981D01*
X171509022Y-91423855D01*
X171579905Y-91529939D01*
X171670121Y-91620155D01*
X171776205Y-91691038D01*
X171894079Y-91739863D01*
X172019213Y-91764754D01*
X172146799Y-91764754D01*
X172271933Y-91739863D01*
X172389807Y-91691038D01*
X172495891Y-91620155D01*
X172586107Y-91529939D01*
X172656990Y-91423855D01*
X172705815Y-91305981D01*
X172730706Y-91180847D01*
X172730706Y-91053261D01*
X172705815Y-90928127D01*
X172656990Y-90810253D01*
X172586107Y-90704169D01*
X172495891Y-90613953D01*
X172389807Y-90543070D01*
X172271933Y-90494245D01*
X172146799Y-90469354D01*
X172019213Y-90469354D01*
X171894079Y-90494245D01*
X171776205Y-90543070D01*
X171670121Y-90613953D01*
X171579905Y-90704169D01*
X171509022Y-90810253D01*
X171460197Y-90928127D01*
X171435306Y-91053261D01*
X141842724Y-91053261D01*
X141934353Y-90961632D01*
X142027700Y-90980200D01*
X142252300Y-90980200D01*
X142472584Y-90936383D01*
X142680087Y-90850432D01*
X142866835Y-90725651D01*
X143025651Y-90566835D01*
X143150432Y-90380087D01*
X143236383Y-90172584D01*
X143280200Y-89952300D01*
X143280200Y-89727700D01*
X143236383Y-89507416D01*
X143150432Y-89299913D01*
X143025651Y-89113165D01*
X142912685Y-89000199D01*
X143907315Y-89000199D01*
X143794349Y-89113165D01*
X143669568Y-89299913D01*
X143583617Y-89507416D01*
X143539800Y-89727700D01*
X143539800Y-89952300D01*
X143583617Y-90172584D01*
X143669568Y-90380087D01*
X143794349Y-90566835D01*
X143953165Y-90725651D01*
X144139913Y-90850432D01*
X144347416Y-90936383D01*
X144567700Y-90980200D01*
X144792300Y-90980200D01*
X145012584Y-90936383D01*
X145220087Y-90850432D01*
X145406835Y-90725651D01*
X145565651Y-90566835D01*
X145690432Y-90380087D01*
X145776383Y-90172584D01*
X145820200Y-89952300D01*
X145820200Y-89727700D01*
X145776383Y-89507416D01*
X145690432Y-89299913D01*
X145565651Y-89113165D01*
X145452685Y-89000199D01*
X146447315Y-89000199D01*
X146334349Y-89113165D01*
X146209568Y-89299913D01*
X146123617Y-89507416D01*
X146079800Y-89727700D01*
X146079800Y-89952300D01*
X146123617Y-90172584D01*
X146209568Y-90380087D01*
X146334349Y-90566835D01*
X146493165Y-90725651D01*
X146679913Y-90850432D01*
X146887416Y-90936383D01*
X147107700Y-90980200D01*
X147332300Y-90980200D01*
X147552584Y-90936383D01*
X147760087Y-90850432D01*
X147946835Y-90725651D01*
X148105651Y-90566835D01*
X148230432Y-90380087D01*
X148316383Y-90172584D01*
X148360200Y-89952300D01*
X148360200Y-89727700D01*
X148316383Y-89507416D01*
X148230432Y-89299913D01*
X148105651Y-89113165D01*
X147992685Y-89000199D01*
X148987315Y-89000199D01*
X148874349Y-89113165D01*
X148749568Y-89299913D01*
X148663617Y-89507416D01*
X148619800Y-89727700D01*
X148619800Y-89952300D01*
X148663617Y-90172584D01*
X148749568Y-90380087D01*
X148874349Y-90566835D01*
X149033165Y-90725651D01*
X149219913Y-90850432D01*
X149427416Y-90936383D01*
X149647700Y-90980200D01*
X149872300Y-90980200D01*
X150092584Y-90936383D01*
X150300087Y-90850432D01*
X150486835Y-90725651D01*
X150645651Y-90566835D01*
X150770432Y-90380087D01*
X150856383Y-90172584D01*
X150900200Y-89952300D01*
X150900200Y-89727700D01*
X150856383Y-89507416D01*
X150770432Y-89299913D01*
X150645651Y-89113165D01*
X150532685Y-89000199D01*
X151527315Y-89000199D01*
X151414349Y-89113165D01*
X151289568Y-89299913D01*
X151203617Y-89507416D01*
X151159800Y-89727700D01*
X151159800Y-89952300D01*
X151203617Y-90172584D01*
X151289568Y-90380087D01*
X151414349Y-90566835D01*
X151573165Y-90725651D01*
X151759913Y-90850432D01*
X151967416Y-90936383D01*
X152187700Y-90980200D01*
X152412300Y-90980200D01*
X152632584Y-90936383D01*
X152840087Y-90850432D01*
X153026835Y-90725651D01*
X153185651Y-90566835D01*
X153310432Y-90380087D01*
X153396383Y-90172584D01*
X153440200Y-89952300D01*
X153440200Y-89727700D01*
X153396383Y-89507416D01*
X153310432Y-89299913D01*
X153185651Y-89113165D01*
X153072685Y-89000199D01*
X154067315Y-89000199D01*
X153954349Y-89113165D01*
X153829568Y-89299913D01*
X153743617Y-89507416D01*
X153699800Y-89727700D01*
X153699800Y-89952300D01*
X153743617Y-90172584D01*
X153829568Y-90380087D01*
X153954349Y-90566835D01*
X154113165Y-90725651D01*
X154299913Y-90850432D01*
X154507416Y-90936383D01*
X154727700Y-90980200D01*
X154952300Y-90980200D01*
X155172584Y-90936383D01*
X155380087Y-90850432D01*
X155566835Y-90725651D01*
X155725651Y-90566835D01*
X155850432Y-90380087D01*
X155936383Y-90172584D01*
X155980200Y-89952300D01*
X155980200Y-89727700D01*
X155936383Y-89507416D01*
X155850432Y-89299913D01*
X155725651Y-89113165D01*
X155612685Y-89000199D01*
X156607315Y-89000199D01*
X156494349Y-89113165D01*
X156369568Y-89299913D01*
X156283617Y-89507416D01*
X156239800Y-89727700D01*
X156239800Y-89952300D01*
X156283617Y-90172584D01*
X156369568Y-90380087D01*
X156494349Y-90566835D01*
X156653165Y-90725651D01*
X156839913Y-90850432D01*
X157047416Y-90936383D01*
X157267700Y-90980200D01*
X157492300Y-90980200D01*
X157712584Y-90936383D01*
X157920087Y-90850432D01*
X158106835Y-90725651D01*
X158265651Y-90566835D01*
X158390432Y-90380087D01*
X158476383Y-90172584D01*
X158520200Y-89952300D01*
X158520200Y-89727700D01*
X158476383Y-89507416D01*
X158390432Y-89299913D01*
X158265651Y-89113165D01*
X158152685Y-89000199D01*
X159147315Y-89000199D01*
X159034349Y-89113165D01*
X158909568Y-89299913D01*
X158823617Y-89507416D01*
X158779800Y-89727700D01*
X158779800Y-89952300D01*
X158823617Y-90172584D01*
X158909568Y-90380087D01*
X159034349Y-90566835D01*
X159193165Y-90725651D01*
X159379913Y-90850432D01*
X159587416Y-90936383D01*
X159807700Y-90980200D01*
X160032300Y-90980200D01*
X160252584Y-90936383D01*
X160460087Y-90850432D01*
X160646835Y-90725651D01*
X160805651Y-90566835D01*
X160930432Y-90380087D01*
X161016383Y-90172584D01*
X161060200Y-89952300D01*
X161060200Y-89727700D01*
X161016383Y-89507416D01*
X160930432Y-89299913D01*
X160805651Y-89113165D01*
X160692685Y-89000199D01*
X161687315Y-89000199D01*
X161574349Y-89113165D01*
X161449568Y-89299913D01*
X161363617Y-89507416D01*
X161319800Y-89727700D01*
X161319800Y-89952300D01*
X161363617Y-90172584D01*
X161449568Y-90380087D01*
X161574349Y-90566835D01*
X161733165Y-90725651D01*
X161919913Y-90850432D01*
X162127416Y-90936383D01*
X162347700Y-90980200D01*
X162572300Y-90980200D01*
X162792584Y-90936383D01*
X163000087Y-90850432D01*
X163186835Y-90725651D01*
X163345651Y-90566835D01*
X163470432Y-90380087D01*
X163556383Y-90172584D01*
X163600200Y-89952300D01*
X163600200Y-89727700D01*
X163556383Y-89507416D01*
X163470432Y-89299913D01*
X163345651Y-89113165D01*
X163232685Y-89000199D01*
X164227316Y-89000198D01*
X164114349Y-89113165D01*
X163989568Y-89299913D01*
X163903617Y-89507416D01*
X163859800Y-89727700D01*
X163859800Y-89952300D01*
X163903617Y-90172584D01*
X163989568Y-90380087D01*
X164114349Y-90566835D01*
X164273165Y-90725651D01*
X164459913Y-90850432D01*
X164667416Y-90936383D01*
X164887700Y-90980200D01*
X165112300Y-90980200D01*
X165332584Y-90936383D01*
X165540087Y-90850432D01*
X165726835Y-90725651D01*
X165885651Y-90566835D01*
X166010432Y-90380087D01*
X166096383Y-90172584D01*
X166103618Y-90136207D01*
X168552300Y-90136207D01*
X168552300Y-90263793D01*
X168577191Y-90388927D01*
X168626016Y-90506801D01*
X168696899Y-90612885D01*
X168787115Y-90703101D01*
X168893199Y-90773984D01*
X169011073Y-90822809D01*
X169136207Y-90847700D01*
X169263793Y-90847700D01*
X169388927Y-90822809D01*
X169506801Y-90773984D01*
X169612885Y-90703101D01*
X169703101Y-90612885D01*
X169773984Y-90506801D01*
X169822809Y-90388927D01*
X169847700Y-90263793D01*
X169847700Y-90136207D01*
X169822809Y-90011073D01*
X169773984Y-89893199D01*
X169703101Y-89787115D01*
X169612885Y-89696899D01*
X169506801Y-89626016D01*
X169388927Y-89577191D01*
X169263793Y-89552300D01*
X169136207Y-89552300D01*
X169011073Y-89577191D01*
X168893199Y-89626016D01*
X168787115Y-89696899D01*
X168696899Y-89787115D01*
X168626016Y-89893199D01*
X168577191Y-90011073D01*
X168552300Y-90136207D01*
X166103618Y-90136207D01*
X166140200Y-89952300D01*
X166140200Y-89727700D01*
X166096383Y-89507416D01*
X166010432Y-89299913D01*
X165885651Y-89113165D01*
X165772684Y-89000198D01*
X176323800Y-89000198D01*
X176323800Y-103824659D01*
G37*
%TD.AperFunction*%
%TD*%
D18*
%TO.N,VCC*%
X141218221Y-95578972D02*
X141301028Y-95661779D01*
X141398398Y-95726839D01*
X141506591Y-95771654D01*
X141621447Y-95794500D01*
X141738553Y-95794500D01*
X141853409Y-95771654D01*
X141961602Y-95726839D01*
X142058972Y-95661779D01*
X142141779Y-95578972D01*
X142176505Y-95527000D01*
X147273000Y-95527000D01*
X147273000Y-95608374D01*
X147258553Y-95605500D01*
X147141447Y-95605500D01*
X147026591Y-95628346D01*
X146918398Y-95673161D01*
X146821028Y-95738221D01*
X146738221Y-95821028D01*
X146673161Y-95918398D01*
X146628346Y-96026591D01*
X146605500Y-96141447D01*
X146605500Y-96258553D01*
X146628346Y-96373409D01*
X146673161Y-96481602D01*
X146738221Y-96578972D01*
X146821028Y-96661779D01*
X146918398Y-96726839D01*
X147026591Y-96771654D01*
X147141447Y-96794500D01*
X147258553Y-96794500D01*
X147273000Y-96791626D01*
X147273000Y-101008374D01*
X147258553Y-101005500D01*
X147141447Y-101005500D01*
X147026591Y-101028346D01*
X146918398Y-101073161D01*
X146821028Y-101138221D01*
X146738221Y-101221028D01*
X146673161Y-101318398D01*
X146628346Y-101426591D01*
X146605500Y-101541447D01*
X146605500Y-101658553D01*
X146628346Y-101773409D01*
X146673161Y-101881602D01*
X146738221Y-101978972D01*
X146821028Y-102061779D01*
X146918398Y-102126839D01*
X147026591Y-102171654D01*
X147141447Y-102194500D01*
X147258553Y-102194500D01*
X147273000Y-102191626D01*
X147273000Y-104873000D01*
X131696505Y-104873000D01*
X131661779Y-104821028D01*
X131578972Y-104738221D01*
X131481602Y-104673161D01*
X131373409Y-104628346D01*
X131258553Y-104605500D01*
X131141447Y-104605500D01*
X131026591Y-104628346D01*
X130976490Y-104649099D01*
X130994500Y-104558553D01*
X130994500Y-104441447D01*
X130976490Y-104350901D01*
X131026591Y-104371654D01*
X131141447Y-104394500D01*
X131258553Y-104394500D01*
X131373409Y-104371654D01*
X131481602Y-104326839D01*
X131578972Y-104261779D01*
X131661779Y-104178972D01*
X131726839Y-104081602D01*
X131771654Y-103973409D01*
X131794500Y-103858553D01*
X131794500Y-103741447D01*
X131771654Y-103626591D01*
X131726839Y-103518398D01*
X131661779Y-103421028D01*
X131578972Y-103338221D01*
X131481602Y-103273161D01*
X131373409Y-103228346D01*
X131258553Y-103205500D01*
X131141447Y-103205500D01*
X131026591Y-103228346D01*
X130918398Y-103273161D01*
X130821028Y-103338221D01*
X130738221Y-103421028D01*
X130673161Y-103518398D01*
X130628346Y-103626591D01*
X130605500Y-103741447D01*
X130605500Y-103858553D01*
X130623510Y-103949099D01*
X130573409Y-103928346D01*
X130458553Y-103905500D01*
X130341447Y-103905500D01*
X130226591Y-103928346D01*
X130118398Y-103973161D01*
X130021028Y-104038221D01*
X129938221Y-104121028D01*
X129873161Y-104218398D01*
X129828346Y-104326591D01*
X129805500Y-104441447D01*
X129805500Y-104558553D01*
X129828346Y-104673409D01*
X129873161Y-104781602D01*
X129934231Y-104873000D01*
X129727000Y-104873000D01*
X129727000Y-102691447D01*
X140155494Y-102691447D01*
X140155494Y-102808553D01*
X140178340Y-102923409D01*
X140223155Y-103031602D01*
X140288215Y-103128972D01*
X140371022Y-103211779D01*
X140468392Y-103276839D01*
X140576585Y-103321654D01*
X140691441Y-103344500D01*
X140808547Y-103344500D01*
X140923403Y-103321654D01*
X141031596Y-103276839D01*
X141128966Y-103211779D01*
X141211773Y-103128972D01*
X141276833Y-103031602D01*
X141321648Y-102923409D01*
X141344494Y-102808553D01*
X141344494Y-102691447D01*
X141321648Y-102576591D01*
X141276833Y-102468398D01*
X141211773Y-102371028D01*
X141128966Y-102288221D01*
X141031596Y-102223161D01*
X140923403Y-102178346D01*
X140808547Y-102155500D01*
X140691441Y-102155500D01*
X140576585Y-102178346D01*
X140468392Y-102223161D01*
X140371022Y-102288221D01*
X140288215Y-102371028D01*
X140223155Y-102468398D01*
X140178340Y-102576591D01*
X140155494Y-102691447D01*
X129727000Y-102691447D01*
X129727000Y-100112178D01*
X129738221Y-100128972D01*
X129821028Y-100211779D01*
X129918398Y-100276839D01*
X130026591Y-100321654D01*
X130141447Y-100344500D01*
X130258553Y-100344500D01*
X130373409Y-100321654D01*
X130481602Y-100276839D01*
X130578972Y-100211779D01*
X130661779Y-100128972D01*
X130726839Y-100031602D01*
X130771654Y-99923409D01*
X130794500Y-99808553D01*
X130794500Y-99691447D01*
X132405500Y-99691447D01*
X132405500Y-99808553D01*
X132428346Y-99923409D01*
X132473161Y-100031602D01*
X132538221Y-100128972D01*
X132621028Y-100211779D01*
X132718398Y-100276839D01*
X132826591Y-100321654D01*
X132941447Y-100344500D01*
X133058553Y-100344500D01*
X133106127Y-100335037D01*
X145005500Y-100335037D01*
X145005500Y-100452143D01*
X145028346Y-100566999D01*
X145073161Y-100675192D01*
X145138221Y-100772562D01*
X145221028Y-100855369D01*
X145318398Y-100920429D01*
X145426591Y-100965244D01*
X145541447Y-100988090D01*
X145658553Y-100988090D01*
X145773409Y-100965244D01*
X145881602Y-100920429D01*
X145978972Y-100855369D01*
X146061779Y-100772562D01*
X146126839Y-100675192D01*
X146171654Y-100566999D01*
X146194500Y-100452143D01*
X146194500Y-100335037D01*
X146171654Y-100220181D01*
X146126839Y-100111988D01*
X146061779Y-100014618D01*
X145978972Y-99931811D01*
X145881602Y-99866751D01*
X145773409Y-99821936D01*
X145658553Y-99799090D01*
X145541447Y-99799090D01*
X145426591Y-99821936D01*
X145318398Y-99866751D01*
X145221028Y-99931811D01*
X145138221Y-100014618D01*
X145073161Y-100111988D01*
X145028346Y-100220181D01*
X145005500Y-100335037D01*
X133106127Y-100335037D01*
X133173409Y-100321654D01*
X133281602Y-100276839D01*
X133378972Y-100211779D01*
X133461779Y-100128972D01*
X133526839Y-100031602D01*
X133571654Y-99923409D01*
X133594500Y-99808553D01*
X133594500Y-99691447D01*
X133571654Y-99576591D01*
X133526839Y-99468398D01*
X133461779Y-99371028D01*
X133378972Y-99288221D01*
X133281602Y-99223161D01*
X133173409Y-99178346D01*
X133058553Y-99155500D01*
X132941447Y-99155500D01*
X132826591Y-99178346D01*
X132718398Y-99223161D01*
X132621028Y-99288221D01*
X132538221Y-99371028D01*
X132473161Y-99468398D01*
X132428346Y-99576591D01*
X132405500Y-99691447D01*
X130794500Y-99691447D01*
X130771654Y-99576591D01*
X130726839Y-99468398D01*
X130661779Y-99371028D01*
X130578972Y-99288221D01*
X130481602Y-99223161D01*
X130373409Y-99178346D01*
X130258553Y-99155500D01*
X130141447Y-99155500D01*
X130026591Y-99178346D01*
X129918398Y-99223161D01*
X129821028Y-99288221D01*
X129738221Y-99371028D01*
X129727000Y-99387822D01*
X129727000Y-99141447D01*
X140805500Y-99141447D01*
X140805500Y-99258553D01*
X140828346Y-99373409D01*
X140873161Y-99481602D01*
X140938221Y-99578972D01*
X141021028Y-99661779D01*
X141118398Y-99726839D01*
X141226591Y-99771654D01*
X141341447Y-99794500D01*
X141458553Y-99794500D01*
X141573409Y-99771654D01*
X141681602Y-99726839D01*
X141778972Y-99661779D01*
X141861779Y-99578972D01*
X141926839Y-99481602D01*
X141971654Y-99373409D01*
X141994500Y-99258553D01*
X141994500Y-99141447D01*
X141971654Y-99026591D01*
X141926839Y-98918398D01*
X141861779Y-98821028D01*
X141778972Y-98738221D01*
X141681602Y-98673161D01*
X141573409Y-98628346D01*
X141458553Y-98605500D01*
X141341447Y-98605500D01*
X141226591Y-98628346D01*
X141118398Y-98673161D01*
X141021028Y-98738221D01*
X140938221Y-98821028D01*
X140873161Y-98918398D01*
X140828346Y-99026591D01*
X140805500Y-99141447D01*
X129727000Y-99141447D01*
X129727000Y-97341447D01*
X133605500Y-97341447D01*
X133605500Y-97458553D01*
X133628346Y-97573409D01*
X133673161Y-97681602D01*
X133738221Y-97778972D01*
X133821028Y-97861779D01*
X133918398Y-97926839D01*
X134026591Y-97971654D01*
X134141447Y-97994500D01*
X134258553Y-97994500D01*
X134373409Y-97971654D01*
X134481602Y-97926839D01*
X134578972Y-97861779D01*
X134661779Y-97778972D01*
X134726839Y-97681602D01*
X134771654Y-97573409D01*
X134794500Y-97458553D01*
X134794500Y-97341447D01*
X134771654Y-97226591D01*
X134726839Y-97118398D01*
X134661779Y-97021028D01*
X134578972Y-96938221D01*
X134481602Y-96873161D01*
X134373409Y-96828346D01*
X134258553Y-96805500D01*
X134141447Y-96805500D01*
X134026591Y-96828346D01*
X133918398Y-96873161D01*
X133821028Y-96938221D01*
X133738221Y-97021028D01*
X133673161Y-97118398D01*
X133628346Y-97226591D01*
X133605500Y-97341447D01*
X129727000Y-97341447D01*
X129727000Y-95527000D01*
X141183495Y-95527000D01*
X141218221Y-95578972D01*
%TA.AperFunction,Conductor*%
D17*
G36*
X141218221Y-95578972D02*
G01*
X141301028Y-95661779D01*
X141398398Y-95726839D01*
X141506591Y-95771654D01*
X141621447Y-95794500D01*
X141738553Y-95794500D01*
X141853409Y-95771654D01*
X141961602Y-95726839D01*
X142058972Y-95661779D01*
X142141779Y-95578972D01*
X142176505Y-95527000D01*
X147273000Y-95527000D01*
X147273000Y-95608374D01*
X147258553Y-95605500D01*
X147141447Y-95605500D01*
X147026591Y-95628346D01*
X146918398Y-95673161D01*
X146821028Y-95738221D01*
X146738221Y-95821028D01*
X146673161Y-95918398D01*
X146628346Y-96026591D01*
X146605500Y-96141447D01*
X146605500Y-96258553D01*
X146628346Y-96373409D01*
X146673161Y-96481602D01*
X146738221Y-96578972D01*
X146821028Y-96661779D01*
X146918398Y-96726839D01*
X147026591Y-96771654D01*
X147141447Y-96794500D01*
X147258553Y-96794500D01*
X147273000Y-96791626D01*
X147273000Y-101008374D01*
X147258553Y-101005500D01*
X147141447Y-101005500D01*
X147026591Y-101028346D01*
X146918398Y-101073161D01*
X146821028Y-101138221D01*
X146738221Y-101221028D01*
X146673161Y-101318398D01*
X146628346Y-101426591D01*
X146605500Y-101541447D01*
X146605500Y-101658553D01*
X146628346Y-101773409D01*
X146673161Y-101881602D01*
X146738221Y-101978972D01*
X146821028Y-102061779D01*
X146918398Y-102126839D01*
X147026591Y-102171654D01*
X147141447Y-102194500D01*
X147258553Y-102194500D01*
X147273000Y-102191626D01*
X147273000Y-104873000D01*
X131696505Y-104873000D01*
X131661779Y-104821028D01*
X131578972Y-104738221D01*
X131481602Y-104673161D01*
X131373409Y-104628346D01*
X131258553Y-104605500D01*
X131141447Y-104605500D01*
X131026591Y-104628346D01*
X130976490Y-104649099D01*
X130994500Y-104558553D01*
X130994500Y-104441447D01*
X130976490Y-104350901D01*
X131026591Y-104371654D01*
X131141447Y-104394500D01*
X131258553Y-104394500D01*
X131373409Y-104371654D01*
X131481602Y-104326839D01*
X131578972Y-104261779D01*
X131661779Y-104178972D01*
X131726839Y-104081602D01*
X131771654Y-103973409D01*
X131794500Y-103858553D01*
X131794500Y-103741447D01*
X131771654Y-103626591D01*
X131726839Y-103518398D01*
X131661779Y-103421028D01*
X131578972Y-103338221D01*
X131481602Y-103273161D01*
X131373409Y-103228346D01*
X131258553Y-103205500D01*
X131141447Y-103205500D01*
X131026591Y-103228346D01*
X130918398Y-103273161D01*
X130821028Y-103338221D01*
X130738221Y-103421028D01*
X130673161Y-103518398D01*
X130628346Y-103626591D01*
X130605500Y-103741447D01*
X130605500Y-103858553D01*
X130623510Y-103949099D01*
X130573409Y-103928346D01*
X130458553Y-103905500D01*
X130341447Y-103905500D01*
X130226591Y-103928346D01*
X130118398Y-103973161D01*
X130021028Y-104038221D01*
X129938221Y-104121028D01*
X129873161Y-104218398D01*
X129828346Y-104326591D01*
X129805500Y-104441447D01*
X129805500Y-104558553D01*
X129828346Y-104673409D01*
X129873161Y-104781602D01*
X129934231Y-104873000D01*
X129727000Y-104873000D01*
X129727000Y-102691447D01*
X140155494Y-102691447D01*
X140155494Y-102808553D01*
X140178340Y-102923409D01*
X140223155Y-103031602D01*
X140288215Y-103128972D01*
X140371022Y-103211779D01*
X140468392Y-103276839D01*
X140576585Y-103321654D01*
X140691441Y-103344500D01*
X140808547Y-103344500D01*
X140923403Y-103321654D01*
X141031596Y-103276839D01*
X141128966Y-103211779D01*
X141211773Y-103128972D01*
X141276833Y-103031602D01*
X141321648Y-102923409D01*
X141344494Y-102808553D01*
X141344494Y-102691447D01*
X141321648Y-102576591D01*
X141276833Y-102468398D01*
X141211773Y-102371028D01*
X141128966Y-102288221D01*
X141031596Y-102223161D01*
X140923403Y-102178346D01*
X140808547Y-102155500D01*
X140691441Y-102155500D01*
X140576585Y-102178346D01*
X140468392Y-102223161D01*
X140371022Y-102288221D01*
X140288215Y-102371028D01*
X140223155Y-102468398D01*
X140178340Y-102576591D01*
X140155494Y-102691447D01*
X129727000Y-102691447D01*
X129727000Y-100112178D01*
X129738221Y-100128972D01*
X129821028Y-100211779D01*
X129918398Y-100276839D01*
X130026591Y-100321654D01*
X130141447Y-100344500D01*
X130258553Y-100344500D01*
X130373409Y-100321654D01*
X130481602Y-100276839D01*
X130578972Y-100211779D01*
X130661779Y-100128972D01*
X130726839Y-100031602D01*
X130771654Y-99923409D01*
X130794500Y-99808553D01*
X130794500Y-99691447D01*
X132405500Y-99691447D01*
X132405500Y-99808553D01*
X132428346Y-99923409D01*
X132473161Y-100031602D01*
X132538221Y-100128972D01*
X132621028Y-100211779D01*
X132718398Y-100276839D01*
X132826591Y-100321654D01*
X132941447Y-100344500D01*
X133058553Y-100344500D01*
X133106127Y-100335037D01*
X145005500Y-100335037D01*
X145005500Y-100452143D01*
X145028346Y-100566999D01*
X145073161Y-100675192D01*
X145138221Y-100772562D01*
X145221028Y-100855369D01*
X145318398Y-100920429D01*
X145426591Y-100965244D01*
X145541447Y-100988090D01*
X145658553Y-100988090D01*
X145773409Y-100965244D01*
X145881602Y-100920429D01*
X145978972Y-100855369D01*
X146061779Y-100772562D01*
X146126839Y-100675192D01*
X146171654Y-100566999D01*
X146194500Y-100452143D01*
X146194500Y-100335037D01*
X146171654Y-100220181D01*
X146126839Y-100111988D01*
X146061779Y-100014618D01*
X145978972Y-99931811D01*
X145881602Y-99866751D01*
X145773409Y-99821936D01*
X145658553Y-99799090D01*
X145541447Y-99799090D01*
X145426591Y-99821936D01*
X145318398Y-99866751D01*
X145221028Y-99931811D01*
X145138221Y-100014618D01*
X145073161Y-100111988D01*
X145028346Y-100220181D01*
X145005500Y-100335037D01*
X133106127Y-100335037D01*
X133173409Y-100321654D01*
X133281602Y-100276839D01*
X133378972Y-100211779D01*
X133461779Y-100128972D01*
X133526839Y-100031602D01*
X133571654Y-99923409D01*
X133594500Y-99808553D01*
X133594500Y-99691447D01*
X133571654Y-99576591D01*
X133526839Y-99468398D01*
X133461779Y-99371028D01*
X133378972Y-99288221D01*
X133281602Y-99223161D01*
X133173409Y-99178346D01*
X133058553Y-99155500D01*
X132941447Y-99155500D01*
X132826591Y-99178346D01*
X132718398Y-99223161D01*
X132621028Y-99288221D01*
X132538221Y-99371028D01*
X132473161Y-99468398D01*
X132428346Y-99576591D01*
X132405500Y-99691447D01*
X130794500Y-99691447D01*
X130771654Y-99576591D01*
X130726839Y-99468398D01*
X130661779Y-99371028D01*
X130578972Y-99288221D01*
X130481602Y-99223161D01*
X130373409Y-99178346D01*
X130258553Y-99155500D01*
X130141447Y-99155500D01*
X130026591Y-99178346D01*
X129918398Y-99223161D01*
X129821028Y-99288221D01*
X129738221Y-99371028D01*
X129727000Y-99387822D01*
X129727000Y-99141447D01*
X140805500Y-99141447D01*
X140805500Y-99258553D01*
X140828346Y-99373409D01*
X140873161Y-99481602D01*
X140938221Y-99578972D01*
X141021028Y-99661779D01*
X141118398Y-99726839D01*
X141226591Y-99771654D01*
X141341447Y-99794500D01*
X141458553Y-99794500D01*
X141573409Y-99771654D01*
X141681602Y-99726839D01*
X141778972Y-99661779D01*
X141861779Y-99578972D01*
X141926839Y-99481602D01*
X141971654Y-99373409D01*
X141994500Y-99258553D01*
X141994500Y-99141447D01*
X141971654Y-99026591D01*
X141926839Y-98918398D01*
X141861779Y-98821028D01*
X141778972Y-98738221D01*
X141681602Y-98673161D01*
X141573409Y-98628346D01*
X141458553Y-98605500D01*
X141341447Y-98605500D01*
X141226591Y-98628346D01*
X141118398Y-98673161D01*
X141021028Y-98738221D01*
X140938221Y-98821028D01*
X140873161Y-98918398D01*
X140828346Y-99026591D01*
X140805500Y-99141447D01*
X129727000Y-99141447D01*
X129727000Y-97341447D01*
X133605500Y-97341447D01*
X133605500Y-97458553D01*
X133628346Y-97573409D01*
X133673161Y-97681602D01*
X133738221Y-97778972D01*
X133821028Y-97861779D01*
X133918398Y-97926839D01*
X134026591Y-97971654D01*
X134141447Y-97994500D01*
X134258553Y-97994500D01*
X134373409Y-97971654D01*
X134481602Y-97926839D01*
X134578972Y-97861779D01*
X134661779Y-97778972D01*
X134726839Y-97681602D01*
X134771654Y-97573409D01*
X134794500Y-97458553D01*
X134794500Y-97341447D01*
X134771654Y-97226591D01*
X134726839Y-97118398D01*
X134661779Y-97021028D01*
X134578972Y-96938221D01*
X134481602Y-96873161D01*
X134373409Y-96828346D01*
X134258553Y-96805500D01*
X134141447Y-96805500D01*
X134026591Y-96828346D01*
X133918398Y-96873161D01*
X133821028Y-96938221D01*
X133738221Y-97021028D01*
X133673161Y-97118398D01*
X133628346Y-97226591D01*
X133605500Y-97341447D01*
X129727000Y-97341447D01*
X129727000Y-95527000D01*
X141183495Y-95527000D01*
X141218221Y-95578972D01*
G37*
%TD.AperFunction*%
%TD*%
M02*
