%TF.GenerationSoftware,KiCad,Pcbnew,(5.1.9)-1*%
%TF.CreationDate,2021-04-07T15:03:24-04:00*%
%TF.ProjectId,Finch-Feather,46696e63-682d-4466-9561-746865722e6b,rev?*%
%TF.SameCoordinates,Original*%
%TF.FileFunction,Legend,Top*%
%TF.FilePolarity,Positive*%
%FSLAX46Y46*%
G04 Gerber Fmt 4.6, Leading zero omitted, Abs format (unit mm)*
G04 Created by KiCad (PCBNEW (5.1.9)-1) date 2021-04-07 15:03:24*
%MOMM*%
%LPD*%
G01*
G04 APERTURE LIST*
%ADD10C,0.300000*%
%ADD11C,0.200000*%
%ADD12C,0.120000*%
%ADD13C,0.350000*%
%ADD14C,0.150000*%
%ADD15C,0.100000*%
%ADD16C,0.152400*%
%ADD17C,0.127000*%
G04 APERTURE END LIST*
D10*
X125892857Y-91857142D02*
X125964285Y-91642857D01*
X126035714Y-91571428D01*
X126178571Y-91500000D01*
X126392857Y-91500000D01*
X126535714Y-91571428D01*
X126607142Y-91642857D01*
X126678571Y-91785714D01*
X126678571Y-92357142D01*
X125178571Y-92357142D01*
X125178571Y-91857142D01*
X125250000Y-91714285D01*
X125321428Y-91642857D01*
X125464285Y-91571428D01*
X125607142Y-91571428D01*
X125750000Y-91642857D01*
X125821428Y-91714285D01*
X125892857Y-91857142D01*
X125892857Y-92357142D01*
X126250000Y-90928571D02*
X126250000Y-90214285D01*
X126678571Y-91071428D02*
X125178571Y-90571428D01*
X126678571Y-90071428D01*
X125178571Y-89785714D02*
X125178571Y-88928571D01*
X126678571Y-89357142D02*
X125178571Y-89357142D01*
X142928571Y-109107142D02*
X141428571Y-109107142D01*
X141428571Y-108535714D01*
X141500000Y-108392857D01*
X141571428Y-108321428D01*
X141714285Y-108250000D01*
X141928571Y-108250000D01*
X142071428Y-108321428D01*
X142142857Y-108392857D01*
X142214285Y-108535714D01*
X142214285Y-109107142D01*
X142785714Y-106750000D02*
X142857142Y-106821428D01*
X142928571Y-107035714D01*
X142928571Y-107178571D01*
X142857142Y-107392857D01*
X142714285Y-107535714D01*
X142571428Y-107607142D01*
X142285714Y-107678571D01*
X142071428Y-107678571D01*
X141785714Y-107607142D01*
X141642857Y-107535714D01*
X141500000Y-107392857D01*
X141428571Y-107178571D01*
X141428571Y-107035714D01*
X141500000Y-106821428D01*
X141571428Y-106750000D01*
X142928571Y-106035714D02*
X142928571Y-105750000D01*
X142857142Y-105607142D01*
X142785714Y-105535714D01*
X142571428Y-105392857D01*
X142285714Y-105321428D01*
X141714285Y-105321428D01*
X141571428Y-105392857D01*
X141500000Y-105464285D01*
X141428571Y-105607142D01*
X141428571Y-105892857D01*
X141500000Y-106035714D01*
X141571428Y-106107142D01*
X141714285Y-106178571D01*
X142071428Y-106178571D01*
X142214285Y-106107142D01*
X142285714Y-106035714D01*
X142357142Y-105892857D01*
X142357142Y-105607142D01*
X142285714Y-105464285D01*
X142214285Y-105392857D01*
X142071428Y-105321428D01*
X140428571Y-108957142D02*
X138928571Y-108957142D01*
X138928571Y-108385714D01*
X139000000Y-108242857D01*
X139071428Y-108171428D01*
X139214285Y-108100000D01*
X139428571Y-108100000D01*
X139571428Y-108171428D01*
X139642857Y-108242857D01*
X139714285Y-108385714D01*
X139714285Y-108957142D01*
X140428571Y-107457142D02*
X138928571Y-107457142D01*
X138928571Y-107100000D01*
X139000000Y-106885714D01*
X139142857Y-106742857D01*
X139285714Y-106671428D01*
X139571428Y-106600000D01*
X139785714Y-106600000D01*
X140071428Y-106671428D01*
X140214285Y-106742857D01*
X140357142Y-106885714D01*
X140428571Y-107100000D01*
X140428571Y-107457142D01*
X139071428Y-106028571D02*
X139000000Y-105957142D01*
X138928571Y-105814285D01*
X138928571Y-105457142D01*
X139000000Y-105314285D01*
X139071428Y-105242857D01*
X139214285Y-105171428D01*
X139357142Y-105171428D01*
X139571428Y-105242857D01*
X140428571Y-106100000D01*
X140428571Y-105171428D01*
X137928571Y-108957142D02*
X136428571Y-108957142D01*
X136428571Y-108385714D01*
X136500000Y-108242857D01*
X136571428Y-108171428D01*
X136714285Y-108100000D01*
X136928571Y-108100000D01*
X137071428Y-108171428D01*
X137142857Y-108242857D01*
X137214285Y-108385714D01*
X137214285Y-108957142D01*
X137928571Y-107457142D02*
X136428571Y-107457142D01*
X136428571Y-107100000D01*
X136500000Y-106885714D01*
X136642857Y-106742857D01*
X136785714Y-106671428D01*
X137071428Y-106600000D01*
X137285714Y-106600000D01*
X137571428Y-106671428D01*
X137714285Y-106742857D01*
X137857142Y-106885714D01*
X137928571Y-107100000D01*
X137928571Y-107457142D01*
X136428571Y-106100000D02*
X136428571Y-105100000D01*
X137928571Y-105742857D01*
X136378571Y-96064285D02*
X137878571Y-95564285D01*
X136378571Y-95064285D01*
X137092857Y-94064285D02*
X137164285Y-93850000D01*
X137235714Y-93778571D01*
X137378571Y-93707142D01*
X137592857Y-93707142D01*
X137735714Y-93778571D01*
X137807142Y-93850000D01*
X137878571Y-93992857D01*
X137878571Y-94564285D01*
X136378571Y-94564285D01*
X136378571Y-94064285D01*
X136450000Y-93921428D01*
X136521428Y-93850000D01*
X136664285Y-93778571D01*
X136807142Y-93778571D01*
X136950000Y-93850000D01*
X137021428Y-93921428D01*
X137092857Y-94064285D01*
X137092857Y-94564285D01*
X137450000Y-93135714D02*
X137450000Y-92421428D01*
X137878571Y-93278571D02*
X136378571Y-92778571D01*
X137878571Y-92278571D01*
X136378571Y-91992857D02*
X136378571Y-91135714D01*
X137878571Y-91564285D02*
X136378571Y-91564285D01*
X166714285Y-107178571D02*
X166714285Y-105678571D01*
X167071428Y-105678571D01*
X167285714Y-105750000D01*
X167428571Y-105892857D01*
X167500000Y-106035714D01*
X167571428Y-106321428D01*
X167571428Y-106535714D01*
X167500000Y-106821428D01*
X167428571Y-106964285D01*
X167285714Y-107107142D01*
X167071428Y-107178571D01*
X166714285Y-107178571D01*
X168857142Y-107178571D02*
X168857142Y-106392857D01*
X168785714Y-106250000D01*
X168642857Y-106178571D01*
X168357142Y-106178571D01*
X168214285Y-106250000D01*
X168857142Y-107107142D02*
X168714285Y-107178571D01*
X168357142Y-107178571D01*
X168214285Y-107107142D01*
X168142857Y-106964285D01*
X168142857Y-106821428D01*
X168214285Y-106678571D01*
X168357142Y-106607142D01*
X168714285Y-106607142D01*
X168857142Y-106535714D01*
X169571428Y-107178571D02*
X169571428Y-106178571D01*
X169571428Y-106464285D02*
X169642857Y-106321428D01*
X169714285Y-106250000D01*
X169857142Y-106178571D01*
X170000000Y-106178571D01*
X170500000Y-107178571D02*
X170500000Y-105678571D01*
X170642857Y-106607142D02*
X171071428Y-107178571D01*
X171071428Y-106178571D02*
X170500000Y-106750000D01*
X172428571Y-107178571D02*
X171714285Y-107178571D01*
X171714285Y-105678571D01*
X173500000Y-107107142D02*
X173357142Y-107178571D01*
X173071428Y-107178571D01*
X172928571Y-107107142D01*
X172857142Y-106964285D01*
X172857142Y-106392857D01*
X172928571Y-106250000D01*
X173071428Y-106178571D01*
X173357142Y-106178571D01*
X173500000Y-106250000D01*
X173571428Y-106392857D01*
X173571428Y-106535714D01*
X172857142Y-106678571D01*
X174857142Y-107178571D02*
X174857142Y-106392857D01*
X174785714Y-106250000D01*
X174642857Y-106178571D01*
X174357142Y-106178571D01*
X174214285Y-106250000D01*
X174857142Y-107107142D02*
X174714285Y-107178571D01*
X174357142Y-107178571D01*
X174214285Y-107107142D01*
X174142857Y-106964285D01*
X174142857Y-106821428D01*
X174214285Y-106678571D01*
X174357142Y-106607142D01*
X174714285Y-106607142D01*
X174857142Y-106535714D01*
X175357142Y-106178571D02*
X175928571Y-106178571D01*
X175571428Y-107178571D02*
X175571428Y-105892857D01*
X175642857Y-105750000D01*
X175785714Y-105678571D01*
X175928571Y-105678571D01*
X177500000Y-105821428D02*
X177571428Y-105750000D01*
X177714285Y-105678571D01*
X178071428Y-105678571D01*
X178214285Y-105750000D01*
X178285714Y-105821428D01*
X178357142Y-105964285D01*
X178357142Y-106107142D01*
X178285714Y-106321428D01*
X177428571Y-107178571D01*
X178357142Y-107178571D01*
X179785714Y-105750000D02*
X179642857Y-105678571D01*
X179428571Y-105678571D01*
X179214285Y-105750000D01*
X179071428Y-105892857D01*
X179000000Y-106035714D01*
X178928571Y-106321428D01*
X178928571Y-106535714D01*
X179000000Y-106821428D01*
X179071428Y-106964285D01*
X179214285Y-107107142D01*
X179428571Y-107178571D01*
X179571428Y-107178571D01*
X179785714Y-107107142D01*
X179857142Y-107035714D01*
X179857142Y-106535714D01*
X179571428Y-106535714D01*
X119921428Y-93178571D02*
X119921428Y-94392857D01*
X119992857Y-94535714D01*
X120064285Y-94607142D01*
X120207142Y-94678571D01*
X120492857Y-94678571D01*
X120635714Y-94607142D01*
X120707142Y-94535714D01*
X120778571Y-94392857D01*
X120778571Y-93178571D01*
X121421428Y-94607142D02*
X121635714Y-94678571D01*
X121992857Y-94678571D01*
X122135714Y-94607142D01*
X122207142Y-94535714D01*
X122278571Y-94392857D01*
X122278571Y-94250000D01*
X122207142Y-94107142D01*
X122135714Y-94035714D01*
X121992857Y-93964285D01*
X121707142Y-93892857D01*
X121564285Y-93821428D01*
X121492857Y-93750000D01*
X121421428Y-93607142D01*
X121421428Y-93464285D01*
X121492857Y-93321428D01*
X121564285Y-93250000D01*
X121707142Y-93178571D01*
X122064285Y-93178571D01*
X122278571Y-93250000D01*
X123421428Y-93892857D02*
X123635714Y-93964285D01*
X123707142Y-94035714D01*
X123778571Y-94178571D01*
X123778571Y-94392857D01*
X123707142Y-94535714D01*
X123635714Y-94607142D01*
X123492857Y-94678571D01*
X122921428Y-94678571D01*
X122921428Y-93178571D01*
X123421428Y-93178571D01*
X123564285Y-93250000D01*
X123635714Y-93321428D01*
X123707142Y-93464285D01*
X123707142Y-93607142D01*
X123635714Y-93750000D01*
X123564285Y-93821428D01*
X123421428Y-93892857D01*
X122921428Y-93892857D01*
X124350000Y-93321428D02*
X124421428Y-93250000D01*
X124564285Y-93178571D01*
X124921428Y-93178571D01*
X125064285Y-93250000D01*
X125135714Y-93321428D01*
X125207142Y-93464285D01*
X125207142Y-93607142D01*
X125135714Y-93821428D01*
X124278571Y-94678571D01*
X125207142Y-94678571D01*
X125850000Y-94535714D02*
X125921428Y-94607142D01*
X125850000Y-94678571D01*
X125778571Y-94607142D01*
X125850000Y-94535714D01*
X125850000Y-94678571D01*
X126850000Y-93178571D02*
X126992857Y-93178571D01*
X127135714Y-93250000D01*
X127207142Y-93321428D01*
X127278571Y-93464285D01*
X127350000Y-93750000D01*
X127350000Y-94107142D01*
X127278571Y-94392857D01*
X127207142Y-94535714D01*
X127135714Y-94607142D01*
X126992857Y-94678571D01*
X126850000Y-94678571D01*
X126707142Y-94607142D01*
X126635714Y-94535714D01*
X126564285Y-94392857D01*
X126492857Y-94107142D01*
X126492857Y-93750000D01*
X126564285Y-93464285D01*
X126635714Y-93321428D01*
X126707142Y-93250000D01*
X126850000Y-93178571D01*
D11*
X154852380Y-102438095D02*
X153852380Y-102438095D01*
X153852380Y-102200000D01*
X153900000Y-102057142D01*
X153995238Y-101961904D01*
X154090476Y-101914285D01*
X154280952Y-101866666D01*
X154423809Y-101866666D01*
X154614285Y-101914285D01*
X154709523Y-101961904D01*
X154804761Y-102057142D01*
X154852380Y-102200000D01*
X154852380Y-102438095D01*
X154328571Y-101438095D02*
X154328571Y-101104761D01*
X154852380Y-100961904D02*
X154852380Y-101438095D01*
X153852380Y-101438095D01*
X153852380Y-100961904D01*
X154328571Y-100200000D02*
X154376190Y-100057142D01*
X154423809Y-100009523D01*
X154519047Y-99961904D01*
X154661904Y-99961904D01*
X154757142Y-100009523D01*
X154804761Y-100057142D01*
X154852380Y-100152380D01*
X154852380Y-100533333D01*
X153852380Y-100533333D01*
X153852380Y-100200000D01*
X153900000Y-100104761D01*
X153947619Y-100057142D01*
X154042857Y-100009523D01*
X154138095Y-100009523D01*
X154233333Y-100057142D01*
X154280952Y-100104761D01*
X154328571Y-100200000D01*
X154328571Y-100533333D01*
X153852380Y-99533333D02*
X154661904Y-99533333D01*
X154757142Y-99485714D01*
X154804761Y-99438095D01*
X154852380Y-99342857D01*
X154852380Y-99152380D01*
X154804761Y-99057142D01*
X154757142Y-99009523D01*
X154661904Y-98961904D01*
X153852380Y-98961904D01*
X153900000Y-97961904D02*
X153852380Y-98057142D01*
X153852380Y-98200000D01*
X153900000Y-98342857D01*
X153995238Y-98438095D01*
X154090476Y-98485714D01*
X154280952Y-98533333D01*
X154423809Y-98533333D01*
X154614285Y-98485714D01*
X154709523Y-98438095D01*
X154804761Y-98342857D01*
X154852380Y-98200000D01*
X154852380Y-98104761D01*
X154804761Y-97961904D01*
X154757142Y-97914285D01*
X154423809Y-97914285D01*
X154423809Y-98104761D01*
D10*
X165878571Y-94892857D02*
X164378571Y-94892857D01*
X164378571Y-94321428D01*
X164450000Y-94178571D01*
X164521428Y-94107142D01*
X164664285Y-94035714D01*
X164878571Y-94035714D01*
X165021428Y-94107142D01*
X165092857Y-94178571D01*
X165164285Y-94321428D01*
X165164285Y-94892857D01*
X165878571Y-93392857D02*
X164378571Y-93392857D01*
X165092857Y-93392857D02*
X165092857Y-92535714D01*
X165878571Y-92535714D02*
X164378571Y-92535714D01*
X164378571Y-91535714D02*
X164378571Y-91392857D01*
X164450000Y-91250000D01*
X164521428Y-91178571D01*
X164664285Y-91107142D01*
X164950000Y-91035714D01*
X165307142Y-91035714D01*
X165592857Y-91107142D01*
X165735714Y-91178571D01*
X165807142Y-91250000D01*
X165878571Y-91392857D01*
X165878571Y-91535714D01*
X165807142Y-91678571D01*
X165735714Y-91750000D01*
X165592857Y-91821428D01*
X165307142Y-91892857D01*
X164950000Y-91892857D01*
X164664285Y-91821428D01*
X164521428Y-91750000D01*
X164450000Y-91678571D01*
X164378571Y-91535714D01*
X163278571Y-94692857D02*
X161778571Y-94692857D01*
X161778571Y-94121428D01*
X161850000Y-93978571D01*
X161921428Y-93907142D01*
X162064285Y-93835714D01*
X162278571Y-93835714D01*
X162421428Y-93907142D01*
X162492857Y-93978571D01*
X162564285Y-94121428D01*
X162564285Y-94692857D01*
X163278571Y-93192857D02*
X161778571Y-93192857D01*
X162492857Y-93192857D02*
X162492857Y-92335714D01*
X163278571Y-92335714D02*
X161778571Y-92335714D01*
X163278571Y-90835714D02*
X163278571Y-91692857D01*
X163278571Y-91264285D02*
X161778571Y-91264285D01*
X161992857Y-91407142D01*
X162135714Y-91550000D01*
X162207142Y-91692857D01*
X160478571Y-96171428D02*
X158978571Y-96171428D01*
X158978571Y-95600000D01*
X159050000Y-95457142D01*
X159121428Y-95385714D01*
X159264285Y-95314285D01*
X159478571Y-95314285D01*
X159621428Y-95385714D01*
X159692857Y-95457142D01*
X159764285Y-95600000D01*
X159764285Y-96171428D01*
X160478571Y-94671428D02*
X158978571Y-94671428D01*
X158978571Y-94314285D01*
X159050000Y-94100000D01*
X159192857Y-93957142D01*
X159335714Y-93885714D01*
X159621428Y-93814285D01*
X159835714Y-93814285D01*
X160121428Y-93885714D01*
X160264285Y-93957142D01*
X160407142Y-94100000D01*
X160478571Y-94314285D01*
X160478571Y-94671428D01*
X160478571Y-92385714D02*
X160478571Y-93242857D01*
X160478571Y-92814285D02*
X158978571Y-92814285D01*
X159192857Y-92957142D01*
X159335714Y-93100000D01*
X159407142Y-93242857D01*
X159478571Y-91100000D02*
X160478571Y-91100000D01*
X158907142Y-91457142D02*
X159978571Y-91814285D01*
X159978571Y-90885714D01*
X158078571Y-94385714D02*
X156578571Y-94385714D01*
X156578571Y-93814285D01*
X156650000Y-93671428D01*
X156721428Y-93600000D01*
X156864285Y-93528571D01*
X157078571Y-93528571D01*
X157221428Y-93600000D01*
X157292857Y-93671428D01*
X157364285Y-93814285D01*
X157364285Y-94385714D01*
X157292857Y-92885714D02*
X157292857Y-92385714D01*
X158078571Y-92171428D02*
X158078571Y-92885714D01*
X156578571Y-92885714D01*
X156578571Y-92171428D01*
X158078571Y-90742857D02*
X158078571Y-91600000D01*
X158078571Y-91171428D02*
X156578571Y-91171428D01*
X156792857Y-91314285D01*
X156935714Y-91457142D01*
X157007142Y-91600000D01*
X155678571Y-96371428D02*
X154178571Y-96371428D01*
X154178571Y-95800000D01*
X154250000Y-95657142D01*
X154321428Y-95585714D01*
X154464285Y-95514285D01*
X154678571Y-95514285D01*
X154821428Y-95585714D01*
X154892857Y-95657142D01*
X154964285Y-95800000D01*
X154964285Y-96371428D01*
X155678571Y-94871428D02*
X154178571Y-94871428D01*
X154178571Y-94514285D01*
X154250000Y-94300000D01*
X154392857Y-94157142D01*
X154535714Y-94085714D01*
X154821428Y-94014285D01*
X155035714Y-94014285D01*
X155321428Y-94085714D01*
X155464285Y-94157142D01*
X155607142Y-94300000D01*
X155678571Y-94514285D01*
X155678571Y-94871428D01*
X155678571Y-92585714D02*
X155678571Y-93442857D01*
X155678571Y-93014285D02*
X154178571Y-93014285D01*
X154392857Y-93157142D01*
X154535714Y-93300000D01*
X154607142Y-93442857D01*
X154178571Y-92085714D02*
X154178571Y-91157142D01*
X154750000Y-91657142D01*
X154750000Y-91442857D01*
X154821428Y-91300000D01*
X154892857Y-91228571D01*
X155035714Y-91157142D01*
X155392857Y-91157142D01*
X155535714Y-91228571D01*
X155607142Y-91300000D01*
X155678571Y-91442857D01*
X155678571Y-91871428D01*
X155607142Y-92014285D01*
X155535714Y-92085714D01*
X153078571Y-96371428D02*
X151578571Y-96371428D01*
X151578571Y-95800000D01*
X151650000Y-95657142D01*
X151721428Y-95585714D01*
X151864285Y-95514285D01*
X152078571Y-95514285D01*
X152221428Y-95585714D01*
X152292857Y-95657142D01*
X152364285Y-95800000D01*
X152364285Y-96371428D01*
X153078571Y-94871428D02*
X151578571Y-94871428D01*
X151578571Y-94514285D01*
X151650000Y-94300000D01*
X151792857Y-94157142D01*
X151935714Y-94085714D01*
X152221428Y-94014285D01*
X152435714Y-94014285D01*
X152721428Y-94085714D01*
X152864285Y-94157142D01*
X153007142Y-94300000D01*
X153078571Y-94514285D01*
X153078571Y-94871428D01*
X153078571Y-92585714D02*
X153078571Y-93442857D01*
X153078571Y-93014285D02*
X151578571Y-93014285D01*
X151792857Y-93157142D01*
X151935714Y-93300000D01*
X152007142Y-93442857D01*
X151721428Y-92014285D02*
X151650000Y-91942857D01*
X151578571Y-91800000D01*
X151578571Y-91442857D01*
X151650000Y-91300000D01*
X151721428Y-91228571D01*
X151864285Y-91157142D01*
X152007142Y-91157142D01*
X152221428Y-91228571D01*
X153078571Y-92085714D01*
X153078571Y-91157142D01*
X150678571Y-94857142D02*
X149178571Y-94857142D01*
X149178571Y-94285714D01*
X149250000Y-94142857D01*
X149321428Y-94071428D01*
X149464285Y-94000000D01*
X149678571Y-94000000D01*
X149821428Y-94071428D01*
X149892857Y-94142857D01*
X149964285Y-94285714D01*
X149964285Y-94857142D01*
X149892857Y-92857142D02*
X149964285Y-92642857D01*
X150035714Y-92571428D01*
X150178571Y-92500000D01*
X150392857Y-92500000D01*
X150535714Y-92571428D01*
X150607142Y-92642857D01*
X150678571Y-92785714D01*
X150678571Y-93357142D01*
X149178571Y-93357142D01*
X149178571Y-92857142D01*
X149250000Y-92714285D01*
X149321428Y-92642857D01*
X149464285Y-92571428D01*
X149607142Y-92571428D01*
X149750000Y-92642857D01*
X149821428Y-92714285D01*
X149892857Y-92857142D01*
X149892857Y-93357142D01*
X149178571Y-92000000D02*
X149178571Y-91000000D01*
X150678571Y-91642857D01*
X148078571Y-94857142D02*
X146578571Y-94857142D01*
X146578571Y-94285714D01*
X146650000Y-94142857D01*
X146721428Y-94071428D01*
X146864285Y-94000000D01*
X147078571Y-94000000D01*
X147221428Y-94071428D01*
X147292857Y-94142857D01*
X147364285Y-94285714D01*
X147364285Y-94857142D01*
X147292857Y-92857142D02*
X147364285Y-92642857D01*
X147435714Y-92571428D01*
X147578571Y-92500000D01*
X147792857Y-92500000D01*
X147935714Y-92571428D01*
X148007142Y-92642857D01*
X148078571Y-92785714D01*
X148078571Y-93357142D01*
X146578571Y-93357142D01*
X146578571Y-92857142D01*
X146650000Y-92714285D01*
X146721428Y-92642857D01*
X146864285Y-92571428D01*
X147007142Y-92571428D01*
X147150000Y-92642857D01*
X147221428Y-92714285D01*
X147292857Y-92857142D01*
X147292857Y-93357142D01*
X146578571Y-91142857D02*
X146578571Y-91857142D01*
X147292857Y-91928571D01*
X147221428Y-91857142D01*
X147150000Y-91714285D01*
X147150000Y-91357142D01*
X147221428Y-91214285D01*
X147292857Y-91142857D01*
X147435714Y-91071428D01*
X147792857Y-91071428D01*
X147935714Y-91142857D01*
X148007142Y-91214285D01*
X148078571Y-91357142D01*
X148078571Y-91714285D01*
X148007142Y-91857142D01*
X147935714Y-91928571D01*
X145478571Y-94857142D02*
X143978571Y-94857142D01*
X143978571Y-94285714D01*
X144050000Y-94142857D01*
X144121428Y-94071428D01*
X144264285Y-94000000D01*
X144478571Y-94000000D01*
X144621428Y-94071428D01*
X144692857Y-94142857D01*
X144764285Y-94285714D01*
X144764285Y-94857142D01*
X144692857Y-92857142D02*
X144764285Y-92642857D01*
X144835714Y-92571428D01*
X144978571Y-92500000D01*
X145192857Y-92500000D01*
X145335714Y-92571428D01*
X145407142Y-92642857D01*
X145478571Y-92785714D01*
X145478571Y-93357142D01*
X143978571Y-93357142D01*
X143978571Y-92857142D01*
X144050000Y-92714285D01*
X144121428Y-92642857D01*
X144264285Y-92571428D01*
X144407142Y-92571428D01*
X144550000Y-92642857D01*
X144621428Y-92714285D01*
X144692857Y-92857142D01*
X144692857Y-93357142D01*
X144478571Y-91214285D02*
X145478571Y-91214285D01*
X143907142Y-91571428D02*
X144978571Y-91928571D01*
X144978571Y-91000000D01*
X141378571Y-94764285D02*
X142878571Y-94264285D01*
X141378571Y-93764285D01*
X142092857Y-92764285D02*
X142164285Y-92550000D01*
X142235714Y-92478571D01*
X142378571Y-92407142D01*
X142592857Y-92407142D01*
X142735714Y-92478571D01*
X142807142Y-92550000D01*
X142878571Y-92692857D01*
X142878571Y-93264285D01*
X141378571Y-93264285D01*
X141378571Y-92764285D01*
X141450000Y-92621428D01*
X141521428Y-92550000D01*
X141664285Y-92478571D01*
X141807142Y-92478571D01*
X141950000Y-92550000D01*
X142021428Y-92621428D01*
X142092857Y-92764285D01*
X142092857Y-93264285D01*
X142807142Y-91835714D02*
X142878571Y-91621428D01*
X142878571Y-91264285D01*
X142807142Y-91121428D01*
X142735714Y-91050000D01*
X142592857Y-90978571D01*
X142450000Y-90978571D01*
X142307142Y-91050000D01*
X142235714Y-91121428D01*
X142164285Y-91264285D01*
X142092857Y-91550000D01*
X142021428Y-91692857D01*
X141950000Y-91764285D01*
X141807142Y-91835714D01*
X141664285Y-91835714D01*
X141521428Y-91764285D01*
X141450000Y-91692857D01*
X141378571Y-91550000D01*
X141378571Y-91192857D01*
X141450000Y-90978571D01*
X139492857Y-93507142D02*
X139492857Y-93007142D01*
X140278571Y-92792857D02*
X140278571Y-93507142D01*
X138778571Y-93507142D01*
X138778571Y-92792857D01*
X140278571Y-92150000D02*
X138778571Y-92150000D01*
X140278571Y-91292857D01*
X138778571Y-91292857D01*
X163128571Y-108871428D02*
X161628571Y-108871428D01*
X161628571Y-108300000D01*
X161700000Y-108157142D01*
X161771428Y-108085714D01*
X161914285Y-108014285D01*
X162128571Y-108014285D01*
X162271428Y-108085714D01*
X162342857Y-108157142D01*
X162414285Y-108300000D01*
X162414285Y-108871428D01*
X162342857Y-106871428D02*
X162414285Y-106657142D01*
X162485714Y-106585714D01*
X162628571Y-106514285D01*
X162842857Y-106514285D01*
X162985714Y-106585714D01*
X163057142Y-106657142D01*
X163128571Y-106800000D01*
X163128571Y-107371428D01*
X161628571Y-107371428D01*
X161628571Y-106871428D01*
X161700000Y-106728571D01*
X161771428Y-106657142D01*
X161914285Y-106585714D01*
X162057142Y-106585714D01*
X162200000Y-106657142D01*
X162271428Y-106728571D01*
X162342857Y-106871428D01*
X162342857Y-107371428D01*
X163128571Y-105085714D02*
X163128571Y-105942857D01*
X163128571Y-105514285D02*
X161628571Y-105514285D01*
X161842857Y-105657142D01*
X161985714Y-105800000D01*
X162057142Y-105942857D01*
X161771428Y-104514285D02*
X161700000Y-104442857D01*
X161628571Y-104300000D01*
X161628571Y-103942857D01*
X161700000Y-103800000D01*
X161771428Y-103728571D01*
X161914285Y-103657142D01*
X162057142Y-103657142D01*
X162271428Y-103728571D01*
X163128571Y-104585714D01*
X163128571Y-103657142D01*
X165728571Y-108885714D02*
X164228571Y-108885714D01*
X164228571Y-108314285D01*
X164300000Y-108171428D01*
X164371428Y-108100000D01*
X164514285Y-108028571D01*
X164728571Y-108028571D01*
X164871428Y-108100000D01*
X164942857Y-108171428D01*
X165014285Y-108314285D01*
X165014285Y-108885714D01*
X164942857Y-107385714D02*
X164942857Y-106885714D01*
X165728571Y-106671428D02*
X165728571Y-107385714D01*
X164228571Y-107385714D01*
X164228571Y-106671428D01*
X164728571Y-105385714D02*
X165728571Y-105385714D01*
X164157142Y-105742857D02*
X165228571Y-106100000D01*
X165228571Y-105171428D01*
X160728571Y-108671428D02*
X159228571Y-108671428D01*
X159228571Y-108100000D01*
X159300000Y-107957142D01*
X159371428Y-107885714D01*
X159514285Y-107814285D01*
X159728571Y-107814285D01*
X159871428Y-107885714D01*
X159942857Y-107957142D01*
X160014285Y-108100000D01*
X160014285Y-108671428D01*
X160585714Y-106314285D02*
X160657142Y-106385714D01*
X160728571Y-106600000D01*
X160728571Y-106742857D01*
X160657142Y-106957142D01*
X160514285Y-107100000D01*
X160371428Y-107171428D01*
X160085714Y-107242857D01*
X159871428Y-107242857D01*
X159585714Y-107171428D01*
X159442857Y-107100000D01*
X159300000Y-106957142D01*
X159228571Y-106742857D01*
X159228571Y-106600000D01*
X159300000Y-106385714D01*
X159371428Y-106314285D01*
X160728571Y-104885714D02*
X160728571Y-105742857D01*
X160728571Y-105314285D02*
X159228571Y-105314285D01*
X159442857Y-105457142D01*
X159585714Y-105600000D01*
X159657142Y-105742857D01*
X159228571Y-104385714D02*
X159228571Y-103457142D01*
X159800000Y-103957142D01*
X159800000Y-103742857D01*
X159871428Y-103600000D01*
X159942857Y-103528571D01*
X160085714Y-103457142D01*
X160442857Y-103457142D01*
X160585714Y-103528571D01*
X160657142Y-103600000D01*
X160728571Y-103742857D01*
X160728571Y-104171428D01*
X160657142Y-104314285D01*
X160585714Y-104385714D01*
X158328571Y-108757142D02*
X156828571Y-108757142D01*
X156828571Y-108185714D01*
X156900000Y-108042857D01*
X156971428Y-107971428D01*
X157114285Y-107900000D01*
X157328571Y-107900000D01*
X157471428Y-107971428D01*
X157542857Y-108042857D01*
X157614285Y-108185714D01*
X157614285Y-108757142D01*
X157542857Y-106757142D02*
X157614285Y-106542857D01*
X157685714Y-106471428D01*
X157828571Y-106400000D01*
X158042857Y-106400000D01*
X158185714Y-106471428D01*
X158257142Y-106542857D01*
X158328571Y-106685714D01*
X158328571Y-107257142D01*
X156828571Y-107257142D01*
X156828571Y-106757142D01*
X156900000Y-106614285D01*
X156971428Y-106542857D01*
X157114285Y-106471428D01*
X157257142Y-106471428D01*
X157400000Y-106542857D01*
X157471428Y-106614285D01*
X157542857Y-106757142D01*
X157542857Y-107257142D01*
X156828571Y-105114285D02*
X156828571Y-105400000D01*
X156900000Y-105542857D01*
X156971428Y-105614285D01*
X157185714Y-105757142D01*
X157471428Y-105828571D01*
X158042857Y-105828571D01*
X158185714Y-105757142D01*
X158257142Y-105685714D01*
X158328571Y-105542857D01*
X158328571Y-105257142D01*
X158257142Y-105114285D01*
X158185714Y-105042857D01*
X158042857Y-104971428D01*
X157685714Y-104971428D01*
X157542857Y-105042857D01*
X157471428Y-105114285D01*
X157400000Y-105257142D01*
X157400000Y-105542857D01*
X157471428Y-105685714D01*
X157542857Y-105757142D01*
X157685714Y-105828571D01*
X155728571Y-108671428D02*
X154228571Y-108671428D01*
X154228571Y-108100000D01*
X154300000Y-107957142D01*
X154371428Y-107885714D01*
X154514285Y-107814285D01*
X154728571Y-107814285D01*
X154871428Y-107885714D01*
X154942857Y-107957142D01*
X155014285Y-108100000D01*
X155014285Y-108671428D01*
X154942857Y-106671428D02*
X155014285Y-106457142D01*
X155085714Y-106385714D01*
X155228571Y-106314285D01*
X155442857Y-106314285D01*
X155585714Y-106385714D01*
X155657142Y-106457142D01*
X155728571Y-106600000D01*
X155728571Y-107171428D01*
X154228571Y-107171428D01*
X154228571Y-106671428D01*
X154300000Y-106528571D01*
X154371428Y-106457142D01*
X154514285Y-106385714D01*
X154657142Y-106385714D01*
X154800000Y-106457142D01*
X154871428Y-106528571D01*
X154942857Y-106671428D01*
X154942857Y-107171428D01*
X155728571Y-104885714D02*
X155728571Y-105742857D01*
X155728571Y-105314285D02*
X154228571Y-105314285D01*
X154442857Y-105457142D01*
X154585714Y-105600000D01*
X154657142Y-105742857D01*
X154228571Y-103528571D02*
X154228571Y-104242857D01*
X154942857Y-104314285D01*
X154871428Y-104242857D01*
X154800000Y-104100000D01*
X154800000Y-103742857D01*
X154871428Y-103600000D01*
X154942857Y-103528571D01*
X155085714Y-103457142D01*
X155442857Y-103457142D01*
X155585714Y-103528571D01*
X155657142Y-103600000D01*
X155728571Y-103742857D01*
X155728571Y-104100000D01*
X155657142Y-104242857D01*
X155585714Y-104314285D01*
X153128571Y-108671428D02*
X151628571Y-108671428D01*
X151628571Y-108100000D01*
X151700000Y-107957142D01*
X151771428Y-107885714D01*
X151914285Y-107814285D01*
X152128571Y-107814285D01*
X152271428Y-107885714D01*
X152342857Y-107957142D01*
X152414285Y-108100000D01*
X152414285Y-108671428D01*
X152342857Y-106671428D02*
X152414285Y-106457142D01*
X152485714Y-106385714D01*
X152628571Y-106314285D01*
X152842857Y-106314285D01*
X152985714Y-106385714D01*
X153057142Y-106457142D01*
X153128571Y-106600000D01*
X153128571Y-107171428D01*
X151628571Y-107171428D01*
X151628571Y-106671428D01*
X151700000Y-106528571D01*
X151771428Y-106457142D01*
X151914285Y-106385714D01*
X152057142Y-106385714D01*
X152200000Y-106457142D01*
X152271428Y-106528571D01*
X152342857Y-106671428D01*
X152342857Y-107171428D01*
X153128571Y-104885714D02*
X153128571Y-105742857D01*
X153128571Y-105314285D02*
X151628571Y-105314285D01*
X151842857Y-105457142D01*
X151985714Y-105600000D01*
X152057142Y-105742857D01*
X152128571Y-103600000D02*
X153128571Y-103600000D01*
X151557142Y-103957142D02*
X152628571Y-104314285D01*
X152628571Y-103385714D01*
X150528571Y-108757142D02*
X149028571Y-108757142D01*
X149028571Y-108185714D01*
X149100000Y-108042857D01*
X149171428Y-107971428D01*
X149314285Y-107900000D01*
X149528571Y-107900000D01*
X149671428Y-107971428D01*
X149742857Y-108042857D01*
X149814285Y-108185714D01*
X149814285Y-108757142D01*
X150385714Y-106400000D02*
X150457142Y-106471428D01*
X150528571Y-106685714D01*
X150528571Y-106828571D01*
X150457142Y-107042857D01*
X150314285Y-107185714D01*
X150171428Y-107257142D01*
X149885714Y-107328571D01*
X149671428Y-107328571D01*
X149385714Y-107257142D01*
X149242857Y-107185714D01*
X149100000Y-107042857D01*
X149028571Y-106828571D01*
X149028571Y-106685714D01*
X149100000Y-106471428D01*
X149171428Y-106400000D01*
X149028571Y-105114285D02*
X149028571Y-105400000D01*
X149100000Y-105542857D01*
X149171428Y-105614285D01*
X149385714Y-105757142D01*
X149671428Y-105828571D01*
X150242857Y-105828571D01*
X150385714Y-105757142D01*
X150457142Y-105685714D01*
X150528571Y-105542857D01*
X150528571Y-105257142D01*
X150457142Y-105114285D01*
X150385714Y-105042857D01*
X150242857Y-104971428D01*
X149885714Y-104971428D01*
X149742857Y-105042857D01*
X149671428Y-105114285D01*
X149600000Y-105257142D01*
X149600000Y-105542857D01*
X149671428Y-105685714D01*
X149742857Y-105757142D01*
X149885714Y-105828571D01*
X148128571Y-108871428D02*
X146628571Y-108871428D01*
X146628571Y-108300000D01*
X146700000Y-108157142D01*
X146771428Y-108085714D01*
X146914285Y-108014285D01*
X147128571Y-108014285D01*
X147271428Y-108085714D01*
X147342857Y-108157142D01*
X147414285Y-108300000D01*
X147414285Y-108871428D01*
X147342857Y-106871428D02*
X147414285Y-106657142D01*
X147485714Y-106585714D01*
X147628571Y-106514285D01*
X147842857Y-106514285D01*
X147985714Y-106585714D01*
X148057142Y-106657142D01*
X148128571Y-106800000D01*
X148128571Y-107371428D01*
X146628571Y-107371428D01*
X146628571Y-106871428D01*
X146700000Y-106728571D01*
X146771428Y-106657142D01*
X146914285Y-106585714D01*
X147057142Y-106585714D01*
X147200000Y-106657142D01*
X147271428Y-106728571D01*
X147342857Y-106871428D01*
X147342857Y-107371428D01*
X148128571Y-105085714D02*
X148128571Y-105942857D01*
X148128571Y-105514285D02*
X146628571Y-105514285D01*
X146842857Y-105657142D01*
X146985714Y-105800000D01*
X147057142Y-105942857D01*
X146628571Y-104585714D02*
X146628571Y-103657142D01*
X147200000Y-104157142D01*
X147200000Y-103942857D01*
X147271428Y-103800000D01*
X147342857Y-103728571D01*
X147485714Y-103657142D01*
X147842857Y-103657142D01*
X147985714Y-103728571D01*
X148057142Y-103800000D01*
X148128571Y-103942857D01*
X148128571Y-104371428D01*
X148057142Y-104514285D01*
X147985714Y-104585714D01*
X145528571Y-108957142D02*
X144028571Y-108957142D01*
X144028571Y-108385714D01*
X144100000Y-108242857D01*
X144171428Y-108171428D01*
X144314285Y-108100000D01*
X144528571Y-108100000D01*
X144671428Y-108171428D01*
X144742857Y-108242857D01*
X144814285Y-108385714D01*
X144814285Y-108957142D01*
X145528571Y-107457142D02*
X144028571Y-107457142D01*
X144028571Y-107100000D01*
X144100000Y-106885714D01*
X144242857Y-106742857D01*
X144385714Y-106671428D01*
X144671428Y-106600000D01*
X144885714Y-106600000D01*
X145171428Y-106671428D01*
X145314285Y-106742857D01*
X145457142Y-106885714D01*
X145528571Y-107100000D01*
X145528571Y-107457142D01*
X145528571Y-105171428D02*
X145528571Y-106028571D01*
X145528571Y-105600000D02*
X144028571Y-105600000D01*
X144242857Y-105742857D01*
X144385714Y-105885714D01*
X144457142Y-106028571D01*
X133650000Y-108142857D02*
X133578571Y-108285714D01*
X133578571Y-108500000D01*
X133650000Y-108714285D01*
X133792857Y-108857142D01*
X133935714Y-108928571D01*
X134221428Y-109000000D01*
X134435714Y-109000000D01*
X134721428Y-108928571D01*
X134864285Y-108857142D01*
X135007142Y-108714285D01*
X135078571Y-108500000D01*
X135078571Y-108357142D01*
X135007142Y-108142857D01*
X134935714Y-108071428D01*
X134435714Y-108071428D01*
X134435714Y-108357142D01*
X135078571Y-107428571D02*
X133578571Y-107428571D01*
X135078571Y-106571428D01*
X133578571Y-106571428D01*
X135078571Y-105857142D02*
X133578571Y-105857142D01*
X133578571Y-105500000D01*
X133650000Y-105285714D01*
X133792857Y-105142857D01*
X133935714Y-105071428D01*
X134221428Y-105000000D01*
X134435714Y-105000000D01*
X134721428Y-105071428D01*
X134864285Y-105142857D01*
X135007142Y-105285714D01*
X135078571Y-105500000D01*
X135078571Y-105857142D01*
X132250000Y-108750000D02*
X132250000Y-108035714D01*
X132678571Y-108892857D02*
X131178571Y-108392857D01*
X132678571Y-107892857D01*
X132678571Y-106535714D02*
X131964285Y-107035714D01*
X132678571Y-107392857D02*
X131178571Y-107392857D01*
X131178571Y-106821428D01*
X131250000Y-106678571D01*
X131321428Y-106607142D01*
X131464285Y-106535714D01*
X131678571Y-106535714D01*
X131821428Y-106607142D01*
X131892857Y-106678571D01*
X131964285Y-106821428D01*
X131964285Y-107392857D01*
X131892857Y-105392857D02*
X131892857Y-105892857D01*
X132678571Y-105892857D02*
X131178571Y-105892857D01*
X131178571Y-105178571D01*
X128578571Y-108857142D02*
X128578571Y-107928571D01*
X129150000Y-108428571D01*
X129150000Y-108214285D01*
X129221428Y-108071428D01*
X129292857Y-108000000D01*
X129435714Y-107928571D01*
X129792857Y-107928571D01*
X129935714Y-108000000D01*
X130007142Y-108071428D01*
X130078571Y-108214285D01*
X130078571Y-108642857D01*
X130007142Y-108785714D01*
X129935714Y-108857142D01*
X128578571Y-107500000D02*
X130078571Y-107000000D01*
X128578571Y-106500000D01*
X128578571Y-106142857D02*
X128578571Y-105214285D01*
X129150000Y-105714285D01*
X129150000Y-105500000D01*
X129221428Y-105357142D01*
X129292857Y-105285714D01*
X129435714Y-105214285D01*
X129792857Y-105214285D01*
X129935714Y-105285714D01*
X130007142Y-105357142D01*
X130078571Y-105500000D01*
X130078571Y-105928571D01*
X130007142Y-106071428D01*
X129935714Y-106142857D01*
X127478571Y-107821428D02*
X126764285Y-108321428D01*
X127478571Y-108678571D02*
X125978571Y-108678571D01*
X125978571Y-108107142D01*
X126050000Y-107964285D01*
X126121428Y-107892857D01*
X126264285Y-107821428D01*
X126478571Y-107821428D01*
X126621428Y-107892857D01*
X126692857Y-107964285D01*
X126764285Y-108107142D01*
X126764285Y-108678571D01*
X127407142Y-107250000D02*
X127478571Y-107035714D01*
X127478571Y-106678571D01*
X127407142Y-106535714D01*
X127335714Y-106464285D01*
X127192857Y-106392857D01*
X127050000Y-106392857D01*
X126907142Y-106464285D01*
X126835714Y-106535714D01*
X126764285Y-106678571D01*
X126692857Y-106964285D01*
X126621428Y-107107142D01*
X126550000Y-107178571D01*
X126407142Y-107250000D01*
X126264285Y-107250000D01*
X126121428Y-107178571D01*
X126050000Y-107107142D01*
X125978571Y-106964285D01*
X125978571Y-106607142D01*
X126050000Y-106392857D01*
X125978571Y-105964285D02*
X125978571Y-105107142D01*
X127478571Y-105535714D02*
X125978571Y-105535714D01*
D12*
%TO.C,U3*%
X143010000Y-100100000D02*
X143010000Y-98250000D01*
X139790000Y-98300000D02*
X139790000Y-100100000D01*
D13*
X143123606Y-97850000D02*
G75*
G03*
X143123606Y-97850000I-111803J0D01*
G01*
D14*
%TO.C,T5*%
X129200000Y-96100000D02*
G75*
G03*
X129200000Y-96100000I-250000J0D01*
G01*
X127400000Y-89175000D02*
X127400000Y-88575000D01*
X127400000Y-88575000D02*
X135400000Y-88575000D01*
X135400000Y-88575000D02*
X135400000Y-89175000D01*
X127400000Y-95975000D02*
X127400000Y-96575000D01*
X127400000Y-96575000D02*
X129500000Y-96575000D01*
X135400000Y-95975000D02*
X135400000Y-96575000D01*
X135400000Y-96575000D02*
X133300000Y-96575000D01*
X130900000Y-88575000D02*
X130900000Y-89275000D01*
X130900000Y-89275000D02*
X129200000Y-89275000D01*
X129200000Y-89275000D02*
X129200000Y-92775000D01*
X129200000Y-92775000D02*
X129500000Y-92775000D01*
X131900000Y-88575000D02*
X131900000Y-89275000D01*
X131900000Y-89275000D02*
X133600000Y-89275000D01*
X133600000Y-89275000D02*
X133600000Y-92775000D01*
X133600000Y-92775000D02*
X133300000Y-92775000D01*
X131300000Y-93575000D02*
X131500000Y-93575000D01*
X131300000Y-92775000D02*
X131500000Y-92775000D01*
X131300000Y-92775000D02*
X131300000Y-92275000D01*
X131300000Y-92275000D02*
X131500000Y-92275000D01*
X131500000Y-92275000D02*
X131500000Y-92775000D01*
X131400000Y-92775000D02*
X131400000Y-92275000D01*
D15*
%TO.C,R9*%
X134581000Y-99254000D02*
X134581000Y-98746000D01*
X133819000Y-99254000D02*
X133819000Y-98746000D01*
D13*
%TO.C,D3*%
X131911803Y-101250000D02*
G75*
G03*
X131911803Y-101250000I-111803J0D01*
G01*
D11*
X132250000Y-103400000D02*
X132250000Y-101400000D01*
D15*
%TO.C,R8*%
X146819000Y-99746000D02*
X146819000Y-100254000D01*
X147581000Y-99746000D02*
X147581000Y-100254000D01*
D12*
%TO.C,Q1*%
X138380000Y-98440000D02*
X138380000Y-99900000D01*
X135220000Y-98440000D02*
X136150000Y-98440000D01*
X138380000Y-98440000D02*
X137450000Y-98440000D01*
X135220000Y-98440000D02*
X135220000Y-99900000D01*
D11*
X135270711Y-100300000D02*
G75*
G03*
X135270711Y-100300000I-70711J0D01*
G01*
D16*
%TO.C,U2*%
X150450000Y-100549999D02*
X150450000Y-97450001D01*
X149950000Y-100549999D02*
X149950000Y-97450001D01*
X149950000Y-100549999D02*
X150450000Y-100549999D01*
X149950000Y-97450001D02*
X150450000Y-97450001D01*
D15*
%TO.C,C10*%
X146946000Y-97727000D02*
X146946000Y-97473000D01*
X147454000Y-97727000D02*
X147454000Y-97473000D01*
D11*
%TO.C,M1*%
X176350000Y-95800000D02*
G75*
G03*
X176350000Y-95800000I-100000J0D01*
G01*
D14*
X179850000Y-103850000D02*
X168450000Y-103850000D01*
X168450000Y-96150000D02*
X168450000Y-103850000D01*
X179850000Y-96150000D02*
X168450000Y-96150000D01*
X179850000Y-96150000D02*
X179850000Y-103850000D01*
D11*
X180100000Y-95900000D02*
X180100000Y-97000000D01*
X180100000Y-95900000D02*
X179000000Y-95900000D01*
%TO.C,T3*%
X127000000Y-96900000D02*
G75*
G03*
X127000000Y-96900000I-100000J0D01*
G01*
D17*
X123595000Y-95530000D02*
X122830000Y-95530000D01*
X119350000Y-95530000D02*
X119770000Y-95530000D01*
X119350000Y-104470000D02*
X119350000Y-95530000D01*
X119770000Y-104470000D02*
X119350000Y-104470000D01*
X123595000Y-104470000D02*
X122830000Y-104470000D01*
D11*
%TO.C,U1*%
X126810000Y-99250000D02*
G75*
G03*
X126810000Y-99250000I-100000J0D01*
G01*
D17*
X129160000Y-100605000D02*
X127860000Y-100605000D01*
X129160000Y-98895000D02*
X127860000Y-98895000D01*
D13*
%TO.C,T1*%
X155759016Y-103559000D02*
G75*
G03*
X155759016Y-103559000I-127016J0D01*
G01*
D14*
X158680000Y-103432000D02*
X160712000Y-103432000D01*
X156648000Y-103432000D02*
X158680000Y-103432000D01*
X156648000Y-96828000D02*
X158680000Y-96828000D01*
X158680000Y-96828000D02*
X160712000Y-96828000D01*
X160712000Y-102162000D02*
X160712000Y-101908000D01*
X160712000Y-100892000D02*
X160712000Y-100638000D01*
X160712000Y-99622000D02*
X160712000Y-99368000D01*
X160712000Y-98352000D02*
X160712000Y-98098000D01*
X156648000Y-98098000D02*
X156648000Y-98352000D01*
X156648000Y-99368000D02*
X156648000Y-99622000D01*
X156648000Y-100638000D02*
X156648000Y-100892000D01*
X156648000Y-101908000D02*
X156648000Y-102162000D01*
%TO.C,SW1*%
X171305000Y-89057000D02*
X171305000Y-89311000D01*
X167495000Y-89057000D02*
X171305000Y-89057000D01*
X167495000Y-89311000D02*
X167495000Y-89057000D01*
X167495000Y-91343000D02*
X167495000Y-91089000D01*
X171305000Y-91343000D02*
X167495000Y-91343000D01*
X171305000Y-91089000D02*
X171305000Y-91343000D01*
X170391902Y-90200000D02*
G75*
G03*
X170391902Y-90200000I-991902J0D01*
G01*
D15*
%TO.C,R7*%
X142327000Y-101546000D02*
X142073000Y-101546000D01*
X142327000Y-102054000D02*
X142073000Y-102054000D01*
%TO.C,R6*%
X144054000Y-96019000D02*
X143546000Y-96019000D01*
X144054000Y-96781000D02*
X143546000Y-96781000D01*
%TO.C,R5*%
X170571000Y-94673000D02*
X170571000Y-94927000D01*
X171079000Y-94673000D02*
X171079000Y-94927000D01*
%TO.C,R4*%
X163777000Y-97146000D02*
X163523000Y-97146000D01*
X163777000Y-97654000D02*
X163523000Y-97654000D01*
%TO.C,R3*%
X163223000Y-101654000D02*
X163477000Y-101654000D01*
X163223000Y-101146000D02*
X163477000Y-101146000D01*
%TO.C,R2*%
X163477000Y-98606000D02*
X163223000Y-98606000D01*
X163477000Y-99114000D02*
X163223000Y-99114000D01*
%TO.C,R1*%
X163452000Y-102416000D02*
X163198000Y-102416000D01*
X163452000Y-102924000D02*
X163198000Y-102924000D01*
%TO.C,L1*%
X128254000Y-104781000D02*
X127746000Y-104781000D01*
X127746000Y-104019000D02*
X128254000Y-104019000D01*
D11*
%TO.C,D1*%
X143500000Y-97500000D02*
X144500000Y-97500000D01*
D15*
%TO.C,C9*%
X174054000Y-94877000D02*
X174054000Y-94623000D01*
X173546000Y-94877000D02*
X173546000Y-94623000D01*
%TO.C,C8*%
X152746000Y-98473000D02*
X152746000Y-98727000D01*
X153254000Y-98473000D02*
X153254000Y-98727000D01*
%TO.C,C7*%
X175254000Y-94877000D02*
X175254000Y-94623000D01*
X174746000Y-94877000D02*
X174746000Y-94623000D01*
%TO.C,C6*%
X168454000Y-94927000D02*
X168454000Y-94673000D01*
X167946000Y-94927000D02*
X167946000Y-94673000D01*
%TO.C,C5*%
X169654000Y-94927000D02*
X169654000Y-94673000D01*
X169146000Y-94927000D02*
X169146000Y-94673000D01*
%TO.C,C4*%
X167327000Y-103946000D02*
X167073000Y-103946000D01*
X167327000Y-104454000D02*
X167073000Y-104454000D01*
%TO.C,C3*%
X140746000Y-96781000D02*
X141254000Y-96781000D01*
X140746000Y-96019000D02*
X141254000Y-96019000D01*
%TO.C,C2*%
X145981000Y-99054000D02*
X145981000Y-98546000D01*
X145219000Y-99054000D02*
X145219000Y-98546000D01*
%TO.C,C1*%
X171473000Y-92254000D02*
X171727000Y-92254000D01*
X171473000Y-91746000D02*
X171727000Y-91746000D01*
%TO.C,U3*%
D12*
X138616666Y-98933333D02*
X139183333Y-98933333D01*
X139250000Y-98900000D01*
X139283333Y-98866666D01*
X139316666Y-98800000D01*
X139316666Y-98666666D01*
X139283333Y-98600000D01*
X139250000Y-98566666D01*
X139183333Y-98533333D01*
X138616666Y-98533333D01*
X138616666Y-98266666D02*
X138616666Y-97833333D01*
X138883333Y-98066666D01*
X138883333Y-97966666D01*
X138916666Y-97900000D01*
X138950000Y-97866666D01*
X139016666Y-97833333D01*
X139183333Y-97833333D01*
X139250000Y-97866666D01*
X139283333Y-97900000D01*
X139316666Y-97966666D01*
X139316666Y-98166666D01*
X139283333Y-98233333D01*
X139250000Y-98266666D01*
%TO.C,T5*%
X128716666Y-96866666D02*
X129116666Y-96866666D01*
X128916666Y-97566666D02*
X128916666Y-96866666D01*
X129683333Y-96866666D02*
X129350000Y-96866666D01*
X129316666Y-97200000D01*
X129350000Y-97166666D01*
X129416666Y-97133333D01*
X129583333Y-97133333D01*
X129650000Y-97166666D01*
X129683333Y-97200000D01*
X129716666Y-97266666D01*
X129716666Y-97433333D01*
X129683333Y-97500000D01*
X129650000Y-97533333D01*
X129583333Y-97566666D01*
X129416666Y-97566666D01*
X129350000Y-97533333D01*
X129316666Y-97500000D01*
%TO.C,R9*%
X133116666Y-98916666D02*
X132783333Y-99150000D01*
X133116666Y-99316666D02*
X132416666Y-99316666D01*
X132416666Y-99050000D01*
X132450000Y-98983333D01*
X132483333Y-98950000D01*
X132550000Y-98916666D01*
X132650000Y-98916666D01*
X132716666Y-98950000D01*
X132750000Y-98983333D01*
X132783333Y-99050000D01*
X132783333Y-99316666D01*
X133116666Y-98583333D02*
X133116666Y-98450000D01*
X133083333Y-98383333D01*
X133050000Y-98350000D01*
X132950000Y-98283333D01*
X132816666Y-98250000D01*
X132550000Y-98250000D01*
X132483333Y-98283333D01*
X132450000Y-98316666D01*
X132416666Y-98383333D01*
X132416666Y-98516666D01*
X132450000Y-98583333D01*
X132483333Y-98616666D01*
X132550000Y-98650000D01*
X132716666Y-98650000D01*
X132783333Y-98616666D01*
X132816666Y-98583333D01*
X132850000Y-98516666D01*
X132850000Y-98383333D01*
X132816666Y-98316666D01*
X132783333Y-98283333D01*
X132716666Y-98250000D01*
%TO.C,D3*%
X132883333Y-102716666D02*
X132883333Y-102016666D01*
X133050000Y-102016666D01*
X133150000Y-102050000D01*
X133216666Y-102116666D01*
X133250000Y-102183333D01*
X133283333Y-102316666D01*
X133283333Y-102416666D01*
X133250000Y-102550000D01*
X133216666Y-102616666D01*
X133150000Y-102683333D01*
X133050000Y-102716666D01*
X132883333Y-102716666D01*
X133516666Y-102016666D02*
X133950000Y-102016666D01*
X133716666Y-102283333D01*
X133816666Y-102283333D01*
X133883333Y-102316666D01*
X133916666Y-102350000D01*
X133950000Y-102416666D01*
X133950000Y-102583333D01*
X133916666Y-102650000D01*
X133883333Y-102683333D01*
X133816666Y-102716666D01*
X133616666Y-102716666D01*
X133550000Y-102683333D01*
X133516666Y-102650000D01*
%TO.C,R8*%
X148683333Y-101516666D02*
X148450000Y-101183333D01*
X148283333Y-101516666D02*
X148283333Y-100816666D01*
X148550000Y-100816666D01*
X148616666Y-100850000D01*
X148650000Y-100883333D01*
X148683333Y-100950000D01*
X148683333Y-101050000D01*
X148650000Y-101116666D01*
X148616666Y-101150000D01*
X148550000Y-101183333D01*
X148283333Y-101183333D01*
X149083333Y-101116666D02*
X149016666Y-101083333D01*
X148983333Y-101050000D01*
X148950000Y-100983333D01*
X148950000Y-100950000D01*
X148983333Y-100883333D01*
X149016666Y-100850000D01*
X149083333Y-100816666D01*
X149216666Y-100816666D01*
X149283333Y-100850000D01*
X149316666Y-100883333D01*
X149350000Y-100950000D01*
X149350000Y-100983333D01*
X149316666Y-101050000D01*
X149283333Y-101083333D01*
X149216666Y-101116666D01*
X149083333Y-101116666D01*
X149016666Y-101150000D01*
X148983333Y-101183333D01*
X148950000Y-101250000D01*
X148950000Y-101383333D01*
X148983333Y-101450000D01*
X149016666Y-101483333D01*
X149083333Y-101516666D01*
X149216666Y-101516666D01*
X149283333Y-101483333D01*
X149316666Y-101450000D01*
X149350000Y-101383333D01*
X149350000Y-101250000D01*
X149316666Y-101183333D01*
X149283333Y-101150000D01*
X149216666Y-101116666D01*
%TO.C,Q1*%
X135983333Y-97466666D02*
X135950000Y-97533333D01*
X135883333Y-97600000D01*
X135783333Y-97700000D01*
X135750000Y-97766666D01*
X135750000Y-97833333D01*
X135916666Y-97800000D02*
X135883333Y-97866666D01*
X135816666Y-97933333D01*
X135683333Y-97966666D01*
X135450000Y-97966666D01*
X135316666Y-97933333D01*
X135250000Y-97866666D01*
X135216666Y-97800000D01*
X135216666Y-97666666D01*
X135250000Y-97600000D01*
X135316666Y-97533333D01*
X135450000Y-97500000D01*
X135683333Y-97500000D01*
X135816666Y-97533333D01*
X135883333Y-97600000D01*
X135916666Y-97666666D01*
X135916666Y-97800000D01*
X135916666Y-96833333D02*
X135916666Y-97233333D01*
X135916666Y-97033333D02*
X135216666Y-97033333D01*
X135316666Y-97100000D01*
X135383333Y-97166666D01*
X135416666Y-97233333D01*
%TO.C,U2*%
X150866666Y-100816666D02*
X150866666Y-101383333D01*
X150900000Y-101450000D01*
X150933333Y-101483333D01*
X151000000Y-101516666D01*
X151133333Y-101516666D01*
X151200000Y-101483333D01*
X151233333Y-101450000D01*
X151266666Y-101383333D01*
X151266666Y-100816666D01*
X151566666Y-100883333D02*
X151600000Y-100850000D01*
X151666666Y-100816666D01*
X151833333Y-100816666D01*
X151900000Y-100850000D01*
X151933333Y-100883333D01*
X151966666Y-100950000D01*
X151966666Y-101016666D01*
X151933333Y-101116666D01*
X151533333Y-101516666D01*
X151966666Y-101516666D01*
%TO.C,C10*%
X148550000Y-97250000D02*
X148516666Y-97283333D01*
X148416666Y-97316666D01*
X148350000Y-97316666D01*
X148250000Y-97283333D01*
X148183333Y-97216666D01*
X148150000Y-97150000D01*
X148116666Y-97016666D01*
X148116666Y-96916666D01*
X148150000Y-96783333D01*
X148183333Y-96716666D01*
X148250000Y-96650000D01*
X148350000Y-96616666D01*
X148416666Y-96616666D01*
X148516666Y-96650000D01*
X148550000Y-96683333D01*
X149216666Y-97316666D02*
X148816666Y-97316666D01*
X149016666Y-97316666D02*
X149016666Y-96616666D01*
X148950000Y-96716666D01*
X148883333Y-96783333D01*
X148816666Y-96816666D01*
X149650000Y-96616666D02*
X149716666Y-96616666D01*
X149783333Y-96650000D01*
X149816666Y-96683333D01*
X149850000Y-96750000D01*
X149883333Y-96883333D01*
X149883333Y-97050000D01*
X149850000Y-97183333D01*
X149816666Y-97250000D01*
X149783333Y-97283333D01*
X149716666Y-97316666D01*
X149650000Y-97316666D01*
X149583333Y-97283333D01*
X149550000Y-97250000D01*
X149516666Y-97183333D01*
X149483333Y-97050000D01*
X149483333Y-96883333D01*
X149516666Y-96750000D01*
X149550000Y-96683333D01*
X149583333Y-96650000D01*
X149650000Y-96616666D01*
%TO.C,M1*%
X178833333Y-95516666D02*
X178833333Y-94816666D01*
X179066666Y-95316666D01*
X179300000Y-94816666D01*
X179300000Y-95516666D01*
X180000000Y-95516666D02*
X179600000Y-95516666D01*
X179800000Y-95516666D02*
X179800000Y-94816666D01*
X179733333Y-94916666D01*
X179666666Y-94983333D01*
X179600000Y-95016666D01*
%TO.C,T2*%
X165866666Y-89416666D02*
X166266666Y-89416666D01*
X166066666Y-90116666D02*
X166066666Y-89416666D01*
X166466666Y-89483333D02*
X166500000Y-89450000D01*
X166566666Y-89416666D01*
X166733333Y-89416666D01*
X166800000Y-89450000D01*
X166833333Y-89483333D01*
X166866666Y-89550000D01*
X166866666Y-89616666D01*
X166833333Y-89716666D01*
X166433333Y-90116666D01*
X166866666Y-90116666D01*
%TO.C,T4*%
X167746666Y-109616666D02*
X168146666Y-109616666D01*
X167946666Y-110316666D02*
X167946666Y-109616666D01*
X168680000Y-109850000D02*
X168680000Y-110316666D01*
X168513333Y-109583333D02*
X168346666Y-110083333D01*
X168780000Y-110083333D01*
%TO.C,T3*%
X122666666Y-104816666D02*
X123066666Y-104816666D01*
X122866666Y-105516666D02*
X122866666Y-104816666D01*
X123233333Y-104816666D02*
X123666666Y-104816666D01*
X123433333Y-105083333D01*
X123533333Y-105083333D01*
X123600000Y-105116666D01*
X123633333Y-105150000D01*
X123666666Y-105216666D01*
X123666666Y-105383333D01*
X123633333Y-105450000D01*
X123600000Y-105483333D01*
X123533333Y-105516666D01*
X123333333Y-105516666D01*
X123266666Y-105483333D01*
X123233333Y-105450000D01*
%TO.C,U1*%
X127466666Y-97866666D02*
X127466666Y-98433333D01*
X127500000Y-98500000D01*
X127533333Y-98533333D01*
X127600000Y-98566666D01*
X127733333Y-98566666D01*
X127800000Y-98533333D01*
X127833333Y-98500000D01*
X127866666Y-98433333D01*
X127866666Y-97866666D01*
X128566666Y-98566666D02*
X128166666Y-98566666D01*
X128366666Y-98566666D02*
X128366666Y-97866666D01*
X128300000Y-97966666D01*
X128233333Y-98033333D01*
X128166666Y-98066666D01*
%TO.C,T1*%
X156966666Y-95866666D02*
X157366666Y-95866666D01*
X157166666Y-96566666D02*
X157166666Y-95866666D01*
X157966666Y-96566666D02*
X157566666Y-96566666D01*
X157766666Y-96566666D02*
X157766666Y-95866666D01*
X157700000Y-95966666D01*
X157633333Y-96033333D01*
X157566666Y-96066666D01*
%TO.C,SW1*%
X172066666Y-90033333D02*
X172166666Y-90066666D01*
X172333333Y-90066666D01*
X172400000Y-90033333D01*
X172433333Y-90000000D01*
X172466666Y-89933333D01*
X172466666Y-89866666D01*
X172433333Y-89800000D01*
X172400000Y-89766666D01*
X172333333Y-89733333D01*
X172200000Y-89700000D01*
X172133333Y-89666666D01*
X172100000Y-89633333D01*
X172066666Y-89566666D01*
X172066666Y-89500000D01*
X172100000Y-89433333D01*
X172133333Y-89400000D01*
X172200000Y-89366666D01*
X172366666Y-89366666D01*
X172466666Y-89400000D01*
X172700000Y-89366666D02*
X172866666Y-90066666D01*
X173000000Y-89566666D01*
X173133333Y-90066666D01*
X173300000Y-89366666D01*
X173933333Y-90066666D02*
X173533333Y-90066666D01*
X173733333Y-90066666D02*
X173733333Y-89366666D01*
X173666666Y-89466666D01*
X173600000Y-89533333D01*
X173533333Y-89566666D01*
%TO.C,R7*%
X140283333Y-102116666D02*
X140050000Y-101783333D01*
X139883333Y-102116666D02*
X139883333Y-101416666D01*
X140150000Y-101416666D01*
X140216666Y-101450000D01*
X140250000Y-101483333D01*
X140283333Y-101550000D01*
X140283333Y-101650000D01*
X140250000Y-101716666D01*
X140216666Y-101750000D01*
X140150000Y-101783333D01*
X139883333Y-101783333D01*
X140516666Y-101416666D02*
X140983333Y-101416666D01*
X140683333Y-102116666D01*
%TO.C,R6*%
X145683333Y-96316666D02*
X145450000Y-95983333D01*
X145283333Y-96316666D02*
X145283333Y-95616666D01*
X145550000Y-95616666D01*
X145616666Y-95650000D01*
X145650000Y-95683333D01*
X145683333Y-95750000D01*
X145683333Y-95850000D01*
X145650000Y-95916666D01*
X145616666Y-95950000D01*
X145550000Y-95983333D01*
X145283333Y-95983333D01*
X146283333Y-95616666D02*
X146150000Y-95616666D01*
X146083333Y-95650000D01*
X146050000Y-95683333D01*
X145983333Y-95783333D01*
X145950000Y-95916666D01*
X145950000Y-96183333D01*
X145983333Y-96250000D01*
X146016666Y-96283333D01*
X146083333Y-96316666D01*
X146216666Y-96316666D01*
X146283333Y-96283333D01*
X146316666Y-96250000D01*
X146350000Y-96183333D01*
X146350000Y-96016666D01*
X146316666Y-95950000D01*
X146283333Y-95916666D01*
X146216666Y-95883333D01*
X146083333Y-95883333D01*
X146016666Y-95916666D01*
X145983333Y-95950000D01*
X145950000Y-96016666D01*
%TO.C,R5*%
X172108333Y-95516666D02*
X171875000Y-95183333D01*
X171708333Y-95516666D02*
X171708333Y-94816666D01*
X171975000Y-94816666D01*
X172041666Y-94850000D01*
X172075000Y-94883333D01*
X172108333Y-94950000D01*
X172108333Y-95050000D01*
X172075000Y-95116666D01*
X172041666Y-95150000D01*
X171975000Y-95183333D01*
X171708333Y-95183333D01*
X172741666Y-94816666D02*
X172408333Y-94816666D01*
X172375000Y-95150000D01*
X172408333Y-95116666D01*
X172475000Y-95083333D01*
X172641666Y-95083333D01*
X172708333Y-95116666D01*
X172741666Y-95150000D01*
X172775000Y-95216666D01*
X172775000Y-95383333D01*
X172741666Y-95450000D01*
X172708333Y-95483333D01*
X172641666Y-95516666D01*
X172475000Y-95516666D01*
X172408333Y-95483333D01*
X172375000Y-95450000D01*
%TO.C,R4*%
X165133333Y-97716666D02*
X164900000Y-97383333D01*
X164733333Y-97716666D02*
X164733333Y-97016666D01*
X165000000Y-97016666D01*
X165066666Y-97050000D01*
X165100000Y-97083333D01*
X165133333Y-97150000D01*
X165133333Y-97250000D01*
X165100000Y-97316666D01*
X165066666Y-97350000D01*
X165000000Y-97383333D01*
X164733333Y-97383333D01*
X165733333Y-97250000D02*
X165733333Y-97716666D01*
X165566666Y-96983333D02*
X165400000Y-97483333D01*
X165833333Y-97483333D01*
%TO.C,R3*%
X164833333Y-101716666D02*
X164600000Y-101383333D01*
X164433333Y-101716666D02*
X164433333Y-101016666D01*
X164700000Y-101016666D01*
X164766666Y-101050000D01*
X164800000Y-101083333D01*
X164833333Y-101150000D01*
X164833333Y-101250000D01*
X164800000Y-101316666D01*
X164766666Y-101350000D01*
X164700000Y-101383333D01*
X164433333Y-101383333D01*
X165066666Y-101016666D02*
X165500000Y-101016666D01*
X165266666Y-101283333D01*
X165366666Y-101283333D01*
X165433333Y-101316666D01*
X165466666Y-101350000D01*
X165500000Y-101416666D01*
X165500000Y-101583333D01*
X165466666Y-101650000D01*
X165433333Y-101683333D01*
X165366666Y-101716666D01*
X165166666Y-101716666D01*
X165100000Y-101683333D01*
X165066666Y-101650000D01*
%TO.C,R2*%
X164833333Y-99176666D02*
X164600000Y-98843333D01*
X164433333Y-99176666D02*
X164433333Y-98476666D01*
X164700000Y-98476666D01*
X164766666Y-98510000D01*
X164800000Y-98543333D01*
X164833333Y-98610000D01*
X164833333Y-98710000D01*
X164800000Y-98776666D01*
X164766666Y-98810000D01*
X164700000Y-98843333D01*
X164433333Y-98843333D01*
X165100000Y-98543333D02*
X165133333Y-98510000D01*
X165200000Y-98476666D01*
X165366666Y-98476666D01*
X165433333Y-98510000D01*
X165466666Y-98543333D01*
X165500000Y-98610000D01*
X165500000Y-98676666D01*
X165466666Y-98776666D01*
X165066666Y-99176666D01*
X165500000Y-99176666D01*
%TO.C,R1*%
X164808333Y-102986666D02*
X164575000Y-102653333D01*
X164408333Y-102986666D02*
X164408333Y-102286666D01*
X164675000Y-102286666D01*
X164741666Y-102320000D01*
X164775000Y-102353333D01*
X164808333Y-102420000D01*
X164808333Y-102520000D01*
X164775000Y-102586666D01*
X164741666Y-102620000D01*
X164675000Y-102653333D01*
X164408333Y-102653333D01*
X165475000Y-102986666D02*
X165075000Y-102986666D01*
X165275000Y-102986666D02*
X165275000Y-102286666D01*
X165208333Y-102386666D01*
X165141666Y-102453333D01*
X165075000Y-102486666D01*
%TO.C,L1*%
X126883333Y-103716666D02*
X126550000Y-103716666D01*
X126550000Y-103016666D01*
X127483333Y-103716666D02*
X127083333Y-103716666D01*
X127283333Y-103716666D02*
X127283333Y-103016666D01*
X127216666Y-103116666D01*
X127150000Y-103183333D01*
X127083333Y-103216666D01*
%TO.C,D1*%
X144316666Y-101916666D02*
X143616666Y-101916666D01*
X143616666Y-101750000D01*
X143650000Y-101650000D01*
X143716666Y-101583333D01*
X143783333Y-101550000D01*
X143916666Y-101516666D01*
X144016666Y-101516666D01*
X144150000Y-101550000D01*
X144216666Y-101583333D01*
X144283333Y-101650000D01*
X144316666Y-101750000D01*
X144316666Y-101916666D01*
X144316666Y-100850000D02*
X144316666Y-101250000D01*
X144316666Y-101050000D02*
X143616666Y-101050000D01*
X143716666Y-101116666D01*
X143783333Y-101183333D01*
X143816666Y-101250000D01*
%TO.C,C9*%
X173483333Y-93600000D02*
X173450000Y-93633333D01*
X173350000Y-93666666D01*
X173283333Y-93666666D01*
X173183333Y-93633333D01*
X173116666Y-93566666D01*
X173083333Y-93500000D01*
X173050000Y-93366666D01*
X173050000Y-93266666D01*
X173083333Y-93133333D01*
X173116666Y-93066666D01*
X173183333Y-93000000D01*
X173283333Y-92966666D01*
X173350000Y-92966666D01*
X173450000Y-93000000D01*
X173483333Y-93033333D01*
X173816666Y-93666666D02*
X173950000Y-93666666D01*
X174016666Y-93633333D01*
X174050000Y-93600000D01*
X174116666Y-93500000D01*
X174150000Y-93366666D01*
X174150000Y-93100000D01*
X174116666Y-93033333D01*
X174083333Y-93000000D01*
X174016666Y-92966666D01*
X173883333Y-92966666D01*
X173816666Y-93000000D01*
X173783333Y-93033333D01*
X173750000Y-93100000D01*
X173750000Y-93266666D01*
X173783333Y-93333333D01*
X173816666Y-93366666D01*
X173883333Y-93400000D01*
X174016666Y-93400000D01*
X174083333Y-93366666D01*
X174116666Y-93333333D01*
X174150000Y-93266666D01*
%TO.C,C8*%
X152883333Y-97250000D02*
X152850000Y-97283333D01*
X152750000Y-97316666D01*
X152683333Y-97316666D01*
X152583333Y-97283333D01*
X152516666Y-97216666D01*
X152483333Y-97150000D01*
X152450000Y-97016666D01*
X152450000Y-96916666D01*
X152483333Y-96783333D01*
X152516666Y-96716666D01*
X152583333Y-96650000D01*
X152683333Y-96616666D01*
X152750000Y-96616666D01*
X152850000Y-96650000D01*
X152883333Y-96683333D01*
X153283333Y-96916666D02*
X153216666Y-96883333D01*
X153183333Y-96850000D01*
X153150000Y-96783333D01*
X153150000Y-96750000D01*
X153183333Y-96683333D01*
X153216666Y-96650000D01*
X153283333Y-96616666D01*
X153416666Y-96616666D01*
X153483333Y-96650000D01*
X153516666Y-96683333D01*
X153550000Y-96750000D01*
X153550000Y-96783333D01*
X153516666Y-96850000D01*
X153483333Y-96883333D01*
X153416666Y-96916666D01*
X153283333Y-96916666D01*
X153216666Y-96950000D01*
X153183333Y-96983333D01*
X153150000Y-97050000D01*
X153150000Y-97183333D01*
X153183333Y-97250000D01*
X153216666Y-97283333D01*
X153283333Y-97316666D01*
X153416666Y-97316666D01*
X153483333Y-97283333D01*
X153516666Y-97250000D01*
X153550000Y-97183333D01*
X153550000Y-97050000D01*
X153516666Y-96983333D01*
X153483333Y-96950000D01*
X153416666Y-96916666D01*
%TO.C,C7*%
X175083333Y-93600000D02*
X175050000Y-93633333D01*
X174950000Y-93666666D01*
X174883333Y-93666666D01*
X174783333Y-93633333D01*
X174716666Y-93566666D01*
X174683333Y-93500000D01*
X174650000Y-93366666D01*
X174650000Y-93266666D01*
X174683333Y-93133333D01*
X174716666Y-93066666D01*
X174783333Y-93000000D01*
X174883333Y-92966666D01*
X174950000Y-92966666D01*
X175050000Y-93000000D01*
X175083333Y-93033333D01*
X175316666Y-92966666D02*
X175783333Y-92966666D01*
X175483333Y-93666666D01*
%TO.C,C6*%
X166683333Y-94733000D02*
X166650000Y-94766333D01*
X166550000Y-94799666D01*
X166483333Y-94799666D01*
X166383333Y-94766333D01*
X166316666Y-94699666D01*
X166283333Y-94633000D01*
X166250000Y-94499666D01*
X166250000Y-94399666D01*
X166283333Y-94266333D01*
X166316666Y-94199666D01*
X166383333Y-94133000D01*
X166483333Y-94099666D01*
X166550000Y-94099666D01*
X166650000Y-94133000D01*
X166683333Y-94166333D01*
X167283333Y-94099666D02*
X167150000Y-94099666D01*
X167083333Y-94133000D01*
X167050000Y-94166333D01*
X166983333Y-94266333D01*
X166950000Y-94399666D01*
X166950000Y-94666333D01*
X166983333Y-94733000D01*
X167016666Y-94766333D01*
X167083333Y-94799666D01*
X167216666Y-94799666D01*
X167283333Y-94766333D01*
X167316666Y-94733000D01*
X167350000Y-94666333D01*
X167350000Y-94499666D01*
X167316666Y-94433000D01*
X167283333Y-94399666D01*
X167216666Y-94366333D01*
X167083333Y-94366333D01*
X167016666Y-94399666D01*
X166983333Y-94433000D01*
X166950000Y-94499666D01*
%TO.C,C5*%
X169283333Y-93650000D02*
X169250000Y-93683333D01*
X169150000Y-93716666D01*
X169083333Y-93716666D01*
X168983333Y-93683333D01*
X168916666Y-93616666D01*
X168883333Y-93550000D01*
X168850000Y-93416666D01*
X168850000Y-93316666D01*
X168883333Y-93183333D01*
X168916666Y-93116666D01*
X168983333Y-93050000D01*
X169083333Y-93016666D01*
X169150000Y-93016666D01*
X169250000Y-93050000D01*
X169283333Y-93083333D01*
X169916666Y-93016666D02*
X169583333Y-93016666D01*
X169550000Y-93350000D01*
X169583333Y-93316666D01*
X169650000Y-93283333D01*
X169816666Y-93283333D01*
X169883333Y-93316666D01*
X169916666Y-93350000D01*
X169950000Y-93416666D01*
X169950000Y-93583333D01*
X169916666Y-93650000D01*
X169883333Y-93683333D01*
X169816666Y-93716666D01*
X169650000Y-93716666D01*
X169583333Y-93683333D01*
X169550000Y-93650000D01*
%TO.C,C4*%
X167083333Y-103450000D02*
X167050000Y-103483333D01*
X166950000Y-103516666D01*
X166883333Y-103516666D01*
X166783333Y-103483333D01*
X166716666Y-103416666D01*
X166683333Y-103350000D01*
X166650000Y-103216666D01*
X166650000Y-103116666D01*
X166683333Y-102983333D01*
X166716666Y-102916666D01*
X166783333Y-102850000D01*
X166883333Y-102816666D01*
X166950000Y-102816666D01*
X167050000Y-102850000D01*
X167083333Y-102883333D01*
X167683333Y-103050000D02*
X167683333Y-103516666D01*
X167516666Y-102783333D02*
X167350000Y-103283333D01*
X167783333Y-103283333D01*
%TO.C,C3*%
X138950000Y-96283333D02*
X138916666Y-96250000D01*
X138883333Y-96150000D01*
X138883333Y-96083333D01*
X138916666Y-95983333D01*
X138983333Y-95916666D01*
X139050000Y-95883333D01*
X139183333Y-95850000D01*
X139283333Y-95850000D01*
X139416666Y-95883333D01*
X139483333Y-95916666D01*
X139550000Y-95983333D01*
X139583333Y-96083333D01*
X139583333Y-96150000D01*
X139550000Y-96250000D01*
X139516666Y-96283333D01*
X139583333Y-96516666D02*
X139583333Y-96950000D01*
X139316666Y-96716666D01*
X139316666Y-96816666D01*
X139283333Y-96883333D01*
X139250000Y-96916666D01*
X139183333Y-96950000D01*
X139016666Y-96950000D01*
X138950000Y-96916666D01*
X138916666Y-96883333D01*
X138883333Y-96816666D01*
X138883333Y-96616666D01*
X138916666Y-96550000D01*
X138950000Y-96516666D01*
%TO.C,C2*%
X145683333Y-97250000D02*
X145650000Y-97283333D01*
X145550000Y-97316666D01*
X145483333Y-97316666D01*
X145383333Y-97283333D01*
X145316666Y-97216666D01*
X145283333Y-97150000D01*
X145250000Y-97016666D01*
X145250000Y-96916666D01*
X145283333Y-96783333D01*
X145316666Y-96716666D01*
X145383333Y-96650000D01*
X145483333Y-96616666D01*
X145550000Y-96616666D01*
X145650000Y-96650000D01*
X145683333Y-96683333D01*
X145950000Y-96683333D02*
X145983333Y-96650000D01*
X146050000Y-96616666D01*
X146216666Y-96616666D01*
X146283333Y-96650000D01*
X146316666Y-96683333D01*
X146350000Y-96750000D01*
X146350000Y-96816666D01*
X146316666Y-96916666D01*
X145916666Y-97316666D01*
X146350000Y-97316666D01*
%TO.C,C1*%
X171883333Y-93250000D02*
X171850000Y-93283333D01*
X171750000Y-93316666D01*
X171683333Y-93316666D01*
X171583333Y-93283333D01*
X171516666Y-93216666D01*
X171483333Y-93150000D01*
X171450000Y-93016666D01*
X171450000Y-92916666D01*
X171483333Y-92783333D01*
X171516666Y-92716666D01*
X171583333Y-92650000D01*
X171683333Y-92616666D01*
X171750000Y-92616666D01*
X171850000Y-92650000D01*
X171883333Y-92683333D01*
X172550000Y-93316666D02*
X172150000Y-93316666D01*
X172350000Y-93316666D02*
X172350000Y-92616666D01*
X172283333Y-92716666D01*
X172216666Y-92783333D01*
X172150000Y-92816666D01*
%TD*%
M02*
