%TF.GenerationSoftware,KiCad,Pcbnew,(5.1.9)-1*%
%TF.CreationDate,2021-04-07T15:03:24-04:00*%
%TF.ProjectId,Finch-Feather,46696e63-682d-4466-9561-746865722e6b,rev?*%
%TF.SameCoordinates,Original*%
%TF.FileFunction,Legend,Bot*%
%TF.FilePolarity,Positive*%
%FSLAX46Y46*%
G04 Gerber Fmt 4.6, Leading zero omitted, Abs format (unit mm)*
G04 Created by KiCad (PCBNEW (5.1.9)-1) date 2021-04-07 15:03:24*
%MOMM*%
%LPD*%
G01*
G04 APERTURE LIST*
%ADD10C,0.300000*%
G04 APERTURE END LIST*
D10*
X136321428Y-99592857D02*
X136535714Y-99521428D01*
X136892857Y-99521428D01*
X137035714Y-99592857D01*
X137107142Y-99664285D01*
X137178571Y-99807142D01*
X137178571Y-99950000D01*
X137107142Y-100092857D01*
X137035714Y-100164285D01*
X136892857Y-100235714D01*
X136607142Y-100307142D01*
X136464285Y-100378571D01*
X136392857Y-100450000D01*
X136321428Y-100592857D01*
X136321428Y-100735714D01*
X136392857Y-100878571D01*
X136464285Y-100950000D01*
X136607142Y-101021428D01*
X136964285Y-101021428D01*
X137178571Y-100950000D01*
X137821428Y-99521428D02*
X137821428Y-101021428D01*
X138392857Y-101021428D01*
X138535714Y-100950000D01*
X138607142Y-100878571D01*
X138678571Y-100735714D01*
X138678571Y-100521428D01*
X138607142Y-100378571D01*
X138535714Y-100307142D01*
X138392857Y-100235714D01*
X137821428Y-100235714D01*
X139250000Y-99950000D02*
X139964285Y-99950000D01*
X139107142Y-99521428D02*
X139607142Y-101021428D01*
X140107142Y-99521428D01*
X141464285Y-99521428D02*
X140964285Y-100235714D01*
X140607142Y-99521428D02*
X140607142Y-101021428D01*
X141178571Y-101021428D01*
X141321428Y-100950000D01*
X141392857Y-100878571D01*
X141464285Y-100735714D01*
X141464285Y-100521428D01*
X141392857Y-100378571D01*
X141321428Y-100307142D01*
X141178571Y-100235714D01*
X140607142Y-100235714D01*
X142107142Y-99521428D02*
X142107142Y-101021428D01*
X142964285Y-99521428D02*
X142321428Y-100378571D01*
X142964285Y-101021428D02*
X142107142Y-100164285D01*
X144107142Y-100307142D02*
X143607142Y-100307142D01*
X143607142Y-99521428D02*
X143607142Y-101021428D01*
X144321428Y-101021428D01*
X144892857Y-101021428D02*
X144892857Y-99807142D01*
X144964285Y-99664285D01*
X145035714Y-99592857D01*
X145178571Y-99521428D01*
X145464285Y-99521428D01*
X145607142Y-99592857D01*
X145678571Y-99664285D01*
X145750000Y-99807142D01*
X145750000Y-101021428D01*
X146464285Y-99521428D02*
X146464285Y-101021428D01*
X147321428Y-99521428D01*
X147321428Y-101021428D01*
X149035714Y-101021428D02*
X149392857Y-99521428D01*
X149678571Y-100592857D01*
X149964285Y-99521428D01*
X150321428Y-101021428D01*
X150892857Y-99521428D02*
X150892857Y-101021428D01*
X152321428Y-99521428D02*
X151607142Y-99521428D01*
X151607142Y-101021428D01*
X153535714Y-99521428D02*
X152821428Y-99521428D01*
X152821428Y-101021428D01*
X155107142Y-99592857D02*
X155321428Y-99521428D01*
X155678571Y-99521428D01*
X155821428Y-99592857D01*
X155892857Y-99664285D01*
X155964285Y-99807142D01*
X155964285Y-99950000D01*
X155892857Y-100092857D01*
X155821428Y-100164285D01*
X155678571Y-100235714D01*
X155392857Y-100307142D01*
X155250000Y-100378571D01*
X155178571Y-100450000D01*
X155107142Y-100592857D01*
X155107142Y-100735714D01*
X155178571Y-100878571D01*
X155250000Y-100950000D01*
X155392857Y-101021428D01*
X155750000Y-101021428D01*
X155964285Y-100950000D01*
X156392857Y-101021428D02*
X157250000Y-101021428D01*
X156821428Y-99521428D02*
X156821428Y-101021428D01*
X157750000Y-100307142D02*
X158250000Y-100307142D01*
X158464285Y-99521428D02*
X157750000Y-99521428D01*
X157750000Y-101021428D01*
X158464285Y-101021428D01*
X159035714Y-99950000D02*
X159750000Y-99950000D01*
X158892857Y-99521428D02*
X159392857Y-101021428D01*
X159892857Y-99521428D01*
X161107142Y-99521428D02*
X160392857Y-99521428D01*
X160392857Y-101021428D01*
X162535714Y-101021428D02*
X163392857Y-101021428D01*
X162964285Y-99521428D02*
X162964285Y-101021428D01*
X163892857Y-99521428D02*
X163892857Y-101021428D01*
X163892857Y-100307142D02*
X164750000Y-100307142D01*
X164750000Y-99521428D02*
X164750000Y-101021428D01*
X165464285Y-99521428D02*
X165464285Y-101021428D01*
X166107142Y-99592857D02*
X166321428Y-99521428D01*
X166678571Y-99521428D01*
X166821428Y-99592857D01*
X166892857Y-99664285D01*
X166964285Y-99807142D01*
X166964285Y-99950000D01*
X166892857Y-100092857D01*
X166821428Y-100164285D01*
X166678571Y-100235714D01*
X166392857Y-100307142D01*
X166250000Y-100378571D01*
X166178571Y-100450000D01*
X166107142Y-100592857D01*
X166107142Y-100735714D01*
X166178571Y-100878571D01*
X166250000Y-100950000D01*
X166392857Y-101021428D01*
X166750000Y-101021428D01*
X166964285Y-100950000D01*
X167607142Y-99664285D02*
X167678571Y-99592857D01*
X167607142Y-99521428D01*
X167535714Y-99592857D01*
X167607142Y-99664285D01*
X167607142Y-99521428D01*
X167607142Y-100092857D02*
X167535714Y-100950000D01*
X167607142Y-101021428D01*
X167678571Y-100950000D01*
X167607142Y-100092857D01*
X167607142Y-101021428D01*
M02*
