%TF.GenerationSoftware,KiCad,Pcbnew,(5.1.9)-1*%
%TF.CreationDate,2021-04-07T15:03:24-04:00*%
%TF.ProjectId,Finch-Feather,46696e63-682d-4466-9561-746865722e6b,rev?*%
%TF.SameCoordinates,Original*%
%TF.FileFunction,Paste,Top*%
%TF.FilePolarity,Positive*%
%FSLAX46Y46*%
G04 Gerber Fmt 4.6, Leading zero omitted, Abs format (unit mm)*
G04 Created by KiCad (PCBNEW (5.1.9)-1) date 2021-04-07 15:03:24*
%MOMM*%
%LPD*%
G01*
G04 APERTURE LIST*
%ADD10R,0.650000X1.060000*%
%ADD11R,1.600000X3.000000*%
%ADD12R,1.000000X5.500000*%
%ADD13R,0.900000X1.200000*%
%ADD14R,0.800000X0.900000*%
%ADD15R,1.000001X0.599999*%
%ADD16R,0.430000X0.430000*%
%ADD17R,0.300000X0.350000*%
%ADD18R,0.350000X0.350000*%
%ADD19R,0.350000X0.300000*%
%ADD20R,0.600000X0.600000*%
%ADD21R,2.000000X1.000000*%
%ADD22R,1.000000X0.270000*%
%ADD23R,1.000000X0.520000*%
%ADD24R,0.750000X0.350000*%
%ADD25R,2.800000X0.750000*%
%ADD26R,0.800000X1.700000*%
G04 APERTURE END LIST*
D10*
%TO.C,U3*%
X142350000Y-98100000D03*
X141400000Y-98100000D03*
X140450000Y-98100000D03*
X140450000Y-100300000D03*
X142350000Y-100300000D03*
%TD*%
D11*
%TO.C,T5*%
X134800000Y-91075000D03*
X128000000Y-91075000D03*
D12*
X132400000Y-95475000D03*
X130400000Y-95475000D03*
%TD*%
%TO.C,R9*%
G36*
G01*
X134515000Y-98690000D02*
X133885000Y-98690000D01*
G75*
G02*
X133700000Y-98505000I0J185000D01*
G01*
X133700000Y-98135000D01*
G75*
G02*
X133885000Y-97950000I185000J0D01*
G01*
X134515000Y-97950000D01*
G75*
G02*
X134700000Y-98135000I0J-185000D01*
G01*
X134700000Y-98505000D01*
G75*
G02*
X134515000Y-98690000I-185000J0D01*
G01*
G37*
G36*
G01*
X134515000Y-100050000D02*
X133885000Y-100050000D01*
G75*
G02*
X133700000Y-99865000I0J185000D01*
G01*
X133700000Y-99495000D01*
G75*
G02*
X133885000Y-99310000I185000J0D01*
G01*
X134515000Y-99310000D01*
G75*
G02*
X134700000Y-99495000I0J-185000D01*
G01*
X134700000Y-99865000D01*
G75*
G02*
X134515000Y-100050000I-185000J0D01*
G01*
G37*
%TD*%
D13*
%TO.C,D3*%
X131650000Y-102400000D03*
X128350000Y-102400000D03*
%TD*%
%TO.C,R8*%
G36*
G01*
X146885000Y-100310000D02*
X147515000Y-100310000D01*
G75*
G02*
X147700000Y-100495000I0J-185000D01*
G01*
X147700000Y-100865000D01*
G75*
G02*
X147515000Y-101050000I-185000J0D01*
G01*
X146885000Y-101050000D01*
G75*
G02*
X146700000Y-100865000I0J185000D01*
G01*
X146700000Y-100495000D01*
G75*
G02*
X146885000Y-100310000I185000J0D01*
G01*
G37*
G36*
G01*
X146885000Y-98950000D02*
X147515000Y-98950000D01*
G75*
G02*
X147700000Y-99135000I0J-185000D01*
G01*
X147700000Y-99505000D01*
G75*
G02*
X147515000Y-99690000I-185000J0D01*
G01*
X146885000Y-99690000D01*
G75*
G02*
X146700000Y-99505000I0J185000D01*
G01*
X146700000Y-99135000D01*
G75*
G02*
X146885000Y-98950000I185000J0D01*
G01*
G37*
%TD*%
D14*
%TO.C,Q1*%
X135850000Y-100200000D03*
X137750000Y-100200000D03*
X136800000Y-98200000D03*
%TD*%
D15*
%TO.C,U2*%
X151574999Y-98049999D03*
X151574999Y-99949998D03*
X148824999Y-99949998D03*
X148824999Y-99000000D03*
X148824999Y-98049999D03*
%TD*%
%TO.C,C10*%
G36*
G01*
X147365250Y-98362500D02*
X147034750Y-98362500D01*
G75*
G02*
X146895000Y-98222750I0J139750D01*
G01*
X146895000Y-97943250D01*
G75*
G02*
X147034750Y-97803500I139750J0D01*
G01*
X147365250Y-97803500D01*
G75*
G02*
X147505000Y-97943250I0J-139750D01*
G01*
X147505000Y-98222750D01*
G75*
G02*
X147365250Y-98362500I-139750J0D01*
G01*
G37*
G36*
G01*
X147365250Y-97396500D02*
X147034750Y-97396500D01*
G75*
G02*
X146895000Y-97256750I0J139750D01*
G01*
X146895000Y-96977250D01*
G75*
G02*
X147034750Y-96837500I139750J0D01*
G01*
X147365250Y-96837500D01*
G75*
G02*
X147505000Y-96977250I0J-139750D01*
G01*
X147505000Y-97256750D01*
G75*
G02*
X147365250Y-97396500I-139750J0D01*
G01*
G37*
%TD*%
D16*
%TO.C,M1*%
X179185000Y-103050000D03*
X179185000Y-96950000D03*
D17*
X169475000Y-96850000D03*
X169925000Y-96850000D03*
X170375000Y-96850000D03*
X170825000Y-96850000D03*
X171275000Y-96850000D03*
X171725000Y-96850000D03*
X172175000Y-96850000D03*
X172625000Y-96850000D03*
X173075000Y-96850000D03*
X173525000Y-96850000D03*
X173975000Y-96850000D03*
X174425000Y-96850000D03*
X174875000Y-96850000D03*
X175325000Y-96850000D03*
X175775000Y-96850000D03*
D18*
X168950000Y-96825000D03*
D19*
X168975000Y-97300000D03*
X168975000Y-97750000D03*
X168975000Y-98200000D03*
X168975000Y-98650000D03*
X168975000Y-99100000D03*
X168975000Y-99550000D03*
D18*
X168950000Y-103175000D03*
D19*
X168975000Y-102700000D03*
X168975000Y-102250000D03*
X168975000Y-101800000D03*
X168975000Y-101350000D03*
X168975000Y-100900000D03*
X168975000Y-100450000D03*
X168975000Y-100000000D03*
D17*
X169475000Y-103150000D03*
X169925000Y-103150000D03*
X170375000Y-103150000D03*
X170825000Y-103150000D03*
X171275000Y-103150000D03*
X171725000Y-103150000D03*
X172175000Y-103150000D03*
X172625000Y-103150000D03*
X173075000Y-103150000D03*
X173525000Y-103150000D03*
X173975000Y-103150000D03*
X174425000Y-103150000D03*
X174875000Y-103150000D03*
X175325000Y-103150000D03*
X175775000Y-103150000D03*
D18*
X176250000Y-96825000D03*
D19*
X176225000Y-97300000D03*
X176225000Y-97750000D03*
X176225000Y-98200000D03*
X176225000Y-98650000D03*
X176225000Y-99100000D03*
X176225000Y-99550000D03*
D18*
X176250000Y-103175000D03*
D19*
X176225000Y-102700000D03*
X176225000Y-102250000D03*
X176225000Y-101800000D03*
X176225000Y-101350000D03*
X176225000Y-100900000D03*
X176225000Y-100450000D03*
X176225000Y-100000000D03*
D20*
X170350000Y-101350000D03*
X171250000Y-101350000D03*
X172150000Y-101350000D03*
X173050000Y-101350000D03*
X173950000Y-101350000D03*
X174850000Y-101350000D03*
X170350000Y-100450000D03*
X171250000Y-100450000D03*
X172150000Y-100450000D03*
X173050000Y-100450000D03*
X173950000Y-100450000D03*
X174850000Y-100450000D03*
X170350000Y-99550000D03*
X171250000Y-99550000D03*
X172150000Y-99550000D03*
X173050000Y-99550000D03*
X173950000Y-99550000D03*
X174850000Y-99550000D03*
X170350000Y-98650000D03*
X171250000Y-98650000D03*
X172150000Y-98650000D03*
X173050000Y-98650000D03*
X173950000Y-98650000D03*
X174850000Y-98650000D03*
%TD*%
D21*
%TO.C,T3*%
X121300000Y-101400000D03*
X121300000Y-98600000D03*
D22*
X125500000Y-101250000D03*
X125500000Y-100750000D03*
X125500000Y-100250000D03*
X125500000Y-99750000D03*
X125500000Y-99250000D03*
X125500000Y-98750000D03*
X125500000Y-101750000D03*
X125500000Y-98250000D03*
D23*
X125500000Y-102350000D03*
X125500000Y-97650000D03*
X125500000Y-103100000D03*
X125500000Y-96900000D03*
%TD*%
D24*
%TO.C,U1*%
X129200000Y-99250000D03*
X129200000Y-99750000D03*
X129200000Y-100250000D03*
X127820000Y-100250000D03*
X127820000Y-99750000D03*
X127820000Y-99250000D03*
%TD*%
D25*
%TO.C,T1*%
X160710000Y-97590000D03*
X156650000Y-97590000D03*
X160710000Y-98860000D03*
X156650000Y-98860000D03*
X160710000Y-100130000D03*
X156650000Y-100130000D03*
X160710000Y-101400000D03*
X156650000Y-101400000D03*
X160710000Y-102670000D03*
X156650000Y-102670000D03*
%TD*%
D26*
%TO.C,SW1*%
X167700000Y-90200000D03*
X171100000Y-90200000D03*
%TD*%
%TO.C,R7*%
G36*
G01*
X142962500Y-101634750D02*
X142962500Y-101965250D01*
G75*
G02*
X142822750Y-102105000I-139750J0D01*
G01*
X142543250Y-102105000D01*
G75*
G02*
X142403500Y-101965250I0J139750D01*
G01*
X142403500Y-101634750D01*
G75*
G02*
X142543250Y-101495000I139750J0D01*
G01*
X142822750Y-101495000D01*
G75*
G02*
X142962500Y-101634750I0J-139750D01*
G01*
G37*
G36*
G01*
X141996500Y-101634750D02*
X141996500Y-101965250D01*
G75*
G02*
X141856750Y-102105000I-139750J0D01*
G01*
X141577250Y-102105000D01*
G75*
G02*
X141437500Y-101965250I0J139750D01*
G01*
X141437500Y-101634750D01*
G75*
G02*
X141577250Y-101495000I139750J0D01*
G01*
X141856750Y-101495000D01*
G75*
G02*
X141996500Y-101634750I0J-139750D01*
G01*
G37*
%TD*%
%TO.C,R6*%
G36*
G01*
X143490000Y-96085000D02*
X143490000Y-96715000D01*
G75*
G02*
X143305000Y-96900000I-185000J0D01*
G01*
X142935000Y-96900000D01*
G75*
G02*
X142750000Y-96715000I0J185000D01*
G01*
X142750000Y-96085000D01*
G75*
G02*
X142935000Y-95900000I185000J0D01*
G01*
X143305000Y-95900000D01*
G75*
G02*
X143490000Y-96085000I0J-185000D01*
G01*
G37*
G36*
G01*
X144850000Y-96085000D02*
X144850000Y-96715000D01*
G75*
G02*
X144665000Y-96900000I-185000J0D01*
G01*
X144295000Y-96900000D01*
G75*
G02*
X144110000Y-96715000I0J185000D01*
G01*
X144110000Y-96085000D01*
G75*
G02*
X144295000Y-95900000I185000J0D01*
G01*
X144665000Y-95900000D01*
G75*
G02*
X144850000Y-96085000I0J-185000D01*
G01*
G37*
%TD*%
%TO.C,R5*%
G36*
G01*
X170659750Y-94037500D02*
X170990250Y-94037500D01*
G75*
G02*
X171130000Y-94177250I0J-139750D01*
G01*
X171130000Y-94456750D01*
G75*
G02*
X170990250Y-94596500I-139750J0D01*
G01*
X170659750Y-94596500D01*
G75*
G02*
X170520000Y-94456750I0J139750D01*
G01*
X170520000Y-94177250D01*
G75*
G02*
X170659750Y-94037500I139750J0D01*
G01*
G37*
G36*
G01*
X170659750Y-95003500D02*
X170990250Y-95003500D01*
G75*
G02*
X171130000Y-95143250I0J-139750D01*
G01*
X171130000Y-95422750D01*
G75*
G02*
X170990250Y-95562500I-139750J0D01*
G01*
X170659750Y-95562500D01*
G75*
G02*
X170520000Y-95422750I0J139750D01*
G01*
X170520000Y-95143250D01*
G75*
G02*
X170659750Y-95003500I139750J0D01*
G01*
G37*
%TD*%
%TO.C,R4*%
G36*
G01*
X164412500Y-97234750D02*
X164412500Y-97565250D01*
G75*
G02*
X164272750Y-97705000I-139750J0D01*
G01*
X163993250Y-97705000D01*
G75*
G02*
X163853500Y-97565250I0J139750D01*
G01*
X163853500Y-97234750D01*
G75*
G02*
X163993250Y-97095000I139750J0D01*
G01*
X164272750Y-97095000D01*
G75*
G02*
X164412500Y-97234750I0J-139750D01*
G01*
G37*
G36*
G01*
X163446500Y-97234750D02*
X163446500Y-97565250D01*
G75*
G02*
X163306750Y-97705000I-139750J0D01*
G01*
X163027250Y-97705000D01*
G75*
G02*
X162887500Y-97565250I0J139750D01*
G01*
X162887500Y-97234750D01*
G75*
G02*
X163027250Y-97095000I139750J0D01*
G01*
X163306750Y-97095000D01*
G75*
G02*
X163446500Y-97234750I0J-139750D01*
G01*
G37*
%TD*%
%TO.C,R3*%
G36*
G01*
X162587500Y-101565250D02*
X162587500Y-101234750D01*
G75*
G02*
X162727250Y-101095000I139750J0D01*
G01*
X163006750Y-101095000D01*
G75*
G02*
X163146500Y-101234750I0J-139750D01*
G01*
X163146500Y-101565250D01*
G75*
G02*
X163006750Y-101705000I-139750J0D01*
G01*
X162727250Y-101705000D01*
G75*
G02*
X162587500Y-101565250I0J139750D01*
G01*
G37*
G36*
G01*
X163553500Y-101565250D02*
X163553500Y-101234750D01*
G75*
G02*
X163693250Y-101095000I139750J0D01*
G01*
X163972750Y-101095000D01*
G75*
G02*
X164112500Y-101234750I0J-139750D01*
G01*
X164112500Y-101565250D01*
G75*
G02*
X163972750Y-101705000I-139750J0D01*
G01*
X163693250Y-101705000D01*
G75*
G02*
X163553500Y-101565250I0J139750D01*
G01*
G37*
%TD*%
%TO.C,R2*%
G36*
G01*
X164112500Y-98694750D02*
X164112500Y-99025250D01*
G75*
G02*
X163972750Y-99165000I-139750J0D01*
G01*
X163693250Y-99165000D01*
G75*
G02*
X163553500Y-99025250I0J139750D01*
G01*
X163553500Y-98694750D01*
G75*
G02*
X163693250Y-98555000I139750J0D01*
G01*
X163972750Y-98555000D01*
G75*
G02*
X164112500Y-98694750I0J-139750D01*
G01*
G37*
G36*
G01*
X163146500Y-98694750D02*
X163146500Y-99025250D01*
G75*
G02*
X163006750Y-99165000I-139750J0D01*
G01*
X162727250Y-99165000D01*
G75*
G02*
X162587500Y-99025250I0J139750D01*
G01*
X162587500Y-98694750D01*
G75*
G02*
X162727250Y-98555000I139750J0D01*
G01*
X163006750Y-98555000D01*
G75*
G02*
X163146500Y-98694750I0J-139750D01*
G01*
G37*
%TD*%
%TO.C,R1*%
G36*
G01*
X164087500Y-102504750D02*
X164087500Y-102835250D01*
G75*
G02*
X163947750Y-102975000I-139750J0D01*
G01*
X163668250Y-102975000D01*
G75*
G02*
X163528500Y-102835250I0J139750D01*
G01*
X163528500Y-102504750D01*
G75*
G02*
X163668250Y-102365000I139750J0D01*
G01*
X163947750Y-102365000D01*
G75*
G02*
X164087500Y-102504750I0J-139750D01*
G01*
G37*
G36*
G01*
X163121500Y-102504750D02*
X163121500Y-102835250D01*
G75*
G02*
X162981750Y-102975000I-139750J0D01*
G01*
X162702250Y-102975000D01*
G75*
G02*
X162562500Y-102835250I0J139750D01*
G01*
X162562500Y-102504750D01*
G75*
G02*
X162702250Y-102365000I139750J0D01*
G01*
X162981750Y-102365000D01*
G75*
G02*
X163121500Y-102504750I0J-139750D01*
G01*
G37*
%TD*%
%TO.C,L1*%
G36*
G01*
X129100000Y-104125000D02*
X129100000Y-104675000D01*
G75*
G02*
X128900000Y-104875000I-200000J0D01*
G01*
X128500000Y-104875000D01*
G75*
G02*
X128300000Y-104675000I0J200000D01*
G01*
X128300000Y-104125000D01*
G75*
G02*
X128500000Y-103925000I200000J0D01*
G01*
X128900000Y-103925000D01*
G75*
G02*
X129100000Y-104125000I0J-200000D01*
G01*
G37*
G36*
G01*
X127700000Y-104125000D02*
X127700000Y-104675000D01*
G75*
G02*
X127500000Y-104875000I-200000J0D01*
G01*
X127100000Y-104875000D01*
G75*
G02*
X126900000Y-104675000I0J200000D01*
G01*
X126900000Y-104125000D01*
G75*
G02*
X127100000Y-103925000I200000J0D01*
G01*
X127500000Y-103925000D01*
G75*
G02*
X127700000Y-104125000I0J-200000D01*
G01*
G37*
%TD*%
%TO.C,D1*%
G36*
G01*
X144312500Y-98425000D02*
X143687500Y-98425000D01*
G75*
G02*
X143500000Y-98237500I0J187500D01*
G01*
X143500000Y-97862500D01*
G75*
G02*
X143687500Y-97675000I187500J0D01*
G01*
X144312500Y-97675000D01*
G75*
G02*
X144500000Y-97862500I0J-187500D01*
G01*
X144500000Y-98237500D01*
G75*
G02*
X144312500Y-98425000I-187500J0D01*
G01*
G37*
G36*
G01*
X144312500Y-99925000D02*
X143687500Y-99925000D01*
G75*
G02*
X143500000Y-99737500I0J187500D01*
G01*
X143500000Y-99362500D01*
G75*
G02*
X143687500Y-99175000I187500J0D01*
G01*
X144312500Y-99175000D01*
G75*
G02*
X144500000Y-99362500I0J-187500D01*
G01*
X144500000Y-99737500D01*
G75*
G02*
X144312500Y-99925000I-187500J0D01*
G01*
G37*
%TD*%
%TO.C,C9*%
G36*
G01*
X173965250Y-95512500D02*
X173634750Y-95512500D01*
G75*
G02*
X173495000Y-95372750I0J139750D01*
G01*
X173495000Y-95093250D01*
G75*
G02*
X173634750Y-94953500I139750J0D01*
G01*
X173965250Y-94953500D01*
G75*
G02*
X174105000Y-95093250I0J-139750D01*
G01*
X174105000Y-95372750D01*
G75*
G02*
X173965250Y-95512500I-139750J0D01*
G01*
G37*
G36*
G01*
X173965250Y-94546500D02*
X173634750Y-94546500D01*
G75*
G02*
X173495000Y-94406750I0J139750D01*
G01*
X173495000Y-94127250D01*
G75*
G02*
X173634750Y-93987500I139750J0D01*
G01*
X173965250Y-93987500D01*
G75*
G02*
X174105000Y-94127250I0J-139750D01*
G01*
X174105000Y-94406750D01*
G75*
G02*
X173965250Y-94546500I-139750J0D01*
G01*
G37*
%TD*%
%TO.C,C8*%
G36*
G01*
X152834750Y-97837500D02*
X153165250Y-97837500D01*
G75*
G02*
X153305000Y-97977250I0J-139750D01*
G01*
X153305000Y-98256750D01*
G75*
G02*
X153165250Y-98396500I-139750J0D01*
G01*
X152834750Y-98396500D01*
G75*
G02*
X152695000Y-98256750I0J139750D01*
G01*
X152695000Y-97977250D01*
G75*
G02*
X152834750Y-97837500I139750J0D01*
G01*
G37*
G36*
G01*
X152834750Y-98803500D02*
X153165250Y-98803500D01*
G75*
G02*
X153305000Y-98943250I0J-139750D01*
G01*
X153305000Y-99222750D01*
G75*
G02*
X153165250Y-99362500I-139750J0D01*
G01*
X152834750Y-99362500D01*
G75*
G02*
X152695000Y-99222750I0J139750D01*
G01*
X152695000Y-98943250D01*
G75*
G02*
X152834750Y-98803500I139750J0D01*
G01*
G37*
%TD*%
%TO.C,C7*%
G36*
G01*
X175165250Y-95512500D02*
X174834750Y-95512500D01*
G75*
G02*
X174695000Y-95372750I0J139750D01*
G01*
X174695000Y-95093250D01*
G75*
G02*
X174834750Y-94953500I139750J0D01*
G01*
X175165250Y-94953500D01*
G75*
G02*
X175305000Y-95093250I0J-139750D01*
G01*
X175305000Y-95372750D01*
G75*
G02*
X175165250Y-95512500I-139750J0D01*
G01*
G37*
G36*
G01*
X175165250Y-94546500D02*
X174834750Y-94546500D01*
G75*
G02*
X174695000Y-94406750I0J139750D01*
G01*
X174695000Y-94127250D01*
G75*
G02*
X174834750Y-93987500I139750J0D01*
G01*
X175165250Y-93987500D01*
G75*
G02*
X175305000Y-94127250I0J-139750D01*
G01*
X175305000Y-94406750D01*
G75*
G02*
X175165250Y-94546500I-139750J0D01*
G01*
G37*
%TD*%
%TO.C,C6*%
G36*
G01*
X168365250Y-95562500D02*
X168034750Y-95562500D01*
G75*
G02*
X167895000Y-95422750I0J139750D01*
G01*
X167895000Y-95143250D01*
G75*
G02*
X168034750Y-95003500I139750J0D01*
G01*
X168365250Y-95003500D01*
G75*
G02*
X168505000Y-95143250I0J-139750D01*
G01*
X168505000Y-95422750D01*
G75*
G02*
X168365250Y-95562500I-139750J0D01*
G01*
G37*
G36*
G01*
X168365250Y-94596500D02*
X168034750Y-94596500D01*
G75*
G02*
X167895000Y-94456750I0J139750D01*
G01*
X167895000Y-94177250D01*
G75*
G02*
X168034750Y-94037500I139750J0D01*
G01*
X168365250Y-94037500D01*
G75*
G02*
X168505000Y-94177250I0J-139750D01*
G01*
X168505000Y-94456750D01*
G75*
G02*
X168365250Y-94596500I-139750J0D01*
G01*
G37*
%TD*%
%TO.C,C5*%
G36*
G01*
X169565250Y-95562500D02*
X169234750Y-95562500D01*
G75*
G02*
X169095000Y-95422750I0J139750D01*
G01*
X169095000Y-95143250D01*
G75*
G02*
X169234750Y-95003500I139750J0D01*
G01*
X169565250Y-95003500D01*
G75*
G02*
X169705000Y-95143250I0J-139750D01*
G01*
X169705000Y-95422750D01*
G75*
G02*
X169565250Y-95562500I-139750J0D01*
G01*
G37*
G36*
G01*
X169565250Y-94596500D02*
X169234750Y-94596500D01*
G75*
G02*
X169095000Y-94456750I0J139750D01*
G01*
X169095000Y-94177250D01*
G75*
G02*
X169234750Y-94037500I139750J0D01*
G01*
X169565250Y-94037500D01*
G75*
G02*
X169705000Y-94177250I0J-139750D01*
G01*
X169705000Y-94456750D01*
G75*
G02*
X169565250Y-94596500I-139750J0D01*
G01*
G37*
%TD*%
%TO.C,C4*%
G36*
G01*
X167962500Y-104034750D02*
X167962500Y-104365250D01*
G75*
G02*
X167822750Y-104505000I-139750J0D01*
G01*
X167543250Y-104505000D01*
G75*
G02*
X167403500Y-104365250I0J139750D01*
G01*
X167403500Y-104034750D01*
G75*
G02*
X167543250Y-103895000I139750J0D01*
G01*
X167822750Y-103895000D01*
G75*
G02*
X167962500Y-104034750I0J-139750D01*
G01*
G37*
G36*
G01*
X166996500Y-104034750D02*
X166996500Y-104365250D01*
G75*
G02*
X166856750Y-104505000I-139750J0D01*
G01*
X166577250Y-104505000D01*
G75*
G02*
X166437500Y-104365250I0J139750D01*
G01*
X166437500Y-104034750D01*
G75*
G02*
X166577250Y-103895000I139750J0D01*
G01*
X166856750Y-103895000D01*
G75*
G02*
X166996500Y-104034750I0J-139750D01*
G01*
G37*
%TD*%
%TO.C,C3*%
G36*
G01*
X141310000Y-96715000D02*
X141310000Y-96085000D01*
G75*
G02*
X141495000Y-95900000I185000J0D01*
G01*
X141865000Y-95900000D01*
G75*
G02*
X142050000Y-96085000I0J-185000D01*
G01*
X142050000Y-96715000D01*
G75*
G02*
X141865000Y-96900000I-185000J0D01*
G01*
X141495000Y-96900000D01*
G75*
G02*
X141310000Y-96715000I0J185000D01*
G01*
G37*
G36*
G01*
X139950000Y-96715000D02*
X139950000Y-96085000D01*
G75*
G02*
X140135000Y-95900000I185000J0D01*
G01*
X140505000Y-95900000D01*
G75*
G02*
X140690000Y-96085000I0J-185000D01*
G01*
X140690000Y-96715000D01*
G75*
G02*
X140505000Y-96900000I-185000J0D01*
G01*
X140135000Y-96900000D01*
G75*
G02*
X139950000Y-96715000I0J185000D01*
G01*
G37*
%TD*%
%TO.C,C2*%
G36*
G01*
X145915000Y-98490000D02*
X145285000Y-98490000D01*
G75*
G02*
X145100000Y-98305000I0J185000D01*
G01*
X145100000Y-97935000D01*
G75*
G02*
X145285000Y-97750000I185000J0D01*
G01*
X145915000Y-97750000D01*
G75*
G02*
X146100000Y-97935000I0J-185000D01*
G01*
X146100000Y-98305000D01*
G75*
G02*
X145915000Y-98490000I-185000J0D01*
G01*
G37*
G36*
G01*
X145915000Y-99850000D02*
X145285000Y-99850000D01*
G75*
G02*
X145100000Y-99665000I0J185000D01*
G01*
X145100000Y-99295000D01*
G75*
G02*
X145285000Y-99110000I185000J0D01*
G01*
X145915000Y-99110000D01*
G75*
G02*
X146100000Y-99295000I0J-185000D01*
G01*
X146100000Y-99665000D01*
G75*
G02*
X145915000Y-99850000I-185000J0D01*
G01*
G37*
%TD*%
%TO.C,C1*%
G36*
G01*
X170837500Y-92165250D02*
X170837500Y-91834750D01*
G75*
G02*
X170977250Y-91695000I139750J0D01*
G01*
X171256750Y-91695000D01*
G75*
G02*
X171396500Y-91834750I0J-139750D01*
G01*
X171396500Y-92165250D01*
G75*
G02*
X171256750Y-92305000I-139750J0D01*
G01*
X170977250Y-92305000D01*
G75*
G02*
X170837500Y-92165250I0J139750D01*
G01*
G37*
G36*
G01*
X171803500Y-92165250D02*
X171803500Y-91834750D01*
G75*
G02*
X171943250Y-91695000I139750J0D01*
G01*
X172222750Y-91695000D01*
G75*
G02*
X172362500Y-91834750I0J-139750D01*
G01*
X172362500Y-92165250D01*
G75*
G02*
X172222750Y-92305000I-139750J0D01*
G01*
X171943250Y-92305000D01*
G75*
G02*
X171803500Y-92165250I0J139750D01*
G01*
G37*
%TD*%
M02*
