M48
; DRILL file {KiCad (5.1.9)-1} date 04/07/21 15:03:28
; FORMAT={-:-/ absolute / inch / decimal}
; #@! TF.CreationDate,2021-04-07T15:03:28-04:00
; #@! TF.GenerationSoftware,Kicad,Pcbnew,(5.1.9)-1
FMAT,2
INCH
T1C0.0150
T2C0.0157
T3C0.0256
T4C0.0402
T5C0.0236
T6C0.0248
%
G90
G05
T1
X4.7441Y-3.6909
X4.7539Y-4.1831
X4.8583Y-3.8425
X4.874Y-4.0079
X4.8819Y-3.5236
X4.9114Y-4.3504
X5.0Y-3.6772
X5.0Y-3.9272
X5.0551Y-3.7559
X5.0551Y-3.811
X5.126Y-3.9272
X5.1339Y-3.5827
X5.1339Y-4.1142
X5.1654Y-4.0866
X5.1654Y-4.1417
X5.2283Y-4.0315
X5.2362Y-3.9272
X5.2461Y-4.3012
X5.2835Y-3.8346
X5.3445Y-4.3012
X5.4252Y-3.9921
X5.4449Y-4.2992
X5.5295Y-4.0
X5.5413Y-4.0453
X5.5472Y-4.2992
X5.5669Y-3.9055
X5.578Y-3.748
X5.6457Y-4.2992
X5.6772Y-3.9606
X5.7323Y-3.8189
X5.7323Y-3.9525
X5.7461Y-4.3012
X5.7953Y-3.7874
X5.7953Y-4.0
X5.8465Y-4.3031
X5.9134Y-3.8976
X5.9449Y-4.3012
X6.0453Y-4.3012
X6.0551Y-3.8602
X6.0584Y-3.9009
X6.0886Y-3.9921
X6.0886Y-4.0421
X6.1457Y-4.3012
X6.25Y-3.8425
X6.25Y-4.0421
X6.25Y-4.3012
X6.3484Y-4.3012
X6.4075Y-3.937
X6.4094Y-3.7087
X6.4469Y-4.3012
X6.4567Y-3.9472
X6.4831Y-4.0421
X6.4862Y-3.9924
X6.4862Y-3.9131
X6.4921Y-3.8274
X6.5249Y-3.9131
X6.5287Y-4.1035
X6.5551Y-4.2697
X6.5551Y-4.3484
X6.5748Y-3.9961
X6.5827Y-4.0709
X6.5945Y-4.3091
X6.6226Y-3.6766
X6.623Y-4.0672
X6.6339Y-4.2697
X6.6339Y-4.3484
X6.6614Y-3.5512
X6.6654Y-4.1286
X6.6693Y-3.6772
X6.6732Y-4.3091
X6.6772Y-3.8839
X6.6772Y-3.9193
X6.6772Y-3.9547
X6.6772Y-3.9902
X6.685Y-3.8425
X6.6929Y-4.1102
X6.7126Y-4.2697
X6.7126Y-4.3484
X6.7165Y-4.1299
X6.7254Y-3.6772
X6.7421Y-3.8504
X6.7441Y-4.1102
X6.752Y-4.3091
X6.7677Y-4.1299
X6.7749Y-3.5873
X6.7776Y-3.8504
X6.7913Y-4.2697
X6.7913Y-4.3484
X6.7953Y-4.1102
X6.8012Y-3.7303
X6.813Y-3.8504
X6.8228Y-4.1299
X6.8307Y-4.2303
X6.8307Y-4.3091
X6.8406Y-3.6713
X6.8406Y-4.0236
X6.8465Y-4.1102
X6.8484Y-3.8504
X6.8484Y-3.9547
X6.8671Y-3.7795
X6.8701Y-4.1909
X6.8701Y-4.2697
X6.8701Y-4.3484
X6.874Y-4.1339
X6.8839Y-3.8504
X6.8898Y-3.6811
X6.9094Y-4.0157
X6.9094Y-4.1516
X6.9094Y-4.2303
X6.9094Y-4.3091
X6.9134Y-3.8839
X6.9213Y-3.7592
X6.9488Y-4.1122
X6.9488Y-4.1909
X6.9488Y-4.2677
X6.9488Y-4.3484
X6.9872Y-4.062
X6.9882Y-4.1516
X6.9882Y-4.2303
X6.9882Y-4.3091
X7.0276Y-4.1122
X7.0276Y-4.1909
X7.0276Y-4.2677
X7.0276Y-4.3484
X7.0669Y-4.1516
X7.0669Y-4.2303
X7.0669Y-4.3091
T2
X5.0059Y-3.8445
X5.0059Y-4.0295
T4
X4.9961Y-4.337
X5.0961Y-4.337
X5.1961Y-4.337
X5.2961Y-4.337
X5.3961Y-3.537
X5.3961Y-4.337
X5.4961Y-3.537
X5.4961Y-4.337
X5.5961Y-3.537
X5.5961Y-4.337
X5.6961Y-3.537
X5.6961Y-4.337
X5.7961Y-3.537
X5.7961Y-4.337
X5.8961Y-3.537
X5.8961Y-4.337
X5.9961Y-3.537
X5.9961Y-4.337
X6.0961Y-3.537
X6.0961Y-4.337
X6.1961Y-3.537
X6.1961Y-4.337
X6.2961Y-3.537
X6.2961Y-4.337
X6.3961Y-3.537
X6.3961Y-4.337
X6.4961Y-3.537
X6.4961Y-4.337
T5
X4.8976Y-4.0551
T6
X4.8976Y-3.8189
X4.8976Y-4.0551
T3
G00X4.8012Y-3.7669
M15
G01X4.75Y-3.7669
M16
G05
G00X4.8012Y-4.1071
M15
G01X4.75Y-4.1071
M16
G05
G00X4.9459Y-3.7669
M15
G01X4.9065Y-3.7669
M16
G05
G00X4.9459Y-4.1071
M15
G01X4.9065Y-4.1071
M16
G05
T0
M30
